<?xml version="1.0" standalone="no"?>
<!DOCTYPE svg PUBLIC "-//W3C//DTD SVG 1.1//EN" "http://www.w3.org/Graphics/SVG/1.1/DTD/svg11.dtd" >
<svg>
<metadata>
Created by FontForge 20090914 at Tue Jul 12 14:24:37 2022
 By www-data
Copyright 2019 The Lexend Project Authors (https://github.com/googlefonts/lexend)
</metadata>
<defs>
<font id="LexendDeca-Thin" horiz-adv-x="0" >
  <font-face 
    font-family="Lexend Deca Thin"
    font-weight="250"
    font-stretch="normal"
    units-per-em="1000"
    panose-1="0 0 0 0 0 0 0 0 0 0"
    ascent="800"
    descent="-200"
    x-height="525"
    cap-height="700"
    bbox="-169.999 -240 1266 1007"
    underline-thickness="50"
    underline-position="-75"
    unicode-range="U+000D-U+FB02"
  />
<missing-glyph horiz-adv-x="584" 
d="M75 0c-23.333 0 -35 11.667 -35 35v630c0 23.333 11.667 35 35 35h434c23.333 0 35 -11.667 35 -35v-630c0 -23.333 -11.667 -35 -35 -35h-434zM67 22l431.998 0.000976562c2 0 3.33301 0.666992 4 2s0.333984 2.66602 -0.999023 3.99902l-434 624
c-1.33301 2 -2.66602 2.83301 -3.99902 2.5s-2 -1.83301 -2 -4.5v-623c0 -3.33301 1.66699 -5 5 -5zM515.998 47.001c1.33301 -2 2.66797 -2.83398 4.00098 -2.50098s2 1.83301 2 4.5v624c0 3.33301 -1.66699 5 -5 5h-433c-2 0 -3.33301 -0.666992 -4 -2
s-0.333984 -2.66602 0.999023 -3.99902z" />
    <glyph glyph-name="fi" unicode="fi" horiz-adv-x="536" 
d="M140 0v626.003c0 29.333 4.33301 53.166 13 71.499s21 31.666 37 39.999s34.333 12.5 55 12.5c24 0 43.5 -3.83301 58.5 -11.5s27.167 -17.834 36.5 -30.501l-14 -15c-12 13.333 -24.5 22.5 -37.5 27.5s-28.167 7.5 -45.5 7.5c-16 0 -30 -3.16699 -42 -9.5
s-21.5 -17 -28.5 -32s-10.5 -35.5 -10.5 -61.5v-625h-8h-7.5h-6.5zM30 503.003v22h284v-22h-284zM427 0.00292969v525h22v-525h-22zM438 663.003c-9.33301 0 -16.333 2.66699 -21 8s-7 12.333 -7 21c0 8 2.33301 14.833 7 20.5s11.667 8.5 21 8.5
c8.66699 0 15.5 -2.66699 20.5 -8s7.5 -12.333 7.5 -21s-2.33301 -15.667 -7 -21s-11.667 -8 -21 -8z" />
    <glyph glyph-name="fl" unicode="fl" horiz-adv-x="546" 
d="M140 0v626.003c0 29.333 4.33301 53.166 13 71.499s21 31.666 37 39.999s34.333 12.5 55 12.5c24 0 43.5 -3.83301 58.5 -11.5s27.167 -17.834 36.5 -30.501l-14 -15c-12 13.333 -24.5 22.5 -37.5 27.5s-28.167 7.5 -45.5 7.5c-16 0 -30 -3.16699 -42 -9.5
s-21.5 -17 -28.5 -32s-10.5 -35.5 -10.5 -61.5v-625h-8h-7.5h-6.5zM30 503.003v22h284v-22h-284zM432 0.00292969v740h22v-740h-22z" />
    <glyph glyph-name="f_f" unicode="ff" horiz-adv-x="680" 
d="M140 0v626.003c0 29.333 4.33301 53.166 13 71.499s21 31.666 37 39.999s34.333 12.5 55 12.5c24 0 43.5 -3.83301 58.5 -11.5s27.167 -17.834 36.5 -30.501l-14 -15c-12 13.333 -24.5 22.5 -37.5 27.5s-28.167 7.5 -45.5 7.5c-16 0 -30 -3.16699 -42 -9.5
s-21.5 -17 -28.5 -32s-10.5 -35.5 -10.5 -61.5v-625h-8h-7.5h-6.5zM30 503.003v22h284v-22h-284zM480 0.00292969v626.003c0 29.333 4.33301 53.166 13 71.499s21 31.666 37 39.999s34.333 12.5 55 12.5c24 0 43.5 -3.83301 58.5 -11.5s27.167 -17.834 36.5 -30.501l-14 -15
c-12 13.333 -24.5 22.5 -37.5 27.5s-28.167 7.5 -45.5 7.5c-16 0 -30 -3.16699 -42 -9.5s-21.5 -17 -28.5 -32s-10.5 -35.5 -10.5 -61.5v-625h-8h-7.5h-6.5zM370 503.006v22h284v-22h-284z" />
    <glyph glyph-name="f_f_i" unicode="ffi" horiz-adv-x="876" 
d="M140 0v626.003c0 29.333 4.33301 53.166 13 71.499s21 31.666 37 39.999s34.333 12.5 55 12.5c24 0 43.5 -3.83301 58.5 -11.5s27.167 -17.834 36.5 -30.501l-14 -15c-12 13.333 -24.5 22.5 -37.5 27.5s-28.167 7.5 -45.5 7.5c-16 0 -30 -3.16699 -42 -9.5
s-21.5 -17 -28.5 -32s-10.5 -35.5 -10.5 -61.5v-625h-8h-7.5h-6.5zM30 503.003v22h284v-22h-284zM480 0.00292969v626.003c0 29.333 4.33301 53.166 13 71.499s21 31.666 37 39.999s34.333 12.5 55 12.5c24 0 43.5 -3.83301 58.5 -11.5s27.167 -17.834 36.5 -30.501l-14 -15
c-12 13.333 -24.5 22.5 -37.5 27.5s-28.167 7.5 -45.5 7.5c-16 0 -30 -3.16699 -42 -9.5s-21.5 -17 -28.5 -32s-10.5 -35.5 -10.5 -61.5v-625h-8h-7.5h-6.5zM370 503.006v22h284v-22h-284zM767 0.00585938v525h22v-525h-22zM778 663.006c-9.33301 0 -16.333 2.66699 -21 8
s-7 12.333 -7 21c0 8 2.33301 14.833 7 20.5s11.667 8.5 21 8.5c8.66699 0 15.5 -2.66699 20.5 -8s7.5 -12.333 7.5 -21s-2.33301 -15.667 -7 -21s-11.667 -8 -21 -8z" />
    <glyph glyph-name="f_f_l" unicode="ffl" horiz-adv-x="886" 
d="M140 0v626.003c0 29.333 4.33301 53.166 13 71.499s21 31.666 37 39.999s34.333 12.5 55 12.5c24 0 43.5 -3.83301 58.5 -11.5s27.167 -17.834 36.5 -30.501l-14 -15c-12 13.333 -24.5 22.5 -37.5 27.5s-28.167 7.5 -45.5 7.5c-16 0 -30 -3.16699 -42 -9.5
s-21.5 -17 -28.5 -32s-10.5 -35.5 -10.5 -61.5v-625h-8h-7.5h-6.5zM30 503.003v22h284v-22h-284zM480 0.00292969v626.003c0 29.333 4.33301 53.166 13 71.499s21 31.666 37 39.999s34.333 12.5 55 12.5c24 0 43.5 -3.83301 58.5 -11.5s27.167 -17.834 36.5 -30.501l-14 -15
c-12 13.333 -24.5 22.5 -37.5 27.5s-28.167 7.5 -45.5 7.5c-16 0 -30 -3.16699 -42 -9.5s-21.5 -17 -28.5 -32s-10.5 -35.5 -10.5 -61.5v-625h-8h-7.5h-6.5zM370 503.006v22h284v-22h-284zM772 0.00585938v740h22v-740h-22z" />
    <glyph glyph-name=".notdef" horiz-adv-x="584" 
d="M75 0c-23.333 0 -35 11.667 -35 35v630c0 23.333 11.667 35 35 35h434c23.333 0 35 -11.667 35 -35v-630c0 -23.333 -11.667 -35 -35 -35h-434zM67 22l431.998 0.000976562c2 0 3.33301 0.666992 4 2s0.333984 2.66602 -0.999023 3.99902l-434 624
c-1.33301 2 -2.66602 2.83301 -3.99902 2.5s-2 -1.83301 -2 -4.5v-623c0 -3.33301 1.66699 -5 5 -5zM515.998 47.001c1.33301 -2 2.66797 -2.83398 4.00098 -2.50098s2 1.83301 2 4.5v624c0 3.33301 -1.66699 5 -5 5h-433c-2 0 -3.33301 -0.666992 -4 -2
s-0.333984 -2.66602 0.999023 -3.99902z" />
    <glyph glyph-name="CR" unicode="&#xd;" horiz-adv-x="277" 
 />
    <glyph glyph-name="space" unicode=" " horiz-adv-x="280" 
 />
    <glyph glyph-name="exclam" unicode="!" horiz-adv-x="254" 
d="M124 241l-2.00098 63.5c-0.666992 21.667 -1.16699 43.334 -1.5 65.001s-0.166016 43.834 0.500977 66.501v264h22l1 -264c0 -22.667 -0.166992 -44.834 -0.5 -66.501s-0.833008 -43.334 -1.5 -65.001l-2 -63.5h-16zM128.999 -8c-10 0 -17.667 3.16602 -23 9.49902
s-8 15.166 -8 26.499c0 10.667 2.83301 19.334 8.5 26.001s13.167 10 22.5 10c10.667 0 18.5 -3.16699 23.5 -9.5s7.5 -15.166 7.5 -26.499c0 -10 -2.66699 -18.5 -8 -25.5s-13 -10.5 -23 -10.5z" />
    <glyph glyph-name="quotedbl" unicode="&#x22;" horiz-adv-x="328" 
d="M173 442l48 258h27l-58 -258h-17zM80 442l48 258h27l-58 -258h-17z" />
    <glyph glyph-name="numbersign" unicode="#" horiz-adv-x="687" 
d="M411 0l120 700h22l-120 -700h-22zM41 216v22h568v-22h-568zM132 0l120 700h22l-120 -700h-22zM79 475v22h567v-22h-567z" />
    <glyph glyph-name="dollar" unicode="$" horiz-adv-x="566" 
d="M297 -10c-48 0 -93.6709 9.00293 -137.004 27.0029s-78.333 43 -105 75l13 18c27.333 -32 60.5 -56.333 99.5 -73s82.5 -25 130.5 -25c37.333 0 71.666 7.16699 102.999 21.5s56.333 33.666 75 57.999s28 51.5 28 81.5c0 20 -3.16699 37.333 -9.5 52
s-15.666 27.667 -27.999 39s-27 21.5 -44 30.5s-36.333 17.667 -58 26l-70.5 26.5c-46 16.667 -84.333 32.5 -115 47.5s-53.5 32.833 -68.5 53.5s-22.5 47.667 -22.5 81c0 26 5.33301 49.833 16 71.5s25.334 40 44.001 55s40.834 26.667 66.501 35s53.5 12.5 83.5 12.5
c52 0 94.833 -10 128.5 -30s61.167 -42.667 82.5 -68l-15 -15c-19.333 22.667 -45.666 43.5 -78.999 62.5s-72 28.5 -116 28.5c-36.667 0 -69.167 -6.5 -97.5 -19.5s-50.666 -31.167 -66.999 -54.5s-24.5 -50.333 -24.5 -81c0 -20 3.83301 -37.333 11.5 -52
s19.334 -27.834 35.001 -39.501s36 -23 61 -34s54.833 -22.5 89.5 -34.5s65.5 -23.667 92.5 -35s50 -23.833 69 -37.5s33.333 -30.334 43 -50.001s14.5 -44.167 14.5 -73.5c0 -34 -10.333 -64.5 -31 -91.5s-48.334 -48.5 -83.001 -64.5s-73 -24 -115 -24zM287.996 -90.9971
v450l22 -5v-445h-22zM309.996 359.003l-22 4v419h22v-423z" />
    <glyph glyph-name="percent" unicode="%" horiz-adv-x="831" 
d="M172 0l465 700h27l-465 -700h-27zM193 329c-30 0 -56.502 8.16895 -79.502 24.502s-41 38.666 -54 66.999s-19.5 60.833 -19.5 97.5s6.5 69.5 19.5 98.5s31 51.667 54 68s49.5 24.5 79.5 24.5s56.5 -8.16699 79.5 -24.5s41.167 -39 54.5 -68s20 -61.833 20 -98.5
c0 -35.333 -6.66699 -67.333 -20 -96s-31.666 -51.334 -54.999 -68.001s-49.666 -25 -78.999 -25zM192.998 350.002c24.667 0 47 7.00098 67 21.001s35.833 33.667 47.5 59s17.5 54.666 17.5 87.999c0 34 -5.66699 63.667 -17 89s-26.833 45.166 -46.5 59.499
s-42.5 21.5 -68.5 21.5c-25.333 0 -47.833 -7.16699 -67.5 -21.5s-35.167 -34.333 -46.5 -60s-17 -55.167 -17 -88.5s5.66699 -62.666 17 -87.999s26.833 -45 46.5 -59s42.167 -21 67.5 -21zM636.998 -8.99707c-30 0 -56.502 8.16895 -79.502 24.502s-41 38.666 -54 66.999
s-19.5 60.833 -19.5 97.5s6.5 69.5 19.5 98.5s31 51.667 54 68s49.5 24.5 79.5 24.5s56.5 -8.16699 79.5 -24.5s41.167 -39 54.5 -68s20 -61.833 20 -98.5c0 -35.333 -6.66699 -67.333 -20 -96s-31.666 -51.334 -54.999 -68.001s-49.666 -25 -78.999 -25zM636.996 12.0049
c24.667 0 47 7.00098 67 21.001s35.833 33.667 47.5 59s17.5 54.666 17.5 87.999c0 34 -5.66699 63.667 -17 89s-26.833 45.166 -46.5 59.499s-42.5 21.5 -68.5 21.5c-25.333 0 -47.833 -7.16699 -67.5 -21.5s-35.167 -34.333 -46.5 -60s-17 -55.167 -17 -88.5
s5.66699 -62.666 17 -87.999s26.833 -45 46.5 -59s42.167 -21 67.5 -21z" />
    <glyph glyph-name="ampersand" unicode="&#x26;" horiz-adv-x="656" 
d="M540 0l-49 52.998l-13 13l-225 243c-26 28 -47 51.667 -63 71s-28.667 36.5 -38 51.5s-15.666 29.833 -18.999 44.5s-5 31.334 -5 50.001c0 34.667 8.16699 65.334 24.5 92.001s39.166 47.5 68.499 62.5s63.333 22.5 102 22.5c30 0 56.833 -4.83301 80.5 -14.5
s44 -23.667 61 -42s31.167 -41.166 42.5 -68.499l-19 -11c-18 40 -40 69 -66 87s-59 27 -99 27c-35.333 0 -65.833 -6.66699 -91.5 -20s-45.5 -31.5 -59.5 -54.5s-21 -49.167 -21 -78.5c0 -16.667 1.5 -31.334 4.5 -44.001s8.16699 -25.5 15.5 -38.5
s17.833 -27.5 31.5 -43.5l52.5 -59l243 -265l7 -8l64 -70h-29zM315 -10.002c-52.667 0 -98.833 9.33691 -138.5 28.0039s-70.667 45.167 -93 79.5s-33.5 75.5 -33.5 123.5c0 41.333 11.167 79.833 33.5 115.5s55.5 64.167 99.5 85.5l12 -18
c-37.333 -16.667 -67 -41.667 -89 -75s-33 -69.333 -33 -108c0 -40.667 10.5 -76.834 31.5 -108.501s50 -56.334 87 -74.001s79.5 -26.5 127.5 -26.5c40.667 0 77.834 7.33301 111.501 22s63.167 36 88.5 64s46 61.5 62 100.5s27 82.5 33 130.5h22
c-4.66699 -40 -12.834 -77.5 -24.501 -112.5s-26.667 -66.333 -45 -94s-40 -51.334 -65 -71.001s-53 -34.834 -84 -45.501s-65.167 -16 -102.5 -16z" />
    <glyph glyph-name="quotesingle" unicode="'" horiz-adv-x="187" 
d="M56 442l38 258h27l-47 -258h-18z" />
    <glyph glyph-name="parenleft" unicode="(" horiz-adv-x="335" 
d="M310 -186c-81.333 50.667 -143.333 113.999 -186 189.999s-64 160.667 -64 254c0 92.667 21.5 177.167 64.5 253.5s105.167 139.833 186.5 190.5l14 -17c-80.667 -52.667 -141.167 -115 -181.5 -187s-60.5 -152 -60.5 -240c0 -86.667 19.333 -165.667 58 -237
s100 -134.666 184 -189.999z" />
    <glyph glyph-name="parenright" unicode=")" horiz-adv-x="335" 
d="M24 -186l-14 17.001c80.667 52.667 141.167 115 181.5 187s60.5 152 60.5 240c0 86.667 -19.333 165.667 -58 237s-100 134.666 -184 189.999l15 17c81.333 -50.667 143.333 -114 186 -190s64 -160.667 64 -254c0 -92.667 -21.5 -177.167 -64.5 -253.5
s-105.167 -139.833 -186.5 -190.5z" />
    <glyph glyph-name="asterisk" unicode="*" horiz-adv-x="402" 
d="M187 376l4 160l10 -5l-135 -76l-13 20l142 70l1 -14l-143 72l13 22l137 -81l-12 -16l-4 172h24l-4 -161l-14 4l141 82l13 -22l-139 -69v11l139 -70l-13 -20l-135 77l8 2l4 -158h-24z" />
    <glyph glyph-name="plus" unicode="+" horiz-adv-x="590" 
d="M60 277v22h470v-22h-470zM306 42h-22v483h22v-483z" />
    <glyph glyph-name="comma" unicode="," horiz-adv-x="216" 
d="M86 -122l-9.00195 11.999c12.667 14 23.334 27.667 32.001 41s13 24.333 13 33c0 10.667 -2.5 18 -7.5 22s-12.167 7.66699 -21.5 11c-5.33301 2 -9.83301 5.5 -13.5 10.5s-5.5 11.167 -5.5 18.5c0 8 2.5 14.667 7.5 20s12.5 8 22.5 8s18.333 -2.33301 25 -7
s11.834 -11.5 15.501 -20.5s5.5 -20.167 5.5 -33.5c0 -11.333 -1.16699 -21.666 -3.5 -30.999s-6 -18.333 -11 -27s-11.5 -17.5 -19.5 -26.5s-18 -19.167 -30 -30.5z" />
    <glyph glyph-name="hyphen" unicode="-" horiz-adv-x="394" 
d="M60 263v22h274v-22h-274z" />
    <glyph glyph-name="period" unicode="." horiz-adv-x="228" 
d="M114 -5c-9.33301 0 -16.666 2.66699 -21.999 8s-8 13 -8 23c0 9.33301 2.66699 16.833 8 22.5s12.666 8.5 21.999 8.5s16.666 -2.66699 21.999 -8s8 -13 8 -23c0 -8.66699 -2.66699 -16 -8 -22s-12.666 -9 -21.999 -9z" />
    <glyph glyph-name="slash" unicode="/" horiz-adv-x="566" 
d="M75 -95l394 795h24l-394 -795h-24z" />
    <glyph glyph-name="zero" unicode="0" horiz-adv-x="620" 
d="M310 -10c-56 0 -103.167 13.667 -141.5 41s-67.333 67.833 -87 121.5s-29.5 119.5 -29.5 197.5s9.83301 143.833 29.5 197.5s48.667 94.167 87 121.5s85.5 41 141.5 41s103.167 -13.667 141.5 -41s67.333 -67.833 87 -121.5s29.5 -119.5 29.5 -197.5
s-9.83301 -143.833 -29.5 -197.5s-48.667 -94.167 -87 -121.5s-85.5 -41 -141.5 -41zM310 12c76 0 134.167 29.167 174.5 87.5s60.5 141.833 60.5 250.5s-20.167 192.167 -60.5 250.5s-98.5 87.5 -174.5 87.5c-75.333 0 -133.333 -29.167 -174 -87.5
s-61 -141.833 -61 -250.5s20.333 -192.167 61 -250.5s98.667 -87.5 174 -87.5z" />
    <glyph glyph-name="one" unicode="1" horiz-adv-x="379" 
d="M179 8v670h5l-139 -93l-6 20l152 105h10v-702h-22zM62 0v22h257v-22h-257z" />
    <glyph glyph-name="two" unicode="2" horiz-adv-x="548" 
d="M78 0l-6 13.0029l290 310l34 39.5c12.667 15 24.667 31.833 36 50.5s20.666 38.167 27.999 58.5s11 41.5 11 63.5c0 28.667 -8.16699 54.667 -24.5 78s-38.666 41.666 -66.999 54.999s-60.5 20 -96.5 20c-26.667 0 -53.334 -5.33301 -80.001 -16
s-51.167 -28.667 -73.5 -54s-39.833 -60 -52.5 -104l-21 10c12.667 43.333 30.334 78.666 53.001 105.999s49 47.5 79 60.5s62.333 19.5 97 19.5c39.333 0 74.666 -7.5 105.999 -22.5s56.333 -35.5 75 -61.5s28 -56 28 -90c0 -17.333 -2.16699 -34.5 -6.5 -51.5
s-10 -33.167 -17 -48.5s-15.167 -30.333 -24.5 -45s-19.166 -28.334 -29.499 -41.001s-20.833 -24.667 -31.5 -36l-291 -310v18h412v-22h-428z" />
    <glyph glyph-name="three" unicode="3" horiz-adv-x="529" 
d="M264 -10c-49.333 0 -94.333 11.166 -135 33.499s-77 60.5 -109 114.5l20 12c22 -36.667 45 -65 69 -85s49 -33.833 75 -41.5s53.333 -11.5 82 -11.5c39.333 0 74.333 9.5 105 28.5s54.834 44.5 72.501 76.5s26.5 67 26.5 105s-8.5 72.167 -25.5 102.5
s-39.833 54.333 -68.5 72s-60.667 26.5 -96 26.5c-14 0 -28.5 -1.16699 -43.5 -3.5s-30.5 -7.83301 -46.5 -16.5s-32.333 -22.667 -49 -42l-14 22l317 304v-9h-355v22h363l13 -24l-290 -276l-10 6c17.333 12.667 34.5 22.334 51.5 29.001s38.167 10 63.5 10
c31.333 0 59.833 -5.5 85.5 -16.5s48.167 -26.333 67.5 -46s34.166 -43.167 44.499 -70.5s15.5 -57.333 15.5 -90c0 -42.667 -10 -81.5 -30 -116.5s-47.333 -63 -82 -84s-73.667 -31.5 -117 -31.5z" />
    <glyph glyph-name="four" unicode="4" horiz-adv-x="620" 
d="M434 0v681h14l-391 -477l-3 8h524v-22h-532l-11 22l401 488h20v-700h-22z" />
    <glyph glyph-name="five" unicode="5" horiz-adv-x="568" 
d="M257 -10c-46 0 -87.4951 10.833 -124.495 32.5s-68.167 52.5 -93.5 92.5l19 18c23.333 -40 53.166 -70.167 89.499 -90.5s73.166 -30.5 110.499 -30.5c42.667 0 81.167 10.167 115.5 30.5s61.5 47.666 81.5 81.999s30 72.5 30 114.5c0 36.667 -8.83301 70.5 -26.5 101.5
s-41.834 55.667 -72.501 74s-65.667 27.5 -105 27.5c-24 0 -48.333 -3.5 -73 -10.5s-48.334 -16.667 -71.001 -29s-42.334 -26.166 -59.001 -41.499l-13 16l46 323h376v-22h-371l15 12l-44 -311l-10 8c19.333 15.333 39.833 28.833 61.5 40.5s44.5 20.667 68.5 27
s49 9.5 75 9.5c42.667 0 81 -9.66699 115 -29s61 -46 81 -80s30 -73.333 30 -118c0 -46.667 -11 -88.667 -33 -126s-52 -66.833 -90 -88.5s-80.667 -32.5 -128 -32.5z" />
    <glyph glyph-name="six" unicode="6" horiz-adv-x="605" 
d="M295 -10c-31.333 0 -60.666 5.99902 -87.999 17.999s-51.5 28.667 -72.5 50s-37.333 46.833 -49 76.5s-17.5 62.5 -17.5 98.5c-0.666992 19.333 0.5 39.333 3.5 60s8.16699 42.334 15.5 65.001s16.666 46 27.999 70s25 48.333 41 73l132 199h22l2 -5l-129 -194
c-18 -27.333 -33.833 -53.833 -47.5 -79.5s-24.167 -48.834 -31.5 -69.501s-11 -37 -11 -49l-6 3c12 25.333 25.5 47.333 40.5 66s31.333 34.167 49 46.5s36.5 21.5 56.5 27.5s40.667 9 62 9c42.667 0 81.167 -10.167 115.5 -30.5s61.666 -48.166 81.999 -83.499
s30.5 -75 30.5 -119c0 -43.333 -10.167 -82.5 -30.5 -117.5s-47.666 -62.833 -81.999 -83.5s-72.833 -31 -115.5 -31zM298 11.999c37.333 0 71.333 9.33105 102 27.998s55 44 73 76s27 67.667 27 107s-9 74.833 -27 106.5s-42.333 56.834 -73 75.501s-64.667 28 -102 28
c-38.667 0 -73.5 -9.5 -104.5 -28.5s-55.667 -44.5 -74 -76.5s-27.5 -67.667 -27.5 -107s9.16699 -74.666 27.5 -105.999s43 -56.333 74 -75s65.833 -28 104.5 -28z" />
    <glyph glyph-name="seven" unicode="7" horiz-adv-x="466" 
d="M98 0l308 693l8 -15h-414v22h408l16 -20l-301 -680h-25z" />
    <glyph glyph-name="eight" unicode="8" horiz-adv-x="580" 
d="M290 -3c-43.333 0 -82.834 8.66797 -118.501 26.001s-64 40.833 -85 70.5s-31.5 62.834 -31.5 99.501c0 24 4 46.333 12 67s19.333 39.334 34 56.001s32.834 31 54.501 43s46.167 21 73.5 27l4 -12c-22.667 3.33301 -43 9.83301 -61 19.5s-33.5 21.834 -46.5 36.501
s-22.833 30.667 -29.5 48s-10 34.666 -10 51.999c0 35.333 9.16699 66.5 27.5 93.5s42.833 48.167 73.5 63.5s65 23 103 23s72.5 -7.66699 103.5 -23s55.667 -36.5 74 -63.5s27.5 -58.167 27.5 -93.5c0 -17.333 -3.33301 -34.5 -10 -51.5s-16.5 -32.667 -29.5 -47
s-28.5 -26.5 -46.5 -36.5s-38.667 -17 -62 -21l4 12c25.333 -6 48.833 -14.833 70.5 -26.5s40.167 -25.834 55.5 -42.501s27.333 -35.334 36 -56.001s13 -43.334 13 -68.001c0 -37.333 -10.5 -70.833 -31.5 -100.5s-49.333 -53 -85 -70s-75.5 -25.5 -119.5 -25.5z
M289.999 19.001c39.333 0 74.999 8 106.999 24s57.667 37.167 77 63.5s29 54.5 29 84.5c0 34.667 -9.16699 65.334 -27.5 92.001s-43.666 47.5 -75.999 62.5s-68.833 22.5 -109.5 22.5s-77 -7.5 -109 -22.5s-57.167 -35.833 -75.5 -62.5s-27.5 -57.334 -27.5 -92.001
c0 -30 9.66699 -58 29 -84s45 -47.167 77 -63.5s67.333 -24.5 106 -24.5zM289.998 388.001c35.333 0 66.666 6.33398 93.999 19.001s48.833 30.167 64.5 52.5s23.5 48.166 23.5 77.499c0 28 -7.83301 53.333 -23.5 76s-37.167 40.834 -64.5 54.501
s-58.666 20.5 -93.999 20.5c-34.667 0 -65.667 -6.83301 -93 -20.5s-48.833 -31.834 -64.5 -54.501s-23.5 -48 -23.5 -76c0 -28.667 7.83301 -54.167 23.5 -76.5s37.167 -40 64.5 -53s58.333 -19.5 93 -19.5z" />
    <glyph glyph-name="nine" unicode="9" horiz-adv-x="548" 
d="M270 0l-2.00488 5.00098l210 379l3 3c-12.667 -24 -26.5 -45 -41.5 -63s-31.167 -32.833 -48.5 -44.5s-35.666 -20.334 -54.999 -26.001s-39.666 -8.5 -60.999 -8.5c-42.667 0 -81.167 10.333 -115.5 31s-61.666 48.5 -81.999 83.5s-30.5 74.5 -30.5 118.5
c0 43.333 10.167 82.5 30.5 117.5s47.666 62.833 81.999 83.5s72.833 31 115.5 31c31.333 0 60.833 -5.66699 88.5 -17s51.834 -27.5 72.501 -48.5s36.834 -45.667 48.501 -74s17.5 -59.833 17.5 -94.5c0 -23.333 -2.66699 -46.5 -8 -69.5s-12.666 -46 -21.999 -69
s-20 -46 -32 -69l-37 -69.5l-111 -199h-22zM271.995 267.001c38.667 0 73.5 9.50195 104.5 28.502s55.667 44.5 74 76.5s27.5 67.667 27.5 107s-9.16699 74.666 -27.5 105.999s-43 56.333 -74 75s-65.833 28 -104.5 28c-37.333 0 -71.333 -9.33301 -102 -28s-55 -44 -73 -76
s-27 -67.667 -27 -107s9 -74.833 27 -106.5s42.333 -56.834 73 -75.501s64.667 -28 102 -28z" />
    <glyph glyph-name="colon" unicode=":" horiz-adv-x="228" 
d="M114 -6c-9.33301 0 -16.666 2.66699 -21.999 8s-8 13 -8 23c0 9.33301 2.66699 16.833 8 22.5s12.666 8.5 21.999 8.5s16.666 -2.66699 21.999 -8s8 -13 8 -23c0 -8.66699 -2.66699 -16 -8 -22s-12.666 -9 -21.999 -9zM114 458c-9.33301 0 -16.666 2.66699 -21.999 8
s-8 13 -8 23c0 9.33301 2.66699 16.833 8 22.5s12.666 8.5 21.999 8.5s16.666 -2.66699 21.999 -8s8 -13 8 -23c0 -8.66699 -2.66699 -16 -8 -22s-12.666 -9 -21.999 -9z" />
    <glyph glyph-name="semicolon" unicode=";" horiz-adv-x="226" 
d="M96 -122l-9.00195 11.999c12.667 14 23.334 27.667 32.001 41s13 24.333 13 33c0 10.667 -2.5 18 -7.5 22s-12.167 7.66699 -21.5 11c-5.33301 2 -9.83301 5.5 -13.5 10.5s-5.5 11.167 -5.5 18.5c0 8 2.5 14.667 7.5 20s12.5 8 22.5 8s18.333 -2.33301 25 -7
s11.834 -11.5 15.501 -20.5s5.5 -20.167 5.5 -33.5c0 -11.333 -1.16699 -21.666 -3.5 -30.999s-6 -18.333 -11 -27s-11.5 -17.5 -19.5 -26.5s-18 -19.167 -30 -30.5zM125.998 457.999c-9.33301 0 -16.666 2.66699 -21.999 8s-8 13 -8 23c0 9.33301 2.66699 16.833 8 22.5
s12.666 8.5 21.999 8.5s16.666 -2.66699 21.999 -8s8 -13 8 -23c0 -8.66699 -2.66699 -16 -8 -22s-12.666 -9 -21.999 -9z" />
    <glyph glyph-name="less" unicode="&#x3c;" horiz-adv-x="472" 
d="M404 36l-356 204v26l356 204l12 -20l-346 -200v6l346 -200z" />
    <glyph glyph-name="equal" unicode="=" horiz-adv-x="566" 
d="M65 347v24h436v-24h-436zM65 190v24h436v-24h-436z" />
    <glyph glyph-name="greater" unicode="&#x3e;" horiz-adv-x="470" 
d="M68 36l-12 20l346 200v-6l-346 200l12 20l356 -204v-26z" />
    <glyph glyph-name="question" unicode="?" horiz-adv-x="438" 
d="M186 146l-2 168.993c24.667 6 47.167 13.833 67.5 23.5s38.166 20.834 53.499 33.501s28.166 26.834 38.499 42.501s18.166 32.5 23.499 50.5s8 37 8 57c0 28.667 -7 55.667 -21 81s-34 45.833 -60 61.5s-57 23.5 -93 23.5c-38.667 0 -74.5 -10.667 -107.5 -32
s-58.167 -57.666 -75.5 -108.999l-18 12c15.333 48.667 41 86 77 112s77 39 123 39c39.333 0 73.833 -8.33301 103.5 -25s52.834 -39.167 69.501 -67.5s25 -60.166 25 -95.499c0 -26.667 -4.5 -51.667 -13.5 -75s-21.667 -44.666 -38 -63.999
s-36.166 -36.166 -59.499 -50.499s-49.666 -25.166 -78.999 -32.499l-2 -154h-20zM174 19.9932c0 8.66699 2.33301 15.833 7 21.5s11 8.5 19 8.5c9.33301 0 16 -2.66699 20 -8s6 -12.666 6 -21.999c0 -8 -2.16699 -15 -6.5 -21s-10.833 -9 -19.5 -9s-15.167 2.66699 -19.5 8
s-6.5 12.666 -6.5 21.999z" />
    <glyph glyph-name="at" unicode="@" horiz-adv-x="986" 
d="M424 -162c-54 0 -103.672 9.33594 -149.005 28.0029s-84.333 45 -117 79s-58 74.667 -76 122s-27 99.666 -27 156.999c0 64.667 11.833 126.167 35.5 184.5s57.167 110.166 100.5 155.499s95.166 81 155.499 107s126.833 39 199.5 39c56.667 0 108.5 -8 155.5 -24
s87.667 -38.667 122 -68s60.833 -63.833 79.5 -103.5s28 -83.167 28 -130.5c0 -52 -6.66699 -98.167 -20 -138.5s-31.166 -74.833 -53.499 -103.5s-47.333 -50.334 -75 -65.001s-55.5 -22 -83.5 -22c-20 0 -35.667 3.5 -47 10.5s-19.333 16 -24 27s-7 22.833 -7 35.5
c0 13.333 2.16699 27.833 6.5 43.5s10.5 34.834 18.5 57.501l10 -11c-11.333 -33.333 -27.666 -62.166 -48.999 -86.499s-46 -43.166 -74 -56.499s-58 -20 -90 -20c-32.667 0 -61.667 7.33301 -87 22s-45.333 35.167 -60 61.5s-22 57.166 -22 92.499
c0 37.333 5.66699 72.833 17 106.5s27 63.5 47 89.5s44 46.333 72 61s58.333 22 91 22c24 0 48 -4.33301 72 -13s45.5 -23.167 64.5 -43.5s32.833 -48.166 41.5 -83.499l-10 -8l25 139h22l-63 -324c-4 -22.667 -6.66699 -41.5 -8 -56.5s1.83398 -26 9.50098 -33
s21.834 -10.5 42.501 -10.5c24.667 0 49.5 6.33301 74.5 19s47.667 31.667 68 57s36.833 57.166 49.5 95.499s19 82.833 19 133.5c0 63.333 -15.667 117.833 -47 163.5s-74.166 80.834 -128.499 105.501s-116.166 37 -185.499 37c-70.667 0 -134.834 -13 -192.501 -39
s-107 -61 -148 -105s-72.667 -93.167 -95 -147.5s-33.5 -109.5 -33.5 -165.5s8.5 -106.833 25.5 -152.5s41 -84.834 72 -117.501s67.667 -57.667 110 -75s88.5 -26 138.5 -26c23.333 0 50.333 3.16699 81 9.5s60.5 14.666 89.5 24.999s52.5 21.166 70.5 32.499l12 -18
c-23.333 -14 -49.333 -26.333 -78 -37s-58.167 -19 -88.5 -25s-59.166 -9 -86.499 -9zM444.995 77.0029c37.333 0 70.666 8.83398 99.999 26.501s53.833 43.5 73.5 77.5s33.167 75.333 40.5 124c0.666992 3.33301 1.33398 8.16602 2.00098 14.499s1 11.5 1 15.5
c0 22.667 -6 45.834 -18 69.501s-30 43.5 -54 59.5s-53.667 24 -89 24c-34.667 0 -67.5 -10.833 -98.5 -32.5s-56.333 -51.834 -76 -90.501s-29.5 -83 -29.5 -133c0 -45.333 13.667 -82.5 41 -111.5s63 -43.5 107 -43.5z" />
    <glyph glyph-name="A" unicode="A" horiz-adv-x="611" 
d="M20 0l269 700h33l269 -700h-26l-193 504c-2 4.66699 -5.5 13.5 -10.5 26.5l-18 47.5l-22.5 58.5l-23 58.5l11 -1c-4 -12 -9.5 -27.333 -16.5 -46l-22 -57.5l-20.5 -53.5l-13 -34l-191 -503h-26zM120 230l8 23h357l8 -23h-373z" />
    <glyph glyph-name="B" unicode="B" horiz-adv-x="652" 
d="M110 0l-0.000976562 700.001h268c36.667 0 68.667 -7.66699 96 -23s48.5 -35.666 63.5 -60.999s22.5 -53.666 22.5 -84.999c0 -42.667 -14.5 -79.834 -43.5 -111.501s-67.5 -51.167 -115.5 -58.5l-6 13c44.667 -2.66699 82 -12.334 112 -29.001s52.5 -38.167 67.5 -64.5
s22.5 -55.833 22.5 -88.5c0 -26.667 -4.16699 -51.667 -12.5 -75s-21.666 -43.833 -39.999 -61.5s-41.833 -31.334 -70.5 -41.001s-63 -14.5 -103 -14.5h-261zM130.999 22.001l240.998 0.000976562c48.667 0 87.834 7.33301 117.501 22s51.167 34.5 64.5 59.5
s20 53.167 20 84.5c0 32.667 -7.66699 61.667 -23 87s-37.666 45.166 -66.999 59.499s-65 21.5 -107 21.5h-246v-334zM130.997 378.002h241c30 0 57.5 6.83301 82.5 20.5s45 32.167 60 55.5s22.5 49.333 22.5 78c0 40.667 -14.5 75.167 -43.5 103.5s-68.5 42.5 -118.5 42.5
h-244v-300z" />
    <glyph glyph-name="C" unicode="C" horiz-adv-x="690" 
d="M399 -10c-50 0 -95.9971 8.66699 -137.997 26s-78.5 41.833 -109.5 73.5s-54.833 69.334 -71.5 113.001s-25 91.5 -25 143.5c0 53.333 8.33301 102.166 25 146.499s40.5 82.666 71.5 114.999s67.5 57.5 109.5 75.5s88 27 138 27c35.333 0 68.5 -4.83301 99.5 -14.5
s59.667 -23.167 86 -40.5s49.833 -37.666 70.5 -60.999l-18 -16c-19.333 22 -41.333 41.333 -66 58s-51.334 29.5 -80.001 38.5s-59.334 13.5 -92.001 13.5c-46 0 -88.667 -8.5 -128 -25.5s-73.333 -40.833 -102 -71.5s-51 -66.834 -67 -108.501s-24 -87.167 -24 -136.5
c0 -48.667 8 -93.334 24 -134.001s38.333 -76 67 -106s62.667 -53.167 102 -69.5s82 -24.5 128 -24.5c30 0 58.667 3.5 86 10.5s52.666 17 75.999 30s44.333 28.5 63 46.5l15 -18c-20 -19.333 -42.5 -35.666 -67.5 -48.999s-52 -23.666 -81 -30.999s-59.5 -11 -91.5 -11z
" />
    <glyph glyph-name="D" unicode="D" horiz-adv-x="737" 
d="M110 0v700.001h247c42.667 0 83.5 -8.66699 122.5 -26s73.667 -41.666 104 -72.999s54.333 -68.333 72 -111s26.5 -89.334 26.5 -140.001c0 -50 -8.83301 -96.333 -26.5 -139s-41.667 -79.834 -72 -111.501s-65 -56.167 -104 -73.5s-79.833 -26 -122.5 -26h-247z
M132 13.001l-10 8.99902h230c40 0 78.5 8.33301 115.5 25s69.833 39.834 98.5 69.501s51.334 64.5 68.001 104.5s25 83 25 129c0 46.667 -8.33301 90 -25 130s-39.334 74.833 -68.001 104.5s-61.5 52.667 -98.5 69s-75.5 24.5 -115.5 24.5h-231l11 11v-676z" />
    <glyph glyph-name="E" unicode="E" horiz-adv-x="566" 
d="M110 0v700h391v-22h-369v-656h363v-22h-385zM123 351v22h320v-22h-320z" />
    <glyph glyph-name="F" unicode="F" horiz-adv-x="575" 
d="M110 0v700h22v-700h-22zM122 341v22h322v-22h-322zM123 678v22h378v-22h-378z" />
    <glyph glyph-name="G" unicode="G" horiz-adv-x="767" 
d="M400 -10c-50 0 -96.166 8.67188 -138.499 26.0049s-78.833 41.833 -109.5 73.5s-54.5 69.334 -71.5 113.001s-25.5 91.5 -25.5 143.5c0 53.333 8.33301 102.166 25 146.499s40.5 82.666 71.5 114.999s67.5 57.5 109.5 75.5s88 27 138 27c38 0 73.333 -5.33301 106 -16
s62.667 -25.834 90 -45.501s51.666 -42.5 72.999 -68.5l-17 -16c-19.333 25.333 -41.833 47.333 -67.5 66s-54 33 -85 43s-64.167 15 -99.5 15c-46 0 -88.667 -8.5 -128 -25.5s-73.333 -40.833 -102 -71.5s-51 -66.834 -67 -108.501s-24 -87.167 -24 -136.5
c0 -48.667 8 -93.334 24 -134.001s38.5 -76 67.5 -106s63.167 -53.167 102.5 -69.5s82 -24.5 128 -24.5c48 0 90.5 7.5 127.5 22.5s68.333 36.167 94 63.5s45 60 58 98s19.5 80 19.5 126v19l6 -5h-296v22h313v-9.5v-5.5v-4c0 -56.667 -7.33301 -106.834 -22 -150.501
s-36 -80.167 -64 -109.5s-61.833 -51.5 -101.5 -66.5s-84.5 -22.5 -134.5 -22.5z" />
    <glyph glyph-name="H" unicode="H" horiz-adv-x="732" 
d="M599 0v700h22v-700h-22zM110 0v700h22v-700h-22zM121 338v22h489v-22h-489z" />
    <glyph glyph-name="I" unicode="I" horiz-adv-x="386" 
d="M50 0v22h132v656h-132v22h286v-22h-132v-656h132v-22h-286z" />
    <glyph glyph-name="J" unicode="J" horiz-adv-x="559" 
d="M209 -10c-22.667 0 -43.832 3.00195 -63.499 9.00195s-37.5 14.667 -53.5 26s-30 25 -42 41s-22 34 -30 54l16 15c9.33301 -20.667 20 -38.834 32 -54.501s25.167 -28.5 39.5 -38.5s30.166 -17.5 47.499 -22.5s36 -7.5 56 -7.5c33.333 0 62.833 7 88.5 21
s45.667 35.667 60 65s21.5 67.666 21.5 114.999v465h-129v22h257v-22h-106v-465c0 -38.667 -4.83301 -72 -14.5 -100s-23.167 -51.167 -40.5 -69.5s-37.833 -31.833 -61.5 -40.5s-49.5 -13 -77.5 -13z" />
    <glyph glyph-name="K" unicode="K" horiz-adv-x="636" 
d="M120 234v31l446 435h32zM110 0v700h22v-700h-22zM587 0l-305 404l17 16l317 -420h-29z" />
    <glyph glyph-name="L" unicode="L" horiz-adv-x="533" 
d="M110 0v700h22v-678h351v-22h-373z" />
    <glyph glyph-name="M" unicode="M" horiz-adv-x="839" 
d="M110 0l0.000976562 700h17l294 -468h-3l293 468h17v-700h-22v543c0 23.333 0.333008 46.833 1 70.5l2 70.5l16 -5l-298 -475h-15l-293 468l10 12c1.33301 -22 2.16602 -44.5 2.49902 -67.5s0.5 -46.833 0.5 -71.5v-545h-22z" />
    <glyph glyph-name="N" unicode="N" horiz-adv-x="731" 
d="M110 0l0.000976562 699.998h22l473 -669h-4c-0.666992 6 -1.16699 12.333 -1.5 19s-0.5 14.834 -0.5 24.501s-0.166992 21.834 -0.5 36.501s-0.5 32.5 -0.5 53.5v76.5v459h22v-700h-20l-485 686h15c0 -6.66699 0.166992 -16 0.5 -28s0.666016 -25.833 0.999023 -41.5
s0.5 -32 0.5 -49v-50.5v-47v-470h-22z" />
    <glyph glyph-name="O" unicode="O" horiz-adv-x="798" 
d="M399 -10c-50 0 -96 8.66699 -138 26s-78.5 42.166 -109.5 74.499s-54.833 70.333 -71.5 114s-25 91.834 -25 144.501s8.33301 101 25 145s40.5 82.167 71.5 114.5s67.5 57.333 109.5 75s88 26.5 138 26.5s96 -8.83301 138 -26.5s78.5 -42.5 109.5 -74.5
s54.833 -70 71.5 -114s25 -92.667 25 -146c0 -52.667 -8.33301 -100.834 -25 -144.501s-40.5 -81.667 -71.5 -114s-67.5 -57.166 -109.5 -74.499s-88 -26 -138 -26zM399 12c46.667 0 89.5 8.33301 128.5 25s73 40 102 70s51.333 65.667 67 107s23.5 86.333 23.5 135
c0 49.333 -7.83301 94.5 -23.5 135.5s-38 76.833 -67 107.5s-63 54.334 -102 71.001s-81.833 25 -128.5 25c-46 0 -88.667 -8.33301 -128 -25s-73.333 -40.334 -102 -71.001s-51 -66.5 -67 -107.5s-24 -86.167 -24 -135.5c0 -48.667 8 -93.667 24 -135s38.333 -77 67 -107
s62.667 -53.333 102 -70s82 -25 128 -25z" />
    <glyph glyph-name="P" unicode="P" horiz-adv-x="600" 
d="M110 0v699.999h251c36.667 0 68.834 -8.16699 96.501 -24.5s49.167 -39 64.5 -68s23 -62.5 23 -100.5c0 -42.667 -7.66699 -80.167 -23 -112.5s-36.833 -57.666 -64.5 -75.999s-59.834 -27.5 -96.501 -27.5h-229v-291h-22zM132 312.999h235
c31.333 0 58.5 8.16699 81.5 24.5s41 39.166 54 68.499s19.5 63 19.5 101c0 33.333 -6.5 62.833 -19.5 88.5s-31 45.834 -54 60.501s-50.167 22 -81.5 22h-235v-365z" />
    <glyph glyph-name="Q" unicode="Q" horiz-adv-x="798" 
d="M652 -78l-254 338l18 12l253 -337zM399 -10c-50 0 -96 8.66699 -138 26s-78.5 42.166 -109.5 74.499s-54.833 70.333 -71.5 114s-25 91.834 -25 144.501s8.33301 101 25 145s40.5 82.167 71.5 114.5s67.5 57.333 109.5 75s88 26.5 138 26.5s96 -8.83301 138 -26.5
s78.5 -42.5 109.5 -74.5s54.833 -70 71.5 -114s25 -92.667 25 -146c0 -52.667 -8.33301 -100.834 -25 -144.501s-40.5 -81.667 -71.5 -114s-67.5 -57.166 -109.5 -74.499s-88 -26 -138 -26zM399 12c46.667 0 89.5 8.33301 128.5 25s73 40 102 70s51.333 65.667 67 107
s23.5 86.333 23.5 135c0 49.333 -7.83301 94.5 -23.5 135.5s-38 76.833 -67 107.5s-63 54.334 -102 71.001s-81.833 25 -128.5 25c-46 0 -88.667 -8.33301 -128 -25s-73.333 -40.334 -102 -71.001s-51 -66.5 -67 -107.5s-24 -86.167 -24 -135.5c0 -48.667 8 -93.667 24 -135
s38.333 -77 67 -107s62.667 -53.333 102 -70s82 -25 128 -25z" />
    <glyph glyph-name="R" unicode="R" horiz-adv-x="609" 
d="M110 0v699.999h251c36.667 0 68.834 -8.16699 96.501 -24.5s49.167 -39 64.5 -68s23 -62.5 23 -100.5c0 -42.667 -7.66699 -80.167 -23 -112.5s-36.833 -57.666 -64.5 -75.999s-59.834 -27.5 -96.501 -27.5h-229v-291h-22zM543 -0.000976562l-175 298l23 7l178 -305h-26z
M132 312.999h235c31.333 0 58.5 8.16699 81.5 24.5s41 39.166 54 68.499s19.5 63 19.5 101c0 33.333 -6.5 62.833 -19.5 88.5s-31 45.834 -54 60.501s-50.167 22 -81.5 22h-235v-365z" />
    <glyph glyph-name="S" unicode="S" horiz-adv-x="567" 
d="M303 -10c-39.333 0 -75.3311 4.83105 -107.998 14.498s-61.667 23.834 -87 42.501s-47 41.334 -65 68.001l18 16c25.333 -39.333 58.333 -69 99 -89s88.334 -30 143.001 -30c37.333 0 71.166 6.83301 101.499 20.5s54.5 32.5 72.5 56.5s27 51.667 27 83
c0 19.333 -3.83301 36.333 -11.5 51s-18.5 27.667 -32.5 39s-30.833 21.5 -50.5 30.5s-41.834 17.5 -66.501 25.5s-51 16 -79 24c-31.333 8.66699 -59.333 18.5 -84 29.5s-45.5 23.667 -62.5 38s-30 31 -39 50s-13.5 41.167 -13.5 66.5c0 26 5.83301 50.333 17.5 73
s27.667 42.167 48 58.5s44.333 29.166 72 38.499s57.5 14 89.5 14c36 0 67.667 -3.83301 95 -11.5s51 -19 71 -34s37.667 -32.833 53 -53.5l-17 -15c-14.667 19.333 -31.334 35.833 -50.001 49.5s-40.5 24.167 -65.5 31.5s-53.833 11 -86.5 11c-38 0 -72.5 -7 -103.5 -21
s-55.5 -33.167 -73.5 -57.5s-27 -52.166 -27 -83.499c0 -22.667 4.33301 -42.5 13 -59.5s21 -32 37 -45s35.333 -24.167 58 -33.5s48 -17.666 76 -24.999c40 -10 75.667 -20.667 107 -32s58 -24.333 80 -39s38.833 -31.834 50.5 -51.501s17.5 -42.5 17.5 -68.5
c0 -34.667 -9.83301 -65.667 -29.5 -93s-46.5 -49 -80.5 -65s-72 -24 -114 -24z" />
    <glyph glyph-name="T" unicode="T" horiz-adv-x="488" 
d="M233 0v678h-213v22h448v-22h-213v-678h-22z" />
    <glyph glyph-name="U" unicode="U" horiz-adv-x="744" 
d="M368 -6c-50 0 -94.501 11.833 -133.501 35.5s-69.5 56.167 -91.5 97.5s-33 88.666 -33 141.999v431h22v-422c0 -51.333 10 -96.666 30 -135.999s47.667 -70.166 83 -92.499s76.333 -33.5 123 -33.5c48 0 90.333 11.167 127 33.5s65.334 53.166 86.001 92.499
s31 84.666 31 135.999v422h22v-431c0 -53.333 -11.5 -100.666 -34.5 -141.999s-54.5 -73.833 -94.5 -97.5s-85.667 -35.5 -137 -35.5z" />
    <glyph glyph-name="V" unicode="V" horiz-adv-x="604" 
d="M288 0l-267.998 700.001h26l236 -624c4 -10 7.33301 -18.667 10 -26s5.16699 -13.833 7.5 -19.5s4.16602 -10.334 5.49902 -14.001s2.33301 -6.5 3 -8.5h-13c0.666992 2 2.16699 5.83301 4.5 11.5s5.16602 13 8.49902 22l12 32.5l238 626h26l-269 -700h-27z" />
    <glyph glyph-name="W" unicode="W" horiz-adv-x="849" 
d="M216 0l-196 700h24l142 -507l13.5 -50.5l10.5 -38.5l11 -38.5l15 -50.5h-12l33 82l22 57.5l18 47.5l120 318h15l119 -318c2.66699 -8 6.16699 -17.5 10.5 -28.5l21 -52.5l42.5 -106h-13c6.66699 21.333 11.667 38 15 50l8 28.5l6 21l8 28l14 50.5l142 507h24l-196 -700
h-26l-192 499h19l-192 -499h-26z" />
    <glyph glyph-name="X" unicode="X" horiz-adv-x="584" 
d="M533 0l-252 349l-254 351h29l239 -334l267 -366h-29zM22 0l259 363l16 -13l-247 -350h-28zM299 352l-17 13l242 335h28z" />
    <glyph glyph-name="Y" unicode="Y" horiz-adv-x="592" 
d="M289 0v339l8 -39l-277 400h26l259 -373h-11l252 373h26l-270 -400l9 39v-339h-22z" />
    <glyph glyph-name="Z" unicode="Z" horiz-adv-x="634" 
d="M60 0v24l485 668l12 -14h-471v22h477v-23l-485 -667l-3 12h499v-22h-514z" />
    <glyph glyph-name="bracketleft" unicode="[" horiz-adv-x="319" 
d="M75 -190v890h212v-22h-199l10 8v-866l-11 12h200v-22h-212z" />
    <glyph glyph-name="backslash" unicode="\" horiz-adv-x="521" 
d="M431 -95l-394 795h26l394 -795h-26z" />
    <glyph glyph-name="bracketright" unicode="]" horiz-adv-x="319" 
d="M32 -190v22h199l-10 -8v866l11 -12h-200v22h212v-890h-212z" />
    <glyph glyph-name="asciicircum" unicode="^" horiz-adv-x="584" 
d="M50 368l231 359h22l231 -359h-27l-219 340h8l-219 -340h-27z" />
    <glyph glyph-name="underscore" unicode="_" horiz-adv-x="696" 
d="M56 -105v23h584v-23h-584z" />
    <glyph glyph-name="grave" unicode="`" horiz-adv-x="500" 
d="M317 611l-144 104l14 21l140 -110z" />
    <glyph glyph-name="a" unicode="a" horiz-adv-x="602" 
d="M294 -10c-48.667 0 -92.1689 11.502 -130.502 34.502s-68.5 54.667 -90.5 95s-33 86.5 -33 138.5c0 52.667 11.333 99.5 34 140.5s52.834 73.167 90.501 96.5s79.5 35 125.5 35c28 0 54.667 -4.33301 80 -13s48 -21 68 -37s36.833 -35 50.5 -57
s22.834 -46.333 27.501 -73l-6 3l2 172h20v-525h-22v172l9 3c-6 -26.667 -15.833 -51.334 -29.5 -74.001s-30.5 -42.334 -50.5 -59.001s-42.167 -29.5 -66.5 -38.5s-50.5 -13.5 -78.5 -13.5zM293.998 12.002c40.667 0 77.501 10.502 110.501 31.502s59 50.167 78 87.5
s28.5 80.333 28.5 129c0 48 -9.5 90.667 -28.5 128s-45 66.666 -78 87.999s-70.5 32 -112.5 32c-44.667 0 -84.334 -10.667 -119.001 -32s-61.667 -50.833 -81 -88.5s-29 -80.834 -29 -129.501c0 -47.333 9.66699 -89.5 29 -126.5s46.333 -66.167 81 -87.5s75 -32 121 -32z
" />
    <glyph glyph-name="b" unicode="b" horiz-adv-x="602" 
d="M312 -10c-26.667 0 -52.499 4.50098 -77.499 13.501s-47.833 21.667 -68.5 38s-38 35.333 -52 57s-23.333 45.5 -28 71.5l6 -3l-2 -167h-20v740h22v-392l-9 -3c6.66699 27.333 17 52.166 31 74.499s31 41.833 51 58.5s42.167 29.5 66.5 38.5s49.833 13.5 76.5 13.5
c48.667 0 92.167 -11.5 130.5 -34.5s68.5 -54.667 90.5 -95s33 -86.5 33 -138.5c0 -52.667 -11.333 -99.5 -34 -140.5s-52.834 -73.167 -90.501 -96.5s-79.5 -35 -125.5 -35zM311.001 12.001c44.667 0 84.333 10.665 119 31.998s61.667 50.833 81 88.5s29 80.834 29 129.501
c0 47.333 -9.66699 89.5 -29 126.5s-46.333 66.167 -81 87.5s-75 32 -121 32c-40.667 0 -77.5 -10.5 -110.5 -31.5s-59 -50.167 -78 -87.5s-28.5 -80.333 -28.5 -129c0 -48 9.5 -90.667 28.5 -128s45 -66.666 78 -87.999s70.5 -32 112.5 -32z" />
    <glyph glyph-name="c" unicode="c" horiz-adv-x="526" 
d="M306 -10c-52 0 -98.002 11.6709 -138.002 35.0039s-71.333 55.666 -94 96.999s-34 88.333 -34 141c0 52 11.333 98.167 34 138.5s54 71.833 94 94.5s86 34 138 34c42 0 80 -7.83301 114 -23.5s62.667 -36.834 86 -63.501l-16 -17c-14.667 17.333 -31.5 32 -50.5 44
s-39.667 21.333 -62 28s-46.166 10 -71.499 10c-47.333 0 -89.166 -10.5 -125.499 -31.5s-65 -49.833 -86 -86.5s-31.833 -79 -32.5 -127c0.666992 -48.667 11.5 -92 32.5 -130s49.667 -67.667 86 -89s78.166 -32 125.499 -32c24.667 0 48 3.16699 70 9.5
s42.5 15.666 61.5 27.999s35.833 26.833 50.5 43.5l16 -16c-24 -26.667 -52.667 -47.834 -86 -63.501s-70.666 -23.5 -111.999 -23.5z" />
    <glyph glyph-name="d" unicode="d" horiz-adv-x="604" 
d="M294 -10c-48.667 0 -92.168 11.502 -130.501 34.502s-68.5 54.667 -90.5 95s-33 86.5 -33 138.5c0 52.667 11.333 99.5 34 140.5s52.834 73.167 90.501 96.5s79.5 35 125.5 35c26.667 0 52.5 -4.5 77.5 -13.5s47.833 -21.667 68.5 -38s38 -35.333 52 -57
s23.333 -45.5 28 -71.5l-6 3v387h22v-740h-22v172l9 3c-6.66699 -26.667 -17 -51.334 -31 -74.001s-31 -42.334 -51 -59.001s-42 -29.5 -66 -38.5s-49.667 -13.5 -77 -13.5zM292.999 12.002c40.667 0 77.501 10.502 110.501 31.502s59 50.167 78 87.5s28.5 80.333 28.5 129
c0 48 -9.5 90.667 -28.5 128s-45 66.666 -78 87.999s-70.5 32 -112.5 32c-44.667 0 -84.334 -10.667 -119.001 -32s-61.667 -50.833 -81 -88.5s-29 -80.834 -29 -129.501c0 -47.333 9.66699 -89.5 29 -126.5s46.333 -66.167 81 -87.5s75 -32 121 -32z" />
    <glyph glyph-name="e" unicode="e" horiz-adv-x="545" 
d="M297 -10c-50.667 0 -95.3311 11.667 -133.998 35s-68.834 55.666 -90.501 96.999s-32.5 88.333 -32.5 141c0 39.333 6 75.333 18 108s28.833 60.834 50.5 84.501s47.5 42 77.5 55s63 19.5 99 19.5c33.333 0 64 -5.5 92 -16.5s52.167 -27 72.5 -48
s35.833 -46.167 46.5 -75.5s15.334 -62.333 14.001 -99l-1 -26h-457v22h446l-12 -17l2 25c0 42.667 -9 80 -27 112s-42.167 56.833 -72.5 74.5s-63.833 26.5 -100.5 26.5c-45.333 0 -84.833 -10.5 -118.5 -31.5s-59.834 -50 -78.501 -87s-28.334 -79.167 -29.001 -126.5
c0.666992 -48.667 11 -92 31 -130s47.5 -67.667 82.5 -89s75.5 -32 121.5 -32c34.667 0 66.667 6.33301 96 19s55.666 30 78.999 52l12 -18c-16.667 -15.333 -34.5 -28.5 -53.5 -39.5s-39.667 -19.667 -62 -26s-46.166 -9.5 -71.499 -9.5z" />
    <glyph glyph-name="f" unicode="f" horiz-adv-x="340" 
d="M140 0v626.003c0 29.333 4.33301 53.166 13 71.499s21 31.666 37 39.999s34.333 12.5 55 12.5c24 0 43.5 -3.83301 58.5 -11.5s27.167 -17.834 36.5 -30.501l-14 -15c-12 13.333 -24.5 22.5 -37.5 27.5s-28.167 7.5 -45.5 7.5c-16 0 -30 -3.16699 -42 -9.5
s-21.5 -17 -28.5 -32s-10.5 -35.5 -10.5 -61.5v-625h-8h-7.5h-6.5zM30 503.003v22h284v-22h-284z" />
    <glyph glyph-name="g" unicode="g" horiz-adv-x="603" 
d="M294 -240c-36 0 -69.833 6.33301 -101.5 19s-58.167 31 -79.5 55l11 20c14 -14.667 29.5 -27.334 46.5 -38.001s35.833 -19 56.5 -25s42.667 -9 66 -9c38 0 73.5 10 106.5 30s59.667 48.5 80 85.5s30.5 81.167 30.5 132.5v142l9 3c-8.66699 -36 -24 -67.833 -46 -95.5
s-48.333 -49.5 -79 -65.5s-64 -24 -100 -24c-48.667 0 -92.167 11.5 -130.5 34.5s-68.5 54.667 -90.5 95s-33 86.5 -33 138.5c0 52.667 11.333 99.5 34 140.5s52.834 73.167 90.501 96.5s79.5 35 125.5 35c21.333 0 42.166 -3 62.499 -9s39.5 -14.333 57.5 -25
s34.333 -23.5 49 -38.5s26.834 -31.5 36.501 -49.5s16.5 -37.333 20.5 -58l-6 3l2 172h20v-504c0 -40.667 -6.16699 -77.167 -18.5 -109.5s-29.5 -59.666 -51.5 -81.999s-47.333 -39.5 -76 -51.5s-59.334 -18 -92.001 -18zM293 12c40.667 0 77.5 10.502 110.5 31.502
s59 50.167 78 87.5s28.5 80.333 28.5 129c0 48 -9.5 90.667 -28.5 128s-45 66.666 -78 87.999s-70.5 32 -112.5 32c-44.667 0 -84.334 -10.667 -119.001 -32s-61.667 -50.833 -81 -88.5s-29 -80.834 -29 -129.501c0 -47.333 9.83301 -89.5 29.5 -126.5
s46.834 -66.167 81.501 -87.5s74.667 -32 120 -32z" />
    <glyph glyph-name="h" unicode="h" horiz-adv-x="541" 
d="M70 0l0.00195312 740.001h22v-336l-9 -2c7.33301 23.333 21.166 44.666 41.499 63.999s44.666 34.833 72.999 46.5s58.5 17.5 90.5 17.5c39.333 0 72.666 -7 99.999 -21s48.333 -35.833 63 -65.5s22 -68.167 22 -115.5v-328h-22v328c0 42 -6.5 76.333 -19.5 103
s-31.667 46.167 -56 58.5s-54.166 18.5 -89.499 18.5c-28 0 -53.833 -4.83301 -77.5 -14.5s-44.167 -21.667 -61.5 -36s-30.833 -29 -40.5 -44s-14.5 -27.5 -14.5 -37.5v-376h-11h-4.5h-6.5z" />
    <glyph glyph-name="i" unicode="i" horiz-adv-x="196" 
d="M87 0v525h22v-525h-22zM98 663c-9.33301 0 -16.333 2.66699 -21 8s-7 12.333 -7 21c0 8 2.33301 14.833 7 20.5s11.667 8.5 21 8.5c8.66699 0 15.5 -2.66699 20.5 -8s7.5 -12.333 7.5 -21s-2.33301 -15.667 -7 -21s-11.667 -8 -21 -8z" />
    <glyph glyph-name="j" unicode="j" horiz-adv-x="150" 
d="M-34 -194l-7.99902 20.999c28 0 50.167 5 66.5 15s28 23.833 35 41.5s10.5 37.834 10.5 60.501v581h22v-585c0 -28.667 -5 -53 -15 -73s-24.333 -35.167 -43 -45.5s-41.334 -15.5 -68.001 -15.5zM79.001 662.999c-9.33301 0 -16.333 2.66699 -21 8s-7 12.333 -7 21
c0 8 2.33301 14.833 7 20.5s11.667 8.5 21 8.5c8.66699 0 15.5 -2.66699 20.5 -8s7.5 -12.333 7.5 -21s-2.33301 -15.667 -7 -21s-11.667 -8 -21 -8z" />
    <glyph glyph-name="k" unicode="k" horiz-adv-x="476" 
d="M84 179v32l317 314h32zM70 0v740h22v-740h-22zM436 0l-253 291l17 16l267 -307h-31z" />
    <glyph glyph-name="l" unicode="l" horiz-adv-x="206" 
d="M92 0v740h22v-740h-22z" />
    <glyph glyph-name="m" unicode="m" horiz-adv-x="877" 
d="M65 0l-0.00390625 525.002h20l3 -132l-15 3c12 24 25.5 44.5 40.5 61.5s31.167 30.833 48.5 41.5s35.5 18.5 54.5 23.5s38.833 7.5 59.5 7.5c28.667 0 54.5 -4.33301 77.5 -13s42.5 -22.834 58.5 -42.501s27.667 -46.167 35 -79.5l-12 -6l6 17
c8.66699 20 19.834 37.833 33.501 53.5s29 28.667 46 39s35.333 18.166 55 23.499s39.834 8 60.501 8c38 0 70.167 -7 96.5 -21s46.5 -35.833 60.5 -65.5s21 -68.167 21 -115.5v-328h-22v328c0 42 -6.16699 76.333 -18.5 103s-30.166 46.167 -53.499 58.5s-52 18.5 -86 18.5
c-26 0 -50 -4.33301 -72 -13s-41 -20.167 -57 -34.5s-28.5 -30 -37.5 -47s-13.5 -33.5 -13.5 -49.5v-364h-22v328c0 42 -6.16699 76.333 -18.5 103s-30.166 46.167 -53.499 58.5s-52 18.5 -86 18.5c-27.333 0 -52.333 -4.83301 -75 -14.5s-42.5 -21.667 -59.5 -36
s-30 -29 -39 -44s-13.5 -27.5 -13.5 -37.5v-376h-22z" />
    <glyph glyph-name="n" unicode="n" horiz-adv-x="541" 
d="M70 0v524.999h20l2 -121l-9 -3c7.33301 22.667 21 43.834 41 63.501s44.167 35.5 72.5 47.5s58.833 18 91.5 18c39.333 0 72.666 -7 99.999 -21s48.333 -35.833 63 -65.5s22 -68.167 22 -115.5v-328h-22v328c0 42 -6.5 76.333 -19.5 103s-31.667 46.167 -56 58.5
s-54.166 18.5 -89.499 18.5c-28 0 -53.833 -4.83301 -77.5 -14.5s-44.167 -21.667 -61.5 -36s-30.833 -29 -40.5 -44s-14.5 -27.5 -14.5 -37.5v-376h-11h-4.5h-6.5z" />
    <glyph glyph-name="o" unicode="o" horiz-adv-x="615" 
d="M308 -10c-52.667 0 -99.167 11.667 -139.5 35s-71.833 55.666 -94.5 96.999s-34 88.333 -34 141c0 52 11.333 98.167 34 138.5s54.167 71.833 94.5 94.5s86.833 34 139.5 34s99.167 -11.333 139.5 -34s71.666 -54.167 93.999 -94.5s33.5 -86.5 33.5 -138.5
c0 -52.667 -11.167 -99.667 -33.5 -141s-53.666 -73.666 -93.999 -96.999s-86.833 -35 -139.5 -35zM308 12c47.333 0 89.333 10.667 126 32s65.667 51 87 89s32 81.333 32 130c0 47.333 -10.667 89.333 -32 126s-50.333 65.667 -87 87s-78.667 32 -126 32
s-89.5 -10.667 -126.5 -32s-66.167 -50.333 -87.5 -87s-32 -78.667 -32 -126c0 -48.667 10.667 -92 32 -130s50.5 -67.667 87.5 -89s79.167 -32 126.5 -32z" />
    <glyph glyph-name="p" unicode="p" horiz-adv-x="602" 
d="M70 -230l-0.000976562 755h20l2 -177l-9 -3c8.66699 36 24 68 46 96s48.333 49.833 79 65.5s64 23.5 100 23.5c48.667 0 92.167 -11.5 130.5 -34.5s68.5 -54.667 90.5 -95s33 -86.5 33 -138.5c0 -52.667 -11.333 -99.5 -34 -140.5s-52.834 -73.167 -90.501 -96.5
s-79.5 -35 -125.5 -35c-35.333 0 -69.166 7.83301 -101.499 23.5s-59.666 37.167 -81.999 64.5s-36.5 58 -42.5 92l6 -3v-397h-22zM310.999 12c44.667 0 84.333 10.665 119 31.998s61.667 50.833 81 88.5s29 80.834 29 129.501c0 47.333 -9.66699 89.5 -29 126.5
s-46.333 66.167 -81 87.5s-75 32 -121 32c-40.667 0 -77.5 -10.5 -110.5 -31.5s-59 -50.167 -78 -87.5s-28.5 -80.333 -28.5 -129c0 -48 9.5 -90.667 28.5 -128s45 -66.666 78 -87.999s70.5 -32 112.5 -32z" />
    <glyph glyph-name="q" unicode="q" horiz-adv-x="611" 
d="M510 -230l-0.000976562 402.002l9 3c-6.66699 -26.667 -17 -51.334 -31 -74.001s-31 -42.334 -51 -59.001s-42 -29.5 -66 -38.5s-49.667 -13.5 -77 -13.5c-48.667 0 -92.167 11.5 -130.5 34.5s-68.5 54.667 -90.5 95s-33 86.5 -33 138.5c0 52.667 11.333 99.5 34 140.5
s52.834 73.167 90.501 96.5s79.5 35 125.5 35c26.667 0 52.5 -4.5 77.5 -13.5s47.833 -21.667 68.5 -38s38 -35.333 52 -57s23.333 -45.5 28 -71.5l-6 3l2 172h20v-755h-22zM292.999 12.002c40.667 0 77.501 10.502 110.501 31.502s59 50.167 78 87.5s28.5 80.333 28.5 129
c0 48 -9.5 90.667 -28.5 128s-45 66.666 -78 87.999s-70.5 32 -112.5 32c-44.667 0 -84.334 -10.667 -119.001 -32s-61.667 -50.833 -81 -88.5s-29 -80.834 -29 -129.501c0 -47.333 9.66699 -89.5 29 -126.5s46.333 -66.167 81 -87.5s75 -32 121 -32z" />
    <glyph glyph-name="r" unicode="r" horiz-adv-x="311" 
d="M70 0l0.00195312 525.002h20l1 -127l-6 -2c4.66699 22 14.167 43.167 28.5 63.5s33.666 37.166 57.999 50.499s53.166 20 86.499 20c11.333 0 21.833 -0.666992 31.5 -2s18.5 -3.33301 26.5 -6l-7 -23c-10.667 3.33301 -20.834 5.66602 -30.501 6.99902
s-18.167 2 -25.5 2c-26.667 0 -50.167 -5.33301 -70.5 -16s-37.166 -24.667 -50.499 -42s-23.333 -35.833 -30 -55.5s-10 -38.5 -10 -56.5v-338h-22z" />
    <glyph glyph-name="s" unicode="s" horiz-adv-x="479" 
d="M248 -10c-44 0 -84 8.33984 -120 25.0068s-63.667 38.667 -83 66l17 15c18.667 -24.667 44 -44.834 76 -60.501s69.333 -23.5 112 -23.5c27.333 0 50.666 3.33301 69.999 10s35 15.667 47 27s21 24.166 27 38.499s9 29.5 9 45.5c0 32.667 -14 58.334 -42 77.001
c-13.333 10 -30 18.667 -50 26s-43.333 14 -70 20c-30 7.33301 -56.5 15.666 -79.5 24.999s-41.833 20 -56.5 32c-13.333 11.333 -23.333 23.5 -30 36.5s-10 27.5 -10 43.5c0 20.667 4.16699 39.334 12.5 56.001s20 31.167 35 43.5s33.333 21.666 55 27.999
s45.834 9.5 72.501 9.5c23.333 0 46 -3.33301 68 -10s42.667 -16.334 62 -29.001s36.666 -28 51.999 -46l-16 -18c-14.667 16.667 -30.667 31.167 -48 43.5s-35.833 21.666 -55.5 27.999s-40.5 9.5 -62.5 9.5c-24 0 -45.5 -2.83301 -64.5 -8.5s-35.167 -13.667 -48.5 -24
s-23.333 -22.333 -30 -36s-10 -28.834 -10 -45.501c0 -11.333 2.33301 -22.333 7 -33s12.334 -20.334 23.001 -29.001c13.333 -11.333 30.833 -21.333 52.5 -30s46.834 -16.334 75.501 -23.001c30 -6.66699 56.167 -14.167 78.5 -22.5s40.833 -18.166 55.5 -29.499
c15.333 -11.333 26.833 -24.666 34.5 -39.999s11.5 -33.333 11.5 -54c0 -28.667 -7 -53.834 -21 -75.501s-34.333 -38.334 -61 -50.001s-58.334 -17.5 -95.001 -17.5z" />
    <glyph glyph-name="t" unicode="t" horiz-adv-x="350" 
d="M163 0v659h22v-659h-22zM20 503v22h315v-22h-315z" />
    <glyph glyph-name="u" unicode="u" horiz-adv-x="538" 
d="M263 -10c-40.667 0 -75.167 7.16602 -103.5 21.499s-49.833 36.833 -64.5 67.5s-22 70 -22 118v328h22v-328c0 -43.333 6.5 -78.666 19.5 -105.999s32.167 -47.333 57.5 -60s56.333 -19 93 -19c24 0 46.833 5 68.5 15s40.834 22.5 57.501 37.5s29.667 30.167 39 45.5
s14 28.333 14 39v376h22v-525h-20l-2 121l9 2c-8 -24 -21.333 -46 -40 -66s-40.834 -36.167 -66.501 -48.5s-53.5 -18.5 -83.5 -18.5z" />
    <glyph glyph-name="v" unicode="v" horiz-adv-x="467" 
d="M226 0l-211 525h25l200 -501h-13l200 501h25l-211 -525h-15z" />
    <glyph glyph-name="w" unicode="w" horiz-adv-x="743" 
d="M200 0l-185 525h24l176 -501h-15l164 420h15l164 -420h-15l176 501h24l-185 -525h-14l-165 422h15l-165 -422h-14z" />
    <glyph glyph-name="x" unicode="x" horiz-adv-x="475" 
d="M435 0l-205 255l-3 5l-205 265h30l187 -244l7 -8l219 -273h-30zM10 0l218 272l16 -15l-204 -257h-30zM247 261l-12 20l187 244h30z" />
    <glyph glyph-name="y" unicode="y" horiz-adv-x="501" 
d="M157 -230l95 239.001l5 -16l-242 532h25l212 -468c5.33301 -10.667 8.83301 -17.834 10.5 -21.501s3.16699 -7.16699 4.5 -10.5l-9 -5c2.66699 7.33301 5.5 14.5 8.5 21.5l8.5 20.5l186 463h25l-217 -538l-87 -217h-25z" />
    <glyph glyph-name="z" unicode="z" horiz-adv-x="429" 
d="M35 0v26l326 495l-2 -18h-324v22h338v-28l-322 -487l-4 12h347v-22h-359z" />
    <glyph glyph-name="braceleft" unicode="{" horiz-adv-x="402" 
d="M343 -186c-22 5.33301 -41.832 12.668 -59.499 22.001s-32.5 21.333 -44.5 36s-21.333 32 -28 52s-10 43 -10 69l2 95c0 46.667 -10.333 83 -31 109s-50.334 39.333 -89.001 40h-20v26h20c39.333 0.666992 69.166 13.834 89.499 39.501s30.5 62.167 30.5 109.5l-2 95
c0 51.333 12.667 91.5 38 120.5s60 48.5 104 58.5l6 -19c-30.667 -8 -55.167 -19 -73.5 -33s-31.666 -32.333 -39.999 -55s-12.5 -51.334 -12.5 -86.001l2 -95c0 -38.667 -7.5 -70.834 -22.5 -96.501s-37.5 -43.167 -67.5 -52.5v3
c30.667 -11.333 53.334 -29.666 68.001 -54.999s22 -57 22 -95l-2 -95c0 -34.667 4.16699 -63.334 12.5 -86.001s21.666 -41 39.999 -55s42.833 -25 73.5 -33z" />
    <glyph glyph-name="bar" unicode="|" horiz-adv-x="223" 
d="M100 -193v933h23v-933h-23z" />
    <glyph glyph-name="braceright" unicode="}" horiz-adv-x="402" 
d="M59 -186l-6.00098 19.001c30.667 8 55.167 19 73.5 33s31.666 32.333 39.999 55s12.5 51.334 12.5 86.001l-2 95c0 38.667 7.5 70.834 22.5 96.501s37.5 43.167 67.5 52.5v-3c-30.667 11.333 -53.334 29.666 -68.001 54.999s-22 57 -22 95l2 95
c0 34.667 -4.16699 63.334 -12.5 86.001s-21.666 41 -39.999 55s-42.833 25 -73.5 33l6 19c22 -4.66699 41.833 -11.834 59.5 -21.501s32.5 -21.834 44.5 -36.501s21.333 -32 28 -52s10 -43 10 -69l-2 -95c0 -46.667 10.333 -83 31 -109s50.334 -39.333 89.001 -40h20v-26
h-20c-39.333 -0.666992 -69.166 -13.834 -89.499 -39.501s-30.5 -62.167 -30.5 -109.5l2 -95c0 -51.333 -12.667 -91.5 -38 -120.5s-60 -48.5 -104 -58.5z" />
    <glyph glyph-name="asciitilde" unicode="~" horiz-adv-x="510" 
d="M359 251c-14 0 -28.501 2.33008 -43.501 6.99707s-28.833 9.83398 -41.5 15.501s-23 10.5 -31 14.5s-17.333 8.33301 -28 13s-21.5 8.5 -32.5 11.5s-21.833 4.5 -32.5 4.5c-14 0 -26.167 -4.83301 -36.5 -14.5s-15.5 -24.834 -15.5 -45.501h-22
c0 25.333 7.33301 45.333 22 60s31.667 22 51 22c10 0 20.333 -1.16699 31 -3.5s21.334 -5.66602 32.001 -9.99902s21.167 -8.83301 31.5 -13.5l29.5 -13l23 -10c9.33301 -4 19.5 -7.66699 30.5 -11s21.5 -5 31.5 -5c13.333 0 25.333 4.5 36 13.5s16 24.5 16 46.5h22
c0 -17.333 -3.33301 -32.166 -10 -44.499s-15.667 -21.666 -27 -27.999s-23.333 -9.5 -36 -9.5z" />
    <glyph glyph-name="uni00A0" unicode="&#xa0;" horiz-adv-x="280" 
 />
    <glyph glyph-name="exclamdown" unicode="&#xa1;" horiz-adv-x="254" 
d="M134 289l2.00098 -63.5c0.666992 -21.667 1.16699 -43.334 1.5 -65.001s0.166016 -43.834 -0.500977 -66.501v-264h-22l-1 264c0 22.667 0.166992 44.834 0.5 66.501s0.833008 43.334 1.5 65.001l2 63.5h16zM129.001 538c10 0 17.667 -3.16602 23 -9.49902
s8 -15.166 8 -26.499c0 -10.667 -2.83301 -19.334 -8.5 -26.001s-13.167 -10 -22.5 -10c-10.667 0 -18.5 3.16699 -23.5 9.5s-7.5 15.166 -7.5 26.499c0 10 2.66699 18.5 8 25.5s13 10.5 23 10.5z" />
    <glyph glyph-name="cent" unicode="&#xa2;" horiz-adv-x="530" 
d="M312 78c-52.667 0 -99.1689 11.6699 -139.502 35.0029s-71.833 55.666 -94.5 96.999s-34 88.333 -34 141c0 52 11.333 98 34 138s54.167 71.333 94.5 94s86.833 34 139.5 34c41.333 0 78.833 -7.66699 112.5 -23s62.167 -36.333 85.5 -63l-16 -17
c-14.667 16.667 -31.334 31.167 -50.001 43.5s-39.167 21.666 -61.5 27.999s-45.833 9.5 -70.5 9.5c-47.333 0 -89.5 -10.5 -126.5 -31.5s-66 -49.833 -87 -86.5s-31.833 -78.667 -32.5 -126c0.666992 -48.667 11.5 -92 32.5 -130s50 -67.667 87 -89s79.167 -32 126.5 -32
c24.667 0 47.834 3.16699 69.501 9.5s41.834 15.666 60.501 27.999s35.334 26.833 50.001 43.5l16 -15c-24 -26.667 -52.5 -48 -85.5 -64s-69.833 -24 -110.5 -24zM282.998 0.00292969v85v10v506v11v88h22v-88v-12v-505v-10v-85h-22z" />
    <glyph glyph-name="sterling" unicode="&#xa3;" horiz-adv-x="610" 
d="M168 47l-19.9961 14.999c10.667 6 20.5 15.833 29.5 29.5s16.167 30 21.5 49s8 39.167 8 60.5c0 9.33301 -0.5 18.666 -1.5 27.999s-2.83301 19.666 -5.5 30.999s-6.16699 24.5 -10.5 39.5s-9.83301 32.5 -16.5 52.5c-8.66699 27.333 -15 49.833 -19 67.5
s-6.66699 32.834 -8 45.501s-2 25 -2 37c0 38 8 71.5 24 100.5s38.667 51.667 68 68s64 24.5 104 24.5s73.333 -7.16699 100 -21.5s49.667 -35.166 69 -62.499l-18 -14c-16.667 20.667 -32.834 36.5 -48.501 47.5s-31.834 18.5 -48.501 22.5s-34.667 6 -54 6
c-34 0 -64 -7.33301 -90 -22s-46.333 -35 -61 -61s-22 -55.667 -22 -89c0 -23.333 3.66699 -48.166 11 -74.499s14.666 -50.833 21.999 -73.5c9.33301 -28 16.666 -53.333 21.999 -76s8 -47.667 8 -75c0 -18 -1.66699 -35.5 -5 -52.5s-9.5 -34 -18.5 -51
s-21.833 -34.167 -38.5 -51.5zM447.004 -5.00098c-21.333 0 -43.168 2.5 -65.501 7.5s-45.166 11.167 -68.499 18.5c-12 3.33301 -26.333 7 -43 11l-45.5 10.5c-13.667 3 -22.167 4.5 -25.5 4.5c-18.667 0 -38.834 -3.16699 -60.501 -9.5s-43.5 -14.5 -65.5 -24.5l-11 19
c20.667 9.33301 42 17.833 64 25.5s46.333 11.5 73 11.5c16 0 33.5 -2.16699 52.5 -6.5s46.5 -12.166 82.5 -23.499c19.333 -6 38.333 -11.167 57 -15.5s37.334 -6.5 56.001 -6.5c16 0 32.5 2.66699 49.5 8s34.167 13.333 51.5 24l14 -18
c-18 -10.667 -36.5 -19.334 -55.5 -26.001s-38.833 -10 -59.5 -10zM59.002 352.999v22h378v-22h-378z" />
    <glyph glyph-name="currency" unicode="&#xa4;" horiz-adv-x="563" 
d="M279 122c-32.667 0 -62.5 7.99902 -89.5 23.999s-48.5 37.5 -64.5 64.5s-24 57.5 -24 91.5s8 64.5 24 91.5s37.5 48.5 64.5 64.5s56.833 24 89.5 24s62.5 -8 89.5 -24s48.5 -37.667 64.5 -65s24 -57.666 24 -90.999c0 -34 -8 -64.5 -24 -91.5s-37.5 -48.5 -64.5 -64.5
s-56.833 -24 -89.5 -24zM95 109.999l-15 17l71 66l16 -15zM151 412.999l-71 66l15 17l72 -68zM279 143.999c30.667 0 57.667 6.83301 81 20.5s41.666 32.5 54.999 56.5s20 51 20 81s-6.66699 57 -20 81s-31.666 42.833 -54.999 56.5s-50.333 20.5 -81 20.5
c-30 0 -56.833 -6.83301 -80.5 -20.5s-42.167 -32.5 -55.5 -56.5s-20 -51 -20 -81s6.66699 -57 20 -81s31.833 -42.833 55.5 -56.5s50.5 -20.5 80.5 -20.5zM463 109.999l-72 68l16 15l71 -66zM407 412.999l-16 15l72 68l15 -17z" />
    <glyph glyph-name="yen" unicode="&#xa5;" horiz-adv-x="592" 
d="M289 0v339l8 -39l-277 400h27l258 -373h-11l251 373h27l-270 -400l9 39v-339h-22zM131 149v22h338v-22h-338zM131 299v22h338v-22h-338z" />
    <glyph glyph-name="brokenbar" unicode="&#xa6;" horiz-adv-x="224" 
d="M101 -202v400h22v-400h-22zM101 341v399h22v-399h-22z" />
    <glyph glyph-name="section" unicode="&#xa7;" horiz-adv-x="539" 
d="M354 168l-20.002 15c14.667 4.66699 29.834 12.167 45.501 22.5s28.834 23.666 39.501 39.999s16 35.833 16 58.5c0 26 -7.66699 45.667 -23 59s-34.333 24.333 -57 33l-147 55c-14.667 6 -28.167 12.833 -40.5 20.5s-23 16.5 -32 26.5s-15.833 21.5 -20.5 34.5
s-7 27.5 -7 43.5c0 20 4 37.833 12 53.5s19 29 33 40s30.667 19.333 50 25s40.333 8.5 63 8.5c24.667 0 48.334 -3.16699 71.001 -9.5s44.167 -15.666 64.5 -27.999s38.5 -27.833 54.5 -46.5l-16 -18c-14.667 17.333 -31.167 32 -49.5 44s-37.833 21 -58.5 27
s-42.667 9 -66 9c-38 0 -69.833 -9.16699 -95.5 -27.5s-38.5 -44.5 -38.5 -78.5c0 -14.667 3.16699 -28.5 9.5 -41.5s16 -24.833 29 -35.5s29.5 -19.667 49.5 -27l143 -53c38 -14 63.5 -31.167 76.5 -51.5s19.5 -41.833 19.5 -64.5c0 -23.333 -5 -43.833 -15 -61.5
s-22.833 -32.5 -38.5 -44.5s-32.834 -21.333 -51.501 -28zM285.998 -61c-26.667 0 -52.833 2.66699 -78.5 8s-49.5 13.166 -71.5 23.499s-42 22.833 -60 37.5l16 18c25.333 -20 54.333 -35.833 87 -47.5s68.334 -17.5 107.001 -17.5c39.333 0 72.333 9.16699 99 27.5
s40 44.5 40 78.5c0 14.667 -3.5 28.334 -10.5 41.001s-17.833 24.334 -32.5 35.001s-33 20 -55 28l-143 53c-38 14 -63.5 31.167 -76.5 51.5s-19.5 41.833 -19.5 64.5c0 22 4.83301 41.667 14.5 59s22.334 32.333 38.001 45s32.834 22.667 51.501 30l21 -15
c-14.667 -4.66699 -29.834 -12 -45.501 -22s-28.834 -23.167 -39.501 -39.5s-16 -35.833 -16 -58.5c0 -26 7.66699 -45.833 23 -59.5s34.333 -24.834 57 -33.501l147 -55c22 -8 41.167 -17.5 57.5 -28.5s29.166 -24.333 38.499 -40s14 -34.5 14 -56.5
c0 -26 -7 -48.5 -21 -67.5s-33.333 -33.667 -58 -44s-52.667 -15.5 -84 -15.5z" />
    <glyph glyph-name="dieresis" unicode="&#xa8;" horiz-adv-x="500" 
d="M325 663c-9.33301 0 -16.333 2.66699 -21 8s-7 12.333 -7 21c0 8 2.33301 14.833 7 20.5s11.667 8.5 21 8.5c8.66699 0 15.5 -2.66699 20.5 -8s7.5 -12.333 7.5 -21s-2.33301 -15.667 -7 -21s-11.667 -8 -21 -8zM175 663c-9.33301 0 -16.333 2.66699 -21 8
s-7 12.333 -7 21c0 8 2.33301 14.833 7 20.5s11.667 8.5 21 8.5c8.66699 0 15.5 -2.66699 20.5 -8s7.5 -12.333 7.5 -21s-2.33301 -15.667 -7 -21s-11.667 -8 -21 -8z" />
    <glyph glyph-name="copyright" unicode="&#xa9;" horiz-adv-x="786" 
d="M392 -8c-50 0 -96.667 9.16699 -140 27.5s-81.166 43.666 -113.499 75.999s-57.666 70.166 -75.999 113.499s-27.5 90 -27.5 140s9.16699 96.667 27.5 140s43.666 81.333 75.999 114s70.166 58.167 113.499 76.5s90 27.5 140 27.5s96.667 -9.16699 140 -27.5
s81.333 -43.833 114 -76.5s58.167 -70.667 76.5 -114s27.5 -90 27.5 -140s-9.16699 -96.667 -27.5 -140s-43.833 -81.166 -76.5 -113.499s-70.667 -57.666 -114 -75.999s-90 -27.5 -140 -27.5zM398 142c-38 0 -72.499 9.00195 -103.499 27.002s-55.5 42.667 -73.5 74
s-27 67 -27 107c0 38 9 72.667 27 104s42.5 56.333 73.5 75s65.5 28 103.5 28c22.667 0 45 -3.83301 67 -11.5s42.667 -18.834 62 -33.501l-13 -18c-6.66699 5.33301 -15.667 11.166 -27 17.499s-24.5 11.833 -39.5 16.5s-31.5 7 -49.5 7
c-33.333 0 -63.833 -8.66699 -91.5 -26s-49.667 -40 -66 -68s-24.5 -58.333 -24.5 -91c0 -34 8.16699 -65.167 24.5 -93.5s38.166 -50.833 65.499 -67.5s58 -25 92 -25c25.333 0 47.333 3.16699 66 9.5s37 15.5 55 27.5l12 -16c-20 -14 -41.333 -24.667 -64 -32
s-45.667 -11 -69 -11zM393.001 14.002c46.667 0 90.167 8.66699 130.5 26s75.833 41.166 106.5 71.499s54.5 66 71.5 107s25.5 84.833 25.5 131.5s-8.5 90.334 -25.5 131.001s-40.833 76.167 -71.5 106.5s-66.167 54.166 -106.5 71.499s-83.833 26 -130.5 26
s-90.334 -8.66699 -131.001 -26s-76.334 -41.166 -107.001 -71.499s-54.5 -65.833 -71.5 -106.5s-25.5 -84.334 -25.5 -131.001s8.5 -90.5 25.5 -131.5s40.833 -76.667 71.5 -107s66.334 -54.166 107.001 -71.499s84.334 -26 131.001 -26z" />
    <glyph glyph-name="ordfeminine" unicode="&#xaa;" horiz-adv-x="365" 
d="M176 402c-27.333 0 -52.001 7 -74.001 21s-39.5 33 -52.5 57s-19.5 51 -19.5 81s6.5 57.167 19.5 81.5s30.5 43.5 52.5 57.5s46.667 21 74 21c28.667 0 54.334 -7.16699 77.001 -21.5s38 -33.833 46 -58.5l-9 3l1 72h19v-313h-20v75l9 6
c-5.33301 -16.667 -14 -31.167 -26 -43.5s-26.333 -21.833 -43 -28.5s-34.667 -10 -54 -10zM174.999 422c22.667 0 42.834 4.5 60.501 13.5s31.5 23.667 41.5 44s15 47.5 15 81.5c0 52 -11.333 88.333 -34 109s-50.334 31 -83.001 31c-24 0 -45.333 -6.16699 -64 -18.5
s-33.5 -29 -44.5 -50s-16.5 -44.833 -16.5 -71.5c0 -26 5.5 -49.5 16.5 -70.5s25.833 -37.667 44.5 -50s40 -18.5 64 -18.5z" />
    <glyph glyph-name="guillemotleft" unicode="&#xab;" horiz-adv-x="451" 
d="M392 73l-169 195v6l169 183l19 -13l-171 -183v20l171 -195zM209 73l-169 195v6l169 183l19 -13l-171 -183v20l171 -195z" />
    <glyph glyph-name="logicalnot" unicode="&#xac;" horiz-adv-x="670" 
d="M583 117v262l11 -12h-529v22h540v-272h-22z" />
    <glyph glyph-name="uni00AD" unicode="&#xad;" horiz-adv-x="394" 
d="M60 263v22h274v-22h-274z" />
    <glyph glyph-name="registered" unicode="&#xae;" horiz-adv-x="525" 
d="M259 257c-42 0 -80.501 10.167 -115.501 30.5s-63 47.5 -84 81.5s-31.5 72 -31.5 114c0 31.333 6 60.666 18 87.999s28.833 51.333 50.5 72s46.334 36.834 74.001 48.501s57.167 17.5 88.5 17.5c32 0 62 -5.83301 90 -17.5s52.5 -27.834 73.5 -48.501
s37.5 -44.667 49.5 -72s18 -56.666 18 -87.999s-6 -60.666 -18 -87.999s-28.5 -51.333 -49.5 -72s-45.5 -36.834 -73.5 -48.501s-58 -17.5 -90 -17.5zM258.999 277c38.667 0 74 9.16797 106 27.501s57.5 43.166 76.5 74.499s28.5 66 28.5 104
c0 38.667 -9.5 73.5 -28.5 104.5s-44.5 55.667 -76.5 74s-67.333 27.5 -106 27.5s-74 -9.16699 -106 -27.5s-57.5 -43 -76.5 -74s-28.5 -65.833 -28.5 -104.5s9.66699 -73.5 29 -104.5s45 -55.667 77 -74s67 -27.5 105 -27.5zM313.999 367.001l-41 104l19 8l45 -112h-23z
M190.999 367.001v239h77c23.333 0 42 -6.83301 56 -20.5s21 -31.5 21 -53.5c0 -20 -7.33301 -36.333 -22 -49s-33 -19 -55 -19h-64l7 5v-102h-20zM210.999 478.001l-7 6h59c18 0 32.667 4.66699 44 14s17 21 17 35c0 16.667 -4.83301 29.667 -14.5 39s-24.5 14 -44.5 14h-65
l11 8v-116z" />
    <glyph glyph-name="macron" unicode="&#xaf;" horiz-adv-x="424" 
d="M115 663v22h270v-22h-270z" />
    <glyph glyph-name="degree" unicode="&#xb0;" horiz-adv-x="532" 
d="M266 399c-29.333 0 -55.8311 6.83594 -79.498 20.5029s-42.334 32.167 -56.001 55.5s-20.5 49.333 -20.5 78c0 29.333 6.83301 55.833 20.5 79.5s32.167 42.334 55.5 56.001s50 20.5 80 20.5s56.667 -6.83301 80 -20.5s41.833 -32.334 55.5 -56.001
s20.5 -49.834 20.5 -78.501s-6.83301 -54.834 -20.5 -78.501s-32.334 -42.334 -56.001 -56.001s-50.167 -20.5 -79.5 -20.5zM266.002 421.003c24.667 0 47.166 6.16699 67.499 18.5s36.5 28.5 48.5 48.5s18 42 18 66s-6.16699 46.167 -18.5 66.5s-28.666 36.5 -48.999 48.5
s-42.5 18 -66.5 18c-24.667 0 -47.167 -6 -67.5 -18s-36.5 -28.167 -48.5 -48.5s-18 -42.833 -18 -67.5c0 -24 6 -46 18 -66s28.167 -36 48.5 -48s42.833 -18 67.5 -18z" />
    <glyph glyph-name="plusminus" unicode="&#xb1;" horiz-adv-x="606" 
d="M65 346v22h476v-22h-476zM65 68v22h476v-22h-476zM291 183v342h23v-342h-23z" />
    <glyph glyph-name="uni00B2" unicode="&#xb2;" horiz-adv-x="346" 
d="M75 418l-3 26l135 153c11.333 12.667 21 24.667 29 36s14 22 18 32s6 19.667 6 29c0 19.333 -7.16699 34.666 -21.5 45.999s-31.166 17 -50.499 17s-36.666 -5 -51.999 -15s-29.666 -26.333 -42.999 -49l-19 13c8 14 17.667 26.5 29 37.5s24.166 19.667 38.499 26
s29.833 9.5 46.5 9.5c17.333 0 33.166 -3.5 47.499 -10.5s25.666 -16.833 33.999 -29.5s12.5 -27.334 12.5 -44.001c0 -13.333 -2.5 -26.166 -7.5 -38.499s-12.167 -25.166 -21.5 -38.499s-21.333 -28 -36 -44l-128 -143l1 9h205v-22h-220z" />
    <glyph glyph-name="uni00B3" unicode="&#xb3;" horiz-adv-x="342" 
d="M174 412c-12.667 0 -25.5 1.50195 -38.5 4.50195s-25.5 7 -37.5 12s-22.667 10.833 -32 17.5l12 18c20.667 -12.667 38 -20.834 52 -24.501s28 -5.5 42 -5.5c30 0 54.667 8.5 74 25.5s29 40.167 29 69.5c0 26 -9.33301 47 -28 63s-40.667 24 -66 24
c-16 0 -29.5 -1.66699 -40.5 -5s-25.5 -10 -43.5 -20l-5 15l157 150l5 -5h-174v21h186l4 -24l-146 -139h-17c18 12 32.333 19.667 43 23s21.667 5 33 5c31.333 0 58.166 -10 80.499 -30s33.5 -45.667 33.5 -77c0 -22.667 -5.5 -42.834 -16.5 -60.501
s-25.667 -31.667 -44 -42s-39.166 -15.5 -62.499 -15.5z" />
    <glyph glyph-name="acute" unicode="&#xb4;" horiz-adv-x="500" 
d="M183 611l-10 15l140 110l14 -21z" />
    <glyph glyph-name="uni00B5" unicode="&#xb5;" horiz-adv-x="549" 
d="M73 -157l-0.00195312 681.999h22v-351c0 -33.333 6 -62.166 18 -86.499s30.333 -43 55 -56s56.334 -19.5 95.001 -19.5c26 0 50.167 5 72.5 15s41.833 23.333 58.5 40s29.667 35.834 39 57.501s14 44.167 14 67.5v333h22v-525h-20l-6 140h20
c-13.333 -37.333 -30.333 -66.833 -51 -88.5s-43.667 -37.334 -69 -47.001s-52 -14.5 -80 -14.5c-31.333 0 -60.166 4.66699 -86.499 14s-48 25.5 -65 48.5s-28.167 55.167 -33.5 96.5l17 -46v-260h-22z" />
    <glyph glyph-name="paragraph" unicode="&#xb6;" horiz-adv-x="570" 
d="M297 0l-0.00195312 291l11 -12h-65c-36 0 -68.167 9 -96.5 27s-50.666 42.5 -66.999 73.5s-24.5 66.5 -24.5 106.5c0 43.333 9.33301 81 28 113s44.834 56.833 78.501 74.5s73.167 26.5 118.5 26.5h179v-700h-22v690l11 -12h-140l11 12v-690h-22z" />
    <glyph glyph-name="periodcentered" unicode="&#xb7;" horiz-adv-x="228" 
d="M114 259c-9.33301 0 -16.666 2.66699 -21.999 8s-8 13 -8 23c0 9.33301 2.66699 16.833 8 22.5s12.666 8.5 21.999 8.5s16.666 -2.66699 21.999 -8s8 -13 8 -23c0 -8.66699 -2.66699 -16 -8 -22s-12.666 -9 -21.999 -9z" />
    <glyph glyph-name="cedilla" unicode="&#xb8;" horiz-adv-x="500" 
d="M179 -227l-3.99902 17c20 3.33301 40 7 60 11s36.667 10.667 50 20s20 23 20 41c0 14.667 -5.33301 25.5 -16 32.5s-23.667 11.667 -39 14s-30.333 3.5 -45 3.5l-13 10l54 78h22l-51 -71c39.333 -1.33301 67.166 -8 83.499 -20s24.5 -28 24.5 -48
c0 -18 -4.5 -32.167 -13.5 -42.5s-20.667 -18.333 -35 -24s-30 -10 -47 -13z" />
    <glyph glyph-name="uni00B9" unicode="&#xb9;" horiz-adv-x="281" 
d="M160 432v319h6l-100 -56l-10 17l112 65h14v-345h-11h-6h-5z" />
    <glyph glyph-name="ordmasculine" unicode="&#xba;" horiz-adv-x="360" 
d="M180 392c-26 0 -49.667 7.5 -71 22.5s-38.166 35.167 -50.499 60.5s-18.5 54 -18.5 86s6.16699 60.833 18.5 86.5s29.166 46 50.499 61s45 22.5 71 22.5c26.667 0 50.5 -7.5 71.5 -22.5s37.667 -35.333 50 -61s18.5 -54.5 18.5 -86.5s-6.16699 -60.667 -18.5 -86
s-29 -45.5 -50 -60.5s-44.833 -22.5 -71.5 -22.5zM179 412c23.333 0 44 6.66699 62 20s32.333 31.166 43 53.499s16 47.5 16 75.5c0 28.667 -5.33301 54.334 -16 77.001s-25.167 40.5 -43.5 53.5s-38.833 19.5 -61.5 19.5s-43 -6.5 -61 -19.5s-32.167 -30.833 -42.5 -53.5
s-15.5 -48.334 -15.5 -77.001c0 -28 5.16699 -53.167 15.5 -75.5s24.5 -40.166 42.5 -53.499s38.333 -20 61 -20z" />
    <glyph glyph-name="guillemotright" unicode="&#xbb;" horiz-adv-x="491" 
d="M280 64l-19 13l171 183v-20l-171 195l19 13l169 -195v-6zM64 64l-19 13l171 183v-20l-171 195l19 13l169 -195v-6z" />
    <glyph glyph-name="onequarter" unicode="&#xbc;" horiz-adv-x="751" 
d="M170 362v319h6l-100 -56l-10 17l112 65h14v-345h-11h-6h-5zM92 0l468 700h27l-468 -700h-27zM643 107h66v-22h-66v22zM452 93l-3 14h189l-12 -11v239l8 -6zM648 0h-22v91l9 -6h-205l-3 14l199 257h22v-356z" />
    <glyph glyph-name="onehalf" unicode="&#xbd;" horiz-adv-x="764" 
d="M170 362v319h6l-100 -56l-10 17l112 65h14v-345h-11h-6h-5zM62 0l468 700h27l-468 -700h-27zM447 0l-3 26l135 153c11.333 12.667 21 24.667 29 36s14 22 18 32s6 19.667 6 29c0 19.333 -7.16699 34.666 -21.5 45.999s-31.166 17 -50.499 17s-36.666 -5 -51.999 -15
s-29.666 -26.333 -42.999 -49l-19 13c8 14 17.667 26.5 29 37.5s24.166 19.667 38.499 26s29.833 9.5 46.5 9.5c17.333 0 33.166 -3.5 47.499 -10.5s25.666 -16.833 33.999 -29.5s12.5 -27.334 12.5 -44.001c0 -13.333 -2.5 -26.166 -7.5 -38.499
s-12.167 -25.166 -21.5 -38.499s-21.333 -28 -36 -44l-128 -143l1 9h205v-22h-220z" />
    <glyph glyph-name="threequarters" unicode="&#xbe;" horiz-adv-x="694" 
d="M128 342c-12.667 0 -25.5 1.50195 -38.5 4.50195s-25.5 7 -37.5 12s-22.667 10.833 -32 17.5l12 18c20.667 -12.667 38 -20.834 52 -24.501s28 -5.5 42 -5.5c30 0 54.667 8.5 74 25.5s29 40.167 29 69.5c0 26 -9.33301 47 -28 63s-40.667 24 -66 24
c-16 0 -29.5 -1.66699 -40.5 -5s-25.5 -10 -43.5 -20l-5 15l157 150l5 -5h-174v21h186l4 -24l-146 -139h-17c18 12 32.333 19.667 43 23s21.667 5 33 5c31.333 0 58.166 -10 80.499 -30s33.5 -45.667 33.5 -77c0 -22.667 -5.5 -42.834 -16.5 -60.501
s-25.667 -31.667 -44 -42s-39.166 -15.5 -62.499 -15.5zM68 0.00195312l468 700h27l-468 -700h-27zM586 107.002h66v-22h-66v22zM395 93.002l-3 14h189l-12 -11v239l8 -6zM591 0.00195312h-22v91l9 -6h-205l-3 14l199 257h22v-356z" />
    <glyph glyph-name="questiondown" unicode="&#xbf;" horiz-adv-x="438" 
d="M212 388l2 -168.993c-24.667 -6 -47.167 -13.833 -67.5 -23.5s-38.166 -20.834 -53.499 -33.501s-28.166 -26.834 -38.499 -42.501s-18.166 -32.5 -23.499 -50.5s-8 -37 -8 -57c0 -28.667 7 -55.667 21 -81s34 -45.833 60 -61.5s57 -23.5 93 -23.5
c38.667 0 74.5 10.667 107.5 32s58.167 57.666 75.5 108.999l18 -12c-15.333 -48.667 -41 -86 -77 -112s-77 -39 -123 -39c-39.333 0 -73.833 8.33301 -103.5 25s-52.834 39.167 -69.501 67.5s-25 60.166 -25 95.499c0 26.667 4.5 51.667 13.5 75s21.667 44.666 38 63.999
s36.166 36.166 59.499 50.499s49.666 25.166 78.999 32.499l2 154h20zM224 514.007c0 -8.66699 -2.33301 -15.833 -7 -21.5s-11 -8.5 -19 -8.5c-9.33301 0 -16 2.66699 -20 8s-6 12.666 -6 21.999c0 8 2.16699 15 6.5 21s10.833 9 19.5 9s15.167 -2.66699 19.5 -8
s6.5 -12.666 6.5 -21.999z" />
    <glyph glyph-name="Agrave" unicode="&#xc0;" horiz-adv-x="611" 
d="M20 0l269 700h33l269 -700h-26l-193 504c-2 4.66699 -5.5 13.5 -10.5 26.5l-18 47.5l-22.5 58.5l-23 58.5l11 -1c-4 -12 -9.5 -27.333 -16.5 -46l-22 -57.5l-20.5 -53.5l-13 -34l-191 -503h-26zM120 230l8 23h357l8 -23h-373zM358 764l-154 86l13 22l150 -92z" />
    <glyph glyph-name="Aacute" unicode="&#xc1;" horiz-adv-x="611" 
d="M20 0l269 700h33l269 -700h-26l-193 504c-2 4.66699 -5.5 13.5 -10.5 26.5l-18 47.5l-22.5 58.5l-23 58.5l11 -1c-4 -12 -9.5 -27.333 -16.5 -46l-22 -57.5l-20.5 -53.5l-13 -34l-191 -503h-26zM120 230l8 23h357l8 -23h-373zM253 764l-9 16l150 92l13 -22z" />
    <glyph glyph-name="Acircumflex" unicode="&#xc2;" horiz-adv-x="611" 
d="M20 0l269 700h33l269 -700h-26l-193 504c-2 4.66699 -5.5 13.5 -10.5 26.5l-18 47.5l-22.5 58.5l-23 58.5l11 -1c-4 -12 -9.5 -27.333 -16.5 -46l-22 -57.5l-20.5 -53.5l-13 -34l-191 -503h-26zM120 230l8 23h357l8 -23h-373zM197 770l-12 13l107 82h28l107 -82l-12 -13
l-116 82h15z" />
    <glyph glyph-name="Atilde" unicode="&#xc3;" horiz-adv-x="611" 
d="M20 0l269 700h33l269 -700h-26l-193 504c-2 4.66699 -5.5 13.5 -10.5 26.5l-18 47.5l-22.5 58.5l-23 58.5l11 -1c-4 -12 -9.5 -27.333 -16.5 -46l-22 -57.5l-20.5 -53.5l-13 -34l-191 -503h-26zM120 230l8 23h357l8 -23h-373zM366 784
c-8 0 -17.3359 1.50098 -28.0029 4.50098s-28.667 10.833 -54 23.5l-21.5 10.5c-10.333 5 -20.5 7.5 -30.5 7.5c-9.33301 0 -17.833 -3.83301 -25.5 -11.5s-11.5 -18.834 -11.5 -33.501h-22c0 20.667 5.83301 37 17.5 49s24.834 18 39.501 18c16 0 31 -3.33301 45 -10
l39 -19c16 -7.33301 27.167 -12 33.5 -14s11.833 -3 16.5 -3c12.667 0 24.334 3.5 35.001 10.5s16.334 18.5 17.001 34.5h22c0 -14 -3.33301 -26 -10 -36s-15.5 -17.667 -26.5 -23s-22.833 -8 -35.5 -8z" />
    <glyph glyph-name="Adieresis" unicode="&#xc4;" horiz-adv-x="611" 
d="M20 0l269 700h33l269 -700h-26l-193 504c-2 4.66699 -5.5 13.5 -10.5 26.5l-18 47.5l-22.5 58.5l-23 58.5l11 -1c-4 -12 -9.5 -27.333 -16.5 -46l-22 -57.5l-20.5 -53.5l-13 -34l-191 -503h-26zM120 230l8 23h357l8 -23h-373zM381 791
c-8 0 -14.501 2.50098 -19.501 7.50098s-7.5 11.5 -7.5 19.5c0 7.33301 2.33301 13.666 7 18.999s11.334 8 20.001 8c9.33301 0 16.166 -2.5 20.499 -7.5s6.5 -11.5 6.5 -19.5s-2.16699 -14.5 -6.5 -19.5s-11.166 -7.5 -20.499 -7.5zM230.999 791.001
c-8 0 -14.501 2.50098 -19.501 7.50098s-7.5 11.5 -7.5 19.5c0 7.33301 2.33301 13.666 7 18.999s11.334 8 20.001 8c9.33301 0 16.166 -2.5 20.499 -7.5s6.5 -11.5 6.5 -19.5s-2.16699 -14.5 -6.5 -19.5s-11.166 -7.5 -20.499 -7.5z" />
    <glyph glyph-name="Aring" unicode="&#xc5;" horiz-adv-x="611" 
d="M20 0l269 700h33l269 -700h-26l-193 504c-2 4.66699 -5.5 13.5 -10.5 26.5l-18 47.5l-22.5 58.5l-23 58.5l11 -1c-4 -12 -9.5 -27.333 -16.5 -46l-22 -57.5l-20.5 -53.5l-13 -34l-191 -503h-26zM120 230l8 23h357l8 -23h-373zM306 689c-16 0 -30.998 4 -44.998 12
s-25.333 18.667 -34 32s-13 28 -13 44c0 16.667 4.16699 31.667 12.5 45s19.5 24.166 33.5 32.499s29.333 12.5 46 12.5c17.333 0 32.833 -4.16699 46.5 -12.5s24.667 -19.166 33 -32.499s12.5 -28.333 12.5 -45c0 -15.333 -4.33301 -29.833 -13 -43.5
s-19.834 -24.5 -33.501 -32.5s-28.834 -12 -45.501 -12zM306.002 709c20 0 36.833 6.83301 50.5 20.5s20.5 29.5 20.5 47.5c0 21.333 -6.83301 38.333 -20.5 51s-30.5 19 -50.5 19c-20.667 0 -37.667 -6.5 -51 -19.5s-20 -29.833 -20 -50.5c0 -18 7 -33.833 21 -47.5
s30.667 -20.5 50 -20.5z" />
    <glyph glyph-name="AE" unicode="&#xc6;" horiz-adv-x="926" 
d="M0 0l476 700h385v-22h-353v-306h296v-22h-296v-328h353v-22h-375v216h-319l15 22h304v453l6 -4l-464 -687h-28z" />
    <glyph glyph-name="Ccedilla" unicode="&#xc7;" horiz-adv-x="690" 
d="M399 -10c-50 0 -95.9971 8.66699 -137.997 26s-78.5 41.833 -109.5 73.5s-54.833 69.334 -71.5 113.001s-25 91.5 -25 143.5c0 53.333 8.33301 102.166 25 146.499s40.5 82.666 71.5 114.999s67.5 57.5 109.5 75.5s88 27 138 27c35.333 0 68.5 -4.83301 99.5 -14.5
s59.667 -23.167 86 -40.5s49.833 -37.666 70.5 -60.999l-18 -16c-19.333 22 -41.333 41.333 -66 58s-51.334 29.5 -80.001 38.5s-59.334 13.5 -92.001 13.5c-46 0 -88.667 -8.5 -128 -25.5s-73.333 -40.833 -102 -71.5s-51 -66.834 -67 -108.501s-24 -87.167 -24 -136.5
c0 -48.667 8 -93.334 24 -134.001s38.333 -76 67 -106s62.667 -53.167 102 -69.5s82 -24.5 128 -24.5c30 0 58.667 3.5 86 10.5s52.666 17 75.999 30s44.333 28.5 63 46.5l15 -18c-20 -19.333 -42.5 -35.666 -67.5 -48.999s-52 -23.666 -81 -30.999s-59.5 -11 -91.5 -11z
M309.003 -227l-3.99902 17c20 3.33301 40 7 60 11s36.667 10.667 50 20s20 23 20 41c0 14.667 -5.33301 25.5 -16 32.5s-23.667 11.667 -39 14s-30.333 3.5 -45 3.5l-13 10l54 78h22l-51 -71c39.333 -1.33301 67.166 -8 83.499 -20s24.5 -28 24.5 -48
c0 -18 -4.5 -32.167 -13.5 -42.5s-20.667 -18.333 -35 -24s-30 -10 -47 -13z" />
    <glyph glyph-name="Egrave" unicode="&#xc8;" horiz-adv-x="566" 
d="M110 0v700h391v-22h-369v-656h363v-22h-385zM123 351v22h320v-22h-320zM365 764l-154 86l13 22l150 -92z" />
    <glyph glyph-name="Eacute" unicode="&#xc9;" horiz-adv-x="566" 
d="M110 0v700h391v-22h-369v-656h363v-22h-385zM123 351v22h320v-22h-320zM260 764l-9 16l150 92l13 -22z" />
    <glyph glyph-name="Ecircumflex" unicode="&#xca;" horiz-adv-x="566" 
d="M110 0v700h391v-22h-369v-656h363v-22h-385zM123 351v22h320v-22h-320zM204 770l-12 13l107 82h28l107 -82l-12 -13l-116 82h15z" />
    <glyph glyph-name="Edieresis" unicode="&#xcb;" horiz-adv-x="566" 
d="M110 0v700h391v-22h-369v-656h363v-22h-385zM123 351v22h320v-22h-320zM388 791c-8 0 -14.501 2.50098 -19.501 7.50098s-7.5 11.5 -7.5 19.5c0 7.33301 2.33301 13.666 7 18.999s11.334 8 20.001 8c9.33301 0 16.166 -2.5 20.499 -7.5s6.5 -11.5 6.5 -19.5
s-2.16699 -14.5 -6.5 -19.5s-11.166 -7.5 -20.499 -7.5zM237.999 791.001c-8 0 -14.501 2.50098 -19.501 7.50098s-7.5 11.5 -7.5 19.5c0 7.33301 2.33301 13.666 7 18.999s11.334 8 20.001 8c9.33301 0 16.166 -2.5 20.499 -7.5s6.5 -11.5 6.5 -19.5
s-2.16699 -14.5 -6.5 -19.5s-11.166 -7.5 -20.499 -7.5z" />
    <glyph glyph-name="Igrave" unicode="&#xcc;" horiz-adv-x="386" 
d="M50 0v22h132v656h-132v22h286v-22h-132v-656h132v-22h-286zM245 764l-154 86l13 22l150 -92z" />
    <glyph glyph-name="Iacute" unicode="&#xcd;" horiz-adv-x="386" 
d="M50 0v22h132v656h-132v22h286v-22h-132v-656h132v-22h-286zM140 764l-9 16l150 92l13 -22z" />
    <glyph glyph-name="Icircumflex" unicode="&#xce;" horiz-adv-x="386" 
d="M50 0v22h132v656h-132v22h286v-22h-132v-656h132v-22h-286zM84 770l-12 13l107 82h28l107 -82l-12 -13l-116 82h15z" />
    <glyph glyph-name="Idieresis" unicode="&#xcf;" horiz-adv-x="386" 
d="M50 0v22h132v656h-132v22h286v-22h-132v-656h132v-22h-286zM268 791c-8 0 -14.501 2.50098 -19.501 7.50098s-7.5 11.5 -7.5 19.5c0 7.33301 2.33301 13.666 7 18.999s11.334 8 20.001 8c9.33301 0 16.166 -2.5 20.499 -7.5s6.5 -11.5 6.5 -19.5
s-2.16699 -14.5 -6.5 -19.5s-11.166 -7.5 -20.499 -7.5zM117.999 791.001c-8 0 -14.501 2.50098 -19.501 7.50098s-7.5 11.5 -7.5 19.5c0 7.33301 2.33301 13.666 7 18.999s11.334 8 20.001 8c9.33301 0 16.166 -2.5 20.499 -7.5s6.5 -11.5 6.5 -19.5
s-2.16699 -14.5 -6.5 -19.5s-11.166 -7.5 -20.499 -7.5z" />
    <glyph glyph-name="Eth" unicode="&#xd0;" horiz-adv-x="737" 
d="M24 339v21h268v-21h-268zM110 0v700.001h247c42.667 0 83.5 -8.66699 122.5 -26s73.667 -41.666 104 -72.999s54.333 -68.333 72 -111s26.5 -89.334 26.5 -140.001c0 -50 -8.83301 -96.333 -26.5 -139s-41.667 -79.834 -72 -111.501s-65 -56.167 -104 -73.5
s-79.833 -26 -122.5 -26h-247zM132 13.001l-10 8.99902h230c40 0 78.5 8.33301 115.5 25s69.833 39.834 98.5 69.501s51.334 64.5 68.001 104.5s25 83 25 129c0 46.667 -8.33301 90 -25 130s-39.334 74.833 -68.001 104.5s-61.5 52.667 -98.5 69s-75.5 24.5 -115.5 24.5
h-231l11 11v-676z" />
    <glyph glyph-name="Ntilde" unicode="&#xd1;" horiz-adv-x="731" 
d="M110 0l0.000976562 699.998h22l473 -669h-4c-0.666992 6 -1.16699 12.333 -1.5 19s-0.5 14.834 -0.5 24.501s-0.166992 21.834 -0.5 36.501s-0.5 32.5 -0.5 53.5v76.5v459h22v-700h-20l-485 686h15c0 -6.66699 0.166992 -16 0.5 -28s0.666016 -25.833 0.999023 -41.5
s0.5 -32 0.5 -49v-50.5v-47v-470h-22zM426.001 783.998c-8 0 -17.3359 1.50098 -28.0029 4.50098s-28.667 10.833 -54 23.5l-21.5 10.5c-10.333 5 -20.5 7.5 -30.5 7.5c-9.33301 0 -17.833 -3.83301 -25.5 -11.5s-11.5 -18.834 -11.5 -33.501h-22
c0 20.667 5.83301 37 17.5 49s24.834 18 39.501 18c16 0 31 -3.33301 45 -10l39 -19c16 -7.33301 27.167 -12 33.5 -14s11.833 -3 16.5 -3c12.667 0 24.334 3.5 35.001 10.5s16.334 18.5 17.001 34.5h22c0 -14 -3.33301 -26 -10 -36s-15.5 -17.667 -26.5 -23
s-22.833 -8 -35.5 -8z" />
    <glyph glyph-name="Ograve" unicode="&#xd2;" horiz-adv-x="798" 
d="M399 -10c-50 0 -96 8.66699 -138 26s-78.5 42.166 -109.5 74.499s-54.833 70.333 -71.5 114s-25 91.834 -25 144.501s8.33301 101 25 145s40.5 82.167 71.5 114.5s67.5 57.333 109.5 75s88 26.5 138 26.5s96 -8.83301 138 -26.5s78.5 -42.5 109.5 -74.5
s54.833 -70 71.5 -114s25 -92.667 25 -146c0 -52.667 -8.33301 -100.834 -25 -144.501s-40.5 -81.667 -71.5 -114s-67.5 -57.166 -109.5 -74.499s-88 -26 -138 -26zM399 12c46.667 0 89.5 8.33301 128.5 25s73 40 102 70s51.333 65.667 67 107s23.5 86.333 23.5 135
c0 49.333 -7.83301 94.5 -23.5 135.5s-38 76.833 -67 107.5s-63 54.334 -102 71.001s-81.833 25 -128.5 25c-46 0 -88.667 -8.33301 -128 -25s-73.333 -40.334 -102 -71.001s-51 -66.5 -67 -107.5s-24 -86.167 -24 -135.5c0 -48.667 8 -93.667 24 -135s38.333 -77 67 -107
s62.667 -53.333 102 -70s82 -25 128 -25zM451 764l-154 86l13 22l150 -92z" />
    <glyph glyph-name="Oacute" unicode="&#xd3;" horiz-adv-x="798" 
d="M399 -10c-50 0 -96 8.66699 -138 26s-78.5 42.166 -109.5 74.499s-54.833 70.333 -71.5 114s-25 91.834 -25 144.501s8.33301 101 25 145s40.5 82.167 71.5 114.5s67.5 57.333 109.5 75s88 26.5 138 26.5s96 -8.83301 138 -26.5s78.5 -42.5 109.5 -74.5
s54.833 -70 71.5 -114s25 -92.667 25 -146c0 -52.667 -8.33301 -100.834 -25 -144.501s-40.5 -81.667 -71.5 -114s-67.5 -57.166 -109.5 -74.499s-88 -26 -138 -26zM399 12c46.667 0 89.5 8.33301 128.5 25s73 40 102 70s51.333 65.667 67 107s23.5 86.333 23.5 135
c0 49.333 -7.83301 94.5 -23.5 135.5s-38 76.833 -67 107.5s-63 54.334 -102 71.001s-81.833 25 -128.5 25c-46 0 -88.667 -8.33301 -128 -25s-73.333 -40.334 -102 -71.001s-51 -66.5 -67 -107.5s-24 -86.167 -24 -135.5c0 -48.667 8 -93.667 24 -135s38.333 -77 67 -107
s62.667 -53.333 102 -70s82 -25 128 -25zM346 764l-9 16l150 92l13 -22z" />
    <glyph glyph-name="Ocircumflex" unicode="&#xd4;" horiz-adv-x="798" 
d="M399 -10c-50 0 -96 8.66699 -138 26s-78.5 42.166 -109.5 74.499s-54.833 70.333 -71.5 114s-25 91.834 -25 144.501s8.33301 101 25 145s40.5 82.167 71.5 114.5s67.5 57.333 109.5 75s88 26.5 138 26.5s96 -8.83301 138 -26.5s78.5 -42.5 109.5 -74.5
s54.833 -70 71.5 -114s25 -92.667 25 -146c0 -52.667 -8.33301 -100.834 -25 -144.501s-40.5 -81.667 -71.5 -114s-67.5 -57.166 -109.5 -74.499s-88 -26 -138 -26zM399 12c46.667 0 89.5 8.33301 128.5 25s73 40 102 70s51.333 65.667 67 107s23.5 86.333 23.5 135
c0 49.333 -7.83301 94.5 -23.5 135.5s-38 76.833 -67 107.5s-63 54.334 -102 71.001s-81.833 25 -128.5 25c-46 0 -88.667 -8.33301 -128 -25s-73.333 -40.334 -102 -71.001s-51 -66.5 -67 -107.5s-24 -86.167 -24 -135.5c0 -48.667 8 -93.667 24 -135s38.333 -77 67 -107
s62.667 -53.333 102 -70s82 -25 128 -25zM290 770l-12 13l107 82h28l107 -82l-12 -13l-116 82h15z" />
    <glyph glyph-name="Otilde" unicode="&#xd5;" horiz-adv-x="798" 
d="M399 -10c-50 0 -96 8.66699 -138 26s-78.5 42.166 -109.5 74.499s-54.833 70.333 -71.5 114s-25 91.834 -25 144.501s8.33301 101 25 145s40.5 82.167 71.5 114.5s67.5 57.333 109.5 75s88 26.5 138 26.5s96 -8.83301 138 -26.5s78.5 -42.5 109.5 -74.5
s54.833 -70 71.5 -114s25 -92.667 25 -146c0 -52.667 -8.33301 -100.834 -25 -144.501s-40.5 -81.667 -71.5 -114s-67.5 -57.166 -109.5 -74.499s-88 -26 -138 -26zM399 12c46.667 0 89.5 8.33301 128.5 25s73 40 102 70s51.333 65.667 67 107s23.5 86.333 23.5 135
c0 49.333 -7.83301 94.5 -23.5 135.5s-38 76.833 -67 107.5s-63 54.334 -102 71.001s-81.833 25 -128.5 25c-46 0 -88.667 -8.33301 -128 -25s-73.333 -40.334 -102 -71.001s-51 -66.5 -67 -107.5s-24 -86.167 -24 -135.5c0 -48.667 8 -93.667 24 -135s38.333 -77 67 -107
s62.667 -53.333 102 -70s82 -25 128 -25zM459 784c-8 0 -17.3359 1.50098 -28.0029 4.50098s-28.667 10.833 -54 23.5l-21.5 10.5c-10.333 5 -20.5 7.5 -30.5 7.5c-9.33301 0 -17.833 -3.83301 -25.5 -11.5s-11.5 -18.834 -11.5 -33.501h-22c0 20.667 5.83301 37 17.5 49
s24.834 18 39.501 18c16 0 31 -3.33301 45 -10l39 -19c16 -7.33301 27.167 -12 33.5 -14s11.833 -3 16.5 -3c12.667 0 24.334 3.5 35.001 10.5s16.334 18.5 17.001 34.5h22c0 -14 -3.33301 -26 -10 -36s-15.5 -17.667 -26.5 -23s-22.833 -8 -35.5 -8z" />
    <glyph glyph-name="Odieresis" unicode="&#xd6;" horiz-adv-x="798" 
d="M399 -10c-50 0 -96 8.66699 -138 26s-78.5 42.166 -109.5 74.499s-54.833 70.333 -71.5 114s-25 91.834 -25 144.501s8.33301 101 25 145s40.5 82.167 71.5 114.5s67.5 57.333 109.5 75s88 26.5 138 26.5s96 -8.83301 138 -26.5s78.5 -42.5 109.5 -74.5
s54.833 -70 71.5 -114s25 -92.667 25 -146c0 -52.667 -8.33301 -100.834 -25 -144.501s-40.5 -81.667 -71.5 -114s-67.5 -57.166 -109.5 -74.499s-88 -26 -138 -26zM399 12c46.667 0 89.5 8.33301 128.5 25s73 40 102 70s51.333 65.667 67 107s23.5 86.333 23.5 135
c0 49.333 -7.83301 94.5 -23.5 135.5s-38 76.833 -67 107.5s-63 54.334 -102 71.001s-81.833 25 -128.5 25c-46 0 -88.667 -8.33301 -128 -25s-73.333 -40.334 -102 -71.001s-51 -66.5 -67 -107.5s-24 -86.167 -24 -135.5c0 -48.667 8 -93.667 24 -135s38.333 -77 67 -107
s62.667 -53.333 102 -70s82 -25 128 -25zM474 791c-8 0 -14.501 2.50098 -19.501 7.50098s-7.5 11.5 -7.5 19.5c0 7.33301 2.33301 13.666 7 18.999s11.334 8 20.001 8c9.33301 0 16.166 -2.5 20.499 -7.5s6.5 -11.5 6.5 -19.5s-2.16699 -14.5 -6.5 -19.5
s-11.166 -7.5 -20.499 -7.5zM323.999 791.001c-8 0 -14.501 2.50098 -19.501 7.50098s-7.5 11.5 -7.5 19.5c0 7.33301 2.33301 13.666 7 18.999s11.334 8 20.001 8c9.33301 0 16.166 -2.5 20.499 -7.5s6.5 -11.5 6.5 -19.5s-2.16699 -14.5 -6.5 -19.5
s-11.166 -7.5 -20.499 -7.5z" />
    <glyph glyph-name="multiply" unicode="&#xd7;" horiz-adv-x="444" 
d="M387 108l-338 337l17 15l338 -337zM57 108l-17 15l338 337l17 -15z" />
    <glyph glyph-name="Oslash" unicode="&#xd8;" horiz-adv-x="798" 
d="M114 -18l-19 14l589 722l19 -14zM398 -10c-50 0 -96 8.66699 -138 26s-78.5 42.166 -109.5 74.499s-54.833 70.333 -71.5 114s-25 91.834 -25 144.501s8.33301 101 25 145s40.5 82.167 71.5 114.5s67.5 57.333 109.5 75s88 26.5 138 26.5s96 -8.83301 138 -26.5
s78.5 -42.5 109.5 -74.5s54.833 -70 71.5 -114s25 -92.667 25 -146c0 -52.667 -8.33301 -100.834 -25 -144.501s-40.5 -81.667 -71.5 -114s-67.5 -57.166 -109.5 -74.499s-88 -26 -138 -26zM398 12c46.667 0 89.5 8.33301 128.5 25s73 40 102 70s51.333 65.667 67 107
s23.5 86.333 23.5 135c0 49.333 -7.83301 94.5 -23.5 135.5s-38 76.833 -67 107.5s-63 54.334 -102 71.001s-81.833 25 -128.5 25c-46 0 -88.667 -8.33301 -128 -25s-73.333 -40.334 -102 -71.001s-51 -66.5 -67 -107.5s-24 -86.167 -24 -135.5c0 -48.667 8 -93.667 24 -135
s38.333 -77 67 -107s62.667 -53.333 102 -70s82 -25 128 -25z" />
    <glyph glyph-name="Ugrave" unicode="&#xd9;" horiz-adv-x="744" 
d="M368 -6c-50 0 -94.501 11.833 -133.501 35.5s-69.5 56.167 -91.5 97.5s-33 88.666 -33 141.999v431h22v-422c0 -51.333 10 -96.666 30 -135.999s47.667 -70.166 83 -92.499s76.333 -33.5 123 -33.5c48 0 90.333 11.167 127 33.5s65.334 53.166 86.001 92.499
s31 84.666 31 135.999v422h22v-431c0 -53.333 -11.5 -100.666 -34.5 -141.999s-54.5 -73.833 -94.5 -97.5s-85.667 -35.5 -137 -35.5zM423.999 764l-154 86l13 22l150 -92z" />
    <glyph glyph-name="Uacute" unicode="&#xda;" horiz-adv-x="744" 
d="M368 -6c-50 0 -94.501 11.833 -133.501 35.5s-69.5 56.167 -91.5 97.5s-33 88.666 -33 141.999v431h22v-422c0 -51.333 10 -96.666 30 -135.999s47.667 -70.166 83 -92.499s76.333 -33.5 123 -33.5c48 0 90.333 11.167 127 33.5s65.334 53.166 86.001 92.499
s31 84.666 31 135.999v422h22v-431c0 -53.333 -11.5 -100.666 -34.5 -141.999s-54.5 -73.833 -94.5 -97.5s-85.667 -35.5 -137 -35.5zM318.999 764l-9 16l150 92l13 -22z" />
    <glyph glyph-name="Ucircumflex" unicode="&#xdb;" horiz-adv-x="744" 
d="M368 -6c-50 0 -94.501 11.833 -133.501 35.5s-69.5 56.167 -91.5 97.5s-33 88.666 -33 141.999v431h22v-422c0 -51.333 10 -96.666 30 -135.999s47.667 -70.166 83 -92.499s76.333 -33.5 123 -33.5c48 0 90.333 11.167 127 33.5s65.334 53.166 86.001 92.499
s31 84.666 31 135.999v422h22v-431c0 -53.333 -11.5 -100.666 -34.5 -141.999s-54.5 -73.833 -94.5 -97.5s-85.667 -35.5 -137 -35.5zM262.999 770l-12 13l107 82h28l107 -82l-12 -13l-116 82h15z" />
    <glyph glyph-name="Udieresis" unicode="&#xdc;" horiz-adv-x="744" 
d="M368 -6c-50 0 -94.501 11.833 -133.501 35.5s-69.5 56.167 -91.5 97.5s-33 88.666 -33 141.999v431h22v-422c0 -51.333 10 -96.666 30 -135.999s47.667 -70.166 83 -92.499s76.333 -33.5 123 -33.5c48 0 90.333 11.167 127 33.5s65.334 53.166 86.001 92.499
s31 84.666 31 135.999v422h22v-431c0 -53.333 -11.5 -100.666 -34.5 -141.999s-54.5 -73.833 -94.5 -97.5s-85.667 -35.5 -137 -35.5zM446.999 791c-8 0 -14.501 2.50098 -19.501 7.50098s-7.5 11.5 -7.5 19.5c0 7.33301 2.33301 13.666 7 18.999s11.334 8 20.001 8
c9.33301 0 16.166 -2.5 20.499 -7.5s6.5 -11.5 6.5 -19.5s-2.16699 -14.5 -6.5 -19.5s-11.166 -7.5 -20.499 -7.5zM296.998 791.001c-8 0 -14.501 2.50098 -19.501 7.50098s-7.5 11.5 -7.5 19.5c0 7.33301 2.33301 13.666 7 18.999s11.334 8 20.001 8
c9.33301 0 16.166 -2.5 20.499 -7.5s6.5 -11.5 6.5 -19.5s-2.16699 -14.5 -6.5 -19.5s-11.166 -7.5 -20.499 -7.5z" />
    <glyph glyph-name="Yacute" unicode="&#xdd;" horiz-adv-x="592" 
d="M289 0v339l8 -39l-277 400h26l259 -373h-11l252 373h26l-270 -400l9 39v-339h-22zM243 764l-9 16l150 92l13 -22z" />
    <glyph glyph-name="Thorn" unicode="&#xde;" horiz-adv-x="566" 
d="M110 0l0.00195312 700h22v-157h197c35.333 0 66.666 -7.66699 93.999 -23s48.833 -36.833 64.5 -64.5s23.5 -60.167 23.5 -97.5c0 -34.667 -7.83301 -66.167 -23.5 -94.5s-37.334 -50.833 -65.001 -67.5s-59.167 -25 -94.5 -25h-196v-171h-22zM132.002 193
l195 -0.000976562c34 0 63.167 7.83301 87.5 23.5s42.833 36 55.5 61s19 51.833 19 80.5c0 32 -6.16699 60.333 -18.5 85s-30.5 43.834 -54.5 57.501s-53.667 20.5 -89 20.5h-195v-328z" />
    <glyph glyph-name="germandbls" unicode="&#xdf;" horiz-adv-x="606" 
d="M354 -10c-40.667 0.666992 -74.498 9.00391 -101.498 25.0039s-49.833 40.333 -68.5 73l20 12c19.333 -33.333 41.333 -56.333 66 -69s52.667 -19 84 -19c53.333 0 95.833 13.167 127.5 39.5s47.5 71.833 47.5 136.5c0 25.333 -5 49.333 -15 72s-24.5 43.5 -43.5 62.5
s-42.833 36.333 -71.5 52s-61.667 28.834 -99 39.501v23c24 1.33301 45.5 5.66602 64.5 12.999s35.333 17.333 49 30s24.167 27.167 31.5 43.5s11 34.166 11 53.499c0 36 -13.167 66.5 -39.5 91.5s-61.5 37.5 -105.5 37.5c-55.333 0 -98 -17.5 -128 -52.5
s-45 -88.5 -45 -160.5v-493h-22v494c0 52 7.66699 95.333 23 130s37.166 60.667 65.499 78s62.166 26 101.499 26c36.667 0 68 -6.83301 94 -20.5s45.667 -31.834 59 -54.501s20 -48 20 -76c0 -30.667 -7.83301 -57.834 -23.5 -81.501s-36.334 -42.167 -62.001 -55.5
s-54.167 -20 -85.5 -20v12c46 -14.667 84.667 -31.167 116 -49.5s56.5 -38.166 75.5 -59.499s32.5 -43.5 40.5 -66.5s12 -46.5 12 -70.5c0 -43.333 -7.5 -79.333 -22.5 -108s-37.167 -50.334 -66.5 -65.001s-65.666 -22.334 -108.999 -23.001zM30.002 416.004v22h98v-22h-98
z" />
    <glyph glyph-name="agrave" unicode="&#xe0;" horiz-adv-x="602" 
d="M294 -10c-48.667 0 -92.1689 11.502 -130.502 34.502s-68.5 54.667 -90.5 95s-33 86.5 -33 138.5c0 52.667 11.333 99.5 34 140.5s52.834 73.167 90.501 96.5s79.5 35 125.5 35c28 0 54.667 -4.33301 80 -13s48 -21 68 -37s36.833 -35 50.5 -57
s22.834 -46.333 27.501 -73l-6 3l2 172h20v-525h-22v172l9 3c-6 -26.667 -15.833 -51.334 -29.5 -74.001s-30.5 -42.334 -50.5 -59.001s-42.167 -29.5 -66.5 -38.5s-50.5 -13.5 -78.5 -13.5zM293.998 12.002c40.667 0 77.501 10.502 110.501 31.502s59 50.167 78 87.5
s28.5 80.333 28.5 129c0 48 -9.5 90.667 -28.5 128s-45 66.666 -78 87.999s-70.5 32 -112.5 32c-44.667 0 -84.334 -10.667 -119.001 -32s-61.667 -50.833 -81 -88.5s-29 -80.834 -29 -129.501c0 -47.333 9.66699 -89.5 29 -126.5s46.333 -66.167 81 -87.5s75 -32 121 -32z
M337.999 611.004l-144 104l14 21l140 -110z" />
    <glyph glyph-name="aacute" unicode="&#xe1;" horiz-adv-x="602" 
d="M294 -10c-48.667 0 -92.1689 11.502 -130.502 34.502s-68.5 54.667 -90.5 95s-33 86.5 -33 138.5c0 52.667 11.333 99.5 34 140.5s52.834 73.167 90.501 96.5s79.5 35 125.5 35c28 0 54.667 -4.33301 80 -13s48 -21 68 -37s36.833 -35 50.5 -57
s22.834 -46.333 27.501 -73l-6 3l2 172h20v-525h-22v172l9 3c-6 -26.667 -15.833 -51.334 -29.5 -74.001s-30.5 -42.334 -50.5 -59.001s-42.167 -29.5 -66.5 -38.5s-50.5 -13.5 -78.5 -13.5zM293.998 12.002c40.667 0 77.501 10.502 110.501 31.502s59 50.167 78 87.5
s28.5 80.333 28.5 129c0 48 -9.5 90.667 -28.5 128s-45 66.666 -78 87.999s-70.5 32 -112.5 32c-44.667 0 -84.334 -10.667 -119.001 -32s-61.667 -50.833 -81 -88.5s-29 -80.834 -29 -129.501c0 -47.333 9.66699 -89.5 29 -126.5s46.333 -66.167 81 -87.5s75 -32 121 -32z
M243.999 611.004l-10 15l140 110l14 -21z" />
    <glyph glyph-name="acircumflex" unicode="&#xe2;" horiz-adv-x="602" 
d="M294 -10c-48.667 0 -92.1689 11.502 -130.502 34.502s-68.5 54.667 -90.5 95s-33 86.5 -33 138.5c0 52.667 11.333 99.5 34 140.5s52.834 73.167 90.501 96.5s79.5 35 125.5 35c28 0 54.667 -4.33301 80 -13s48 -21 68 -37s36.833 -35 50.5 -57
s22.834 -46.333 27.501 -73l-6 3l2 172h20v-525h-22v172l9 3c-6 -26.667 -15.833 -51.334 -29.5 -74.001s-30.5 -42.334 -50.5 -59.001s-42.167 -29.5 -66.5 -38.5s-50.5 -13.5 -78.5 -13.5zM293.998 12.002c40.667 0 77.501 10.502 110.501 31.502s59 50.167 78 87.5
s28.5 80.333 28.5 129c0 48 -9.5 90.667 -28.5 128s-45 66.666 -78 87.999s-70.5 32 -112.5 32c-44.667 0 -84.334 -10.667 -119.001 -32s-61.667 -50.833 -81 -88.5s-29 -80.834 -29 -129.501c0 -47.333 9.66699 -89.5 29 -126.5s46.333 -66.167 81 -87.5s75 -32 121 -32z
M181.999 621.004l-12 13l107 92h28l107 -92l-12 -13l-116 92h15z" />
    <glyph glyph-name="atilde" unicode="&#xe3;" horiz-adv-x="602" 
d="M294 -10c-48.667 0 -92.1689 11.502 -130.502 34.502s-68.5 54.667 -90.5 95s-33 86.5 -33 138.5c0 52.667 11.333 99.5 34 140.5s52.834 73.167 90.501 96.5s79.5 35 125.5 35c28 0 54.667 -4.33301 80 -13s48 -21 68 -37s36.833 -35 50.5 -57
s22.834 -46.333 27.501 -73l-6 3l2 172h20v-525h-22v172l9 3c-6 -26.667 -15.833 -51.334 -29.5 -74.001s-30.5 -42.334 -50.5 -59.001s-42.167 -29.5 -66.5 -38.5s-50.5 -13.5 -78.5 -13.5zM293.998 12.002c40.667 0 77.501 10.502 110.501 31.502s59 50.167 78 87.5
s28.5 80.333 28.5 129c0 48 -9.5 90.667 -28.5 128s-45 66.666 -78 87.999s-70.5 32 -112.5 32c-44.667 0 -84.334 -10.667 -119.001 -32s-61.667 -50.833 -81 -88.5s-29 -80.834 -29 -129.501c0 -47.333 9.66699 -89.5 29 -126.5s46.333 -66.167 81 -87.5s75 -32 121 -32z
M357.999 633.004c-15.333 0 -29.334 4.00195 -42.001 12.002s-24.667 16 -36 24c-16 11.333 -27.5 18.333 -34.5 21s-13.167 4 -18.5 4c-10 0 -19.5 -4.83301 -28.5 -14.5s-13.5 -23.167 -13.5 -40.5l-20 3c0 20 6.33301 37 19 51s27 21 43 21
c14 0 27.333 -3.83301 40 -11.5s25 -15.834 37 -24.501c4.66699 -3.33301 12.334 -8.33301 23.001 -15s20.667 -10 30 -10c10 0 19 4.16699 27 12.5s12.333 22.5 13 42.5l20 -3c0 -14.667 -2.83301 -27.334 -8.5 -38.001s-13 -19 -22 -25s-18.5 -9 -28.5 -9z" />
    <glyph glyph-name="adieresis" unicode="&#xe4;" horiz-adv-x="602" 
d="M294 -10c-48.667 0 -92.1689 11.502 -130.502 34.502s-68.5 54.667 -90.5 95s-33 86.5 -33 138.5c0 52.667 11.333 99.5 34 140.5s52.834 73.167 90.501 96.5s79.5 35 125.5 35c28 0 54.667 -4.33301 80 -13s48 -21 68 -37s36.833 -35 50.5 -57
s22.834 -46.333 27.501 -73l-6 3l2 172h20v-525h-22v172l9 3c-6 -26.667 -15.833 -51.334 -29.5 -74.001s-30.5 -42.334 -50.5 -59.001s-42.167 -29.5 -66.5 -38.5s-50.5 -13.5 -78.5 -13.5zM293.998 12.002c40.667 0 77.501 10.502 110.501 31.502s59 50.167 78 87.5
s28.5 80.333 28.5 129c0 48 -9.5 90.667 -28.5 128s-45 66.666 -78 87.999s-70.5 32 -112.5 32c-44.667 0 -84.334 -10.667 -119.001 -32s-61.667 -50.833 -81 -88.5s-29 -80.834 -29 -129.501c0 -47.333 9.66699 -89.5 29 -126.5s46.333 -66.167 81 -87.5s75 -32 121 -32z
M365.999 663.004c-9.33301 0 -16.333 2.66699 -21 8s-7 12.333 -7 21c0 8 2.33301 14.833 7 20.5s11.667 8.5 21 8.5c8.66699 0 15.5 -2.66699 20.5 -8s7.5 -12.333 7.5 -21s-2.33301 -15.667 -7 -21s-11.667 -8 -21 -8zM215.999 663.004c-9.33301 0 -16.333 2.66699 -21 8
s-7 12.333 -7 21c0 8 2.33301 14.833 7 20.5s11.667 8.5 21 8.5c8.66699 0 15.5 -2.66699 20.5 -8s7.5 -12.333 7.5 -21s-2.33301 -15.667 -7 -21s-11.667 -8 -21 -8z" />
    <glyph glyph-name="aring" unicode="&#xe5;" horiz-adv-x="602" 
d="M294 -10c-48.667 0 -92.1689 11.502 -130.502 34.502s-68.5 54.667 -90.5 95s-33 86.5 -33 138.5c0 52.667 11.333 99.5 34 140.5s52.834 73.167 90.501 96.5s79.5 35 125.5 35c28 0 54.667 -4.33301 80 -13s48 -21 68 -37s36.833 -35 50.5 -57
s22.834 -46.333 27.501 -73l-6 3l2 172h20v-525h-22v172l9 3c-6 -26.667 -15.833 -51.334 -29.5 -74.001s-30.5 -42.334 -50.5 -59.001s-42.167 -29.5 -66.5 -38.5s-50.5 -13.5 -78.5 -13.5zM293.998 12.002c40.667 0 77.501 10.502 110.501 31.502s59 50.167 78 87.5
s28.5 80.333 28.5 129c0 48 -9.5 90.667 -28.5 128s-45 66.666 -78 87.999s-70.5 32 -112.5 32c-44.667 0 -84.334 -10.667 -119.001 -32s-61.667 -50.833 -81 -88.5s-29 -80.834 -29 -129.501c0 -47.333 9.66699 -89.5 29 -126.5s46.333 -66.167 81 -87.5s75 -32 121 -32z
M290.999 594.004c-16 0 -30.998 4 -44.998 12s-25.333 18.667 -34 32s-13 28 -13 44c0 16.667 4.16699 31.667 12.5 45s19.5 24.166 33.5 32.499s29.333 12.5 46 12.5c17.333 0 32.833 -4.16699 46.5 -12.5s24.667 -19.166 33 -32.499s12.5 -28.333 12.5 -45
c0 -15.333 -4.33301 -29.833 -13 -43.5s-19.834 -24.5 -33.501 -32.5s-28.834 -12 -45.501 -12zM291.001 614.004c20 0 36.833 6.83301 50.5 20.5s20.5 29.5 20.5 47.5c0 21.333 -6.83301 38.333 -20.5 51s-30.5 19 -50.5 19c-20.667 0 -37.667 -6.5 -51 -19.5
s-20 -29.833 -20 -50.5c0 -18 7 -33.833 21 -47.5s30.667 -20.5 50 -20.5z" />
    <glyph glyph-name="ae" unicode="&#xe6;" horiz-adv-x="947" 
d="M218 -10c-34 0 -64.3291 6.66602 -90.9961 19.999s-47.834 31.833 -63.501 55.5s-23.5 51.5 -23.5 83.5c0 22 4.33301 41.5 13 58.5s21.667 31.5 39 43.5s38.833 21 64.5 27s55.5 9 89.5 9h654l-10 -15v23c0 42 -9 79 -27 111s-42.167 56.833 -72.5 74.5
s-63.833 26.5 -100.5 26.5c-45.333 0 -84.833 -10.5 -118.5 -31.5s-59.834 -49.833 -78.501 -86.5s-28.334 -78.667 -29.001 -126c0.666992 -48.667 11 -92 31 -130s47.5 -67.667 82.5 -89s75.5 -32 121.5 -32c34.667 0 66.667 6.33301 96 19s55.666 30 78.999 52l12 -18
c-16.667 -15.333 -34.5 -28.5 -53.5 -39.5s-39.667 -19.667 -62 -26s-46.166 -9.5 -71.499 -9.5c-50.667 0 -95.334 11.667 -134.001 35s-68.834 55.666 -90.501 96.999s-32.5 88.333 -32.5 141c0 36.667 6 71 18 103s28.833 60.333 50.5 85s47.5 43.834 77.5 57.501
s63 20.5 99 20.5c44 0 83 -9.66699 117 -29s60.5 -46.833 79.5 -82.5s28.5 -77.834 28.5 -126.501l-2 -26h-670c-28 0 -53.167 -2.5 -75.5 -7.5s-41 -12.5 -56 -22.5s-26.5 -22.167 -34.5 -36.5s-12 -30.833 -12 -49.5c0 -27.333 7.16699 -51.166 21.5 -71.499
s33.333 -36.333 57 -48s49.834 -17.5 78.501 -17.5c34.667 0 67.334 6.33301 98.001 19s58.167 30.5 82.5 53.5s44.166 49.833 59.499 80.5l13 -19c-16 -31.333 -36.667 -58.666 -62 -81.999s-54.333 -41.5 -87 -54.5s-67.667 -19.5 -105 -19.5zM442.004 275.999
l-0.00390625 91.002c0 21.333 -3.83301 40.666 -11.5 57.999s-18.667 32.166 -33 44.499s-32.166 21.833 -53.499 28.5s-45.666 10 -72.999 10c-38 0 -73.5 -8.33301 -106.5 -25s-61.5 -40.334 -85.5 -71.001l-16 16c18 22 37.833 40.667 59.5 56s45 26.833 70 34.5
s51.5 11.5 79.5 11.5c30 0 56.833 -3.66699 80.5 -11s43.834 -18.166 60.501 -32.499s29.334 -31.833 38.001 -52.5s13 -44 13 -70v-88h-22z" />
    <glyph glyph-name="ccedilla" unicode="&#xe7;" horiz-adv-x="526" 
d="M306 -10c-52 0 -98.002 11.6709 -138.002 35.0039s-71.333 55.666 -94 96.999s-34 88.333 -34 141c0 52 11.333 98.167 34 138.5s54 71.833 94 94.5s86 34 138 34c42 0 80 -7.83301 114 -23.5s62.667 -36.834 86 -63.501l-16 -17c-14.667 17.333 -31.5 32 -50.5 44
s-39.667 21.333 -62 28s-46.166 10 -71.499 10c-47.333 0 -89.166 -10.5 -125.499 -31.5s-65 -49.833 -86 -86.5s-31.833 -79 -32.5 -127c0.666992 -48.667 11.5 -92 32.5 -130s49.667 -67.667 86 -89s78.166 -32 125.499 -32c24.667 0 48 3.16699 70 9.5
s42.5 15.666 61.5 27.999s35.833 26.833 50.5 43.5l16 -16c-24 -26.667 -52.667 -47.834 -86 -63.501s-70.666 -23.5 -111.999 -23.5zM226.998 -226.996l-3.99902 17c20 3.33301 40 7 60 11s36.667 10.667 50 20s20 23 20 41c0 14.667 -5.33301 25.5 -16 32.5
s-23.667 11.667 -39 14s-30.333 3.5 -45 3.5l-13 10l54 78h22l-51 -71c39.333 -1.33301 67.166 -8 83.499 -20s24.5 -28 24.5 -48c0 -18 -4.5 -32.167 -13.5 -42.5s-20.667 -18.333 -35 -24s-30 -10 -47 -13z" />
    <glyph glyph-name="egrave" unicode="&#xe8;" horiz-adv-x="545" 
d="M297 -10c-50.667 0 -95.3311 11.667 -133.998 35s-68.834 55.666 -90.501 96.999s-32.5 88.333 -32.5 141c0 39.333 6 75.333 18 108s28.833 60.834 50.5 84.501s47.5 42 77.5 55s63 19.5 99 19.5c33.333 0 64 -5.5 92 -16.5s52.167 -27 72.5 -48
s35.833 -46.167 46.5 -75.5s15.334 -62.333 14.001 -99l-1 -26h-457v22h446l-12 -17l2 25c0 42.667 -9 80 -27 112s-42.167 56.833 -72.5 74.5s-63.833 26.5 -100.5 26.5c-45.333 0 -84.833 -10.5 -118.5 -31.5s-59.834 -50 -78.501 -87s-28.334 -79.167 -29.001 -126.5
c0.666992 -48.667 11 -92 31 -130s47.5 -67.667 82.5 -89s75.5 -32 121.5 -32c34.667 0 66.667 6.33301 96 19s55.666 30 78.999 52l12 -18c-16.667 -15.333 -34.5 -28.5 -53.5 -39.5s-39.667 -19.667 -62 -26s-46.166 -9.5 -71.499 -9.5zM332.003 611l-144 104l14 21
l140 -110z" />
    <glyph glyph-name="eacute" unicode="&#xe9;" horiz-adv-x="545" 
d="M297 -10c-50.667 0 -95.3311 11.667 -133.998 35s-68.834 55.666 -90.501 96.999s-32.5 88.333 -32.5 141c0 39.333 6 75.333 18 108s28.833 60.834 50.5 84.501s47.5 42 77.5 55s63 19.5 99 19.5c33.333 0 64 -5.5 92 -16.5s52.167 -27 72.5 -48
s35.833 -46.167 46.5 -75.5s15.334 -62.333 14.001 -99l-1 -26h-457v22h446l-12 -17l2 25c0 42.667 -9 80 -27 112s-42.167 56.833 -72.5 74.5s-63.833 26.5 -100.5 26.5c-45.333 0 -84.833 -10.5 -118.5 -31.5s-59.834 -50 -78.501 -87s-28.334 -79.167 -29.001 -126.5
c0.666992 -48.667 11 -92 31 -130s47.5 -67.667 82.5 -89s75.5 -32 121.5 -32c34.667 0 66.667 6.33301 96 19s55.666 30 78.999 52l12 -18c-16.667 -15.333 -34.5 -28.5 -53.5 -39.5s-39.667 -19.667 -62 -26s-46.166 -9.5 -71.499 -9.5zM238.003 611l-10 15l140 110
l14 -21z" />
    <glyph glyph-name="ecircumflex" unicode="&#xea;" horiz-adv-x="545" 
d="M297 -10c-50.667 0 -95.3311 11.667 -133.998 35s-68.834 55.666 -90.501 96.999s-32.5 88.333 -32.5 141c0 39.333 6 75.333 18 108s28.833 60.834 50.5 84.501s47.5 42 77.5 55s63 19.5 99 19.5c33.333 0 64 -5.5 92 -16.5s52.167 -27 72.5 -48
s35.833 -46.167 46.5 -75.5s15.334 -62.333 14.001 -99l-1 -26h-457v22h446l-12 -17l2 25c0 42.667 -9 80 -27 112s-42.167 56.833 -72.5 74.5s-63.833 26.5 -100.5 26.5c-45.333 0 -84.833 -10.5 -118.5 -31.5s-59.834 -50 -78.501 -87s-28.334 -79.167 -29.001 -126.5
c0.666992 -48.667 11 -92 31 -130s47.5 -67.667 82.5 -89s75.5 -32 121.5 -32c34.667 0 66.667 6.33301 96 19s55.666 30 78.999 52l12 -18c-16.667 -15.333 -34.5 -28.5 -53.5 -39.5s-39.667 -19.667 -62 -26s-46.166 -9.5 -71.499 -9.5zM176.003 621l-12 13l107 92h28
l107 -92l-12 -13l-116 92h15z" />
    <glyph glyph-name="edieresis" unicode="&#xeb;" horiz-adv-x="545" 
d="M297 -10c-50.667 0 -95.3311 11.667 -133.998 35s-68.834 55.666 -90.501 96.999s-32.5 88.333 -32.5 141c0 39.333 6 75.333 18 108s28.833 60.834 50.5 84.501s47.5 42 77.5 55s63 19.5 99 19.5c33.333 0 64 -5.5 92 -16.5s52.167 -27 72.5 -48
s35.833 -46.167 46.5 -75.5s15.334 -62.333 14.001 -99l-1 -26h-457v22h446l-12 -17l2 25c0 42.667 -9 80 -27 112s-42.167 56.833 -72.5 74.5s-63.833 26.5 -100.5 26.5c-45.333 0 -84.833 -10.5 -118.5 -31.5s-59.834 -50 -78.501 -87s-28.334 -79.167 -29.001 -126.5
c0.666992 -48.667 11 -92 31 -130s47.5 -67.667 82.5 -89s75.5 -32 121.5 -32c34.667 0 66.667 6.33301 96 19s55.666 30 78.999 52l12 -18c-16.667 -15.333 -34.5 -28.5 -53.5 -39.5s-39.667 -19.667 -62 -26s-46.166 -9.5 -71.499 -9.5zM360.003 663
c-9.33301 0 -16.333 2.66699 -21 8s-7 12.333 -7 21c0 8 2.33301 14.833 7 20.5s11.667 8.5 21 8.5c8.66699 0 15.5 -2.66699 20.5 -8s7.5 -12.333 7.5 -21s-2.33301 -15.667 -7 -21s-11.667 -8 -21 -8zM210.003 663c-9.33301 0 -16.333 2.66699 -21 8s-7 12.333 -7 21
c0 8 2.33301 14.833 7 20.5s11.667 8.5 21 8.5c8.66699 0 15.5 -2.66699 20.5 -8s7.5 -12.333 7.5 -21s-2.33301 -15.667 -7 -21s-11.667 -8 -21 -8z" />
    <glyph glyph-name="igrave" unicode="&#xec;" horiz-adv-x="162" 
d="M70 0v525h22v-525h-22zM128 611l-144 104l14 21l140 -110z" />
    <glyph glyph-name="iacute" unicode="&#xed;" horiz-adv-x="162" 
d="M70 0v525h22v-525h-22zM34 611l-10 15l140 110l14 -21z" />
    <glyph glyph-name="icircumflex" unicode="&#xee;" horiz-adv-x="162" 
d="M70 0v525h22v-525h-22zM-28 621l-12 13l107 92h28l107 -92l-12 -13l-116 92h15z" />
    <glyph glyph-name="idieresis" unicode="&#xef;" horiz-adv-x="162" 
d="M70 0v525h22v-525h-22zM156 663c-9.33301 0 -16.333 2.66699 -21 8s-7 12.333 -7 21c0 8 2.33301 14.833 7 20.5s11.667 8.5 21 8.5c8.66699 0 15.5 -2.66699 20.5 -8s7.5 -12.333 7.5 -21s-2.33301 -15.667 -7 -21s-11.667 -8 -21 -8zM6 663
c-9.33301 0 -16.333 2.66699 -21 8s-7 12.333 -7 21c0 8 2.33301 14.833 7 20.5s11.667 8.5 21 8.5c8.66699 0 15.5 -2.66699 20.5 -8s7.5 -12.333 7.5 -21s-2.33301 -15.667 -7 -21s-11.667 -8 -21 -8z" />
    <glyph glyph-name="eth" unicode="&#xf0;" horiz-adv-x="576" 
d="M288 -10c-48.667 0 -91.6709 11.5 -129.004 34.5s-66.5 55 -87.5 96s-31.5 88.5 -31.5 142.5c0 40 6.16699 76.167 18.5 108.5s29.833 60 52.5 83s49.334 40.833 80.001 53.5s64.334 19 101.001 19s71.167 -8.16699 103.5 -24.5s58.833 -36.666 79.5 -60.999
s32.667 -48.5 36 -72.5l-10 2c0 32 -5.33301 63.667 -16 95s-25.334 60.833 -44.001 88.5s-40.667 52.834 -66 75.501s-52.666 41.667 -81.999 57s-60 25.666 -92 30.999l10 21c40 -8.66699 76.833 -22 110.5 -40s63.834 -40.833 90.501 -68.5s49.167 -59.834 67.5 -96.501
s32.333 -78 42 -124s14.5 -96.333 14.5 -151c0 -51.333 -10.667 -97.333 -32 -138s-50.666 -72.667 -87.999 -96s-80 -35 -128 -35zM287.996 12c44 0 83 10.667 117 32s60.5 51 79.5 89s28.5 81.333 28.5 130c0 47.333 -9.5 89.166 -28.5 125.499s-45.5 64.833 -79.5 85.5
s-73 31 -117 31s-82.833 -10.333 -116.5 -31s-60.167 -49.167 -79.5 -85.5s-29 -78.166 -29 -125.499c0 -48.667 9.66699 -92 29 -130s45.833 -67.667 79.5 -89s72.5 -32 116.5 -32zM163.996 574l-4 22l201 54l13 3l113 31l6 -21l-98 -26l-14 -4z" />
    <glyph glyph-name="ntilde" unicode="&#xf1;" horiz-adv-x="541" 
d="M70 0v524.999h20l2 -121l-9 -3c7.33301 22.667 21 43.834 41 63.501s44.167 35.5 72.5 47.5s58.833 18 91.5 18c39.333 0 72.666 -7 99.999 -21s48.333 -35.833 63 -65.5s22 -68.167 22 -115.5v-328h-22v328c0 42 -6.5 76.333 -19.5 103s-31.667 46.167 -56 58.5
s-54.166 18.5 -89.499 18.5c-28 0 -53.833 -4.83301 -77.5 -14.5s-44.167 -21.667 -61.5 -36s-30.833 -29 -40.5 -44s-14.5 -27.5 -14.5 -37.5v-376h-11h-4.5h-6.5zM343 632.999c-15.333 0 -29.334 4.00195 -42.001 12.002s-24.667 16 -36 24
c-16 11.333 -27.5 18.333 -34.5 21s-13.167 4 -18.5 4c-10 0 -19.5 -4.83301 -28.5 -14.5s-13.5 -23.167 -13.5 -40.5l-20 3c0 20 6.33301 37 19 51s27 21 43 21c14 0 27.333 -3.83301 40 -11.5s25 -15.834 37 -24.501c4.66699 -3.33301 12.334 -8.33301 23.001 -15
s20.667 -10 30 -10c10 0 19 4.16699 27 12.5s12.333 22.5 13 42.5l20 -3c0 -14.667 -2.83301 -27.334 -8.5 -38.001s-13 -19 -22 -25s-18.5 -9 -28.5 -9z" />
    <glyph glyph-name="ograve" unicode="&#xf2;" horiz-adv-x="615" 
d="M308 -10c-52.667 0 -99.167 11.667 -139.5 35s-71.833 55.666 -94.5 96.999s-34 88.333 -34 141c0 52 11.333 98.167 34 138.5s54.167 71.833 94.5 94.5s86.833 34 139.5 34s99.167 -11.333 139.5 -34s71.666 -54.167 93.999 -94.5s33.5 -86.5 33.5 -138.5
c0 -52.667 -11.167 -99.667 -33.5 -141s-53.666 -73.666 -93.999 -96.999s-86.833 -35 -139.5 -35zM308 12c47.333 0 89.333 10.667 126 32s65.667 51 87 89s32 81.333 32 130c0 47.333 -10.667 89.333 -32 126s-50.333 65.667 -87 87s-78.667 32 -126 32
s-89.5 -10.667 -126.5 -32s-66.167 -50.333 -87.5 -87s-32 -78.667 -32 -126c0 -48.667 10.667 -92 32 -130s50.5 -67.667 87.5 -89s79.167 -32 126.5 -32zM355 611l-144 104l14 21l140 -110z" />
    <glyph glyph-name="oacute" unicode="&#xf3;" horiz-adv-x="615" 
d="M308 -10c-52.667 0 -99.167 11.667 -139.5 35s-71.833 55.666 -94.5 96.999s-34 88.333 -34 141c0 52 11.333 98.167 34 138.5s54.167 71.833 94.5 94.5s86.833 34 139.5 34s99.167 -11.333 139.5 -34s71.666 -54.167 93.999 -94.5s33.5 -86.5 33.5 -138.5
c0 -52.667 -11.167 -99.667 -33.5 -141s-53.666 -73.666 -93.999 -96.999s-86.833 -35 -139.5 -35zM308 12c47.333 0 89.333 10.667 126 32s65.667 51 87 89s32 81.333 32 130c0 47.333 -10.667 89.333 -32 126s-50.333 65.667 -87 87s-78.667 32 -126 32
s-89.5 -10.667 -126.5 -32s-66.167 -50.333 -87.5 -87s-32 -78.667 -32 -126c0 -48.667 10.667 -92 32 -130s50.5 -67.667 87.5 -89s79.167 -32 126.5 -32zM261 611l-10 15l140 110l14 -21z" />
    <glyph glyph-name="ocircumflex" unicode="&#xf4;" horiz-adv-x="615" 
d="M308 -10c-52.667 0 -99.167 11.667 -139.5 35s-71.833 55.666 -94.5 96.999s-34 88.333 -34 141c0 52 11.333 98.167 34 138.5s54.167 71.833 94.5 94.5s86.833 34 139.5 34s99.167 -11.333 139.5 -34s71.666 -54.167 93.999 -94.5s33.5 -86.5 33.5 -138.5
c0 -52.667 -11.167 -99.667 -33.5 -141s-53.666 -73.666 -93.999 -96.999s-86.833 -35 -139.5 -35zM308 12c47.333 0 89.333 10.667 126 32s65.667 51 87 89s32 81.333 32 130c0 47.333 -10.667 89.333 -32 126s-50.333 65.667 -87 87s-78.667 32 -126 32
s-89.5 -10.667 -126.5 -32s-66.167 -50.333 -87.5 -87s-32 -78.667 -32 -126c0 -48.667 10.667 -92 32 -130s50.5 -67.667 87.5 -89s79.167 -32 126.5 -32zM199 621l-12 13l107 92h28l107 -92l-12 -13l-116 92h15z" />
    <glyph glyph-name="otilde" unicode="&#xf5;" horiz-adv-x="615" 
d="M308 -10c-52.667 0 -99.167 11.667 -139.5 35s-71.833 55.666 -94.5 96.999s-34 88.333 -34 141c0 52 11.333 98.167 34 138.5s54.167 71.833 94.5 94.5s86.833 34 139.5 34s99.167 -11.333 139.5 -34s71.666 -54.167 93.999 -94.5s33.5 -86.5 33.5 -138.5
c0 -52.667 -11.167 -99.667 -33.5 -141s-53.666 -73.666 -93.999 -96.999s-86.833 -35 -139.5 -35zM308 12c47.333 0 89.333 10.667 126 32s65.667 51 87 89s32 81.333 32 130c0 47.333 -10.667 89.333 -32 126s-50.333 65.667 -87 87s-78.667 32 -126 32
s-89.5 -10.667 -126.5 -32s-66.167 -50.333 -87.5 -87s-32 -78.667 -32 -126c0 -48.667 10.667 -92 32 -130s50.5 -67.667 87.5 -89s79.167 -32 126.5 -32zM374 633c-15.333 0 -29.334 4.00195 -42.001 12.002s-24.667 16 -36 24c-16 11.333 -27.5 18.333 -34.5 21
s-13.167 4 -18.5 4c-10 0 -19.5 -4.83301 -28.5 -14.5s-13.5 -23.167 -13.5 -40.5l-20 3c0 20 6.33301 37 19 51s27 21 43 21c14 0 27.333 -3.83301 40 -11.5s25 -15.834 37 -24.501c4.66699 -3.33301 12.334 -8.33301 23.001 -15s20.667 -10 30 -10
c10 0 19 4.16699 27 12.5s12.333 22.5 13 42.5l20 -3c0 -14.667 -2.83301 -27.334 -8.5 -38.001s-13 -19 -22 -25s-18.5 -9 -28.5 -9z" />
    <glyph glyph-name="odieresis" unicode="&#xf6;" horiz-adv-x="615" 
d="M308 -10c-52.667 0 -99.167 11.667 -139.5 35s-71.833 55.666 -94.5 96.999s-34 88.333 -34 141c0 52 11.333 98.167 34 138.5s54.167 71.833 94.5 94.5s86.833 34 139.5 34s99.167 -11.333 139.5 -34s71.666 -54.167 93.999 -94.5s33.5 -86.5 33.5 -138.5
c0 -52.667 -11.167 -99.667 -33.5 -141s-53.666 -73.666 -93.999 -96.999s-86.833 -35 -139.5 -35zM308 12c47.333 0 89.333 10.667 126 32s65.667 51 87 89s32 81.333 32 130c0 47.333 -10.667 89.333 -32 126s-50.333 65.667 -87 87s-78.667 32 -126 32
s-89.5 -10.667 -126.5 -32s-66.167 -50.333 -87.5 -87s-32 -78.667 -32 -126c0 -48.667 10.667 -92 32 -130s50.5 -67.667 87.5 -89s79.167 -32 126.5 -32zM383 663c-9.33301 0 -16.333 2.66699 -21 8s-7 12.333 -7 21c0 8 2.33301 14.833 7 20.5s11.667 8.5 21 8.5
c8.66699 0 15.5 -2.66699 20.5 -8s7.5 -12.333 7.5 -21s-2.33301 -15.667 -7 -21s-11.667 -8 -21 -8zM233 663c-9.33301 0 -16.333 2.66699 -21 8s-7 12.333 -7 21c0 8 2.33301 14.833 7 20.5s11.667 8.5 21 8.5c8.66699 0 15.5 -2.66699 20.5 -8s7.5 -12.333 7.5 -21
s-2.33301 -15.667 -7 -21s-11.667 -8 -21 -8z" />
    <glyph glyph-name="divide" unicode="&#xf7;" horiz-adv-x="588" 
d="M56 286v22h474v-22h-474zM293 119c-6 0 -11 1.33594 -15 4.00293s-7.16699 6.16699 -9.5 10.5s-3.5 9.16602 -3.5 14.499s1.16699 10 3.5 14s5.5 7.5 9.5 10.5s9 4.5 15 4.5s11 -1.5 15 -4.5s7.16699 -6.5 9.5 -10.5s3.5 -8.66699 3.5 -14
c0 -4.66699 -1.16699 -9.33398 -3.5 -14.001s-5.5 -8.33398 -9.5 -11.001s-9 -4 -15 -4zM293 417.003c-6 0 -11 1.33594 -15 4.00293s-7.16699 6.16699 -9.5 10.5s-3.5 9.16602 -3.5 14.499s1.16699 10 3.5 14s5.5 7.5 9.5 10.5s9 4.5 15 4.5s11 -1.5 15 -4.5
s7.16699 -6.5 9.5 -10.5s3.5 -8.66699 3.5 -14c0 -4.66699 -1.16699 -9.33398 -3.5 -14.001s-5.5 -8.33398 -9.5 -11.001s-9 -4 -15 -4z" />
    <glyph glyph-name="oslash" unicode="&#xf8;" horiz-adv-x="615" 
d="M81 -19l-16 14l461 543l17 -15zM308 -10c-52.667 0 -99.167 11.667 -139.5 35s-71.833 55.666 -94.5 96.999s-34 88.333 -34 141c0 52 11.333 98.167 34 138.5s54.167 71.833 94.5 94.5s86.833 34 139.5 34s99.167 -11.333 139.5 -34s71.666 -54.167 93.999 -94.5
s33.5 -86.5 33.5 -138.5c0 -52.667 -11.167 -99.667 -33.5 -141s-53.666 -73.666 -93.999 -96.999s-86.833 -35 -139.5 -35zM308 12c47.333 0 89.333 10.667 126 32s65.667 51 87 89s32 81.333 32 130c0 47.333 -10.667 89.333 -32 126s-50.333 65.667 -87 87
s-78.667 32 -126 32s-89.5 -10.667 -126.5 -32s-66.167 -50.333 -87.5 -87s-32 -78.667 -32 -126c0 -48.667 10.667 -92 32 -130s50.5 -67.667 87.5 -89s79.167 -32 126.5 -32z" />
    <glyph glyph-name="ugrave" unicode="&#xf9;" horiz-adv-x="538" 
d="M263 -10c-40.667 0 -75.167 7.16602 -103.5 21.499s-49.833 36.833 -64.5 67.5s-22 70 -22 118v328h22v-328c0 -43.333 6.5 -78.666 19.5 -105.999s32.167 -47.333 57.5 -60s56.333 -19 93 -19c24 0 46.833 5 68.5 15s40.834 22.5 57.501 37.5s29.667 30.167 39 45.5
s14 28.333 14 39v376h22v-525h-20l-2 121l9 2c-8 -24 -21.333 -46 -40 -66s-40.834 -36.167 -66.501 -48.5s-53.5 -18.5 -83.5 -18.5zM316 610.999l-144 104l14 21l140 -110z" />
    <glyph glyph-name="uacute" unicode="&#xfa;" horiz-adv-x="538" 
d="M263 -10c-40.667 0 -75.167 7.16602 -103.5 21.499s-49.833 36.833 -64.5 67.5s-22 70 -22 118v328h22v-328c0 -43.333 6.5 -78.666 19.5 -105.999s32.167 -47.333 57.5 -60s56.333 -19 93 -19c24 0 46.833 5 68.5 15s40.834 22.5 57.501 37.5s29.667 30.167 39 45.5
s14 28.333 14 39v376h22v-525h-20l-2 121l9 2c-8 -24 -21.333 -46 -40 -66s-40.834 -36.167 -66.501 -48.5s-53.5 -18.5 -83.5 -18.5zM222 610.999l-10 15l140 110l14 -21z" />
    <glyph glyph-name="ucircumflex" unicode="&#xfb;" horiz-adv-x="538" 
d="M263 -10c-40.667 0 -75.167 7.16602 -103.5 21.499s-49.833 36.833 -64.5 67.5s-22 70 -22 118v328h22v-328c0 -43.333 6.5 -78.666 19.5 -105.999s32.167 -47.333 57.5 -60s56.333 -19 93 -19c24 0 46.833 5 68.5 15s40.834 22.5 57.501 37.5s29.667 30.167 39 45.5
s14 28.333 14 39v376h22v-525h-20l-2 121l9 2c-8 -24 -21.333 -46 -40 -66s-40.834 -36.167 -66.501 -48.5s-53.5 -18.5 -83.5 -18.5zM160 620.999l-12 13l107 92h28l107 -92l-12 -13l-116 92h15z" />
    <glyph glyph-name="udieresis" unicode="&#xfc;" horiz-adv-x="538" 
d="M263 -10c-40.667 0 -75.167 7.16602 -103.5 21.499s-49.833 36.833 -64.5 67.5s-22 70 -22 118v328h22v-328c0 -43.333 6.5 -78.666 19.5 -105.999s32.167 -47.333 57.5 -60s56.333 -19 93 -19c24 0 46.833 5 68.5 15s40.834 22.5 57.501 37.5s29.667 30.167 39 45.5
s14 28.333 14 39v376h22v-525h-20l-2 121l9 2c-8 -24 -21.333 -46 -40 -66s-40.834 -36.167 -66.501 -48.5s-53.5 -18.5 -83.5 -18.5zM344 662.999c-9.33301 0 -16.333 2.66699 -21 8s-7 12.333 -7 21c0 8 2.33301 14.833 7 20.5s11.667 8.5 21 8.5
c8.66699 0 15.5 -2.66699 20.5 -8s7.5 -12.333 7.5 -21s-2.33301 -15.667 -7 -21s-11.667 -8 -21 -8zM194 662.999c-9.33301 0 -16.333 2.66699 -21 8s-7 12.333 -7 21c0 8 2.33301 14.833 7 20.5s11.667 8.5 21 8.5c8.66699 0 15.5 -2.66699 20.5 -8s7.5 -12.333 7.5 -21
s-2.33301 -15.667 -7 -21s-11.667 -8 -21 -8z" />
    <glyph glyph-name="yacute" unicode="&#xfd;" horiz-adv-x="501" 
d="M157 -230l95 239.001l5 -16l-242 532h25l212 -468c5.33301 -10.667 8.83301 -17.834 10.5 -21.501s3.16699 -7.16699 4.5 -10.5l-9 -5c2.66699 7.33301 5.5 14.5 8.5 21.5l8.5 20.5l186 463h25l-217 -538l-87 -217h-25zM204 611.001l-10 15l140 110l14 -21z" />
    <glyph glyph-name="thorn" unicode="&#xfe;" horiz-adv-x="612" 
d="M70 -230l-0.00195312 969.997h22v-388l-8 1c10.667 34.667 27.334 65.334 50.001 92.001s49.834 47.5 81.501 62.5s66.834 22.5 105.501 22.5c34 0 66.167 -6.66699 96.5 -20s57.166 -32.166 80.499 -56.499s41.5 -53 54.5 -86s19.5 -69.167 19.5 -108.5
c0 -52 -11 -98.167 -33 -138.5s-52 -72.166 -90 -95.499s-81 -35 -129 -35c-38.667 0 -74 7.33301 -106 22s-59.167 35 -81.5 61s-38.5 56.333 -48.5 91h8v-394h-22zM315.998 11.9971c46 0 86.498 10.668 121.498 32.001s62.5 50.666 82.5 87.999s30 79.666 30 126.999
c0 48 -10.167 90.833 -30.5 128.5s-48.166 67.167 -83.499 88.5s-75.333 32 -120 32c-43.333 0 -82.166 -10.667 -116.499 -32s-61.333 -50.666 -81 -87.999s-29.5 -80 -29.5 -128c0 -48.667 10 -91.667 30 -129s47 -66.5 81 -87.5s72.667 -31.5 116 -31.5z" />
    <glyph glyph-name="ydieresis" unicode="&#xff;" horiz-adv-x="501" 
d="M157 -230l95 239.001l5 -16l-242 532h25l212 -468c5.33301 -10.667 8.83301 -17.834 10.5 -21.501s3.16699 -7.16699 4.5 -10.5l-9 -5c2.66699 7.33301 5.5 14.5 8.5 21.5l8.5 20.5l186 463h25l-217 -538l-87 -217h-25zM326 663.001c-9.33301 0 -16.333 2.66699 -21 8
s-7 12.333 -7 21c0 8 2.33301 14.833 7 20.5s11.667 8.5 21 8.5c8.66699 0 15.5 -2.66699 20.5 -8s7.5 -12.333 7.5 -21s-2.33301 -15.667 -7 -21s-11.667 -8 -21 -8zM176 663.001c-9.33301 0 -16.333 2.66699 -21 8s-7 12.333 -7 21c0 8 2.33301 14.833 7 20.5
s11.667 8.5 21 8.5c8.66699 0 15.5 -2.66699 20.5 -8s7.5 -12.333 7.5 -21s-2.33301 -15.667 -7 -21s-11.667 -8 -21 -8z" />
    <glyph glyph-name="Amacron" unicode="&#x100;" horiz-adv-x="611" 
d="M20 0l269 700h33l269 -700h-26l-193 504c-2 4.66699 -5.5 13.5 -10.5 26.5l-18 47.5l-22.5 58.5l-23 58.5l11 -1c-4 -12 -9.5 -27.333 -16.5 -46l-22 -57.5l-20.5 -53.5l-13 -34l-191 -503h-26zM120 230l8 23h357l8 -23h-373zM171 807v22h270v-22h-270z" />
    <glyph glyph-name="amacron" unicode="&#x101;" horiz-adv-x="602" 
d="M294 -10c-48.667 0 -92.1689 11.502 -130.502 34.502s-68.5 54.667 -90.5 95s-33 86.5 -33 138.5c0 52.667 11.333 99.5 34 140.5s52.834 73.167 90.501 96.5s79.5 35 125.5 35c28 0 54.667 -4.33301 80 -13s48 -21 68 -37s36.833 -35 50.5 -57
s22.834 -46.333 27.501 -73l-6 3l2 172h20v-525h-22v172l9 3c-6 -26.667 -15.833 -51.334 -29.5 -74.001s-30.5 -42.334 -50.5 -59.001s-42.167 -29.5 -66.5 -38.5s-50.5 -13.5 -78.5 -13.5zM293.998 12.002c40.667 0 77.501 10.502 110.501 31.502s59 50.167 78 87.5
s28.5 80.333 28.5 129c0 48 -9.5 90.667 -28.5 128s-45 66.666 -78 87.999s-70.5 32 -112.5 32c-44.667 0 -84.334 -10.667 -119.001 -32s-61.667 -50.833 -81 -88.5s-29 -80.834 -29 -129.501c0 -47.333 9.66699 -89.5 29 -126.5s46.333 -66.167 81 -87.5s75 -32 121 -32z
M155.999 663.004v22h270v-22h-270z" />
    <glyph glyph-name="Abreve" unicode="&#x102;" horiz-adv-x="611" 
d="M20 0l269 700h33l269 -700h-26l-193 504c-2 4.66699 -5.5 13.5 -10.5 26.5l-18 47.5l-22.5 58.5l-23 58.5l11 -1c-4 -12 -9.5 -27.333 -16.5 -46l-22 -57.5l-20.5 -53.5l-13 -34l-191 -503h-26zM120 230l8 23h357l8 -23h-373zM306 762c-22.667 0 -43 4.66699 -61 14
s-33 22.333 -45 39s-20.667 35.667 -26 57l22 2c6.66699 -26.667 20 -48.5 40 -65.5s43.333 -25.5 70 -25.5c26 0 49.333 8.5 70 25.5s34 38.833 40 65.5l22 -2c-4.66699 -21.333 -13.167 -40.333 -25.5 -57s-27.5 -29.667 -45.5 -39s-38.333 -14 -61 -14z" />
    <glyph glyph-name="abreve" unicode="&#x103;" horiz-adv-x="602" 
d="M294 -10c-48.667 0 -92.1689 11.502 -130.502 34.502s-68.5 54.667 -90.5 95s-33 86.5 -33 138.5c0 52.667 11.333 99.5 34 140.5s52.834 73.167 90.501 96.5s79.5 35 125.5 35c28 0 54.667 -4.33301 80 -13s48 -21 68 -37s36.833 -35 50.5 -57
s22.834 -46.333 27.501 -73l-6 3l2 172h20v-525h-22v172l9 3c-6 -26.667 -15.833 -51.334 -29.5 -74.001s-30.5 -42.334 -50.5 -59.001s-42.167 -29.5 -66.5 -38.5s-50.5 -13.5 -78.5 -13.5zM293.998 12.002c40.667 0 77.501 10.502 110.501 31.502s59 50.167 78 87.5
s28.5 80.333 28.5 129c0 48 -9.5 90.667 -28.5 128s-45 66.666 -78 87.999s-70.5 32 -112.5 32c-44.667 0 -84.334 -10.667 -119.001 -32s-61.667 -50.833 -81 -88.5s-29 -80.834 -29 -129.501c0 -47.333 9.66699 -89.5 29 -126.5s46.333 -66.167 81 -87.5s75 -32 121 -32z
M290.999 613.004c-34 0 -62.5 10.667 -85.5 32s-38.5 50.666 -46.5 87.999l22 2c6.66699 -32 20 -56.833 40 -74.5s43.333 -26.5 70 -26.5c26 0 49.333 8.83301 70 26.5s34 42.5 40 74.5l22 -2c-7.33301 -37.333 -22.833 -66.666 -46.5 -87.999s-52.167 -32 -85.5 -32z" />
    <glyph glyph-name="Aogonek" unicode="&#x104;" horiz-adv-x="611" 
d="M20 0l269 700h33l269 -700h-26l-193 504c-2 4.66699 -5.5 13.5 -10.5 26.5l-18 47.5l-22.5 58.5l-23 58.5l11 -1c-4 -12 -9.5 -27.333 -16.5 -46l-22 -57.5l-20.5 -53.5l-13 -34l-191 -503h-26zM120 230l8 23h357l8 -23h-373zM505 -230
c-18.667 0 -35.501 4.50195 -50.501 13.502s-27 21 -36 36s-13.5 31.833 -13.5 50.5c0 20 4.33301 38.333 13 55s20.334 31.334 35.001 44.001s31.167 23.167 49.5 31.5s37.5 14.166 57.5 17.499l5 -18c-25.333 -4 -48.5 -11.833 -69.5 -23.5s-37.667 -26.334 -50 -44.001
s-18.5 -38.5 -18.5 -62.5c0 -22 7.5 -40.5 22.5 -55.5s33.5 -22.5 55.5 -22.5c17.333 0 32.333 4.16699 45 12.5s22.667 19.166 30 32.499l15 -13c-8 -16 -20 -29 -36 -39s-34 -15 -54 -15z" />
    <glyph glyph-name="aogonek" unicode="&#x105;" horiz-adv-x="602" 
d="M294 -10c-48.667 0 -92.1689 11.502 -130.502 34.502s-68.5 54.667 -90.5 95s-33 86.5 -33 138.5c0 52.667 11.333 99.5 34 140.5s52.834 73.167 90.501 96.5s79.5 35 125.5 35c28 0 54.667 -4.33301 80 -13s48 -21 68 -37s36.833 -35 50.5 -57
s22.834 -46.333 27.501 -73l-6 3l2 172h20v-525h-22v172l9 3c-6 -26.667 -15.833 -51.334 -29.5 -74.001s-30.5 -42.334 -50.5 -59.001s-42.167 -29.5 -66.5 -38.5s-50.5 -13.5 -78.5 -13.5zM293.998 12.002c40.667 0 77.501 10.502 110.501 31.502s59 50.167 78 87.5
s28.5 80.333 28.5 129c0 48 -9.5 90.667 -28.5 128s-45 66.666 -78 87.999s-70.5 32 -112.5 32c-44.667 0 -84.334 -10.667 -119.001 -32s-61.667 -50.833 -81 -88.5s-29 -80.834 -29 -129.501c0 -47.333 9.66699 -89.5 29 -126.5s46.333 -66.167 81 -87.5s75 -32 121 -32z
M471.999 -231.996c-18.667 0 -35.1641 4.33496 -49.4971 13.002s-25.5 20.667 -33.5 36s-12 32.333 -12 51c0 20 4.16699 38.333 12.5 55s19.666 31.334 33.999 44.001s30.5 23.167 48.5 31.5s36.333 14.166 55 17.499l5 -16c-24.667 -5.33301 -47.167 -13.833 -67.5 -25.5
s-36.333 -26.334 -48 -44.001s-17.5 -38.5 -17.5 -62.5c0 -22 7 -40.5 21 -55.5s31.333 -22.5 52 -22.5c16 0 29.833 4.16699 41.5 12.5s21.167 19.166 28.5 32.499l15 -13c-5.33301 -10.667 -12.333 -20 -21 -28s-18.334 -14.333 -29.001 -19s-22.334 -7 -35.001 -7z" />
    <glyph glyph-name="Cacute" unicode="&#x106;" horiz-adv-x="690" 
d="M399 -10c-50 0 -95.9971 8.66699 -137.997 26s-78.5 41.833 -109.5 73.5s-54.833 69.334 -71.5 113.001s-25 91.5 -25 143.5c0 53.333 8.33301 102.166 25 146.499s40.5 82.666 71.5 114.999s67.5 57.5 109.5 75.5s88 27 138 27c35.333 0 68.5 -4.83301 99.5 -14.5
s59.667 -23.167 86 -40.5s49.833 -37.666 70.5 -60.999l-18 -16c-19.333 22 -41.333 41.333 -66 58s-51.334 29.5 -80.001 38.5s-59.334 13.5 -92.001 13.5c-46 0 -88.667 -8.5 -128 -25.5s-73.333 -40.833 -102 -71.5s-51 -66.834 -67 -108.501s-24 -87.167 -24 -136.5
c0 -48.667 8 -93.334 24 -134.001s38.333 -76 67 -106s62.667 -53.167 102 -69.5s82 -24.5 128 -24.5c30 0 58.667 3.5 86 10.5s52.666 17 75.999 30s44.333 28.5 63 46.5l15 -18c-20 -19.333 -42.5 -35.666 -67.5 -48.999s-52 -23.666 -81 -30.999s-59.5 -11 -91.5 -11z
M346.003 764l-9 16l150 92l13 -22z" />
    <glyph glyph-name="cacute" unicode="&#x107;" horiz-adv-x="526" 
d="M306 -10c-52 0 -98.002 11.6709 -138.002 35.0039s-71.333 55.666 -94 96.999s-34 88.333 -34 141c0 52 11.333 98.167 34 138.5s54 71.833 94 94.5s86 34 138 34c42 0 80 -7.83301 114 -23.5s62.667 -36.834 86 -63.501l-16 -17c-14.667 17.333 -31.5 32 -50.5 44
s-39.667 21.333 -62 28s-46.166 10 -71.499 10c-47.333 0 -89.166 -10.5 -125.499 -31.5s-65 -49.833 -86 -86.5s-31.833 -79 -32.5 -127c0.666992 -48.667 11.5 -92 32.5 -130s49.667 -67.667 86 -89s78.166 -32 125.499 -32c24.667 0 48 3.16699 70 9.5
s42.5 15.666 61.5 27.999s35.833 26.833 50.5 43.5l16 -16c-24 -26.667 -52.667 -47.834 -86 -63.501s-70.666 -23.5 -111.999 -23.5zM259.998 611.004l-10 15l140 110l14 -21z" />
    <glyph glyph-name="Ccircumflex" unicode="&#x108;" horiz-adv-x="690" 
d="M399 -10c-50 0 -95.9971 8.66699 -137.997 26s-78.5 41.833 -109.5 73.5s-54.833 69.334 -71.5 113.001s-25 91.5 -25 143.5c0 53.333 8.33301 102.166 25 146.499s40.5 82.666 71.5 114.999s67.5 57.5 109.5 75.5s88 27 138 27c35.333 0 68.5 -4.83301 99.5 -14.5
s59.667 -23.167 86 -40.5s49.833 -37.666 70.5 -60.999l-18 -16c-19.333 22 -41.333 41.333 -66 58s-51.334 29.5 -80.001 38.5s-59.334 13.5 -92.001 13.5c-46 0 -88.667 -8.5 -128 -25.5s-73.333 -40.833 -102 -71.5s-51 -66.834 -67 -108.501s-24 -87.167 -24 -136.5
c0 -48.667 8 -93.334 24 -134.001s38.333 -76 67 -106s62.667 -53.167 102 -69.5s82 -24.5 128 -24.5c30 0 58.667 3.5 86 10.5s52.666 17 75.999 30s44.333 28.5 63 46.5l15 -18c-20 -19.333 -42.5 -35.666 -67.5 -48.999s-52 -23.666 -81 -30.999s-59.5 -11 -91.5 -11z
M290.003 770l-12 13l107 82h28l107 -82l-12 -13l-116 82h15z" />
    <glyph glyph-name="ccircumflex" unicode="&#x109;" horiz-adv-x="526" 
d="M306 -10c-52 0 -98.002 11.6709 -138.002 35.0039s-71.333 55.666 -94 96.999s-34 88.333 -34 141c0 52 11.333 98.167 34 138.5s54 71.833 94 94.5s86 34 138 34c42 0 80 -7.83301 114 -23.5s62.667 -36.834 86 -63.501l-16 -17c-14.667 17.333 -31.5 32 -50.5 44
s-39.667 21.333 -62 28s-46.166 10 -71.499 10c-47.333 0 -89.166 -10.5 -125.499 -31.5s-65 -49.833 -86 -86.5s-31.833 -79 -32.5 -127c0.666992 -48.667 11.5 -92 32.5 -130s49.667 -67.667 86 -89s78.166 -32 125.499 -32c24.667 0 48 3.16699 70 9.5
s42.5 15.666 61.5 27.999s35.833 26.833 50.5 43.5l16 -16c-24 -26.667 -52.667 -47.834 -86 -63.501s-70.666 -23.5 -111.999 -23.5zM197.998 621.004l-12 13l107 92h28l107 -92l-12 -13l-116 92h15z" />
    <glyph glyph-name="Cdotaccent" unicode="&#x10a;" horiz-adv-x="690" 
d="M399 -10c-50 0 -95.9971 8.66699 -137.997 26s-78.5 41.833 -109.5 73.5s-54.833 69.334 -71.5 113.001s-25 91.5 -25 143.5c0 53.333 8.33301 102.166 25 146.499s40.5 82.666 71.5 114.999s67.5 57.5 109.5 75.5s88 27 138 27c35.333 0 68.5 -4.83301 99.5 -14.5
s59.667 -23.167 86 -40.5s49.833 -37.666 70.5 -60.999l-18 -16c-19.333 22 -41.333 41.333 -66 58s-51.334 29.5 -80.001 38.5s-59.334 13.5 -92.001 13.5c-46 0 -88.667 -8.5 -128 -25.5s-73.333 -40.833 -102 -71.5s-51 -66.834 -67 -108.501s-24 -87.167 -24 -136.5
c0 -48.667 8 -93.334 24 -134.001s38.333 -76 67 -106s62.667 -53.167 102 -69.5s82 -24.5 128 -24.5c30 0 58.667 3.5 86 10.5s52.666 17 75.999 30s44.333 28.5 63 46.5l15 -18c-20 -19.333 -42.5 -35.666 -67.5 -48.999s-52 -23.666 -81 -30.999s-59.5 -11 -91.5 -11z
M399.003 789c-9.33301 0 -16.333 2.66699 -21 8s-7 12.333 -7 21c0 8 2.33301 14.833 7 20.5s11.667 8.5 21 8.5c8.66699 0 15.5 -2.66699 20.5 -8s7.5 -12.333 7.5 -21s-2.33301 -15.667 -7 -21s-11.667 -8 -21 -8z" />
    <glyph glyph-name="cdotaccent" unicode="&#x10b;" horiz-adv-x="526" 
d="M306 -10c-52 0 -98.002 11.6709 -138.002 35.0039s-71.333 55.666 -94 96.999s-34 88.333 -34 141c0 52 11.333 98.167 34 138.5s54 71.833 94 94.5s86 34 138 34c42 0 80 -7.83301 114 -23.5s62.667 -36.834 86 -63.501l-16 -17c-14.667 17.333 -31.5 32 -50.5 44
s-39.667 21.333 -62 28s-46.166 10 -71.499 10c-47.333 0 -89.166 -10.5 -125.499 -31.5s-65 -49.833 -86 -86.5s-31.833 -79 -32.5 -127c0.666992 -48.667 11.5 -92 32.5 -130s49.667 -67.667 86 -89s78.166 -32 125.499 -32c24.667 0 48 3.16699 70 9.5
s42.5 15.666 61.5 27.999s35.833 26.833 50.5 43.5l16 -16c-24 -26.667 -52.667 -47.834 -86 -63.501s-70.666 -23.5 -111.999 -23.5zM306.998 663.004c-9.33301 0 -16.333 2.66699 -21 8s-7 12.333 -7 21c0 8 2.33301 14.833 7 20.5s11.667 8.5 21 8.5
c8.66699 0 15.5 -2.66699 20.5 -8s7.5 -12.333 7.5 -21s-2.33301 -15.667 -7 -21s-11.667 -8 -21 -8z" />
    <glyph glyph-name="Ccaron" unicode="&#x10c;" horiz-adv-x="690" 
d="M399 -10c-50 0 -95.9971 8.66699 -137.997 26s-78.5 41.833 -109.5 73.5s-54.833 69.334 -71.5 113.001s-25 91.5 -25 143.5c0 53.333 8.33301 102.166 25 146.499s40.5 82.666 71.5 114.999s67.5 57.5 109.5 75.5s88 27 138 27c35.333 0 68.5 -4.83301 99.5 -14.5
s59.667 -23.167 86 -40.5s49.833 -37.666 70.5 -60.999l-18 -16c-19.333 22 -41.333 41.333 -66 58s-51.334 29.5 -80.001 38.5s-59.334 13.5 -92.001 13.5c-46 0 -88.667 -8.5 -128 -25.5s-73.333 -40.833 -102 -71.5s-51 -66.834 -67 -108.501s-24 -87.167 -24 -136.5
c0 -48.667 8 -93.334 24 -134.001s38.333 -76 67 -106s62.667 -53.167 102 -69.5s82 -24.5 128 -24.5c30 0 58.667 3.5 86 10.5s52.666 17 75.999 30s44.333 28.5 63 46.5l15 -18c-20 -19.333 -42.5 -35.666 -67.5 -48.999s-52 -23.666 -81 -30.999s-59.5 -11 -91.5 -11z
M385.003 770l-107 82l12 13l117 -82h-15l116 82l12 -13l-107 -82h-28z" />
    <glyph glyph-name="ccaron" unicode="&#x10d;" horiz-adv-x="526" 
d="M306 -10c-52 0 -98.002 11.6709 -138.002 35.0039s-71.333 55.666 -94 96.999s-34 88.333 -34 141c0 52 11.333 98.167 34 138.5s54 71.833 94 94.5s86 34 138 34c42 0 80 -7.83301 114 -23.5s62.667 -36.834 86 -63.501l-16 -17c-14.667 17.333 -31.5 32 -50.5 44
s-39.667 21.333 -62 28s-46.166 10 -71.499 10c-47.333 0 -89.166 -10.5 -125.499 -31.5s-65 -49.833 -86 -86.5s-31.833 -79 -32.5 -127c0.666992 -48.667 11.5 -92 32.5 -130s49.667 -67.667 86 -89s78.166 -32 125.499 -32c24.667 0 48 3.16699 70 9.5
s42.5 15.666 61.5 27.999s35.833 26.833 50.5 43.5l16 -16c-24 -26.667 -52.667 -47.834 -86 -63.501s-70.666 -23.5 -111.999 -23.5zM292.998 621.004l-107 92l12 13l117 -92h-15l116 92l12 -13l-107 -92h-28z" />
    <glyph glyph-name="Dcaron" unicode="&#x10e;" horiz-adv-x="737" 
d="M110 0v700.001h247c42.667 0 83.5 -8.66699 122.5 -26s73.667 -41.666 104 -72.999s54.333 -68.333 72 -111s26.5 -89.334 26.5 -140.001c0 -50 -8.83301 -96.333 -26.5 -139s-41.667 -79.834 -72 -111.501s-65 -56.167 -104 -73.5s-79.833 -26 -122.5 -26h-247z
M132 13.001l-10 8.99902h230c40 0 78.5 8.33301 115.5 25s69.833 39.834 98.5 69.501s51.334 64.5 68.001 104.5s25 83 25 129c0 46.667 -8.33301 90 -25 130s-39.334 74.833 -68.001 104.5s-61.5 52.667 -98.5 69s-75.5 24.5 -115.5 24.5h-231l11 11v-676zM355 770l-107 82
l12 13l117 -82h-15l116 82l12 -13l-107 -82h-28z" />
    <glyph glyph-name="dcaron" unicode="&#x10f;" horiz-adv-x="572" 
d="M294 -10c-48.667 0 -92.168 11.502 -130.501 34.502s-68.5 54.667 -90.5 95s-33 86.5 -33 138.5c0 52.667 11.333 99.5 34 140.5s52.834 73.167 90.501 96.5s79.5 35 125.5 35c26.667 0 52.5 -4.5 77.5 -13.5s47.833 -21.667 68.5 -38s38 -35.333 52 -57
s23.333 -45.5 28 -71.5l-6 3v387h22v-740h-22v172l9 3c-6.66699 -26.667 -17 -51.334 -31 -74.001s-31 -42.334 -51 -59.001s-42 -29.5 -66 -38.5s-49.667 -13.5 -77 -13.5zM292.999 12.002c40.667 0 77.501 10.502 110.501 31.502s59 50.167 78 87.5s28.5 80.333 28.5 129
c0 48 -9.5 90.667 -28.5 128s-45 66.666 -78 87.999s-70.5 32 -112.5 32c-44.667 0 -84.334 -10.667 -119.001 -32s-61.667 -50.833 -81 -88.5s-29 -80.834 -29 -129.501c0 -47.333 9.66699 -89.5 29 -126.5s46.333 -66.167 81 -87.5s75 -32 121 -32zM595 604.004
l-13.0029 13.002c4.66699 4 9.5 8.5 14.5 13.5s9.5 10.333 13.5 16s6 11.5 6 17.5c0 5.33301 -1 9.66602 -3 12.999s-6.66699 6.66602 -14 9.99902c-6.66699 3.33301 -11.667 7.33301 -15 12s-5 10.334 -5 17.001c0 6 2.33301 11.5 7 16.5s11.334 7.5 20.001 7.5
c11.333 0 20.166 -4.16699 26.499 -12.5s9.5 -19.5 9.5 -33.5c0 -8.66699 -0.666992 -16.834 -2 -24.501s-3.66602 -15 -6.99902 -22s-8.16602 -14 -14.499 -21s-14.166 -14.5 -23.499 -22.5z" />
    <glyph glyph-name="Dcroat" unicode="&#x110;" horiz-adv-x="737" 
d="M24 339v21h268v-21h-268zM110 0v700.001h247c42.667 0 83.5 -8.66699 122.5 -26s73.667 -41.666 104 -72.999s54.333 -68.333 72 -111s26.5 -89.334 26.5 -140.001c0 -50 -8.83301 -96.333 -26.5 -139s-41.667 -79.834 -72 -111.501s-65 -56.167 -104 -73.5
s-79.833 -26 -122.5 -26h-247zM132 13.001l-10 8.99902h230c40 0 78.5 8.33301 115.5 25s69.833 39.834 98.5 69.501s51.334 64.5 68.001 104.5s25 83 25 129c0 46.667 -8.33301 90 -25 130s-39.334 74.833 -68.001 104.5s-61.5 52.667 -98.5 69s-75.5 24.5 -115.5 24.5
h-231l11 11v-676z" />
    <glyph glyph-name="dcroat" unicode="&#x111;" horiz-adv-x="604" 
d="M367 623v21h268v-21h-268zM294 -10c-48.667 0 -92.168 11.502 -130.501 34.502s-68.5 54.667 -90.5 95s-33 86.5 -33 138.5c0 52.667 11.333 99.5 34 140.5s52.834 73.167 90.501 96.5s79.5 35 125.5 35c26.667 0 52.5 -4.5 77.5 -13.5s47.833 -21.667 68.5 -38
s38 -35.333 52 -57s23.333 -45.5 28 -71.5l-6 3v387h22v-740h-22v172l9 3c-6.66699 -26.667 -17 -51.334 -31 -74.001s-31 -42.334 -51 -59.001s-42 -29.5 -66 -38.5s-49.667 -13.5 -77 -13.5zM292.999 12.002c40.667 0 77.501 10.502 110.501 31.502s59 50.167 78 87.5
s28.5 80.333 28.5 129c0 48 -9.5 90.667 -28.5 128s-45 66.666 -78 87.999s-70.5 32 -112.5 32c-44.667 0 -84.334 -10.667 -119.001 -32s-61.667 -50.833 -81 -88.5s-29 -80.834 -29 -129.501c0 -47.333 9.66699 -89.5 29 -126.5s46.333 -66.167 81 -87.5s75 -32 121 -32z
" />
    <glyph glyph-name="Emacron" unicode="&#x112;" horiz-adv-x="566" 
d="M110 0v700h391v-22h-369v-656h363v-22h-385zM123 351v22h320v-22h-320zM178 807v22h270v-22h-270z" />
    <glyph glyph-name="emacron" unicode="&#x113;" horiz-adv-x="545" 
d="M297 -10c-50.667 0 -95.3311 11.667 -133.998 35s-68.834 55.666 -90.501 96.999s-32.5 88.333 -32.5 141c0 39.333 6 75.333 18 108s28.833 60.834 50.5 84.501s47.5 42 77.5 55s63 19.5 99 19.5c33.333 0 64 -5.5 92 -16.5s52.167 -27 72.5 -48
s35.833 -46.167 46.5 -75.5s15.334 -62.333 14.001 -99l-1 -26h-457v22h446l-12 -17l2 25c0 42.667 -9 80 -27 112s-42.167 56.833 -72.5 74.5s-63.833 26.5 -100.5 26.5c-45.333 0 -84.833 -10.5 -118.5 -31.5s-59.834 -50 -78.501 -87s-28.334 -79.167 -29.001 -126.5
c0.666992 -48.667 11 -92 31 -130s47.5 -67.667 82.5 -89s75.5 -32 121.5 -32c34.667 0 66.667 6.33301 96 19s55.666 30 78.999 52l12 -18c-16.667 -15.333 -34.5 -28.5 -53.5 -39.5s-39.667 -19.667 -62 -26s-46.166 -9.5 -71.499 -9.5zM150.003 663v22h270v-22h-270z" />
    <glyph glyph-name="Ebreve" unicode="&#x114;" horiz-adv-x="566" 
d="M110 0v700h391v-22h-369v-656h363v-22h-385zM123 351v22h320v-22h-320zM313 762c-22.667 0 -43 4.66699 -61 14s-33 22.333 -45 39s-20.667 35.667 -26 57l22 2c6.66699 -26.667 20 -48.5 40 -65.5s43.333 -25.5 70 -25.5c26 0 49.333 8.5 70 25.5s34 38.833 40 65.5
l22 -2c-4.66699 -21.333 -13.167 -40.333 -25.5 -57s-27.5 -29.667 -45.5 -39s-38.333 -14 -61 -14z" />
    <glyph glyph-name="ebreve" unicode="&#x115;" horiz-adv-x="545" 
d="M297 -10c-50.667 0 -95.3311 11.667 -133.998 35s-68.834 55.666 -90.501 96.999s-32.5 88.333 -32.5 141c0 39.333 6 75.333 18 108s28.833 60.834 50.5 84.501s47.5 42 77.5 55s63 19.5 99 19.5c33.333 0 64 -5.5 92 -16.5s52.167 -27 72.5 -48
s35.833 -46.167 46.5 -75.5s15.334 -62.333 14.001 -99l-1 -26h-457v22h446l-12 -17l2 25c0 42.667 -9 80 -27 112s-42.167 56.833 -72.5 74.5s-63.833 26.5 -100.5 26.5c-45.333 0 -84.833 -10.5 -118.5 -31.5s-59.834 -50 -78.501 -87s-28.334 -79.167 -29.001 -126.5
c0.666992 -48.667 11 -92 31 -130s47.5 -67.667 82.5 -89s75.5 -32 121.5 -32c34.667 0 66.667 6.33301 96 19s55.666 30 78.999 52l12 -18c-16.667 -15.333 -34.5 -28.5 -53.5 -39.5s-39.667 -19.667 -62 -26s-46.166 -9.5 -71.499 -9.5zM285.003 613
c-34 0 -62.5 10.667 -85.5 32s-38.5 50.666 -46.5 87.999l22 2c6.66699 -32 20 -56.833 40 -74.5s43.333 -26.5 70 -26.5c26 0 49.333 8.83301 70 26.5s34 42.5 40 74.5l22 -2c-7.33301 -37.333 -22.833 -66.666 -46.5 -87.999s-52.167 -32 -85.5 -32z" />
    <glyph glyph-name="Edotaccent" unicode="&#x116;" horiz-adv-x="566" 
d="M110 0v700h391v-22h-369v-656h363v-22h-385zM123 351v22h320v-22h-320zM313 789c-9.33301 0 -16.333 2.66699 -21 8s-7 12.333 -7 21c0 8 2.33301 14.833 7 20.5s11.667 8.5 21 8.5c8.66699 0 15.5 -2.66699 20.5 -8s7.5 -12.333 7.5 -21s-2.33301 -15.667 -7 -21
s-11.667 -8 -21 -8z" />
    <glyph glyph-name="edotaccent" unicode="&#x117;" horiz-adv-x="545" 
d="M297 -10c-50.667 0 -95.3311 11.667 -133.998 35s-68.834 55.666 -90.501 96.999s-32.5 88.333 -32.5 141c0 39.333 6 75.333 18 108s28.833 60.834 50.5 84.501s47.5 42 77.5 55s63 19.5 99 19.5c33.333 0 64 -5.5 92 -16.5s52.167 -27 72.5 -48
s35.833 -46.167 46.5 -75.5s15.334 -62.333 14.001 -99l-1 -26h-457v22h446l-12 -17l2 25c0 42.667 -9 80 -27 112s-42.167 56.833 -72.5 74.5s-63.833 26.5 -100.5 26.5c-45.333 0 -84.833 -10.5 -118.5 -31.5s-59.834 -50 -78.501 -87s-28.334 -79.167 -29.001 -126.5
c0.666992 -48.667 11 -92 31 -130s47.5 -67.667 82.5 -89s75.5 -32 121.5 -32c34.667 0 66.667 6.33301 96 19s55.666 30 78.999 52l12 -18c-16.667 -15.333 -34.5 -28.5 -53.5 -39.5s-39.667 -19.667 -62 -26s-46.166 -9.5 -71.499 -9.5zM285.003 663
c-9.33301 0 -16.333 2.66699 -21 8s-7 12.333 -7 21c0 8 2.33301 14.833 7 20.5s11.667 8.5 21 8.5c8.66699 0 15.5 -2.66699 20.5 -8s7.5 -12.333 7.5 -21s-2.33301 -15.667 -7 -21s-11.667 -8 -21 -8z" />
    <glyph glyph-name="Eogonek" unicode="&#x118;" horiz-adv-x="566" 
d="M110 0v700h391v-22h-369v-656h363v-22h-385zM123 351v22h320v-22h-320zM415 -230c-18.667 0 -35.501 4.50195 -50.501 13.502s-27 21 -36 36s-13.5 31.833 -13.5 50.5c0 20 4.33301 38.333 13 55s20.334 31.334 35.001 44.001s31.167 23.167 49.5 31.5
s37.5 14.166 57.5 17.499l5 -18c-25.333 -4 -48.5 -11.833 -69.5 -23.5s-37.667 -26.334 -50 -44.001s-18.5 -38.5 -18.5 -62.5c0 -22 7.5 -40.5 22.5 -55.5s33.5 -22.5 55.5 -22.5c17.333 0 32.333 4.16699 45 12.5s22.667 19.166 30 32.499l15 -13c-8 -16 -20 -29 -36 -39
s-34 -15 -54 -15z" />
    <glyph glyph-name="eogonek" unicode="&#x119;" horiz-adv-x="545" 
d="M406 -232c-25.333 0 -47.4971 9.66699 -66.4971 29s-28.5 43.333 -28.5 72c0 26.667 6.33301 51.334 19 74.001s30 44 52 64s47 38.667 75 56l5 -16c-40.667 -28 -72.334 -56.833 -95.001 -86.5s-34 -59.167 -34 -88.5c0 -24 7 -43.667 21 -59s31.333 -23 52 -23
c16 0 29.833 4.16699 41.5 12.5s21.167 19.166 28.5 32.499l15 -13c-5.33301 -10.667 -12.333 -20 -21 -28s-18.334 -14.333 -29.001 -19s-22.334 -7 -35.001 -7zM297.003 -10c-50.667 0 -95.3311 11.667 -133.998 35s-68.834 55.666 -90.501 96.999s-32.5 88.333 -32.5 141
c0 39.333 6 75.333 18 108s28.833 60.834 50.5 84.501s47.5 42 77.5 55s63 19.5 99 19.5c33.333 0 64 -5.5 92 -16.5s52.167 -27 72.5 -48s35.833 -46.167 46.5 -75.5s15.334 -62.333 14.001 -99l-1 -26h-457v22h446l-12 -17l2 25c0 42.667 -9 80 -27 112
s-42.167 56.833 -72.5 74.5s-63.833 26.5 -100.5 26.5c-45.333 0 -84.833 -10.5 -118.5 -31.5s-59.834 -50 -78.501 -87s-28.334 -79.167 -29.001 -126.5c0.666992 -48.667 11 -92 31 -130s47.5 -67.667 82.5 -89s75.5 -32 121.5 -32c34.667 0 66.667 6.33301 96 19
s55.666 30 78.999 52l12 -18c-16.667 -15.333 -34.5 -28.5 -53.5 -39.5s-39.667 -19.667 -62 -26s-46.166 -9.5 -71.499 -9.5z" />
    <glyph glyph-name="Ecaron" unicode="&#x11a;" horiz-adv-x="566" 
d="M110 0v700h391v-22h-369v-656h363v-22h-385zM123 351v22h320v-22h-320zM299 770l-107 82l12 13l117 -82h-15l116 82l12 -13l-107 -82h-28z" />
    <glyph glyph-name="ecaron" unicode="&#x11b;" horiz-adv-x="545" 
d="M297 -10c-50.667 0 -95.3311 11.667 -133.998 35s-68.834 55.666 -90.501 96.999s-32.5 88.333 -32.5 141c0 39.333 6 75.333 18 108s28.833 60.834 50.5 84.501s47.5 42 77.5 55s63 19.5 99 19.5c33.333 0 64 -5.5 92 -16.5s52.167 -27 72.5 -48
s35.833 -46.167 46.5 -75.5s15.334 -62.333 14.001 -99l-1 -26h-457v22h446l-12 -17l2 25c0 42.667 -9 80 -27 112s-42.167 56.833 -72.5 74.5s-63.833 26.5 -100.5 26.5c-45.333 0 -84.833 -10.5 -118.5 -31.5s-59.834 -50 -78.501 -87s-28.334 -79.167 -29.001 -126.5
c0.666992 -48.667 11 -92 31 -130s47.5 -67.667 82.5 -89s75.5 -32 121.5 -32c34.667 0 66.667 6.33301 96 19s55.666 30 78.999 52l12 -18c-16.667 -15.333 -34.5 -28.5 -53.5 -39.5s-39.667 -19.667 -62 -26s-46.166 -9.5 -71.499 -9.5zM271.003 621l-107 92l12 13
l117 -92h-15l116 92l12 -13l-107 -92h-28z" />
    <glyph glyph-name="Gcircumflex" unicode="&#x11c;" horiz-adv-x="766" 
d="M400 -10c-50 0 -96.166 8.67188 -138.499 26.0049s-78.833 41.833 -109.5 73.5s-54.5 69.334 -71.5 113.001s-25.5 91.5 -25.5 143.5c0 53.333 8.33301 102.166 25 146.499s40.5 82.666 71.5 114.999s67.5 57.5 109.5 75.5s88 27 138 27c38 0 73.333 -5.33301 106 -16
s62.667 -25.834 90 -45.501s51.666 -42.5 72.999 -68.5l-17 -16c-19.333 25.333 -41.833 47.333 -67.5 66s-54 33 -85 43s-64.167 15 -99.5 15c-46 0 -88.667 -8.5 -128 -25.5s-73.333 -40.833 -102 -71.5s-51 -66.834 -67 -108.501s-24 -87.167 -24 -136.5
c0 -48.667 8 -93.334 24 -134.001s38.5 -76 67.5 -106s63.167 -53.167 102.5 -69.5s82 -24.5 128 -24.5c48 0 90.5 7.5 127.5 22.5s68.333 36.167 94 63.5s45 60 58 98s19.5 80 19.5 126v19l6 -5h-296v22h313v-9.5v-5.5v-4c0 -56.667 -7.33301 -106.834 -22 -150.501
s-36 -80.167 -64 -109.5s-61.833 -51.5 -101.5 -66.5s-84.5 -22.5 -134.5 -22.5zM288.001 770.005l-12 13l107 82h28l107 -82l-12 -13l-116 82h15z" />
    <glyph glyph-name="gcircumflex" unicode="&#x11d;" horiz-adv-x="603" 
d="M294 -240c-36 0 -69.833 6.33301 -101.5 19s-58.167 31 -79.5 55l11 20c14 -14.667 29.5 -27.334 46.5 -38.001s35.833 -19 56.5 -25s42.667 -9 66 -9c38 0 73.5 10 106.5 30s59.667 48.5 80 85.5s30.5 81.167 30.5 132.5v142l9 3c-8.66699 -36 -24 -67.833 -46 -95.5
s-48.333 -49.5 -79 -65.5s-64 -24 -100 -24c-48.667 0 -92.167 11.5 -130.5 34.5s-68.5 54.667 -90.5 95s-33 86.5 -33 138.5c0 52.667 11.333 99.5 34 140.5s52.834 73.167 90.501 96.5s79.5 35 125.5 35c21.333 0 42.166 -3 62.499 -9s39.5 -14.333 57.5 -25
s34.333 -23.5 49 -38.5s26.834 -31.5 36.501 -49.5s16.5 -37.333 20.5 -58l-6 3l2 172h20v-504c0 -40.667 -6.16699 -77.167 -18.5 -109.5s-29.5 -59.666 -51.5 -81.999s-47.333 -39.5 -76 -51.5s-59.334 -18 -92.001 -18zM293 12c40.667 0 77.5 10.502 110.5 31.502
s59 50.167 78 87.5s28.5 80.333 28.5 129c0 48 -9.5 90.667 -28.5 128s-45 66.666 -78 87.999s-70.5 32 -112.5 32c-44.667 0 -84.334 -10.667 -119.001 -32s-61.667 -50.833 -81 -88.5s-29 -80.834 -29 -129.501c0 -47.333 9.83301 -89.5 29.5 -126.5
s46.834 -66.167 81.501 -87.5s74.667 -32 120 -32zM183 621.002l-12 13l107 92h28l107 -92l-12 -13l-116 92h15z" />
    <glyph glyph-name="Gbreve" unicode="&#x11e;" horiz-adv-x="766" 
d="M400 -10c-50 0 -96.166 8.67188 -138.499 26.0049s-78.833 41.833 -109.5 73.5s-54.5 69.334 -71.5 113.001s-25.5 91.5 -25.5 143.5c0 53.333 8.33301 102.166 25 146.499s40.5 82.666 71.5 114.999s67.5 57.5 109.5 75.5s88 27 138 27c38 0 73.333 -5.33301 106 -16
s62.667 -25.834 90 -45.501s51.666 -42.5 72.999 -68.5l-17 -16c-19.333 25.333 -41.833 47.333 -67.5 66s-54 33 -85 43s-64.167 15 -99.5 15c-46 0 -88.667 -8.5 -128 -25.5s-73.333 -40.833 -102 -71.5s-51 -66.834 -67 -108.501s-24 -87.167 -24 -136.5
c0 -48.667 8 -93.334 24 -134.001s38.5 -76 67.5 -106s63.167 -53.167 102.5 -69.5s82 -24.5 128 -24.5c48 0 90.5 7.5 127.5 22.5s68.333 36.167 94 63.5s45 60 58 98s19.5 80 19.5 126v19l6 -5h-296v22h313v-9.5v-5.5v-4c0 -56.667 -7.33301 -106.834 -22 -150.501
s-36 -80.167 -64 -109.5s-61.833 -51.5 -101.5 -66.5s-84.5 -22.5 -134.5 -22.5zM397.001 762.005c-22.667 0 -43 4.66699 -61 14s-33 22.333 -45 39s-20.667 35.667 -26 57l22 2c6.66699 -26.667 20 -48.5 40 -65.5s43.333 -25.5 70 -25.5c26 0 49.333 8.5 70 25.5
s34 38.833 40 65.5l22 -2c-4.66699 -21.333 -13.167 -40.333 -25.5 -57s-27.5 -29.667 -45.5 -39s-38.333 -14 -61 -14z" />
    <glyph glyph-name="gbreve" unicode="&#x11f;" horiz-adv-x="603" 
d="M294 -240c-36 0 -69.833 6.33301 -101.5 19s-58.167 31 -79.5 55l11 20c14 -14.667 29.5 -27.334 46.5 -38.001s35.833 -19 56.5 -25s42.667 -9 66 -9c38 0 73.5 10 106.5 30s59.667 48.5 80 85.5s30.5 81.167 30.5 132.5v142l9 3c-8.66699 -36 -24 -67.833 -46 -95.5
s-48.333 -49.5 -79 -65.5s-64 -24 -100 -24c-48.667 0 -92.167 11.5 -130.5 34.5s-68.5 54.667 -90.5 95s-33 86.5 -33 138.5c0 52.667 11.333 99.5 34 140.5s52.834 73.167 90.501 96.5s79.5 35 125.5 35c21.333 0 42.166 -3 62.499 -9s39.5 -14.333 57.5 -25
s34.333 -23.5 49 -38.5s26.834 -31.5 36.501 -49.5s16.5 -37.333 20.5 -58l-6 3l2 172h20v-504c0 -40.667 -6.16699 -77.167 -18.5 -109.5s-29.5 -59.666 -51.5 -81.999s-47.333 -39.5 -76 -51.5s-59.334 -18 -92.001 -18zM293 12c40.667 0 77.5 10.502 110.5 31.502
s59 50.167 78 87.5s28.5 80.333 28.5 129c0 48 -9.5 90.667 -28.5 128s-45 66.666 -78 87.999s-70.5 32 -112.5 32c-44.667 0 -84.334 -10.667 -119.001 -32s-61.667 -50.833 -81 -88.5s-29 -80.834 -29 -129.501c0 -47.333 9.83301 -89.5 29.5 -126.5
s46.834 -66.167 81.501 -87.5s74.667 -32 120 -32zM292 613.002c-34 0 -62.5 10.667 -85.5 32s-38.5 50.666 -46.5 87.999l22 2c6.66699 -32 20 -56.833 40 -74.5s43.333 -26.5 70 -26.5c26 0 49.333 8.83301 70 26.5s34 42.5 40 74.5l22 -2
c-7.33301 -37.333 -22.833 -66.666 -46.5 -87.999s-52.167 -32 -85.5 -32z" />
    <glyph glyph-name="Gdotaccent" unicode="&#x120;" horiz-adv-x="766" 
d="M400 -10c-50 0 -96.166 8.67188 -138.499 26.0049s-78.833 41.833 -109.5 73.5s-54.5 69.334 -71.5 113.001s-25.5 91.5 -25.5 143.5c0 53.333 8.33301 102.166 25 146.499s40.5 82.666 71.5 114.999s67.5 57.5 109.5 75.5s88 27 138 27c38 0 73.333 -5.33301 106 -16
s62.667 -25.834 90 -45.501s51.666 -42.5 72.999 -68.5l-17 -16c-19.333 25.333 -41.833 47.333 -67.5 66s-54 33 -85 43s-64.167 15 -99.5 15c-46 0 -88.667 -8.5 -128 -25.5s-73.333 -40.833 -102 -71.5s-51 -66.834 -67 -108.501s-24 -87.167 -24 -136.5
c0 -48.667 8 -93.334 24 -134.001s38.5 -76 67.5 -106s63.167 -53.167 102.5 -69.5s82 -24.5 128 -24.5c48 0 90.5 7.5 127.5 22.5s68.333 36.167 94 63.5s45 60 58 98s19.5 80 19.5 126v19l6 -5h-296v22h313v-9.5v-5.5v-4c0 -56.667 -7.33301 -106.834 -22 -150.501
s-36 -80.167 -64 -109.5s-61.833 -51.5 -101.5 -66.5s-84.5 -22.5 -134.5 -22.5zM397.001 789.005c-9.33301 0 -16.333 2.66699 -21 8s-7 12.333 -7 21c0 8 2.33301 14.833 7 20.5s11.667 8.5 21 8.5c8.66699 0 15.5 -2.66699 20.5 -8s7.5 -12.333 7.5 -21
s-2.33301 -15.667 -7 -21s-11.667 -8 -21 -8z" />
    <glyph glyph-name="gdotaccent" unicode="&#x121;" horiz-adv-x="603" 
d="M294 -240c-36 0 -69.833 6.33301 -101.5 19s-58.167 31 -79.5 55l11 20c14 -14.667 29.5 -27.334 46.5 -38.001s35.833 -19 56.5 -25s42.667 -9 66 -9c38 0 73.5 10 106.5 30s59.667 48.5 80 85.5s30.5 81.167 30.5 132.5v142l9 3c-8.66699 -36 -24 -67.833 -46 -95.5
s-48.333 -49.5 -79 -65.5s-64 -24 -100 -24c-48.667 0 -92.167 11.5 -130.5 34.5s-68.5 54.667 -90.5 95s-33 86.5 -33 138.5c0 52.667 11.333 99.5 34 140.5s52.834 73.167 90.501 96.5s79.5 35 125.5 35c21.333 0 42.166 -3 62.499 -9s39.5 -14.333 57.5 -25
s34.333 -23.5 49 -38.5s26.834 -31.5 36.501 -49.5s16.5 -37.333 20.5 -58l-6 3l2 172h20v-504c0 -40.667 -6.16699 -77.167 -18.5 -109.5s-29.5 -59.666 -51.5 -81.999s-47.333 -39.5 -76 -51.5s-59.334 -18 -92.001 -18zM293 12c40.667 0 77.5 10.502 110.5 31.502
s59 50.167 78 87.5s28.5 80.333 28.5 129c0 48 -9.5 90.667 -28.5 128s-45 66.666 -78 87.999s-70.5 32 -112.5 32c-44.667 0 -84.334 -10.667 -119.001 -32s-61.667 -50.833 -81 -88.5s-29 -80.834 -29 -129.501c0 -47.333 9.83301 -89.5 29.5 -126.5
s46.834 -66.167 81.501 -87.5s74.667 -32 120 -32zM292 663.002c-9.33301 0 -16.333 2.66699 -21 8s-7 12.333 -7 21c0 8 2.33301 14.833 7 20.5s11.667 8.5 21 8.5c8.66699 0 15.5 -2.66699 20.5 -8s7.5 -12.333 7.5 -21s-2.33301 -15.667 -7 -21s-11.667 -8 -21 -8z" />
    <glyph glyph-name="uni0122" unicode="&#x122;" horiz-adv-x="766" 
d="M400 -10c-50 0 -96.166 8.67188 -138.499 26.0049s-78.833 41.833 -109.5 73.5s-54.5 69.334 -71.5 113.001s-25.5 91.5 -25.5 143.5c0 53.333 8.33301 102.166 25 146.499s40.5 82.666 71.5 114.999s67.5 57.5 109.5 75.5s88 27 138 27c38 0 73.333 -5.33301 106 -16
s62.667 -25.834 90 -45.501s51.666 -42.5 72.999 -68.5l-17 -16c-19.333 25.333 -41.833 47.333 -67.5 66s-54 33 -85 43s-64.167 15 -99.5 15c-46 0 -88.667 -8.5 -128 -25.5s-73.333 -40.833 -102 -71.5s-51 -66.834 -67 -108.501s-24 -87.167 -24 -136.5
c0 -48.667 8 -93.334 24 -134.001s38.5 -76 67.5 -106s63.167 -53.167 102.5 -69.5s82 -24.5 128 -24.5c48 0 90.5 7.5 127.5 22.5s68.333 36.167 94 63.5s45 60 58 98s19.5 80 19.5 126v19l6 -5h-296v22h313v-9.5v-5.5v-4c0 -56.667 -7.33301 -106.834 -22 -150.501
s-36 -80.167 -64 -109.5s-61.833 -51.5 -101.5 -66.5s-84.5 -22.5 -134.5 -22.5zM368.001 -203.995l-13.0029 13.001c4.66699 4.66699 9.66699 9.33398 15 14.001s9.83301 9.66699 13.5 15s5.5 11.333 5.5 18c0 5.33301 -1 9.66602 -3 12.999s-6.66699 6.66602 -14 9.99902
c-6.66699 3.33301 -11.667 7.33301 -15 12s-5 10.334 -5 17.001c0 6 2.33301 11.5 7 16.5s11.334 7.5 20.001 7.5c11.333 0 20.166 -4.16699 26.499 -12.5s9.5 -19.5 9.5 -33.5c0 -8.66699 -0.666992 -16.834 -2 -24.501s-3.66602 -15 -6.99902 -22
s-8.16602 -14 -14.499 -21s-14.166 -14.5 -23.499 -22.5z" />
    <glyph glyph-name="uni0123" unicode="&#x123;" horiz-adv-x="603" 
d="M294 -240c-36 0 -69.833 6.33301 -101.5 19s-58.167 31 -79.5 55l11 20c14 -14.667 29.5 -27.334 46.5 -38.001s35.833 -19 56.5 -25s42.667 -9 66 -9c38 0 73.5 10 106.5 30s59.667 48.5 80 85.5s30.5 81.167 30.5 132.5v142l9 3c-8.66699 -36 -24 -67.833 -46 -95.5
s-48.333 -49.5 -79 -65.5s-64 -24 -100 -24c-48.667 0 -92.167 11.5 -130.5 34.5s-68.5 54.667 -90.5 95s-33 86.5 -33 138.5c0 52.667 11.333 99.5 34 140.5s52.834 73.167 90.501 96.5s79.5 35 125.5 35c21.333 0 42.166 -3 62.499 -9s39.5 -14.333 57.5 -25
s34.333 -23.5 49 -38.5s26.834 -31.5 36.501 -49.5s16.5 -37.333 20.5 -58l-6 3l2 172h20v-504c0 -40.667 -6.16699 -77.167 -18.5 -109.5s-29.5 -59.666 -51.5 -81.999s-47.333 -39.5 -76 -51.5s-59.334 -18 -92.001 -18zM293 12c40.667 0 77.5 10.502 110.5 31.502
s59 50.167 78 87.5s28.5 80.333 28.5 129c0 48 -9.5 90.667 -28.5 128s-45 66.666 -78 87.999s-70.5 32 -112.5 32c-44.667 0 -84.334 -10.667 -119.001 -32s-61.667 -50.833 -81 -88.5s-29 -80.834 -29 -129.501c0 -47.333 9.83301 -89.5 29.5 -126.5
s46.834 -66.167 81.501 -87.5s74.667 -32 120 -32zM297 610.002c-10.667 0 -19.3311 4.16504 -25.998 12.498s-10 19.5 -10 33.5c0 8.66699 0.666992 16.834 2 24.501s3.66602 15 6.99902 22s8.16602 14 14.499 21s14.166 14.5 23.499 22.5l13 -13l-15 -13.5
c-5.33301 -5 -9.83301 -10.167 -13.5 -15.5s-5.5 -11.333 -5.5 -18c0 -5.33301 1.16699 -9.66602 3.5 -12.999s6.83301 -6.66602 13.5 -9.99902c7.33301 -3.33301 12.5 -7.33301 15.5 -12s4.5 -10.334 4.5 -17.001c0 -6 -2.16699 -11.5 -6.5 -16.5
s-11.166 -7.5 -20.499 -7.5z" />
    <glyph glyph-name="Hcircumflex" unicode="&#x124;" horiz-adv-x="732" 
d="M599 0v700h22v-700h-22zM110 0v700h22v-700h-22zM121 338v22h489v-22h-489zM257 770l-12 13l107 82h28l107 -82l-12 -13l-116 82h15z" />
    <glyph glyph-name="hcircumflex" unicode="&#x125;" horiz-adv-x="541" 
d="M70 0l0.00195312 740.001h22v-336l-9 -2c7.33301 23.333 21.166 44.666 41.499 63.999s44.666 34.833 72.999 46.5s58.5 17.5 90.5 17.5c39.333 0 72.666 -7 99.999 -21s48.333 -35.833 63 -65.5s22 -68.167 22 -115.5v-328h-22v328c0 42 -6.5 76.333 -19.5 103
s-31.667 46.167 -56 58.5s-54.166 18.5 -89.499 18.5c-28 0 -53.833 -4.83301 -77.5 -14.5s-44.167 -21.667 -61.5 -36s-30.833 -29 -40.5 -44s-14.5 -27.5 -14.5 -37.5v-376h-11h-4.5h-6.5zM162.002 810.001l-12 13l107 82h28l107 -82l-12 -13l-116 82h15z" />
    <glyph glyph-name="Hbar" unicode="&#x126;" horiz-adv-x="731" 
d="M24 541v21h94h8h482h6h92v-21h-92h-5h-483h-10h-92zM599 0v700h22v-700h-22zM110 0v700h22v-700h-22zM121 338v22h489v-22h-489z" />
    <glyph glyph-name="hbar" unicode="&#x127;" horiz-adv-x="541" 
d="M-16 627v21h268v-21h-268zM70 0l0.00195312 740.001h22v-336l-9 -2c7.33301 23.333 21.166 44.666 41.499 63.999s44.666 34.833 72.999 46.5s58.5 17.5 90.5 17.5c39.333 0 72.666 -7 99.999 -21s48.333 -35.833 63 -65.5s22 -68.167 22 -115.5v-328h-22v328
c0 42 -6.5 76.333 -19.5 103s-31.667 46.167 -56 58.5s-54.166 18.5 -89.499 18.5c-28 0 -53.833 -4.83301 -77.5 -14.5s-44.167 -21.667 -61.5 -36s-30.833 -29 -40.5 -44s-14.5 -27.5 -14.5 -37.5v-376h-11h-4.5h-6.5z" />
    <glyph glyph-name="Itilde" unicode="&#x128;" horiz-adv-x="386" 
d="M50 0v22h132v656h-132v22h286v-22h-132v-656h132v-22h-286zM253 784c-8 0 -17.3359 1.50098 -28.0029 4.50098s-28.667 10.833 -54 23.5l-21.5 10.5c-10.333 5 -20.5 7.5 -30.5 7.5c-9.33301 0 -17.833 -3.83301 -25.5 -11.5s-11.5 -18.834 -11.5 -33.501h-22
c0 20.667 5.83301 37 17.5 49s24.834 18 39.501 18c16 0 31 -3.33301 45 -10l39 -19c16 -7.33301 27.167 -12 33.5 -14s11.833 -3 16.5 -3c12.667 0 24.334 3.5 35.001 10.5s16.334 18.5 17.001 34.5h22c0 -14 -3.33301 -26 -10 -36s-15.5 -17.667 -26.5 -23
s-22.833 -8 -35.5 -8z" />
    <glyph glyph-name="itilde" unicode="&#x129;" horiz-adv-x="162" 
d="M70 0v525h22v-525h-22zM148 633c-15.333 0 -29.334 4.00195 -42.001 12.002s-24.667 16 -36 24c-16 11.333 -27.5 18.333 -34.5 21s-13.167 4 -18.5 4c-10 0 -19.5 -4.83301 -28.5 -14.5s-13.5 -23.167 -13.5 -40.5l-20 3c0 20 6.33301 37 19 51s27 21 43 21
c14 0 27.333 -3.83301 40 -11.5s25 -15.834 37 -24.501c4.66699 -3.33301 12.334 -8.33301 23.001 -15s20.667 -10 30 -10c10 0 19 4.16699 27 12.5s12.333 22.5 13 42.5l20 -3c0 -14.667 -2.83301 -27.334 -8.5 -38.001s-13 -19 -22 -25s-18.5 -9 -28.5 -9z" />
    <glyph glyph-name="Imacron" unicode="&#x12a;" horiz-adv-x="386" 
d="M50 0v22h132v656h-132v22h286v-22h-132v-656h132v-22h-286zM58 807v22h270v-22h-270z" />
    <glyph glyph-name="imacron" unicode="&#x12b;" horiz-adv-x="162" 
d="M70 0v525h22v-525h-22zM-54 663v22h270v-22h-270z" />
    <glyph glyph-name="Ibreve" unicode="&#x12c;" horiz-adv-x="386" 
d="M50 0v22h132v656h-132v22h286v-22h-132v-656h132v-22h-286zM193 762c-22.667 0 -43 4.66699 -61 14s-33 22.333 -45 39s-20.667 35.667 -26 57l22 2c6.66699 -26.667 20 -48.5 40 -65.5s43.333 -25.5 70 -25.5c26 0 49.333 8.5 70 25.5s34 38.833 40 65.5l22 -2
c-4.66699 -21.333 -13.167 -40.333 -25.5 -57s-27.5 -29.667 -45.5 -39s-38.333 -14 -61 -14z" />
    <glyph glyph-name="ibreve" unicode="&#x12d;" horiz-adv-x="162" 
d="M70 0v525h22v-525h-22zM81 613c-34 0 -62.5 10.667 -85.5 32s-38.5 50.666 -46.5 87.999l22 2c6.66699 -32 20 -56.833 40 -74.5s43.333 -26.5 70 -26.5c26 0 49.333 8.83301 70 26.5s34 42.5 40 74.5l22 -2c-7.33301 -37.333 -22.833 -66.666 -46.5 -87.999
s-52.167 -32 -85.5 -32z" />
    <glyph glyph-name="Iogonek" unicode="&#x12e;" horiz-adv-x="386" 
d="M50 0v22h132v656h-132v22h286v-22h-132v-656h132v-22h-286zM199 -230c-18.667 0 -35.501 4.50195 -50.501 13.502s-27 21 -36 36s-13.5 31.833 -13.5 50.5c0 20 4.33301 38.333 13 55s20.334 31.334 35.001 44.001s31.167 23.167 49.5 31.5s37.5 14.166 57.5 17.499
l5 -18c-25.333 -4 -48.5 -11.833 -69.5 -23.5s-37.667 -26.334 -50 -44.001s-18.5 -38.5 -18.5 -62.5c0 -22 7.5 -40.5 22.5 -55.5s33.5 -22.5 55.5 -22.5c17.333 0 32.333 4.16699 45 12.5s22.667 19.166 30 32.499l15 -13c-8 -16 -20 -29 -36 -39s-34 -15 -54 -15z" />
    <glyph glyph-name="iogonek" unicode="&#x12f;" horiz-adv-x="162" 
d="M70 0v525h22v-525h-22zM81 663c-9.33301 0 -16.333 2.66699 -21 8s-7 12.333 -7 21c0 8 2.33301 14.833 7 20.5s11.667 8.5 21 8.5c8.66699 0 15.5 -2.66699 20.5 -8s7.5 -12.333 7.5 -21s-2.33301 -15.667 -7 -21s-11.667 -8 -21 -8zM32 -232
c-18.667 0 -35.1641 4.33496 -49.4971 13.002s-25.5 20.667 -33.5 36s-12 32.333 -12 51c0 20 4.16699 38.333 12.5 55s19.666 31.334 33.999 44.001s30.5 23.167 48.5 31.5s36.333 14.166 55 17.499l5 -16c-24.667 -5.33301 -47.167 -13.833 -67.5 -25.5
s-36.333 -26.334 -48 -44.001s-17.5 -38.5 -17.5 -62.5c0 -22 7 -40.5 21 -55.5s31.333 -22.5 52 -22.5c16 0 29.833 4.16699 41.5 12.5s21.167 19.166 28.5 32.499l15 -13c-5.33301 -10.667 -12.333 -20 -21 -28s-18.334 -14.333 -29.001 -19s-22.334 -7 -35.001 -7z" />
    <glyph glyph-name="Idotaccent" unicode="&#x130;" horiz-adv-x="386" 
d="M50 0v22h132v656h-132v22h286v-22h-132v-656h132v-22h-286zM193 789c-9.33301 0 -16.333 2.66699 -21 8s-7 12.333 -7 21c0 8 2.33301 14.833 7 20.5s11.667 8.5 21 8.5c8.66699 0 15.5 -2.66699 20.5 -8s7.5 -12.333 7.5 -21s-2.33301 -15.667 -7 -21s-11.667 -8 -21 -8
z" />
    <glyph glyph-name="dotlessi" unicode="&#x131;" horiz-adv-x="162" 
d="M70 0v525h22v-525h-22z" />
    <glyph glyph-name="IJ" unicode="&#x132;" horiz-adv-x="945" 
d="M50 0v22h132v656h-132v22h286v-22h-132v-656h132v-22h-286zM595 -10c-22.667 0 -43.832 3.00195 -63.499 9.00195s-37.5 14.667 -53.5 26s-30 25 -42 41s-22 34 -30 54l16 15c9.33301 -20.667 20 -38.834 32 -54.501s25.167 -28.5 39.5 -38.5s30.166 -17.5 47.499 -22.5
s36 -7.5 56 -7.5c33.333 0 62.833 7 88.5 21s45.667 35.667 60 65s21.5 67.666 21.5 114.999v465h-129v22h257v-22h-106v-465c0 -38.667 -4.83301 -72 -14.5 -100s-23.167 -51.167 -40.5 -69.5s-37.833 -31.833 -61.5 -40.5s-49.5 -13 -77.5 -13z" />
    <glyph glyph-name="ij" unicode="&#x133;" horiz-adv-x="346" 
d="M87 0v525h22v-525h-22zM98 663c-9.33301 0 -16.333 2.66699 -21 8s-7 12.333 -7 21c0 8 2.33301 14.833 7 20.5s11.667 8.5 21 8.5c8.66699 0 15.5 -2.66699 20.5 -8s7.5 -12.333 7.5 -21s-2.33301 -15.667 -7 -21s-11.667 -8 -21 -8zM162 -194l-7.99902 20.999
c28 0 50.167 5 66.5 15s28 23.833 35 41.5s10.5 37.834 10.5 60.501v581h22v-585c0 -28.667 -5 -53 -15 -73s-24.333 -35.167 -43 -45.5s-41.334 -15.5 -68.001 -15.5zM275.001 662.999c-9.33301 0 -16.333 2.66699 -21 8s-7 12.333 -7 21c0 8 2.33301 14.833 7 20.5
s11.667 8.5 21 8.5c8.66699 0 15.5 -2.66699 20.5 -8s7.5 -12.333 7.5 -21s-2.33301 -15.667 -7 -21s-11.667 -8 -21 -8z" />
    <glyph glyph-name="Jcircumflex" unicode="&#x134;" horiz-adv-x="559" 
d="M209 -10c-22.667 0 -43.832 3.00195 -63.499 9.00195s-37.5 14.667 -53.5 26s-30 25 -42 41s-22 34 -30 54l16 15c9.33301 -20.667 20 -38.834 32 -54.501s25.167 -28.5 39.5 -38.5s30.166 -17.5 47.499 -22.5s36 -7.5 56 -7.5c33.333 0 62.833 7 88.5 21
s45.667 35.667 60 65s21.5 67.666 21.5 114.999v465h-129v22h257v-22h-106v-465c0 -38.667 -4.83301 -72 -14.5 -100s-23.167 -51.167 -40.5 -69.5s-37.833 -31.833 -61.5 -40.5s-49.5 -13 -77.5 -13zM276.002 770.002l-12 13l107 82h28l107 -82l-12 -13l-116 82h15z" />
    <glyph glyph-name="jcircumflex" unicode="&#x135;" horiz-adv-x="178" 
d="M-24 -194l-7.99902 20.999c28 0 50.167 5 66.5 15s28 23.833 35 41.5s10.5 37.834 10.5 60.501v581h22v-585c0 -28.667 -5 -53 -15 -73s-24.333 -35.167 -43 -45.5s-41.334 -15.5 -68.001 -15.5zM-19.999 620.999l-12 13l107 92h28l107 -92l-12 -13l-116 92h15z" />
    <glyph glyph-name="uni0136" unicode="&#x136;" horiz-adv-x="636" 
d="M120 234v31l446 435h32zM110 0v700h22v-700h-22zM587 0l-305 404l17 16l317 -420h-29zM303 -204l-13.0029 13.001c4.66699 4.66699 9.66699 9.33398 15 14.001s9.83301 9.66699 13.5 15s5.5 11.333 5.5 18c0 5.33301 -1 9.66602 -3 12.999s-6.66699 6.66602 -14 9.99902
c-6.66699 3.33301 -11.667 7.33301 -15 12s-5 10.334 -5 17.001c0 6 2.33301 11.5 7 16.5s11.334 7.5 20.001 7.5c11.333 0 20.166 -4.16699 26.499 -12.5s9.5 -19.5 9.5 -33.5c0 -8.66699 -0.666992 -16.834 -2 -24.501s-3.66602 -15 -6.99902 -22
s-8.16602 -14 -14.499 -21s-14.166 -14.5 -23.499 -22.5z" />
    <glyph glyph-name="uni0137" unicode="&#x137;" horiz-adv-x="476" 
d="M84 179v32l317 314h32zM70 0v740h22v-740h-22zM436 0l-253 291l17 16l267 -307h-31zM222 -204l-13.0029 13.002l15.5 14c5 4.66699 9.33301 9.66699 13 15s5.5 11.333 5.5 18c0 5.33301 -1 9.66602 -3 12.999s-6.66699 6.66602 -14 9.99902
c-6.66699 3.33301 -11.667 7.33301 -15 12s-5 10.334 -5 17.001c0 6 2.33301 11.5 7 16.5s11.334 7.5 20.001 7.5c11.333 0 20.166 -4.16699 26.499 -12.5s9.5 -19.5 9.5 -33.5c0 -8.66699 -0.666992 -16.834 -2 -24.501s-3.66602 -15 -6.99902 -22
s-8.16602 -14 -14.499 -21s-14.166 -14.5 -23.499 -22.5z" />
    <glyph glyph-name="kgreenlandic" unicode="&#x138;" horiz-adv-x="482" 
d="M84 179v32l317 314h32zM70 0v525h22v-525h-22zM436 0l-253 291l17 16l267 -307h-31z" />
    <glyph glyph-name="Lacute" unicode="&#x139;" horiz-adv-x="533" 
d="M110 0v700h22v-678h351v-22h-373zM68 764l-9 16l150 92l13 -22z" />
    <glyph glyph-name="lacute" unicode="&#x13a;" horiz-adv-x="206" 
d="M92 0v740h22v-740h-22zM50 804l-9 16l150 92l13 -22z" />
    <glyph glyph-name="uni013B" unicode="&#x13b;" horiz-adv-x="533" 
d="M110 0v700h22v-678h351v-22h-373zM252 -204l-13.0029 13.001c4.66699 4.66699 9.66699 9.33398 15 14.001s9.83301 9.66699 13.5 15s5.5 11.333 5.5 18c0 5.33301 -1 9.66602 -3 12.999s-6.66699 6.66602 -14 9.99902c-6.66699 3.33301 -11.667 7.33301 -15 12
s-5 10.334 -5 17.001c0 6 2.33301 11.5 7 16.5s11.334 7.5 20.001 7.5c11.333 0 20.166 -4.16699 26.499 -12.5s9.5 -19.5 9.5 -33.5c0 -8.66699 -0.666992 -16.834 -2 -24.501s-3.66602 -15 -6.99902 -22s-8.16602 -14 -14.499 -21s-14.166 -14.5 -23.499 -22.5z" />
    <glyph glyph-name="uni013C" unicode="&#x13c;" horiz-adv-x="206" 
d="M92 0v740h22v-740h-22zM88 -204l-13.0029 13.002l15.5 14c5 4.66699 9.33301 9.66699 13 15s5.5 11.333 5.5 18c0 5.33301 -1 9.66602 -3 12.999s-6.66699 6.66602 -14 9.99902c-6.66699 3.33301 -11.667 7.33301 -15 12s-5 10.334 -5 17.001c0 6 2.33301 11.5 7 16.5
s11.334 7.5 20.001 7.5c11.333 0 20.166 -4.16699 26.499 -12.5s9.5 -19.5 9.5 -33.5c0 -8.66699 -0.666992 -16.834 -2 -24.501s-3.66602 -15 -6.99902 -22s-8.16602 -14 -14.499 -21s-14.166 -14.5 -23.499 -22.5z" />
    <glyph glyph-name="Lcaron" unicode="&#x13d;" horiz-adv-x="533" 
d="M110 0v700h22v-678h351v-22h-373zM351 564l-13.0029 13.002c4.66699 4 9.5 8.5 14.5 13.5s9.5 10.333 13.5 16s6 11.5 6 17.5c0 5.33301 -1 9.66602 -3 12.999s-6.66699 6.66602 -14 9.99902c-6.66699 3.33301 -11.667 7.33301 -15 12s-5 10.334 -5 17.001
c0 6 2.33301 11.5 7 16.5s11.334 7.5 20.001 7.5c11.333 0 20.166 -4.16699 26.499 -12.5s9.5 -19.5 9.5 -33.5c0 -8.66699 -0.666992 -16.834 -2 -24.501s-3.66602 -15 -6.99902 -22s-8.16602 -14 -14.499 -21s-14.166 -14.5 -23.499 -22.5z" />
    <glyph glyph-name="lcaron" unicode="&#x13e;" horiz-adv-x="166" 
d="M92 0v740h22v-740h-22zM189 604l-13.0029 13.002c4.66699 4 9.5 8.5 14.5 13.5s9.5 10.333 13.5 16s6 11.5 6 17.5c0 5.33301 -1 9.66602 -3 12.999s-6.66699 6.66602 -14 9.99902c-6.66699 3.33301 -11.667 7.33301 -15 12s-5 10.334 -5 17.001c0 6 2.33301 11.5 7 16.5
s11.334 7.5 20.001 7.5c11.333 0 20.166 -4.16699 26.499 -12.5s9.5 -19.5 9.5 -33.5c0 -8.66699 -0.666992 -16.834 -2 -24.501s-3.66602 -15 -6.99902 -22s-8.16602 -14 -14.499 -21s-14.166 -14.5 -23.499 -22.5z" />
    <glyph glyph-name="Ldot" unicode="&#x13f;" horiz-adv-x="533" 
d="M110 0v700h22v-678h351v-22h-373zM390 335c-9.33301 0 -16.666 2.66699 -21.999 8s-8 13 -8 23c0 9.33301 2.66699 16.833 8 22.5s12.666 8.5 21.999 8.5s16.666 -2.66699 21.999 -8s8 -13 8 -23c0 -8.66699 -2.66699 -16 -8 -22s-12.666 -9 -21.999 -9z" />
    <glyph glyph-name="ldot" unicode="&#x140;" horiz-adv-x="196" 
d="M92 0v740h22v-740h-22zM183 335c-9.33301 0 -16.666 2.66699 -21.999 8s-8 13 -8 23c0 9.33301 2.66699 16.833 8 22.5s12.666 8.5 21.999 8.5s16.666 -2.66699 21.999 -8s8 -13 8 -23c0 -8.66699 -2.66699 -16 -8 -22s-12.666 -9 -21.999 -9z" />
    <glyph glyph-name="Lslash" unicode="&#x141;" horiz-adv-x="517" 
d="M-1 312l-8 21l265 121l8 -21zM94 0v700h22v-678h351v-22h-373z" />
    <glyph glyph-name="lslash" unicode="&#x142;" horiz-adv-x="292" 
d="M18 283l-8 21l264 121l8 -21zM155 0v740h22v-740h-22z" />
    <glyph glyph-name="Nacute" unicode="&#x143;" horiz-adv-x="731" 
d="M110 0l0.000976562 699.998h22l473 -669h-4c-0.666992 6 -1.16699 12.333 -1.5 19s-0.5 14.834 -0.5 24.501s-0.166992 21.834 -0.5 36.501s-0.5 32.5 -0.5 53.5v76.5v459h22v-700h-20l-485 686h15c0 -6.66699 0.166992 -16 0.5 -28s0.666016 -25.833 0.999023 -41.5
s0.5 -32 0.5 -49v-50.5v-47v-470h-22zM313.001 763.998l-9 16l150 92l13 -22z" />
    <glyph glyph-name="nacute" unicode="&#x144;" horiz-adv-x="541" 
d="M70 0v524.999h20l2 -121l-9 -3c7.33301 22.667 21 43.834 41 63.501s44.167 35.5 72.5 47.5s58.833 18 91.5 18c39.333 0 72.666 -7 99.999 -21s48.333 -35.833 63 -65.5s22 -68.167 22 -115.5v-328h-22v328c0 42 -6.5 76.333 -19.5 103s-31.667 46.167 -56 58.5
s-54.166 18.5 -89.499 18.5c-28 0 -53.833 -4.83301 -77.5 -14.5s-44.167 -21.667 -61.5 -36s-30.833 -29 -40.5 -44s-14.5 -27.5 -14.5 -37.5v-376h-11h-4.5h-6.5zM229 610.999l-10 15l140 110l14 -21z" />
    <glyph glyph-name="uni0145" unicode="&#x145;" horiz-adv-x="731" 
d="M110 0l0.000976562 699.998h22l473 -669h-4c-0.666992 6 -1.16699 12.333 -1.5 19s-0.5 14.834 -0.5 24.501s-0.166992 21.834 -0.5 36.501s-0.5 32.5 -0.5 53.5v76.5v459h22v-700h-20l-485 686h15c0 -6.66699 0.166992 -16 0.5 -28s0.666016 -25.833 0.999023 -41.5
s0.5 -32 0.5 -49v-50.5v-47v-470h-22zM351.001 -204.002l-13.0029 13.001c4.66699 4.66699 9.66699 9.33398 15 14.001s9.83301 9.66699 13.5 15s5.5 11.333 5.5 18c0 5.33301 -1 9.66602 -3 12.999s-6.66699 6.66602 -14 9.99902c-6.66699 3.33301 -11.667 7.33301 -15 12
s-5 10.334 -5 17.001c0 6 2.33301 11.5 7 16.5s11.334 7.5 20.001 7.5c11.333 0 20.166 -4.16699 26.499 -12.5s9.5 -19.5 9.5 -33.5c0 -8.66699 -0.666992 -16.834 -2 -24.501s-3.66602 -15 -6.99902 -22s-8.16602 -14 -14.499 -21s-14.166 -14.5 -23.499 -22.5z" />
    <glyph glyph-name="uni0146" unicode="&#x146;" horiz-adv-x="541" 
d="M70 0v524.999h20l2 -121l-9 -3c7.33301 22.667 21 43.834 41 63.501s44.167 35.5 72.5 47.5s58.833 18 91.5 18c39.333 0 72.666 -7 99.999 -21s48.333 -35.833 63 -65.5s22 -68.167 22 -115.5v-328h-22v328c0 42 -6.5 76.333 -19.5 103s-31.667 46.167 -56 58.5
s-54.166 18.5 -89.499 18.5c-28 0 -53.833 -4.83301 -77.5 -14.5s-44.167 -21.667 -61.5 -36s-30.833 -29 -40.5 -44s-14.5 -27.5 -14.5 -37.5v-376h-11h-4.5h-6.5zM256 -204.001l-13.0029 13.002l15.5 14c5 4.66699 9.33301 9.66699 13 15s5.5 11.333 5.5 18
c0 5.33301 -1 9.66602 -3 12.999s-6.66699 6.66602 -14 9.99902c-6.66699 3.33301 -11.667 7.33301 -15 12s-5 10.334 -5 17.001c0 6 2.33301 11.5 7 16.5s11.334 7.5 20.001 7.5c11.333 0 20.166 -4.16699 26.499 -12.5s9.5 -19.5 9.5 -33.5
c0 -8.66699 -0.666992 -16.834 -2 -24.501s-3.66602 -15 -6.99902 -22s-8.16602 -14 -14.499 -21s-14.166 -14.5 -23.499 -22.5z" />
    <glyph glyph-name="Ncaron" unicode="&#x147;" horiz-adv-x="731" 
d="M110 0l0.000976562 699.998h22l473 -669h-4c-0.666992 6 -1.16699 12.333 -1.5 19s-0.5 14.834 -0.5 24.501s-0.166992 21.834 -0.5 36.501s-0.5 32.5 -0.5 53.5v76.5v459h22v-700h-20l-485 686h15c0 -6.66699 0.166992 -16 0.5 -28s0.666016 -25.833 0.999023 -41.5
s0.5 -32 0.5 -49v-50.5v-47v-470h-22zM352.001 769.998l-107 82l12 13l117 -82h-15l116 82l12 -13l-107 -82h-28z" />
    <glyph glyph-name="ncaron" unicode="&#x148;" horiz-adv-x="541" 
d="M70 0v524.999h20l2 -121l-9 -3c7.33301 22.667 21 43.834 41 63.501s44.167 35.5 72.5 47.5s58.833 18 91.5 18c39.333 0 72.666 -7 99.999 -21s48.333 -35.833 63 -65.5s22 -68.167 22 -115.5v-328h-22v328c0 42 -6.5 76.333 -19.5 103s-31.667 46.167 -56 58.5
s-54.166 18.5 -89.499 18.5c-28 0 -53.833 -4.83301 -77.5 -14.5s-44.167 -21.667 -61.5 -36s-30.833 -29 -40.5 -44s-14.5 -27.5 -14.5 -37.5v-376h-11h-4.5h-6.5zM262 620.999l-107 92l12 13l117 -92h-15l116 92l12 -13l-107 -92h-28z" />
    <glyph glyph-name="napostrophe" unicode="&#x149;" horiz-adv-x="585" 
d="M-10 442l38 258h27l-47 -258h-18zM114 0v524.999h20l2 -121l-9 -3c7.33301 22.667 21 43.834 41 63.501s44.167 35.5 72.5 47.5s58.833 18 91.5 18c39.333 0 72.666 -7 99.999 -21s48.333 -35.833 63 -65.5s22 -68.167 22 -115.5v-328h-22v328
c0 42 -6.5 76.333 -19.5 103s-31.667 46.167 -56 58.5s-54.166 18.5 -89.499 18.5c-28 0 -53.833 -4.83301 -77.5 -14.5s-44.167 -21.667 -61.5 -36s-30.833 -29 -40.5 -44s-14.5 -27.5 -14.5 -37.5v-376h-11h-4.5h-6.5z" />
    <glyph glyph-name="Eng" unicode="&#x14a;" horiz-adv-x="731" 
d="M494 -194l-8.00098 21c20.667 0 38.167 2.83301 52.5 8.5s25.833 13.667 34.5 24s15 22.666 19 36.999s6 30.166 6 47.499v75l9 -29l-492 696h15c0.666992 -4.66699 1 -14.167 1 -28.5s0.166992 -31.166 0.5 -50.499s0.5 -38.666 0.5 -57.999v-50.5v-28.5v-470h-22v700
h22l473 -669h-4c0 7.33301 -0.166992 15.5 -0.5 24.5s-0.666016 20.833 -0.999023 35.5s-0.666016 34 -0.999023 58s-0.5 54.667 -0.5 92v459h22v-760c0 -28.667 -5 -53 -15 -73s-24.333 -35.167 -43 -45.5s-41.334 -15.5 -68.001 -15.5z" />
    <glyph glyph-name="eng" unicode="&#x14b;" horiz-adv-x="541" 
d="M347 -194l-7.99902 20.999c41.333 0 70.333 10.833 87 32.5s25 49.834 25 84.501v384c0 42 -6.5 76.333 -19.5 103s-31.667 46.167 -56 58.5s-54.166 18.5 -89.499 18.5c-28 0 -53.833 -4.83301 -77.5 -14.5s-44.167 -21.667 -61.5 -36s-30.833 -29 -40.5 -44
s-14.5 -27.5 -14.5 -37.5v-376h-22v525h20l2 -105c16.667 26 35.167 47 55.5 63s42.333 27.833 66 35.5s48.5 11.5 74.5 11.5c39.333 0 72.666 -7 99.999 -21s48.333 -35.833 63 -65.5s22 -68.167 22 -115.5v-388c0 -28.667 -5 -53 -15 -73s-24.333 -35.167 -43 -45.5
s-41.334 -15.5 -68.001 -15.5z" />
    <glyph glyph-name="Omacron" unicode="&#x14c;" horiz-adv-x="798" 
d="M399 -10c-50 0 -96 8.66699 -138 26s-78.5 42.166 -109.5 74.499s-54.833 70.333 -71.5 114s-25 91.834 -25 144.501s8.33301 101 25 145s40.5 82.167 71.5 114.5s67.5 57.333 109.5 75s88 26.5 138 26.5s96 -8.83301 138 -26.5s78.5 -42.5 109.5 -74.5
s54.833 -70 71.5 -114s25 -92.667 25 -146c0 -52.667 -8.33301 -100.834 -25 -144.501s-40.5 -81.667 -71.5 -114s-67.5 -57.166 -109.5 -74.499s-88 -26 -138 -26zM399 12c46.667 0 89.5 8.33301 128.5 25s73 40 102 70s51.333 65.667 67 107s23.5 86.333 23.5 135
c0 49.333 -7.83301 94.5 -23.5 135.5s-38 76.833 -67 107.5s-63 54.334 -102 71.001s-81.833 25 -128.5 25c-46 0 -88.667 -8.33301 -128 -25s-73.333 -40.334 -102 -71.001s-51 -66.5 -67 -107.5s-24 -86.167 -24 -135.5c0 -48.667 8 -93.667 24 -135s38.333 -77 67 -107
s62.667 -53.333 102 -70s82 -25 128 -25zM264 807v22h270v-22h-270z" />
    <glyph glyph-name="omacron" unicode="&#x14d;" horiz-adv-x="615" 
d="M308 -10c-52.667 0 -99.167 11.667 -139.5 35s-71.833 55.666 -94.5 96.999s-34 88.333 -34 141c0 52 11.333 98.167 34 138.5s54.167 71.833 94.5 94.5s86.833 34 139.5 34s99.167 -11.333 139.5 -34s71.666 -54.167 93.999 -94.5s33.5 -86.5 33.5 -138.5
c0 -52.667 -11.167 -99.667 -33.5 -141s-53.666 -73.666 -93.999 -96.999s-86.833 -35 -139.5 -35zM308 12c47.333 0 89.333 10.667 126 32s65.667 51 87 89s32 81.333 32 130c0 47.333 -10.667 89.333 -32 126s-50.333 65.667 -87 87s-78.667 32 -126 32
s-89.5 -10.667 -126.5 -32s-66.167 -50.333 -87.5 -87s-32 -78.667 -32 -126c0 -48.667 10.667 -92 32 -130s50.5 -67.667 87.5 -89s79.167 -32 126.5 -32zM173 663v22h270v-22h-270z" />
    <glyph glyph-name="Obreve" unicode="&#x14e;" horiz-adv-x="798" 
d="M399 -10c-50 0 -96 8.66699 -138 26s-78.5 42.166 -109.5 74.499s-54.833 70.333 -71.5 114s-25 91.834 -25 144.501s8.33301 101 25 145s40.5 82.167 71.5 114.5s67.5 57.333 109.5 75s88 26.5 138 26.5s96 -8.83301 138 -26.5s78.5 -42.5 109.5 -74.5
s54.833 -70 71.5 -114s25 -92.667 25 -146c0 -52.667 -8.33301 -100.834 -25 -144.501s-40.5 -81.667 -71.5 -114s-67.5 -57.166 -109.5 -74.499s-88 -26 -138 -26zM399 12c46.667 0 89.5 8.33301 128.5 25s73 40 102 70s51.333 65.667 67 107s23.5 86.333 23.5 135
c0 49.333 -7.83301 94.5 -23.5 135.5s-38 76.833 -67 107.5s-63 54.334 -102 71.001s-81.833 25 -128.5 25c-46 0 -88.667 -8.33301 -128 -25s-73.333 -40.334 -102 -71.001s-51 -66.5 -67 -107.5s-24 -86.167 -24 -135.5c0 -48.667 8 -93.667 24 -135s38.333 -77 67 -107
s62.667 -53.333 102 -70s82 -25 128 -25zM399 762c-22.667 0 -43 4.66699 -61 14s-33 22.333 -45 39s-20.667 35.667 -26 57l22 2c6.66699 -26.667 20 -48.5 40 -65.5s43.333 -25.5 70 -25.5c26 0 49.333 8.5 70 25.5s34 38.833 40 65.5l22 -2
c-4.66699 -21.333 -13.167 -40.333 -25.5 -57s-27.5 -29.667 -45.5 -39s-38.333 -14 -61 -14z" />
    <glyph glyph-name="obreve" unicode="&#x14f;" horiz-adv-x="615" 
d="M308 -10c-52.667 0 -99.167 11.667 -139.5 35s-71.833 55.666 -94.5 96.999s-34 88.333 -34 141c0 52 11.333 98.167 34 138.5s54.167 71.833 94.5 94.5s86.833 34 139.5 34s99.167 -11.333 139.5 -34s71.666 -54.167 93.999 -94.5s33.5 -86.5 33.5 -138.5
c0 -52.667 -11.167 -99.667 -33.5 -141s-53.666 -73.666 -93.999 -96.999s-86.833 -35 -139.5 -35zM308 12c47.333 0 89.333 10.667 126 32s65.667 51 87 89s32 81.333 32 130c0 47.333 -10.667 89.333 -32 126s-50.333 65.667 -87 87s-78.667 32 -126 32
s-89.5 -10.667 -126.5 -32s-66.167 -50.333 -87.5 -87s-32 -78.667 -32 -126c0 -48.667 10.667 -92 32 -130s50.5 -67.667 87.5 -89s79.167 -32 126.5 -32zM308 613c-34 0 -62.5 10.667 -85.5 32s-38.5 50.666 -46.5 87.999l22 2c6.66699 -32 20 -56.833 40 -74.5
s43.333 -26.5 70 -26.5c26 0 49.333 8.83301 70 26.5s34 42.5 40 74.5l22 -2c-7.33301 -37.333 -22.833 -66.666 -46.5 -87.999s-52.167 -32 -85.5 -32z" />
    <glyph glyph-name="Ohungarumlaut" unicode="&#x150;" horiz-adv-x="798" 
d="M399 -10c-50 0 -96 8.66699 -138 26s-78.5 42.166 -109.5 74.499s-54.833 70.333 -71.5 114s-25 91.834 -25 144.501s8.33301 101 25 145s40.5 82.167 71.5 114.5s67.5 57.333 109.5 75s88 26.5 138 26.5s96 -8.83301 138 -26.5s78.5 -42.5 109.5 -74.5
s54.833 -70 71.5 -114s25 -92.667 25 -146c0 -52.667 -8.33301 -100.834 -25 -144.501s-40.5 -81.667 -71.5 -114s-67.5 -57.166 -109.5 -74.499s-88 -26 -138 -26zM399 12c46.667 0 89.5 8.33301 128.5 25s73 40 102 70s51.333 65.667 67 107s23.5 86.333 23.5 135
c0 49.333 -7.83301 94.5 -23.5 135.5s-38 76.833 -67 107.5s-63 54.334 -102 71.001s-81.833 25 -128.5 25c-46 0 -88.667 -8.33301 -128 -25s-73.333 -40.334 -102 -71.001s-51 -66.5 -67 -107.5s-24 -86.167 -24 -135.5c0 -48.667 8 -93.667 24 -135s38.333 -77 67 -107
s62.667 -53.333 102 -70s82 -25 128 -25zM309 761l-9 16l149 97l12 -22zM444 761l-9 16l149 97l12 -22z" />
    <glyph glyph-name="ohungarumlaut" unicode="&#x151;" horiz-adv-x="615" 
d="M308 -10c-52.667 0 -99.167 11.667 -139.5 35s-71.833 55.666 -94.5 96.999s-34 88.333 -34 141c0 52 11.333 98.167 34 138.5s54.167 71.833 94.5 94.5s86.833 34 139.5 34s99.167 -11.333 139.5 -34s71.666 -54.167 93.999 -94.5s33.5 -86.5 33.5 -138.5
c0 -52.667 -11.167 -99.667 -33.5 -141s-53.666 -73.666 -93.999 -96.999s-86.833 -35 -139.5 -35zM308 12c47.333 0 89.333 10.667 126 32s65.667 51 87 89s32 81.333 32 130c0 47.333 -10.667 89.333 -32 126s-50.333 65.667 -87 87s-78.667 32 -126 32
s-89.5 -10.667 -126.5 -32s-66.167 -50.333 -87.5 -87s-32 -78.667 -32 -126c0 -48.667 10.667 -92 32 -130s50.5 -67.667 87.5 -89s79.167 -32 126.5 -32zM300 611l-10 15l140 110l14 -21zM180 611l-10 15l140 110l14 -21z" />
    <glyph glyph-name="OE" unicode="&#x152;" horiz-adv-x="1002" 
d="M380 0c-42 0 -82.498 8.66602 -121.498 25.999s-73.833 41.833 -104.5 73.5s-54.834 68.834 -72.501 111.501s-26.5 89 -26.5 139c0 50.667 8.66699 97.334 26 140.001s40.666 79.667 69.999 111s63 55.666 101 72.999s77.667 26 119 26h566v-22h-369v-305h311v-22h-311
v-329h363v-22h-551zM78.002 349.999c0 -46 8.5 -88.999 25.5 -128.999s40 -74.833 69 -104.5s61.833 -52.834 98.5 -69.501s75 -25 115 -25h160v656h-169c-38 0 -75 -8.16699 -111 -24.5s-68 -39.333 -96 -69s-50.333 -64.5 -67 -104.5s-25 -83.333 -25 -130z" />
    <glyph glyph-name="oe" unicode="&#x153;" horiz-adv-x="1058" 
d="M308 -10c-52.667 0 -99.168 11.668 -139.501 35.001s-71.833 55.666 -94.5 96.999s-34 88.333 -34 141c0 52 11.333 98.167 34 138.5s54.167 71.833 94.5 94.5s86.833 34 139.5 34c46.667 0 88.334 -9 125.001 -27s67 -42.833 91 -74.5s39.667 -68.834 47 -111.501
l-14 -2c6.66699 43.333 21 81 43 113s49.833 57 83.5 75s71.834 27 114.501 27c33.333 0 64 -5.5 92 -16.5s52.167 -27 72.5 -48s35.833 -46.167 46.5 -75.5s15.334 -62.333 14.001 -99l-1 -26h-452l1 22h444l-13 -9v29c0 41.333 -9.33301 77 -28 107
s-43.334 53.167 -74.001 69.5s-63.667 24.5 -99 24.5c-32.667 0 -62.667 -5.83301 -90 -17.5s-51.166 -28.5 -71.499 -50.5s-36.166 -48 -47.499 -78s-17 -63 -17 -99c0 -46 9.66699 -88 29 -126s46.666 -68.333 81.999 -91s76.666 -34 123.999 -34
c34.667 0 66.667 6.33301 96 19s55.666 30 78.999 52l12 -18c-16 -14.667 -33.667 -27.667 -53 -39s-40.166 -20.166 -62.499 -26.499s-46.166 -9.5 -71.499 -9.5c-44.667 0 -84.834 9.16699 -120.501 27.5s-64.834 44 -87.501 77s-37.667 71.167 -45 114.5h14
c-7.33301 -43.333 -22.833 -81.5 -46.5 -114.5s-54 -58.667 -91 -77s-78.833 -27.5 -125.5 -27.5zM307.999 12.001c47.333 0 89.333 10.667 126 32s65.667 51 87 89s32 81.333 32 130c0 47.333 -10.667 89.333 -32 126s-50.333 65.667 -87 87s-78.667 32 -126 32
s-89.5 -10.667 -126.5 -32s-66.167 -50.333 -87.5 -87s-32 -78.667 -32 -126c0 -48.667 10.667 -92 32 -130s50.5 -67.667 87.5 -89s79.167 -32 126.5 -32z" />
    <glyph glyph-name="Racute" unicode="&#x154;" horiz-adv-x="609" 
d="M110 0v699.999h251c36.667 0 68.834 -8.16699 96.501 -24.5s49.167 -39 64.5 -68s23 -62.5 23 -100.5c0 -42.667 -7.66699 -80.167 -23 -112.5s-36.833 -57.666 -64.5 -75.999s-59.834 -27.5 -96.501 -27.5h-229v-291h-22zM543 -0.000976562l-175 298l23 7l178 -305h-26z
M132 312.999h235c31.333 0 58.5 8.16699 81.5 24.5s41 39.166 54 68.499s19.5 63 19.5 101c0 33.333 -6.5 62.833 -19.5 88.5s-31 45.834 -54 60.501s-50.167 22 -81.5 22h-235v-365zM242 763.999l-9 16l150 92l13 -22z" />
    <glyph glyph-name="racute" unicode="&#x155;" horiz-adv-x="311" 
d="M70 0l0.00195312 525.002h20l1 -127l-6 -2c4.66699 22 14.167 43.167 28.5 63.5s33.666 37.166 57.999 50.499s53.166 20 86.499 20c11.333 0 21.833 -0.666992 31.5 -2s18.5 -3.33301 26.5 -6l-7 -23c-10.667 3.33301 -20.834 5.66602 -30.501 6.99902
s-18.167 2 -25.5 2c-26.667 0 -50.167 -5.33301 -70.5 -16s-37.166 -24.667 -50.499 -42s-23.333 -35.833 -30 -55.5s-10 -38.5 -10 -56.5v-338h-22zM141.002 611.002l-10 15l140 110l14 -21z" />
    <glyph glyph-name="uni0156" unicode="&#x156;" horiz-adv-x="609" 
d="M110 0v699.999h251c36.667 0 68.834 -8.16699 96.501 -24.5s49.167 -39 64.5 -68s23 -62.5 23 -100.5c0 -42.667 -7.66699 -80.167 -23 -112.5s-36.833 -57.666 -64.5 -75.999s-59.834 -27.5 -96.501 -27.5h-229v-291h-22zM543 -0.000976562l-175 298l23 7l178 -305h-26z
M132 312.999h235c31.333 0 58.5 8.16699 81.5 24.5s41 39.166 54 68.499s19.5 63 19.5 101c0 33.333 -6.5 62.833 -19.5 88.5s-31 45.834 -54 60.501s-50.167 22 -81.5 22h-235v-365zM290 -204.001l-13.0029 13.001c4.66699 4.66699 9.66699 9.33398 15 14.001
s9.83301 9.66699 13.5 15s5.5 11.333 5.5 18c0 5.33301 -1 9.66602 -3 12.999s-6.66699 6.66602 -14 9.99902c-6.66699 3.33301 -11.667 7.33301 -15 12s-5 10.334 -5 17.001c0 6 2.33301 11.5 7 16.5s11.334 7.5 20.001 7.5c11.333 0 20.166 -4.16699 26.499 -12.5
s9.5 -19.5 9.5 -33.5c0 -8.66699 -0.666992 -16.834 -2 -24.501s-3.66602 -15 -6.99902 -22s-8.16602 -14 -14.499 -21s-14.166 -14.5 -23.499 -22.5z" />
    <glyph glyph-name="uni0157" unicode="&#x157;" horiz-adv-x="311" 
d="M70 0l0.00195312 525.002h20l1 -127l-6 -2c4.66699 22 14.167 43.167 28.5 63.5s33.666 37.166 57.999 50.499s53.166 20 86.499 20c11.333 0 21.833 -0.666992 31.5 -2s18.5 -3.33301 26.5 -6l-7 -23c-10.667 3.33301 -20.834 5.66602 -30.501 6.99902
s-18.167 2 -25.5 2c-26.667 0 -50.167 -5.33301 -70.5 -16s-37.166 -24.667 -50.499 -42s-23.333 -35.833 -30 -55.5s-10 -38.5 -10 -56.5v-338h-22zM71.002 -203.998l-13.0029 13.002l15.5 14c5 4.66699 9.33301 9.66699 13 15s5.5 11.333 5.5 18
c0 5.33301 -1 9.66602 -3 12.999s-6.66699 6.66602 -14 9.99902c-6.66699 3.33301 -11.667 7.33301 -15 12s-5 10.334 -5 17.001c0 6 2.33301 11.5 7 16.5s11.334 7.5 20.001 7.5c11.333 0 20.166 -4.16699 26.499 -12.5s9.5 -19.5 9.5 -33.5
c0 -8.66699 -0.666992 -16.834 -2 -24.501s-3.66602 -15 -6.99902 -22s-8.16602 -14 -14.499 -21s-14.166 -14.5 -23.499 -22.5z" />
    <glyph glyph-name="Rcaron" unicode="&#x158;" horiz-adv-x="609" 
d="M110 0v699.999h251c36.667 0 68.834 -8.16699 96.501 -24.5s49.167 -39 64.5 -68s23 -62.5 23 -100.5c0 -42.667 -7.66699 -80.167 -23 -112.5s-36.833 -57.666 -64.5 -75.999s-59.834 -27.5 -96.501 -27.5h-229v-291h-22zM543 -0.000976562l-175 298l23 7l178 -305h-26z
M132 312.999h235c31.333 0 58.5 8.16699 81.5 24.5s41 39.166 54 68.499s19.5 63 19.5 101c0 33.333 -6.5 62.833 -19.5 88.5s-31 45.834 -54 60.501s-50.167 22 -81.5 22h-235v-365zM281 769.999l-107 82l12 13l117 -82h-15l116 82l12 -13l-107 -82h-28z" />
    <glyph glyph-name="rcaron" unicode="&#x159;" horiz-adv-x="311" 
d="M70 0l0.00195312 525.002h20l1 -127l-6 -2c4.66699 22 14.167 43.167 28.5 63.5s33.666 37.166 57.999 50.499s53.166 20 86.499 20c11.333 0 21.833 -0.666992 31.5 -2s18.5 -3.33301 26.5 -6l-7 -23c-10.667 3.33301 -20.834 5.66602 -30.501 6.99902
s-18.167 2 -25.5 2c-26.667 0 -50.167 -5.33301 -70.5 -16s-37.166 -24.667 -50.499 -42s-23.333 -35.833 -30 -55.5s-10 -38.5 -10 -56.5v-338h-22zM174.002 621.002l-107 92l12 13l117 -92h-15l116 92l12 -13l-107 -92h-28z" />
    <glyph glyph-name="Sacute" unicode="&#x15a;" horiz-adv-x="567" 
d="M303 -10c-39.333 0 -75.3311 4.83105 -107.998 14.498s-61.667 23.834 -87 42.501s-47 41.334 -65 68.001l18 16c25.333 -39.333 58.333 -69 99 -89s88.334 -30 143.001 -30c37.333 0 71.166 6.83301 101.499 20.5s54.5 32.5 72.5 56.5s27 51.667 27 83
c0 19.333 -3.83301 36.333 -11.5 51s-18.5 27.667 -32.5 39s-30.833 21.5 -50.5 30.5s-41.834 17.5 -66.501 25.5s-51 16 -79 24c-31.333 8.66699 -59.333 18.5 -84 29.5s-45.5 23.667 -62.5 38s-30 31 -39 50s-13.5 41.167 -13.5 66.5c0 26 5.83301 50.333 17.5 73
s27.667 42.167 48 58.5s44.333 29.166 72 38.499s57.5 14 89.5 14c36 0 67.667 -3.83301 95 -11.5s51 -19 71 -34s37.667 -32.833 53 -53.5l-17 -15c-14.667 19.333 -31.334 35.833 -50.001 49.5s-40.5 24.167 -65.5 31.5s-53.833 11 -86.5 11c-38 0 -72.5 -7 -103.5 -21
s-55.5 -33.167 -73.5 -57.5s-27 -52.166 -27 -83.499c0 -22.667 4.33301 -42.5 13 -59.5s21 -32 37 -45s35.333 -24.167 58 -33.5s48 -17.666 76 -24.999c40 -10 75.667 -20.667 107 -32s58 -24.333 80 -39s38.833 -31.834 50.5 -51.501s17.5 -42.5 17.5 -68.5
c0 -34.667 -9.83301 -65.667 -29.5 -93s-46.5 -49 -80.5 -65s-72 -24 -114 -24zM241.002 763.998l-9 16l150 92l13 -22z" />
    <glyph glyph-name="sacute" unicode="&#x15b;" horiz-adv-x="479" 
d="M248 -10c-44 0 -84 8.33984 -120 25.0068s-63.667 38.667 -83 66l17 15c18.667 -24.667 44 -44.834 76 -60.501s69.333 -23.5 112 -23.5c27.333 0 50.666 3.33301 69.999 10s35 15.667 47 27s21 24.166 27 38.499s9 29.5 9 45.5c0 32.667 -14 58.334 -42 77.001
c-13.333 10 -30 18.667 -50 26s-43.333 14 -70 20c-30 7.33301 -56.5 15.666 -79.5 24.999s-41.833 20 -56.5 32c-13.333 11.333 -23.333 23.5 -30 36.5s-10 27.5 -10 43.5c0 20.667 4.16699 39.334 12.5 56.001s20 31.167 35 43.5s33.333 21.666 55 27.999
s45.834 9.5 72.501 9.5c23.333 0 46 -3.33301 68 -10s42.667 -16.334 62 -29.001s36.666 -28 51.999 -46l-16 -18c-14.667 16.667 -30.667 31.167 -48 43.5s-35.833 21.666 -55.5 27.999s-40.5 9.5 -62.5 9.5c-24 0 -45.5 -2.83301 -64.5 -8.5s-35.167 -13.667 -48.5 -24
s-23.333 -22.333 -30 -36s-10 -28.834 -10 -45.501c0 -11.333 2.33301 -22.333 7 -33s12.334 -20.334 23.001 -29.001c13.333 -11.333 30.833 -21.333 52.5 -30s46.834 -16.334 75.501 -23.001c30 -6.66699 56.167 -14.167 78.5 -22.5s40.833 -18.166 55.5 -29.499
c15.333 -11.333 26.833 -24.666 34.5 -39.999s11.5 -33.333 11.5 -54c0 -28.667 -7 -53.834 -21 -75.501s-34.333 -38.334 -61 -50.001s-58.334 -17.5 -95.001 -17.5zM193 611.007l-10 15l140 110l14 -21z" />
    <glyph glyph-name="Scircumflex" unicode="&#x15c;" horiz-adv-x="567" 
d="M303 -10c-39.333 0 -75.3311 4.83105 -107.998 14.498s-61.667 23.834 -87 42.501s-47 41.334 -65 68.001l18 16c25.333 -39.333 58.333 -69 99 -89s88.334 -30 143.001 -30c37.333 0 71.166 6.83301 101.499 20.5s54.5 32.5 72.5 56.5s27 51.667 27 83
c0 19.333 -3.83301 36.333 -11.5 51s-18.5 27.667 -32.5 39s-30.833 21.5 -50.5 30.5s-41.834 17.5 -66.501 25.5s-51 16 -79 24c-31.333 8.66699 -59.333 18.5 -84 29.5s-45.5 23.667 -62.5 38s-30 31 -39 50s-13.5 41.167 -13.5 66.5c0 26 5.83301 50.333 17.5 73
s27.667 42.167 48 58.5s44.333 29.166 72 38.499s57.5 14 89.5 14c36 0 67.667 -3.83301 95 -11.5s51 -19 71 -34s37.667 -32.833 53 -53.5l-17 -15c-14.667 19.333 -31.334 35.833 -50.001 49.5s-40.5 24.167 -65.5 31.5s-53.833 11 -86.5 11c-38 0 -72.5 -7 -103.5 -21
s-55.5 -33.167 -73.5 -57.5s-27 -52.166 -27 -83.499c0 -22.667 4.33301 -42.5 13 -59.5s21 -32 37 -45s35.333 -24.167 58 -33.5s48 -17.666 76 -24.999c40 -10 75.667 -20.667 107 -32s58 -24.333 80 -39s38.833 -31.834 50.5 -51.501s17.5 -42.5 17.5 -68.5
c0 -34.667 -9.83301 -65.667 -29.5 -93s-46.5 -49 -80.5 -65s-72 -24 -114 -24zM185.002 769.998l-12 13l107 82h28l107 -82l-12 -13l-116 82h15z" />
    <glyph glyph-name="scircumflex" unicode="&#x15d;" horiz-adv-x="479" 
d="M248 -10c-44 0 -84 8.33984 -120 25.0068s-63.667 38.667 -83 66l17 15c18.667 -24.667 44 -44.834 76 -60.501s69.333 -23.5 112 -23.5c27.333 0 50.666 3.33301 69.999 10s35 15.667 47 27s21 24.166 27 38.499s9 29.5 9 45.5c0 32.667 -14 58.334 -42 77.001
c-13.333 10 -30 18.667 -50 26s-43.333 14 -70 20c-30 7.33301 -56.5 15.666 -79.5 24.999s-41.833 20 -56.5 32c-13.333 11.333 -23.333 23.5 -30 36.5s-10 27.5 -10 43.5c0 20.667 4.16699 39.334 12.5 56.001s20 31.167 35 43.5s33.333 21.666 55 27.999
s45.834 9.5 72.501 9.5c23.333 0 46 -3.33301 68 -10s42.667 -16.334 62 -29.001s36.666 -28 51.999 -46l-16 -18c-14.667 16.667 -30.667 31.167 -48 43.5s-35.833 21.666 -55.5 27.999s-40.5 9.5 -62.5 9.5c-24 0 -45.5 -2.83301 -64.5 -8.5s-35.167 -13.667 -48.5 -24
s-23.333 -22.333 -30 -36s-10 -28.834 -10 -45.501c0 -11.333 2.33301 -22.333 7 -33s12.334 -20.334 23.001 -29.001c13.333 -11.333 30.833 -21.333 52.5 -30s46.834 -16.334 75.501 -23.001c30 -6.66699 56.167 -14.167 78.5 -22.5s40.833 -18.166 55.5 -29.499
c15.333 -11.333 26.833 -24.666 34.5 -39.999s11.5 -33.333 11.5 -54c0 -28.667 -7 -53.834 -21 -75.501s-34.333 -38.334 -61 -50.001s-58.334 -17.5 -95.001 -17.5zM131 621.007l-12 13l107 92h28l107 -92l-12 -13l-116 92h15z" />
    <glyph glyph-name="Scedilla" unicode="&#x15e;" horiz-adv-x="567" 
d="M303 -10c-39.333 0 -75.3311 4.83105 -107.998 14.498s-61.667 23.834 -87 42.501s-47 41.334 -65 68.001l18 16c25.333 -39.333 58.333 -69 99 -89s88.334 -30 143.001 -30c37.333 0 71.166 6.83301 101.499 20.5s54.5 32.5 72.5 56.5s27 51.667 27 83
c0 19.333 -3.83301 36.333 -11.5 51s-18.5 27.667 -32.5 39s-30.833 21.5 -50.5 30.5s-41.834 17.5 -66.501 25.5s-51 16 -79 24c-31.333 8.66699 -59.333 18.5 -84 29.5s-45.5 23.667 -62.5 38s-30 31 -39 50s-13.5 41.167 -13.5 66.5c0 26 5.83301 50.333 17.5 73
s27.667 42.167 48 58.5s44.333 29.166 72 38.499s57.5 14 89.5 14c36 0 67.667 -3.83301 95 -11.5s51 -19 71 -34s37.667 -32.833 53 -53.5l-17 -15c-14.667 19.333 -31.334 35.833 -50.001 49.5s-40.5 24.167 -65.5 31.5s-53.833 11 -86.5 11c-38 0 -72.5 -7 -103.5 -21
s-55.5 -33.167 -73.5 -57.5s-27 -52.166 -27 -83.499c0 -22.667 4.33301 -42.5 13 -59.5s21 -32 37 -45s35.333 -24.167 58 -33.5s48 -17.666 76 -24.999c40 -10 75.667 -20.667 107 -32s58 -24.333 80 -39s38.833 -31.834 50.5 -51.501s17.5 -42.5 17.5 -68.5
c0 -34.667 -9.83301 -65.667 -29.5 -93s-46.5 -49 -80.5 -65s-72 -24 -114 -24zM228.002 -227.002l-3.99902 17c20 3.33301 40 7 60 11s36.667 10.667 50 20s20 23 20 41c0 14.667 -5.33301 25.5 -16 32.5s-23.667 11.667 -39 14s-30.333 3.5 -45 3.5l-13 10l54 78h22
l-51 -71c39.333 -1.33301 67.166 -8 83.499 -20s24.5 -28 24.5 -48c0 -18 -4.5 -32.167 -13.5 -42.5s-20.667 -18.333 -35 -24s-30 -10 -47 -13z" />
    <glyph glyph-name="scedilla" unicode="&#x15f;" horiz-adv-x="479" 
d="M248 -10c-44 0 -84 8.33984 -120 25.0068s-63.667 38.667 -83 66l17 15c18.667 -24.667 44 -44.834 76 -60.501s69.333 -23.5 112 -23.5c27.333 0 50.666 3.33301 69.999 10s35 15.667 47 27s21 24.166 27 38.499s9 29.5 9 45.5c0 32.667 -14 58.334 -42 77.001
c-13.333 10 -30 18.667 -50 26s-43.333 14 -70 20c-30 7.33301 -56.5 15.666 -79.5 24.999s-41.833 20 -56.5 32c-13.333 11.333 -23.333 23.5 -30 36.5s-10 27.5 -10 43.5c0 20.667 4.16699 39.334 12.5 56.001s20 31.167 35 43.5s33.333 21.666 55 27.999
s45.834 9.5 72.501 9.5c23.333 0 46 -3.33301 68 -10s42.667 -16.334 62 -29.001s36.666 -28 51.999 -46l-16 -18c-14.667 16.667 -30.667 31.167 -48 43.5s-35.833 21.666 -55.5 27.999s-40.5 9.5 -62.5 9.5c-24 0 -45.5 -2.83301 -64.5 -8.5s-35.167 -13.667 -48.5 -24
s-23.333 -22.333 -30 -36s-10 -28.834 -10 -45.501c0 -11.333 2.33301 -22.333 7 -33s12.334 -20.334 23.001 -29.001c13.333 -11.333 30.833 -21.333 52.5 -30s46.834 -16.334 75.501 -23.001c30 -6.66699 56.167 -14.167 78.5 -22.5s40.833 -18.166 55.5 -29.499
c15.333 -11.333 26.833 -24.666 34.5 -39.999s11.5 -33.333 11.5 -54c0 -28.667 -7 -53.834 -21 -75.501s-34.333 -38.334 -61 -50.001s-58.334 -17.5 -95.001 -17.5zM171 -226.993l-3.99902 17c20 3.33301 40 7 60 11s36.667 10.667 50 20s20 23 20 41
c0 14.667 -5.33301 25.5 -16 32.5s-23.667 11.667 -39 14s-30.333 3.5 -45 3.5l-13 10l54 78h22l-51 -71c39.333 -1.33301 67.166 -8 83.499 -20s24.5 -28 24.5 -48c0 -18 -4.5 -32.167 -13.5 -42.5s-20.667 -18.333 -35 -24s-30 -10 -47 -13z" />
    <glyph glyph-name="Scaron" unicode="&#x160;" horiz-adv-x="567" 
d="M303 -10c-39.333 0 -75.3311 4.83105 -107.998 14.498s-61.667 23.834 -87 42.501s-47 41.334 -65 68.001l18 16c25.333 -39.333 58.333 -69 99 -89s88.334 -30 143.001 -30c37.333 0 71.166 6.83301 101.499 20.5s54.5 32.5 72.5 56.5s27 51.667 27 83
c0 19.333 -3.83301 36.333 -11.5 51s-18.5 27.667 -32.5 39s-30.833 21.5 -50.5 30.5s-41.834 17.5 -66.501 25.5s-51 16 -79 24c-31.333 8.66699 -59.333 18.5 -84 29.5s-45.5 23.667 -62.5 38s-30 31 -39 50s-13.5 41.167 -13.5 66.5c0 26 5.83301 50.333 17.5 73
s27.667 42.167 48 58.5s44.333 29.166 72 38.499s57.5 14 89.5 14c36 0 67.667 -3.83301 95 -11.5s51 -19 71 -34s37.667 -32.833 53 -53.5l-17 -15c-14.667 19.333 -31.334 35.833 -50.001 49.5s-40.5 24.167 -65.5 31.5s-53.833 11 -86.5 11c-38 0 -72.5 -7 -103.5 -21
s-55.5 -33.167 -73.5 -57.5s-27 -52.166 -27 -83.499c0 -22.667 4.33301 -42.5 13 -59.5s21 -32 37 -45s35.333 -24.167 58 -33.5s48 -17.666 76 -24.999c40 -10 75.667 -20.667 107 -32s58 -24.333 80 -39s38.833 -31.834 50.5 -51.501s17.5 -42.5 17.5 -68.5
c0 -34.667 -9.83301 -65.667 -29.5 -93s-46.5 -49 -80.5 -65s-72 -24 -114 -24zM280.002 769.998l-107 82l12 13l117 -82h-15l116 82l12 -13l-107 -82h-28z" />
    <glyph glyph-name="scaron" unicode="&#x161;" horiz-adv-x="479" 
d="M248 -10c-44 0 -84 8.33984 -120 25.0068s-63.667 38.667 -83 66l17 15c18.667 -24.667 44 -44.834 76 -60.501s69.333 -23.5 112 -23.5c27.333 0 50.666 3.33301 69.999 10s35 15.667 47 27s21 24.166 27 38.499s9 29.5 9 45.5c0 32.667 -14 58.334 -42 77.001
c-13.333 10 -30 18.667 -50 26s-43.333 14 -70 20c-30 7.33301 -56.5 15.666 -79.5 24.999s-41.833 20 -56.5 32c-13.333 11.333 -23.333 23.5 -30 36.5s-10 27.5 -10 43.5c0 20.667 4.16699 39.334 12.5 56.001s20 31.167 35 43.5s33.333 21.666 55 27.999
s45.834 9.5 72.501 9.5c23.333 0 46 -3.33301 68 -10s42.667 -16.334 62 -29.001s36.666 -28 51.999 -46l-16 -18c-14.667 16.667 -30.667 31.167 -48 43.5s-35.833 21.666 -55.5 27.999s-40.5 9.5 -62.5 9.5c-24 0 -45.5 -2.83301 -64.5 -8.5s-35.167 -13.667 -48.5 -24
s-23.333 -22.333 -30 -36s-10 -28.834 -10 -45.501c0 -11.333 2.33301 -22.333 7 -33s12.334 -20.334 23.001 -29.001c13.333 -11.333 30.833 -21.333 52.5 -30s46.834 -16.334 75.501 -23.001c30 -6.66699 56.167 -14.167 78.5 -22.5s40.833 -18.166 55.5 -29.499
c15.333 -11.333 26.833 -24.666 34.5 -39.999s11.5 -33.333 11.5 -54c0 -28.667 -7 -53.834 -21 -75.501s-34.333 -38.334 -61 -50.001s-58.334 -17.5 -95.001 -17.5zM226 621.007l-107 92l12 13l117 -92h-15l116 92l12 -13l-107 -92h-28z" />
    <glyph glyph-name="uni0162" unicode="&#x162;" horiz-adv-x="488" 
d="M233 0v678h-213v22h448v-22h-213v-678h-22zM166 -227l-3.99902 17c20 3.33301 40 7 60 11s36.667 10.667 50 20s20 23 20 41c0 14.667 -5.33301 25.5 -16 32.5s-23.667 11.667 -39 14s-30.333 3.5 -45 3.5l-13 10l54 78h22l-51 -71c39.333 -1.33301 67.166 -8 83.499 -20
s24.5 -28 24.5 -48c0 -18 -4.5 -32.167 -13.5 -42.5s-20.667 -18.333 -35 -24s-30 -10 -47 -13z" />
    <glyph glyph-name="uni0163" unicode="&#x163;" horiz-adv-x="350" 
d="M163 0v659h22v-659h-22zM20 503v22h315v-22h-315zM96 -227l-3.99902 17c20 3.33301 40 7 60 11s36.667 10.667 50 20s20 23 20 41c0 14.667 -5.33301 25.5 -16 32.5s-23.667 11.667 -39 14s-30.333 3.5 -45 3.5l-13 10l54 78h22l-51 -71
c39.333 -1.33301 67.166 -8 83.499 -20s24.5 -28 24.5 -48c0 -18 -4.5 -32.167 -13.5 -42.5s-20.667 -18.333 -35 -24s-30 -10 -47 -13z" />
    <glyph glyph-name="Tcaron" unicode="&#x164;" horiz-adv-x="488" 
d="M233 0v678h-213v22h448v-22h-213v-678h-22zM230 770l-107 82l12 13l117 -82h-15l116 82l12 -13l-107 -82h-28z" />
    <glyph glyph-name="tcaron" unicode="&#x165;" horiz-adv-x="350" 
d="M163 0v659h22v-659h-22zM20 503v22h315v-22h-315zM275 604l-13.0029 13.002c4.66699 4 9.5 8.5 14.5 13.5s9.5 10.333 13.5 16s6 11.5 6 17.5c0 5.33301 -1 9.66602 -3 12.999s-6.66699 6.66602 -14 9.99902c-6.66699 3.33301 -11.667 7.33301 -15 12
s-5 10.334 -5 17.001c0 6 2.33301 11.5 7 16.5s11.334 7.5 20.001 7.5c11.333 0 20.166 -4.16699 26.499 -12.5s9.5 -19.5 9.5 -33.5c0 -8.66699 -0.666992 -16.834 -2 -24.501s-3.66602 -15 -6.99902 -22s-8.16602 -14 -14.499 -21s-14.166 -14.5 -23.499 -22.5z" />
    <glyph glyph-name="Tbar" unicode="&#x166;" horiz-adv-x="488" 
d="M109 340v21h268v-21h-268zM233 0v678h-213v22h448v-22h-213v-678h-22z" />
    <glyph glyph-name="tbar" unicode="&#x167;" horiz-adv-x="350" 
d="M41 252v21h268v-21h-268zM163 0v659h22v-659h-22zM20 503v22h315v-22h-315z" />
    <glyph glyph-name="Utilde" unicode="&#x168;" horiz-adv-x="744" 
d="M368 -6c-50 0 -94.501 11.833 -133.501 35.5s-69.5 56.167 -91.5 97.5s-33 88.666 -33 141.999v431h22v-422c0 -51.333 10 -96.666 30 -135.999s47.667 -70.166 83 -92.499s76.333 -33.5 123 -33.5c48 0 90.333 11.167 127 33.5s65.334 53.166 86.001 92.499
s31 84.666 31 135.999v422h22v-431c0 -53.333 -11.5 -100.666 -34.5 -141.999s-54.5 -73.833 -94.5 -97.5s-85.667 -35.5 -137 -35.5zM431.999 784c-8 0 -17.3359 1.50098 -28.0029 4.50098s-28.667 10.833 -54 23.5l-21.5 10.5c-10.333 5 -20.5 7.5 -30.5 7.5
c-9.33301 0 -17.833 -3.83301 -25.5 -11.5s-11.5 -18.834 -11.5 -33.501h-22c0 20.667 5.83301 37 17.5 49s24.834 18 39.501 18c16 0 31 -3.33301 45 -10l39 -19c16 -7.33301 27.167 -12 33.5 -14s11.833 -3 16.5 -3c12.667 0 24.334 3.5 35.001 10.5
s16.334 18.5 17.001 34.5h22c0 -14 -3.33301 -26 -10 -36s-15.5 -17.667 -26.5 -23s-22.833 -8 -35.5 -8z" />
    <glyph glyph-name="utilde" unicode="&#x169;" horiz-adv-x="538" 
d="M263 -10c-40.667 0 -75.167 7.16602 -103.5 21.499s-49.833 36.833 -64.5 67.5s-22 70 -22 118v328h22v-328c0 -43.333 6.5 -78.666 19.5 -105.999s32.167 -47.333 57.5 -60s56.333 -19 93 -19c24 0 46.833 5 68.5 15s40.834 22.5 57.501 37.5s29.667 30.167 39 45.5
s14 28.333 14 39v376h22v-525h-20l-2 121l9 2c-8 -24 -21.333 -46 -40 -66s-40.834 -36.167 -66.501 -48.5s-53.5 -18.5 -83.5 -18.5zM336 632.999c-15.333 0 -29.334 4.00195 -42.001 12.002s-24.667 16 -36 24c-16 11.333 -27.5 18.333 -34.5 21s-13.167 4 -18.5 4
c-10 0 -19.5 -4.83301 -28.5 -14.5s-13.5 -23.167 -13.5 -40.5l-20 3c0 20 6.33301 37 19 51s27 21 43 21c14 0 27.333 -3.83301 40 -11.5s25 -15.834 37 -24.501c4.66699 -3.33301 12.334 -8.33301 23.001 -15s20.667 -10 30 -10c10 0 19 4.16699 27 12.5
s12.333 22.5 13 42.5l20 -3c0 -14.667 -2.83301 -27.334 -8.5 -38.001s-13 -19 -22 -25s-18.5 -9 -28.5 -9z" />
    <glyph glyph-name="Umacron" unicode="&#x16a;" horiz-adv-x="744" 
d="M368 -6c-50 0 -94.501 11.833 -133.501 35.5s-69.5 56.167 -91.5 97.5s-33 88.666 -33 141.999v431h22v-422c0 -51.333 10 -96.666 30 -135.999s47.667 -70.166 83 -92.499s76.333 -33.5 123 -33.5c48 0 90.333 11.167 127 33.5s65.334 53.166 86.001 92.499
s31 84.666 31 135.999v422h22v-431c0 -53.333 -11.5 -100.666 -34.5 -141.999s-54.5 -73.833 -94.5 -97.5s-85.667 -35.5 -137 -35.5zM236.999 807v22h270v-22h-270z" />
    <glyph glyph-name="umacron" unicode="&#x16b;" horiz-adv-x="538" 
d="M263 -10c-40.667 0 -75.167 7.16602 -103.5 21.499s-49.833 36.833 -64.5 67.5s-22 70 -22 118v328h22v-328c0 -43.333 6.5 -78.666 19.5 -105.999s32.167 -47.333 57.5 -60s56.333 -19 93 -19c24 0 46.833 5 68.5 15s40.834 22.5 57.501 37.5s29.667 30.167 39 45.5
s14 28.333 14 39v376h22v-525h-20l-2 121l9 2c-8 -24 -21.333 -46 -40 -66s-40.834 -36.167 -66.501 -48.5s-53.5 -18.5 -83.5 -18.5zM134 662.999v22h270v-22h-270z" />
    <glyph glyph-name="Ubreve" unicode="&#x16c;" horiz-adv-x="744" 
d="M368 -6c-50 0 -94.501 11.833 -133.501 35.5s-69.5 56.167 -91.5 97.5s-33 88.666 -33 141.999v431h22v-422c0 -51.333 10 -96.666 30 -135.999s47.667 -70.166 83 -92.499s76.333 -33.5 123 -33.5c48 0 90.333 11.167 127 33.5s65.334 53.166 86.001 92.499
s31 84.666 31 135.999v422h22v-431c0 -53.333 -11.5 -100.666 -34.5 -141.999s-54.5 -73.833 -94.5 -97.5s-85.667 -35.5 -137 -35.5zM371.999 762c-22.667 0 -43 4.66699 -61 14s-33 22.333 -45 39s-20.667 35.667 -26 57l22 2c6.66699 -26.667 20 -48.5 40 -65.5
s43.333 -25.5 70 -25.5c26 0 49.333 8.5 70 25.5s34 38.833 40 65.5l22 -2c-4.66699 -21.333 -13.167 -40.333 -25.5 -57s-27.5 -29.667 -45.5 -39s-38.333 -14 -61 -14z" />
    <glyph glyph-name="ubreve" unicode="&#x16d;" horiz-adv-x="538" 
d="M263 -10c-40.667 0 -75.167 7.16602 -103.5 21.499s-49.833 36.833 -64.5 67.5s-22 70 -22 118v328h22v-328c0 -43.333 6.5 -78.666 19.5 -105.999s32.167 -47.333 57.5 -60s56.333 -19 93 -19c24 0 46.833 5 68.5 15s40.834 22.5 57.501 37.5s29.667 30.167 39 45.5
s14 28.333 14 39v376h22v-525h-20l-2 121l9 2c-8 -24 -21.333 -46 -40 -66s-40.834 -36.167 -66.501 -48.5s-53.5 -18.5 -83.5 -18.5zM269 612.999c-34 0 -62.5 10.667 -85.5 32s-38.5 50.666 -46.5 87.999l22 2c6.66699 -32 20 -56.833 40 -74.5s43.333 -26.5 70 -26.5
c26 0 49.333 8.83301 70 26.5s34 42.5 40 74.5l22 -2c-7.33301 -37.333 -22.833 -66.666 -46.5 -87.999s-52.167 -32 -85.5 -32z" />
    <glyph glyph-name="Uring" unicode="&#x16e;" horiz-adv-x="744" 
d="M368 -6c-50 0 -94.501 11.833 -133.501 35.5s-69.5 56.167 -91.5 97.5s-33 88.666 -33 141.999v431h22v-422c0 -51.333 10 -96.666 30 -135.999s47.667 -70.166 83 -92.499s76.333 -33.5 123 -33.5c48 0 90.333 11.167 127 33.5s65.334 53.166 86.001 92.499
s31 84.666 31 135.999v422h22v-431c0 -53.333 -11.5 -100.666 -34.5 -141.999s-54.5 -73.833 -94.5 -97.5s-85.667 -35.5 -137 -35.5zM371.999 689c-16 0 -30.998 4 -44.998 12s-25.333 18.667 -34 32s-13 28 -13 44c0 16.667 4.16699 31.667 12.5 45
s19.5 24.166 33.5 32.499s29.333 12.5 46 12.5c17.333 0 32.833 -4.16699 46.5 -12.5s24.667 -19.166 33 -32.499s12.5 -28.333 12.5 -45c0 -15.333 -4.33301 -29.833 -13 -43.5s-19.834 -24.5 -33.501 -32.5s-28.834 -12 -45.501 -12zM372.001 709
c20 0 36.833 6.83301 50.5 20.5s20.5 29.5 20.5 47.5c0 21.333 -6.83301 38.333 -20.5 51s-30.5 19 -50.5 19c-20.667 0 -37.667 -6.5 -51 -19.5s-20 -29.833 -20 -50.5c0 -18 7 -33.833 21 -47.5s30.667 -20.5 50 -20.5z" />
    <glyph glyph-name="uring" unicode="&#x16f;" horiz-adv-x="538" 
d="M263 -10c-40.667 0 -75.167 7.16602 -103.5 21.499s-49.833 36.833 -64.5 67.5s-22 70 -22 118v328h22v-328c0 -43.333 6.5 -78.666 19.5 -105.999s32.167 -47.333 57.5 -60s56.333 -19 93 -19c24 0 46.833 5 68.5 15s40.834 22.5 57.501 37.5s29.667 30.167 39 45.5
s14 28.333 14 39v376h22v-525h-20l-2 121l9 2c-8 -24 -21.333 -46 -40 -66s-40.834 -36.167 -66.501 -48.5s-53.5 -18.5 -83.5 -18.5zM269 593.999c-16 0 -30.998 4 -44.998 12s-25.333 18.667 -34 32s-13 28 -13 44c0 16.667 4.16699 31.667 12.5 45
s19.5 24.166 33.5 32.499s29.333 12.5 46 12.5c17.333 0 32.833 -4.16699 46.5 -12.5s24.667 -19.166 33 -32.499s12.5 -28.333 12.5 -45c0 -15.333 -4.33301 -29.833 -13 -43.5s-19.834 -24.5 -33.501 -32.5s-28.834 -12 -45.501 -12zM269.002 613.999
c20 0 36.833 6.83301 50.5 20.5s20.5 29.5 20.5 47.5c0 21.333 -6.83301 38.333 -20.5 51s-30.5 19 -50.5 19c-20.667 0 -37.667 -6.5 -51 -19.5s-20 -29.833 -20 -50.5c0 -18 7 -33.833 21 -47.5s30.667 -20.5 50 -20.5z" />
    <glyph glyph-name="Uhungarumlaut" unicode="&#x170;" horiz-adv-x="744" 
d="M368 -6c-50 0 -94.501 11.833 -133.501 35.5s-69.5 56.167 -91.5 97.5s-33 88.666 -33 141.999v431h22v-422c0 -51.333 10 -96.666 30 -135.999s47.667 -70.166 83 -92.499s76.333 -33.5 123 -33.5c48 0 90.333 11.167 127 33.5s65.334 53.166 86.001 92.499
s31 84.666 31 135.999v422h22v-431c0 -53.333 -11.5 -100.666 -34.5 -141.999s-54.5 -73.833 -94.5 -97.5s-85.667 -35.5 -137 -35.5zM281.999 761l-9 16l149 97l12 -22zM416.999 761l-9 16l149 97l12 -22z" />
    <glyph glyph-name="uhungarumlaut" unicode="&#x171;" horiz-adv-x="538" 
d="M263 -10c-40.667 0 -75.167 7.16602 -103.5 21.499s-49.833 36.833 -64.5 67.5s-22 70 -22 118v328h22v-328c0 -43.333 6.5 -78.666 19.5 -105.999s32.167 -47.333 57.5 -60s56.333 -19 93 -19c24 0 46.833 5 68.5 15s40.834 22.5 57.501 37.5s29.667 30.167 39 45.5
s14 28.333 14 39v376h22v-525h-20l-2 121l9 2c-8 -24 -21.333 -46 -40 -66s-40.834 -36.167 -66.501 -48.5s-53.5 -18.5 -83.5 -18.5zM262 610.999l-10 15l140 110l14 -21zM142 610.999l-10 15l140 110l14 -21z" />
    <glyph glyph-name="Uogonek" unicode="&#x172;" horiz-adv-x="744" 
d="M459 -236c-28 0 -51.668 9.83398 -71.001 29.501s-29 44.5 -29 74.5c0 21.333 4.16699 40.666 12.5 57.999s19.5 33.333 33.5 48s29.833 28.334 47.5 41.001s35.834 24.667 54.501 36l5 -18c-18 -11.333 -35 -23.166 -51 -35.499s-30 -25 -42 -38
s-21.333 -26.833 -28 -41.5s-10 -30.334 -10 -47.001c0 -25.333 7.5 -45.833 22.5 -61.5s33.5 -23.5 55.5 -23.5c17.333 0 32.333 4.16699 45 12.5s22.667 19.166 30 32.499l15 -13c-8 -16 -20 -29 -36 -39s-34 -15 -54 -15zM367.999 -5.99902
c-50 0 -94.501 11.833 -133.501 35.5s-69.5 56.167 -91.5 97.5s-33 88.666 -33 141.999v431h22v-422c0 -51.333 10 -96.666 30 -135.999s47.667 -70.166 83 -92.499s76.333 -33.5 123 -33.5c48 0 90.333 11.167 127 33.5s65.334 53.166 86.001 92.499s31 84.666 31 135.999
v422h22v-431c0 -53.333 -11.5 -100.666 -34.5 -141.999s-54.5 -73.833 -94.5 -97.5s-85.667 -35.5 -137 -35.5z" />
    <glyph glyph-name="uogonek" unicode="&#x173;" horiz-adv-x="538" 
d="M263 -10c-40.667 0 -75.167 7.16602 -103.5 21.499s-49.833 36.833 -64.5 67.5s-22 70 -22 118v328h22v-328c0 -43.333 6.5 -78.666 19.5 -105.999s32.167 -47.333 57.5 -60s56.333 -19 93 -19c24 0 46.833 5 68.5 15s40.834 22.5 57.501 37.5s29.667 30.167 39 45.5
s14 28.333 14 39v376h22v-525h-20l-2 121l9 2c-8 -24 -21.333 -46 -40 -66s-40.834 -36.167 -66.501 -48.5s-53.5 -18.5 -83.5 -18.5zM406 -232.001c-18.667 0 -35.1641 4.33496 -49.4971 13.002s-25.5 20.667 -33.5 36s-12 32.333 -12 51c0 20 4.16699 38.333 12.5 55
s19.666 31.334 33.999 44.001s30.5 23.167 48.5 31.5s36.333 14.166 55 17.499l5 -16c-24.667 -5.33301 -47.167 -13.833 -67.5 -25.5s-36.333 -26.334 -48 -44.001s-17.5 -38.5 -17.5 -62.5c0 -22 7 -40.5 21 -55.5s31.333 -22.5 52 -22.5c16 0 29.833 4.16699 41.5 12.5
s21.167 19.166 28.5 32.499l15 -13c-5.33301 -10.667 -12.333 -20 -21 -28s-18.334 -14.333 -29.001 -19s-22.334 -7 -35.001 -7z" />
    <glyph glyph-name="Wcircumflex" unicode="&#x174;" horiz-adv-x="849" 
d="M216 0l-196 700h24l142 -507l13.5 -50.5l10.5 -38.5l11 -38.5l15 -50.5h-12l33 82l22 57.5l18 47.5l120 318h15l119 -318c2.66699 -8 6.16699 -17.5 10.5 -28.5l21 -52.5l42.5 -106h-13c6.66699 21.333 11.667 38 15 50l8 28.5l6 21l8 28l14 50.5l142 507h24l-196 -700
h-26l-192 499h19l-192 -499h-26zM316 770l-12 13l107 82h28l107 -82l-12 -13l-116 82h15z" />
    <glyph glyph-name="wcircumflex" unicode="&#x175;" horiz-adv-x="743" 
d="M200 0l-185 525h24l176 -501h-15l164 420h15l164 -420h-15l176 501h24l-185 -525h-14l-165 422h15l-165 -422h-14zM263 621l-12 13l107 92h28l107 -92l-12 -13l-116 92h15z" />
    <glyph glyph-name="Ycircumflex" unicode="&#x176;" horiz-adv-x="592" 
d="M289 0v339l8 -39l-277 400h26l259 -373h-11l252 373h26l-270 -400l9 39v-339h-22zM187 770l-12 13l107 82h28l107 -82l-12 -13l-116 82h15z" />
    <glyph glyph-name="ycircumflex" unicode="&#x177;" horiz-adv-x="501" 
d="M157 -230l95 239.001l5 -16l-242 532h25l212 -468c5.33301 -10.667 8.83301 -17.834 10.5 -21.501s3.16699 -7.16699 4.5 -10.5l-9 -5c2.66699 7.33301 5.5 14.5 8.5 21.5l8.5 20.5l186 463h25l-217 -538l-87 -217h-25zM142 621.001l-12 13l107 92h28l107 -92l-12 -13
l-116 92h15z" />
    <glyph glyph-name="Ydieresis" unicode="&#x178;" horiz-adv-x="592" 
d="M289 0v339l8 -39l-277 400h26l259 -373h-11l252 373h26l-270 -400l9 39v-339h-22zM371 791c-8 0 -14.501 2.50098 -19.501 7.50098s-7.5 11.5 -7.5 19.5c0 7.33301 2.33301 13.666 7 18.999s11.334 8 20.001 8c9.33301 0 16.166 -2.5 20.499 -7.5s6.5 -11.5 6.5 -19.5
s-2.16699 -14.5 -6.5 -19.5s-11.166 -7.5 -20.499 -7.5zM220.999 791.001c-8 0 -14.501 2.50098 -19.501 7.50098s-7.5 11.5 -7.5 19.5c0 7.33301 2.33301 13.666 7 18.999s11.334 8 20.001 8c9.33301 0 16.166 -2.5 20.499 -7.5s6.5 -11.5 6.5 -19.5
s-2.16699 -14.5 -6.5 -19.5s-11.166 -7.5 -20.499 -7.5z" />
    <glyph glyph-name="Zacute" unicode="&#x179;" horiz-adv-x="634" 
d="M60 0v24l485 668l12 -14h-471v22h477v-23l-485 -667l-3 12h499v-22h-514zM264 764l-9 16l150 92l13 -22z" />
    <glyph glyph-name="zacute" unicode="&#x17a;" horiz-adv-x="429" 
d="M35 0v26l326 495l-2 -18h-324v22h338v-28l-322 -487l-4 12h347v-22h-359zM168 611l-10 15l140 110l14 -21z" />
    <glyph glyph-name="Zdotaccent" unicode="&#x17b;" horiz-adv-x="634" 
d="M60 0v24l485 668l12 -14h-471v22h477v-23l-485 -667l-3 12h499v-22h-514zM317 789c-9.33301 0 -16.333 2.66699 -21 8s-7 12.333 -7 21c0 8 2.33301 14.833 7 20.5s11.667 8.5 21 8.5c8.66699 0 15.5 -2.66699 20.5 -8s7.5 -12.333 7.5 -21s-2.33301 -15.667 -7 -21
s-11.667 -8 -21 -8z" />
    <glyph glyph-name="zdotaccent" unicode="&#x17c;" horiz-adv-x="429" 
d="M35 0v26l326 495l-2 -18h-324v22h338v-28l-322 -487l-4 12h347v-22h-359zM215 663c-9.33301 0 -16.333 2.66699 -21 8s-7 12.333 -7 21c0 8 2.33301 14.833 7 20.5s11.667 8.5 21 8.5c8.66699 0 15.5 -2.66699 20.5 -8s7.5 -12.333 7.5 -21s-2.33301 -15.667 -7 -21
s-11.667 -8 -21 -8z" />
    <glyph glyph-name="Zcaron" unicode="&#x17d;" horiz-adv-x="634" 
d="M60 0v24l485 668l12 -14h-471v22h477v-23l-485 -667l-3 12h499v-22h-514zM303 770l-107 82l12 13l117 -82h-15l116 82l12 -13l-107 -82h-28z" />
    <glyph glyph-name="zcaron" unicode="&#x17e;" horiz-adv-x="429" 
d="M35 0v26l326 495l-2 -18h-324v22h338v-28l-322 -487l-4 12h347v-22h-359zM201 621l-107 92l12 13l117 -92h-15l116 92l12 -13l-107 -92h-28z" />
    <glyph glyph-name="uni018F" unicode="&#x18f;" horiz-adv-x="795" 
d="M395 -10c-50 0 -96.002 9.16797 -138.002 27.501s-78.167 44 -108.5 77s-53.666 71.5 -69.999 115.5s-24.166 91.667 -23.499 143v12h673v-22h-651c0 -46 7.5 -88.833 22.5 -128.5s36.5 -74.834 64.5 -105.501s61.667 -54.5 101 -71.5s83 -25.5 131 -25.5
c46 0 88.333 8.33301 127 25s72.667 40 102 70s52 65.5 68 106.5s24 85.833 24 134.5s-8.66699 93.667 -26 135s-41.833 77.333 -73.5 108s-68.5 54.5 -110.5 71.5s-87.667 25.5 -137 25.5c-28.667 0 -56.834 -4.16699 -84.501 -12.5s-53.5 -19.666 -77.5 -33.999
s-45.667 -30.5 -65 -48.5l-15 16c19.333 19.333 42.333 36.666 69 51.999s55 27.333 85 36s60 13 90 13c52 0 100.5 -9.16699 145.5 -27.5s84 -44 117 -77s58.833 -71.833 77.5 -116.5s28 -93 28 -145s-8.66699 -99.5 -26 -142.5s-41.666 -80.333 -72.999 -112
s-67.833 -56.167 -109.5 -73.5s-87.167 -26 -136.5 -26z" />
    <glyph glyph-name="florin" unicode="&#x192;" horiz-adv-x="519" 
d="M96 -30c-17.333 0 -33.832 3.00098 -49.499 9.00098s-29.834 13.667 -42.501 23l10 20c17.333 -12 32 -20 44 -24s26 -6 42 -6c20.667 0 37.334 5.33301 50.001 16s22.334 24.334 29.001 41.001s11.667 33.667 15 51l78 439c9.33301 51.333 24.5 89.833 45.5 115.5
s50.833 38.5 89.5 38.5c20.667 0 39.834 -3 57.501 -9s34.834 -14.667 51.501 -26l-11 -20c-16.667 11.333 -33.334 19.666 -50.001 24.999s-34.334 8 -53.001 8c-28.667 0 -51.834 -11.667 -69.501 -35s-30.834 -59.333 -39.501 -108l-72 -408
c-8.66699 -50.667 -23 -88.334 -43 -113.001s-47.333 -37 -82 -37zM80.001 422.001v22h369v-22h-369z" />
    <glyph glyph-name="uni019D" unicode="&#x19d;" horiz-adv-x="731" 
d="M6 -194l-8.00098 21c41.333 0 70.333 10.833 87 32.5s25 49.834 25 84.501v756h22l473 -669h-4c0 7.33301 -0.166992 15.5 -0.5 24.5s-0.666016 20.833 -0.999023 35.5s-0.666016 34 -0.999023 58s-0.5 54.667 -0.5 92v459h22v-700h-20l-485 686h15
c0.666992 -4.66699 1 -14.334 1 -29.001s0.166992 -31.5 0.5 -50.5s0.5 -38 0.5 -57v-50v-29.5v-530c0 -28.667 -5 -53 -15 -73s-24.333 -35.167 -43 -45.5s-41.334 -15.5 -68.001 -15.5z" />
    <glyph glyph-name="Ohorn" unicode="&#x1a0;" horiz-adv-x="798" 
d="M399 -10c-50 0 -96.001 8.66992 -138.001 26.0029s-78.5 42.166 -109.5 74.499s-54.833 70.333 -71.5 114s-25 91.834 -25 144.501s8.33301 101 25 145s40.5 82.167 71.5 114.5s67.5 57.333 109.5 75s88 26.5 138 26.5c13.333 0 26 -0.666992 38 -2s24 -3 36 -5
c13.333 -2.66699 26.166 -4.5 38.499 -5.5s22.833 -1.5 31.5 -1.5c22.667 0 41.834 3.66699 57.501 11s27.667 18.666 36 33.999s12.5 34.666 12.5 57.999h22c0 -22 -3.16699 -41.333 -9.5 -58s-16 -30.167 -29 -40.5s-29.167 -17.5 -48.5 -21.5s-41.666 -5 -66.999 -3
l12 11c43.333 -16.667 81 -41.167 113 -73.5s56.833 -70.833 74.5 -115.5s26.5 -94.334 26.5 -149.001c0 -52.667 -8.33301 -100.834 -25 -144.501s-40.5 -81.667 -71.5 -114s-67.5 -57.166 -109.5 -74.499s-88 -26 -138 -26zM398.999 12.0029
c46.667 0 89.5 8.33301 128.5 25s73 40 102 70s51.333 65.667 67 107s23.5 86.333 23.5 135c0 49.333 -7.83301 94.5 -23.5 135.5s-38 76.833 -67 107.5s-63 54.334 -102 71.001s-81.833 25 -128.5 25c-46 0 -88.667 -8.33301 -128 -25s-73.333 -40.334 -102 -71.001
s-51 -66.5 -67 -107.5s-24 -86.167 -24 -135.5c0 -48.667 8 -93.667 24 -135s38.333 -77 67 -107s62.667 -53.333 102 -70s82 -25 128 -25z" />
    <glyph glyph-name="ohorn" unicode="&#x1a1;" horiz-adv-x="615" 
d="M308 -10c-52.667 0 -99.1689 11.6689 -139.502 35.002s-71.833 55.666 -94.5 96.999s-34 88.333 -34 141c0 52 11.333 98.167 34 138.5s54.167 71.833 94.5 94.5s86.833 34 139.5 34c12.667 0 25 -0.666992 37 -2s23.333 -3.33301 34 -6
c8 -1.33301 16.167 -2.5 24.5 -3.5s16.5 -1.5 24.5 -1.5c30.667 0 54.334 9.5 71.001 28.5s25 45.167 25 78.5h22c0 -26.667 -5.5 -50.167 -16.5 -70.5s-26.667 -35.5 -47 -45.5s-44.5 -13 -72.5 -9l7 11c48.667 -18.667 87.167 -49.834 115.5 -93.501
s42.5 -94.834 42.5 -153.501c0 -52.667 -11.167 -99.667 -33.5 -141s-53.666 -73.666 -93.999 -96.999s-86.833 -35 -139.5 -35zM307.998 12.002c47.333 0 89.333 10.667 126 32s65.667 51 87 89s32 81.333 32 130c0 47.333 -10.667 89.333 -32 126s-50.333 65.667 -87 87
s-78.667 32 -126 32s-89.5 -10.667 -126.5 -32s-66.167 -50.333 -87.5 -87s-32 -78.667 -32 -126c0 -48.667 10.667 -92 32 -130s50.5 -67.667 87.5 -89s79.167 -32 126.5 -32z" />
    <glyph glyph-name="Uhorn" unicode="&#x1af;" horiz-adv-x="744" 
d="M368 -6c-50 0 -94.501 11.834 -133.501 35.501s-69.5 56.167 -91.5 97.5s-33 88.666 -33 141.999v431h22v-422c0 -51.333 10 -96.666 30 -135.999s47.667 -70.166 83 -92.499s76.333 -33.5 123 -33.5c48 0 90.333 11.167 127 33.5s65.334 53.166 86.001 92.499
s31 84.666 31 135.999v422h9c34 0 60.167 8.16699 78.5 24.5s27.5 41.166 27.5 74.499h22c0 -26 -4.83301 -48 -14.5 -66s-24 -31.5 -43 -40.5s-42.833 -13.5 -71.5 -13.5l14 13v-423c0 -53.333 -11.5 -100.666 -34.5 -141.999s-54.5 -73.833 -94.5 -97.5
s-85.667 -35.5 -137 -35.5z" />
    </font>
</defs>
</svg>
