<?xml version="1.0" standalone="no"?>
<!DOCTYPE svg PUBLIC "-//W3C//DTD SVG 1.1//EN" "http://www.w3.org/Graphics/SVG/1.1/DTD/svg11.dtd" >
<svg>
<metadata>
Created by FontForge 20090914 at Tue Jul 12 14:21:57 2022
 By www-data
Copyright 2019 The Lexend Project Authors (https://github.com/googlefonts/lexend)
</metadata>
<defs>
<font id="LexendDeca-ExtraBold" horiz-adv-x="0" >
  <font-face 
    font-family="Lexend Deca ExtraBold"
    font-weight="800"
    font-stretch="normal"
    units-per-em="1000"
    panose-1="0 0 0 0 0 0 0 0 0 0"
    ascent="800"
    descent="-200"
    x-height="533"
    cap-height="700"
    bbox="-217 -316.002 1413 1180"
    underline-thickness="50"
    underline-position="-75"
    unicode-range="U+000D-U+FB02"
  />
<missing-glyph horiz-adv-x="584" 
d="M75 0c-23.333 0 -35 11.667 -35 35v630c0 23.333 11.667 35 35 35h434c23.333 0 35 -11.667 35 -35v-630c0 -23.333 -11.667 -35 -35 -35h-434zM75 30l412.998 0.000976562c2 0 3.33301 0.666992 4 2s0.333984 2.66602 -0.999023 3.99902l-415 599
c-1.33301 2 -2.66602 2.83301 -3.99902 2.5s-2 -1.83301 -2 -4.5v-598c0 -3.33301 1.66699 -5 5 -5zM507.998 65.001c1.33301 -2 2.66797 -2.83398 4.00098 -2.50098s2 1.83301 2 4.5v598c0 3.33301 -1.66699 5 -5 5h-414c-2 0 -3.33301 -0.666992 -4 -2
s-0.333984 -2.66602 0.999023 -3.99902z" />
    <glyph glyph-name="fi" unicode="fi" horiz-adv-x="731" 
d="M93 0v544.998c0 36.667 8 70 24 100s38.333 54 67 72s62 27 100 27c26.667 0 51.167 -3.66699 73.5 -11s43.166 -17.666 62.499 -30.999l-50 -133c-8.66699 2.66699 -16.667 4.83398 -24 6.50098s-13.666 2.5 -18.999 2.5c-11.333 0 -20.5 -2 -27.5 -6s-12 -10 -15 -18
s-4.5 -17.667 -4.5 -29v-525h-93h-57.5h-36.5zM18 366.998v149h364v-149h-364zM469 -0.00195312v533h186v-533h-186zM562 633.998c-34 0 -60.333 7.83301 -79 23.5s-28 37.834 -28 66.501c0 26.667 9.5 48.5 28.5 65.5s45.167 25.5 78.5 25.5s59.5 -7.83301 78.5 -23.5
s28.5 -38.167 28.5 -67.5c0 -26.667 -9.66699 -48.334 -29 -65.001s-45.333 -25 -78 -25z" />
    <glyph glyph-name="fl" unicode="fl" horiz-adv-x="721" 
d="M93 0v544.998c0 36.667 8 70 24 100s38.333 54 67 72s62 27 100 27c26.667 0 51.167 -3.66699 73.5 -11s43.166 -17.666 62.499 -30.999l-50 -133c-8.66699 2.66699 -16.667 4.83398 -24 6.50098s-13.666 2.5 -18.999 2.5c-11.333 0 -20.5 -2 -27.5 -6s-12 -10 -15 -18
s-4.5 -17.667 -4.5 -29v-525h-93h-57.5h-36.5zM18 366.998v149h364v-149h-364zM464 -0.00195312v740h186v-740h-186z" />
    <glyph glyph-name="f_f" unicode="ff" horiz-adv-x="786" 
d="M93 0v544.998c0 36.667 8 70 24 100s38.333 54 67 72s62 27 100 27c26.667 0 51.167 -3.66699 73.5 -11s43.166 -17.666 62.499 -30.999l-50 -133c-8.66699 2.66699 -16.667 4.83398 -24 6.50098s-13.666 2.5 -18.999 2.5c-11.333 0 -20.5 -2 -27.5 -6s-12 -10 -15 -18
s-4.5 -17.667 -4.5 -29v-525h-93h-57.5h-36.5zM18 366.998v149h364v-149h-364zM486 -0.00195312v544.998c0 36.667 8 70 24 100s38.333 54 67 72s62 27 100 27c26.667 0 51.167 -3.66699 73.5 -11s43.166 -17.666 62.499 -30.999l-50 -133
c-8.66699 2.66699 -16.667 4.83398 -24 6.50098s-13.666 2.5 -18.999 2.5c-11.333 0 -20.5 -2 -27.5 -6s-12 -10 -15 -18s-4.5 -17.667 -4.5 -29v-525h-93h-57.5h-36.5zM411 366.996v149h364v-149h-364z" />
    <glyph glyph-name="f_f_i" unicode="ffi" horiz-adv-x="1124" 
d="M93 0v544.998c0 36.667 8 70 24 100s38.333 54 67 72s62 27 100 27c26.667 0 51.167 -3.66699 73.5 -11s43.166 -17.666 62.499 -30.999l-50 -133c-8.66699 2.66699 -16.667 4.83398 -24 6.50098s-13.666 2.5 -18.999 2.5c-11.333 0 -20.5 -2 -27.5 -6s-12 -10 -15 -18
s-4.5 -17.667 -4.5 -29v-525h-93h-57.5h-36.5zM18 366.998v149h364v-149h-364zM486 -0.00195312v544.998c0 36.667 8 70 24 100s38.333 54 67 72s62 27 100 27c26.667 0 51.167 -3.66699 73.5 -11s43.166 -17.666 62.499 -30.999l-50 -133
c-8.66699 2.66699 -16.667 4.83398 -24 6.50098s-13.666 2.5 -18.999 2.5c-11.333 0 -20.5 -2 -27.5 -6s-12 -10 -15 -18s-4.5 -17.667 -4.5 -29v-525h-93h-57.5h-36.5zM411 366.996v149h364v-149h-364zM862 -0.00390625v533h186v-533h-186zM955 633.996
c-34 0 -60.333 7.83301 -79 23.5s-28 37.834 -28 66.501c0 26.667 9.5 48.5 28.5 65.5s45.167 25.5 78.5 25.5s59.5 -7.83301 78.5 -23.5s28.5 -38.167 28.5 -67.5c0 -26.667 -9.66699 -48.334 -29 -65.001s-45.333 -25 -78 -25z" />
    <glyph glyph-name="f_f_l" unicode="ffl" horiz-adv-x="1114" 
d="M93 0v544.998c0 36.667 8 70 24 100s38.333 54 67 72s62 27 100 27c26.667 0 51.167 -3.66699 73.5 -11s43.166 -17.666 62.499 -30.999l-50 -133c-8.66699 2.66699 -16.667 4.83398 -24 6.50098s-13.666 2.5 -18.999 2.5c-11.333 0 -20.5 -2 -27.5 -6s-12 -10 -15 -18
s-4.5 -17.667 -4.5 -29v-525h-93h-57.5h-36.5zM18 366.998v149h364v-149h-364zM486 -0.00195312v544.998c0 36.667 8 70 24 100s38.333 54 67 72s62 27 100 27c26.667 0 51.167 -3.66699 73.5 -11s43.166 -17.666 62.499 -30.999l-50 -133
c-8.66699 2.66699 -16.667 4.83398 -24 6.50098s-13.666 2.5 -18.999 2.5c-11.333 0 -20.5 -2 -27.5 -6s-12 -10 -15 -18s-4.5 -17.667 -4.5 -29v-525h-93h-57.5h-36.5zM411 366.996v149h364v-149h-364zM857 -0.00390625v740h186v-740h-186z" />
    <glyph glyph-name=".notdef" horiz-adv-x="584" 
d="M75 0c-23.333 0 -35 11.667 -35 35v630c0 23.333 11.667 35 35 35h434c23.333 0 35 -11.667 35 -35v-630c0 -23.333 -11.667 -35 -35 -35h-434zM75 30l412.998 0.000976562c2 0 3.33301 0.666992 4 2s0.333984 2.66602 -0.999023 3.99902l-415 599
c-1.33301 2 -2.66602 2.83301 -3.99902 2.5s-2 -1.83301 -2 -4.5v-598c0 -3.33301 1.66699 -5 5 -5zM507.998 65.001c1.33301 -2 2.66797 -2.83398 4.00098 -2.50098s2 1.83301 2 4.5v598c0 3.33301 -1.66699 5 -5 5h-414c-2 0 -3.33301 -0.666992 -4 -2
s-0.333984 -2.66602 0.999023 -3.99902z" />
    <glyph glyph-name="CR" unicode="&#xd;" horiz-adv-x="277" 
 />
    <glyph glyph-name="space" unicode=" " horiz-adv-x="338" 
 />
    <glyph glyph-name="exclam" unicode="!" horiz-adv-x="343" 
d="M112 262l-18 122.998c-6 42.667 -11 85 -15 127s-6 82.667 -6 122v83h196v-83c0 -39.333 -2 -80.166 -6 -122.499s-9 -84.666 -15 -126.999l-18 -122.5h-118zM171 -11.002c-29.333 0 -52.333 8.33301 -69 25s-25 40.334 -25 71.001c0 28 8.83301 51 26.5 69
s40.167 27 67.5 27c30 0 53.167 -8.33301 69.5 -25s24.5 -40.334 24.5 -71.001c0 -28 -8.66699 -51 -26 -69s-40 -27 -68 -27z" />
    <glyph glyph-name="quotedbl" unicode="&#x22;" horiz-adv-x="507" 
d="M282 434l19 266h185l-85 -266h-119zM48 434l19 266h184l-85 -266h-118z" />
    <glyph glyph-name="numbersign" unicode="#" horiz-adv-x="760" 
d="M369 0l120 700h164l-120 -700h-164zM55 140v149h612v-149h-612zM108 0l120 700h165l-120 -700h-165zM93 420v149h611v-149h-611z" />
    <glyph glyph-name="dollar" unicode="$" horiz-adv-x="639" 
d="M323 -10c-69.333 0 -128.833 9.66699 -178.5 29s-91.834 46.666 -126.501 81.999l84 150c38.667 -35.333 77 -60.333 115 -75s75.333 -22 112 -22c14.667 0 28 1.5 40 4.5s21.167 8 27.5 15s9.5 15.833 9.5 26.5c0 9.33301 -2.66699 17.333 -8 24
s-12.666 12.5 -21.999 17.5s-19.666 9.5 -30.999 13.5s-22.666 7.16699 -33.999 9.5s-22.333 4.83301 -33 7.5c-52.667 12 -96.334 27.833 -131.001 47.5s-60.667 44 -78 73s-26 63.833 -26 104.5c0 32.667 7.66699 62.667 23 90s35.666 50.833 60.999 70.5
s54.5 34.667 87.5 45s67.5 15.5 103.5 15.5c58 0 110.167 -7.66699 156.5 -23s89.833 -40.666 130.5 -75.999l-70 -137c-30 24.667 -63 42.667 -99 54s-72.667 17 -110 17c-16.667 0 -31.167 -1.66699 -43.5 -5s-21.833 -8.16602 -28.5 -14.499s-10 -14.833 -10 -25.5
c0 -9.33301 3.66699 -17.5 11 -24.5s16.666 -12.833 27.999 -17.5s23.5 -8.5 36.5 -11.5s24.833 -5.5 35.5 -7.5c36.667 -7.33301 70.167 -16.833 100.5 -28.5s56.833 -26.334 79.5 -44.001s40 -39.167 52 -64.5s18 -55 18 -89c0 -50 -12.5 -92.167 -37.5 -126.5
s-58.667 -60.333 -101 -78s-90.166 -26.5 -143.499 -26.5zM262 -91l17 471l73 -33l16 -438h-106zM370 345l-73 33l-16 412h106z" />
    <glyph glyph-name="percent" unicode="%" horiz-adv-x="1026" 
d="M190 0l463 700h169l-468 -700h-164zM226 329c-35.333 0 -67.167 8.5 -95.5 25.5s-50.5 40.5 -66.5 70.5s-24 63.667 -24 101c0 39.333 7.83301 73.833 23.5 103.5s37.5 53 65.5 70s60.333 25.5 97 25.5s69 -8.5 97 -25.5s49.667 -40.333 65 -70s23 -64.167 23 -103.5
c0 -37.333 -8 -70.833 -24 -100.5s-38 -53.167 -66 -70.5s-59.667 -26 -95 -26zM225.999 444c10 0 18.167 3.33301 24.5 10s11.166 16.167 14.499 28.5s5 26.833 5 43.5s-1.66699 31.334 -5 44.001s-8.16602 22.5 -14.499 29.5s-14.5 10.5 -24.5 10.5
c-9.33301 0 -17.333 -3.5 -24 -10.5s-12 -16.833 -16 -29.5s-6 -27.334 -6 -44.001s1.83301 -31.167 5.5 -43.5s9 -21.833 16 -28.5s15.167 -10 24.5 -10zM799.999 -10c-35.333 0 -67.1689 8.66699 -95.502 26s-50.5 40.833 -66.5 70.5s-24 63.167 -24 100.5
c0 39.333 7.83301 73.833 23.5 103.5s37.5 53 65.5 70s60.333 25.5 97 25.5s68.834 -8.5 96.501 -25.5s49.334 -40.333 65.001 -70s23.5 -64.167 23.5 -103.5c0 -37.333 -8.16699 -70.833 -24.5 -100.5s-38.333 -53.167 -66 -70.5s-59.167 -26 -94.5 -26zM799.996 105
c9.33301 0 17.335 3.5 24.002 10.5s11.667 16.5 15 28.5s5 26.333 5 43c0 17.333 -1.66699 32.166 -5 44.499s-8.33301 22 -15 29s-14.667 10.5 -24 10.5s-17.5 -3.5 -24.5 -10.5s-12.333 -16.667 -16 -29s-5.5 -27.166 -5.5 -44.499c0 -16.667 1.66699 -31 5 -43
s8.66602 -21.5 15.999 -28.5s15.666 -10.5 24.999 -10.5z" />
    <glyph glyph-name="ampersand" unicode="&#x26;" horiz-adv-x="793" 
d="M582 0l-60.001 61.0029l-81 73l-134 140c-30.667 31.333 -55.5 59.333 -74.5 84s-33.333 47 -43 67s-16.334 38.333 -20.001 55s-5.5 32 -5.5 46c0 36.667 9.83301 69.5 29.5 98.5s46.834 51.833 81.501 68.5s75 25 121 25c34.667 0 67.5 -5.5 98.5 -16.5
s57.667 -26.5 80 -46.5s38.166 -43.333 47.499 -70l-149 -87c-10 26 -20.5 43 -31.5 51s-23.833 12 -38.5 12c-11.333 0 -21.166 -1.83301 -29.499 -5.5s-14.833 -9.33398 -19.5 -17.001s-7 -16.834 -7 -27.501c0 -12.667 5.83301 -28.167 17.5 -46.5
s26.334 -37.833 44.001 -58.5s35.667 -40.334 54 -59.001l47.5 -48l46 -48l87 -77l166 -174h-227zM335.999 -9.99707c-54.667 0 -103.501 9.99902 -146.501 29.999s-77 47.5 -102 82.5s-37.5 74.5 -37.5 118.5c0 46.667 14 89.5 42 128.5s69.667 68.5 125 88.5l115 -106
c-34 -8 -60.167 -20.5 -78.5 -37.5s-27.5 -38.167 -27.5 -63.5c0 -20 5 -37.167 15 -51.5s24.167 -25.333 42.5 -33s40.833 -11.5 67.5 -11.5c24.667 0 48.167 5.33301 70.5 16s42.166 25.5 59.499 44.5s31.333 42 42 69s17.334 56.833 20.001 89.5h175
c-5.33301 -43.333 -15.666 -83.666 -30.999 -120.999s-34.666 -71 -57.999 -101s-50 -55.667 -80 -77s-62.833 -37.5 -98.5 -48.5s-73.834 -16.5 -114.501 -16.5z" />
    <glyph glyph-name="quotesingle" unicode="'" horiz-adv-x="272" 
d="M48 434l19 266h184l-85 -266h-118z" />
    <glyph glyph-name="parenleft" unicode="(" horiz-adv-x="400" 
d="M290 -186c-81.333 50.667 -143.333 114 -186 190s-64 160.667 -64 254c0 92.667 21.5 177.167 64.5 253.5s105.167 139.833 186.5 190.5l106 -95c-58.667 -40 -101.834 -90.833 -129.501 -152.5s-41.5 -127.167 -41.5 -196.5s13.833 -134.833 41.5 -196.5
s70.834 -112.5 129.501 -152.5z" />
    <glyph glyph-name="parenright" unicode=")" horiz-adv-x="400" 
d="M109 -186l-106 95c58.667 40 101.834 90.833 129.501 152.5s41.5 127.167 41.5 196.5s-13.833 134.833 -41.5 196.5s-70.834 112.5 -129.501 152.5l107 95c81.333 -50.667 143.333 -114 186 -190s64 -160.667 64 -254c0 -92.667 -21.5 -177.167 -64.5 -253.5
s-105.167 -139.833 -186.5 -190.5z" />
    <glyph glyph-name="asterisk" unicode="*" horiz-adv-x="464" 
d="M169 343l17 145l23 -4l-136 -92l-61 104l145 54v-10l-145 64l61 106l139 -106l-26 -3l-20 151h133l-17 -152l-20 5l130 104l61 -106l-150 -64v10l148 -53l-61 -104l-125 96h18l18 -145h-132z" />
    <glyph glyph-name="plus" unicode="+" horiz-adv-x="599" 
d="M49 211v148h501v-148h-501zM220 38v491h159v-491h-159z" />
    <glyph glyph-name="comma" unicode="," horiz-adv-x="296" 
d="M83 -209l-50 60.9941c28.667 12 51.5 27.5 68.5 46.5s25.5 34.833 25.5 47.5c0 6.66699 -1.66699 13.334 -5 20.001s-11 14 -23 22c-16 11.333 -27.167 22.833 -33.5 34.5s-9.5 24.834 -9.5 39.501c0 22.667 8.5 40.667 25.5 54s38.5 20 64.5 20
c20.667 0 39.167 -5.5 55.5 -16.5s29.333 -26.333 39 -46s14.5 -42.5 14.5 -68.5c0 -23.333 -4.16699 -46.166 -12.5 -68.499s-20.333 -43.166 -36 -62.499s-34 -36.166 -55 -50.499s-43.833 -25.166 -68.5 -32.499z" />
    <glyph glyph-name="hyphen" unicode="-" horiz-adv-x="472" 
d="M51 204v167h371v-167h-371z" />
    <glyph glyph-name="period" unicode="." horiz-adv-x="270" 
d="M135 -11c-30 0 -53.167 8.33301 -69.5 25s-24.5 40.334 -24.5 71.001c0 28 8.66699 51 26 69s40 27 68 27c29.333 0 52.333 -8.33301 69 -25s25 -40.334 25 -71.001c0 -28 -8.66699 -51 -26 -69s-40 -27 -68 -27z" />
    <glyph glyph-name="slash" unicode="/" horiz-adv-x="612" 
d="M3 -146l418 846h186l-416 -846h-188z" />
    <glyph glyph-name="zero" unicode="0" horiz-adv-x="705" 
d="M352 -10c-67.333 0 -124.5 14.167 -171.5 42.5s-82.667 69.333 -107 123s-36.5 118.5 -36.5 194.5s12.167 140.833 36.5 194.5s60 94.667 107 123s104.167 42.5 171.5 42.5s124.666 -14.167 171.999 -42.5s83.166 -69.333 107.499 -123s36.5 -118.5 36.5 -194.5
s-12.167 -140.833 -36.5 -194.5s-60.166 -94.667 -107.499 -123s-104.666 -42.5 -171.999 -42.5zM352 155c40.667 0 72.167 16.833 94.5 50.5s33.5 81.834 33.5 144.501c0 65.333 -11.167 115.666 -33.5 150.999s-53.833 53 -94.5 53s-72.167 -17.667 -94.5 -53
s-33.5 -85.666 -33.5 -150.999c0 -62.667 11.167 -110.834 33.5 -144.501s53.833 -50.5 94.5 -50.5z" />
    <glyph glyph-name="one" unicode="1" horiz-adv-x="589" 
d="M209 49v568l37 -111l-156 -69l-29 177l205 96h135v-661h-192zM73 0v171h467v-171h-467z" />
    <glyph glyph-name="two" unicode="2" horiz-adv-x="548" 
d="M44 0l-33.999 82.001l200 215c12 12.667 24.833 27.167 38.5 43.5l40 50c13 17 23.5 33.667 31.5 50s12 30.5 12 42.5c0 9.33301 -2.33301 17.833 -7 25.5s-11.834 14 -21.501 19s-22.167 7.5 -37.5 7.5c-13.333 0 -26 -3.16699 -38 -9.5s-23.5 -16.333 -34.5 -30
s-22.167 -31.5 -33.5 -53.5l-145 76c14.667 38.667 35.667 73.167 63 103.5s58.833 54.166 94.5 71.499s73.167 25.666 112.5 24.999c42 -0.666992 80.333 -9.66699 115 -27s62.334 -41.5 83.001 -72.5s31 -67.167 31 -108.5c0 -13.333 -1.5 -27.5 -4.5 -42.5
s-7.83301 -30.5 -14.5 -46.5s-15.334 -33.167 -26.001 -51.5s-23.667 -37.666 -39 -57.999s-33.333 -41.833 -54 -64.5l-159 -173l-20 97h352v-171h-505z" />
    <glyph glyph-name="three" unicode="3" horiz-adv-x="619" 
d="M303 -10c-59.333 0 -111.662 12 -156.995 36s-86 66.333 -122 127l140 90c13.333 -22.667 27.666 -40.667 42.999 -54s31.5 -22.833 48.5 -28.5s34.5 -8.5 52.5 -8.5c16.667 0 32 3.33301 46 10s25.167 16.334 33.5 29.001s12.5 27.667 12.5 45c0 18 -4 33.167 -12 45.5
s-19.333 21.666 -34 27.999s-32.334 9.5 -53.001 9.5c-9.33301 0 -19.5 -1 -30.5 -3s-22.333 -5 -34 -9s-23.5 -9 -35.5 -15l-41 107l149 161l58 -22l-289 8v162h444l35 -71l-233 -245l-46 57c5.33301 2.66699 14.166 5.16699 26.499 7.5s25.166 3.5 38.499 3.5
c31.333 0 61.333 -5.83301 90 -17.5s54 -27.667 76 -48s39.333 -44 52 -71s19 -56.5 19 -88.5c0 -46.667 -12.333 -88.5 -37 -125.5s-57.834 -66.167 -99.501 -87.5s-88.5 -32 -140.5 -32z" />
    <glyph glyph-name="four" unicode="4" horiz-adv-x="681" 
d="M348 0v567l121 -1l-264 -322l-33 38h477v-159h-556l-80 150l364 435h162v-708h-191z" />
    <glyph glyph-name="five" unicode="5" horiz-adv-x="609" 
d="M294 -7c-56 0 -106.666 10.666 -151.999 31.999s-83.333 52 -114 92l106 116c25.333 -28 49.666 -47.333 72.999 -58s49.333 -16 78 -16c19.333 0 36.166 3.83301 50.499 11.5s25.5 18.167 33.5 31.5s12 28 12 44c0 17.333 -4.16699 32.666 -12.5 45.999
s-19.833 24 -34.5 32s-31.667 12 -51 12c-16.667 0 -31.834 -1.66699 -45.501 -5s-27.834 -8.16602 -42.501 -14.499s-31 -15.5 -49 -27.5l-80 105l45 314h413v-162h-327l54 73l-33 -222l-75 17c15.333 12.667 32.833 23.834 52.5 33.501s40.334 17.5 62.001 23.5
s43.834 9 66.501 9c45.333 0 85.833 -10.167 121.5 -30.5s63.834 -48.833 84.501 -85.5s31 -78.667 31 -126c0 -46 -11.833 -87.5 -35.5 -124.5s-55.5 -66.333 -95.5 -88s-85.333 -32.5 -136 -32.5z" />
    <glyph glyph-name="six" unicode="6" horiz-adv-x="589" 
d="M299 0c-37.333 0 -71.999 6.49707 -103.999 19.4971s-60.167 31.333 -84.5 55s-43.5 51 -57.5 82s-21 64.167 -21 99.5c0 26.667 2.66699 51.834 8 75.501s12.666 46.5 21.999 68.5s20.5 44.667 33.5 68l42.5 73l101 169h181l4 -10l-148 -227
c-16 -25.333 -29.5 -48.666 -40.5 -69.999s-21.333 -43.166 -31 -65.499l-33.5 -77.5l-36 53c4 25.333 13.333 48.666 28 69.999s32.5 40 53.5 56s42.833 28.333 65.5 37s44.334 13 65.001 13c40 0 76.667 -10.5 110 -31.5s60 -48.833 80 -83.5s30 -72.667 30 -114
c0 -49.333 -11.667 -93.666 -35 -132.999s-55.333 -70.333 -96 -93s-86.334 -34 -137.001 -34zM302.001 157.997c18.667 0 35.334 3.99805 50.001 11.998s26.167 19.333 34.5 34s12.5 31.334 12.5 50.001c0 16 -4.33301 31.167 -13 45.5s-20.334 25.833 -35.001 34.5
s-31 13 -49 13c-18.667 0 -35.334 -4.16699 -50.001 -12.5s-26.167 -19.5 -34.5 -33.5s-12.5 -29.667 -12.5 -47c0 -18.667 4.16699 -35.167 12.5 -49.5s19.833 -25.666 34.5 -33.999s31.334 -12.5 50.001 -12.5z" />
    <glyph glyph-name="seven" unicode="7" horiz-adv-x="558" 
d="M72 0l275 640l64 -102h-372v170h467l17 -86l-257 -622h-194z" />
    <glyph glyph-name="eight" unicode="8" horiz-adv-x="607" 
d="M303 -3c-50 0 -95.332 9.16699 -135.999 27.5s-73 43.333 -97 75s-36 67.5 -36 107.5c0 28.667 3.66699 54.167 11 76.5s18.166 41.666 32.499 57.999s32 30.166 53 41.499s44.833 20.333 71.5 27l-14 -49c-20 7.33301 -37.833 16.5 -53.5 27.5s-29 23.667 -40 38
s-19.667 29.666 -26 45.999s-9.5 34.166 -9.5 53.499c0 37.333 11 70.333 33 99s51.333 51.167 88 67.5s77.667 24.5 123 24.5s86.333 -8.16699 123 -24.5s66 -38.833 88 -67.5s33 -61.667 33 -99c0 -19.333 -2.83301 -37.166 -8.5 -53.499s-14 -31.333 -25 -45
s-24.5 -26.167 -40.5 -37.5s-34.667 -21 -56 -29l-11 45c24.667 -5.33301 47.167 -13.166 67.5 -23.499s38 -23.666 53 -39.999s26.5 -35.666 34.5 -57.999s12 -48.166 12 -77.499c0 -40.667 -12 -76.834 -36 -108.501s-56.5 -56.5 -97.5 -74.5s-86.5 -27 -136.5 -27z
M303.001 146c16 0 30.334 3.16797 43.001 9.50098s22.667 15.166 30 26.499s11 24.333 11 39c0 15.333 -3.5 28.666 -10.5 39.999s-16.833 20.333 -29.5 27s-27.334 10 -44.001 10c-16 0 -30.333 -3.33301 -43 -10s-22.667 -15.667 -30 -27s-11 -24.666 -11 -39.999
c0 -14 3.66699 -26.667 11 -38s17.333 -20.333 30 -27s27 -10 43 -10zM303.002 450.001c14 0 26.667 2.83301 38 8.5s20.166 13.334 26.499 23.001s9.5 21.167 9.5 34.5c0 12.667 -3.16699 24.167 -9.5 34.5s-15.166 18.5 -26.499 24.5s-24 9 -38 9s-26.667 -3 -38 -9
s-20.166 -14.167 -26.499 -24.5s-9.5 -21.833 -9.5 -34.5c0 -13.333 3.16699 -24.833 9.5 -34.5s15.166 -17.334 26.499 -23.001s24 -8.5 38 -8.5z" />
    <glyph glyph-name="nine" unicode="9" horiz-adv-x="588" 
d="M199 0l-4.00098 10.001l225 442l40 -50c-4 -25.333 -13.5 -48.666 -28.5 -69.999s-33.333 -39.833 -55 -55.5s-44.5 -28 -68.5 -37s-46.333 -13.5 -67 -13.5c-38 0 -73 10.833 -105 32.5s-57.667 50 -77 85s-29 72.833 -29 113.5c0 49.333 11.833 93.666 35.5 132.999
s55.667 70.666 96 93.999s86.166 35 137.499 35c36.667 0 71.167 -6.5 103.5 -19.5s60.833 -30.833 85.5 -53.5s43.834 -48.667 57.501 -78s20.5 -61 20.5 -95c0 -26.667 -2.33301 -52.5 -7 -77.5s-11.5 -49.5 -20.5 -73.5s-19.167 -48.167 -30.5 -72.5
s-23.666 -49.5 -36.999 -75.5l-91 -174h-181zM289.999 376.001c18 0 33.999 4.16699 47.999 12.5s25 19.5 33 33.5s12 29.333 12 46c0 18.667 -4 35 -12 49s-19 25 -33 33s-30 12 -48 12s-33.667 -3.83301 -47 -11.5s-24 -18.667 -32 -33s-12 -30.833 -12 -49.5
c0 -16 4.16699 -31 12.5 -45s19.333 -25.333 33 -34s28.834 -13 45.501 -13z" />
    <glyph glyph-name="colon" unicode=":" horiz-adv-x="270" 
d="M135 -11c-30 0 -53.167 8.33301 -69.5 25s-24.5 40.334 -24.5 71.001c0 28 8.66699 51 26 69s40 27 68 27c29.333 0 52.333 -8.33301 69 -25s25 -40.334 25 -71.001c0 -28 -8.66699 -51 -26 -69s-40 -27 -68 -27zM135 352c-30 0 -53.167 8.33301 -69.5 25
s-24.5 40.334 -24.5 71.001c0 28 8.66699 51 26 69s40 27 68 27c29.333 0 52.333 -8.33301 69 -25s25 -40.334 25 -71.001c0 -28 -8.66699 -51 -26 -69s-40 -27 -68 -27z" />
    <glyph glyph-name="semicolon" unicode=";" horiz-adv-x="304" 
d="M90 -209l-50 60.9941c28.667 12 51.5 27.5 68.5 46.5s25.5 34.833 25.5 47.5c0 6.66699 -1.66699 13.334 -5 20.001s-11 14 -23 22c-16 11.333 -27.167 22.833 -33.5 34.5s-9.5 24.834 -9.5 39.501c0 22.667 8.5 40.667 25.5 54s38.5 20 64.5 20
c20.667 0 39.167 -5.5 55.5 -16.5s29.333 -26.333 39 -46s14.5 -42.5 14.5 -68.5c0 -23.333 -4.16699 -46.166 -12.5 -68.499s-20.333 -43.166 -36 -62.499s-34 -36.166 -55 -50.499s-43.833 -25.166 -68.5 -32.499zM149 352.994c-30 0 -53.167 8.33301 -69.5 25
s-24.5 40.334 -24.5 71.001c0 28 8.66699 51 26 69s40 27 68 27c29.333 0 52.333 -8.33301 69 -25s25 -40.334 25 -71.001c0 -28 -8.66699 -51 -26 -69s-40 -27 -68 -27z" />
    <glyph glyph-name="less" unicode="&#x3c;" horiz-adv-x="526" 
d="M438 -21l-400 229v104l400 229l73 -150l-331 -166v70l331 -166z" />
    <glyph glyph-name="equal" unicode="=" horiz-adv-x="649" 
d="M75 323v148h499v-148h-499zM75 92v148h499v-148h-499z" />
    <glyph glyph-name="greater" unicode="&#x3e;" horiz-adv-x="526" 
d="M101 -21l-73 150l331 166v-70l-331 166l73 150l400 -229v-104z" />
    <glyph glyph-name="question" unicode="?" horiz-adv-x="547" 
d="M196 253l-34.998 126c16.667 4 33 8.66699 49 14s31 11.333 45 18s26.5 14.334 37.5 23.001s19.5 18.5 25.5 29.5s9 22.833 9 35.5c0 10.667 -2.33301 19.5 -7 26.5s-11.334 12.5 -20.001 16.5s-18.667 6 -30 6c-20 0 -40.333 -7.16699 -61 -21.5
s-40.667 -39.5 -60 -75.5l-125 119c31.333 47.333 68.166 83.833 110.499 109.5s86.833 38.5 133.5 38.5c44.667 0 85.167 -9 121.5 -27s65 -42.833 86 -74.5s31.5 -66.834 31.5 -105.501c0 -26 -5.33301 -51.667 -16 -77s-25.667 -49 -45 -71s-42 -41.167 -68 -57.5
s-54.333 -28.833 -85 -37.5l-6 -15h-91zM160.002 85c0 28 8.66699 51 26 69s40 27 68 27c29.333 0 52.333 -8.33301 69 -25s25 -40.334 25 -71.001c0 -28 -8.83301 -51 -26.5 -69s-40.167 -27 -67.5 -27c-30 0 -53.167 8.33301 -69.5 25s-24.5 40.334 -24.5 71.001z" />
    <glyph glyph-name="at" unicode="@" horiz-adv-x="965" 
d="M414 -162c-58 0 -110.166 8.83594 -156.499 26.5029s-85.666 42.667 -117.999 75s-57 71.166 -74 116.499s-25.5 95.333 -25.5 150c0 78 13.833 148.167 41.5 210.5s66 115.333 115 159s106 77 171 100s134.5 34.5 208.5 34.5c53.333 0 101.333 -7.5 144 -22.5
s79.334 -36.5 110.001 -64.5s54.167 -61.167 70.5 -99.5s24.5 -80.833 24.5 -127.5s-6.5 -90.834 -19.5 -132.501s-31.167 -78.834 -54.5 -111.501s-50.5 -58.334 -81.5 -77.001s-64.5 -28 -100.5 -28c-26.667 0 -50.334 4.33301 -71.001 13s-36.834 21 -48.501 37
s-17.5 34.333 -17.5 55c0 11.333 0.333008 22.833 1 34.5s1 23.5 1 35.5l31 -20c-10.667 -32.667 -24.5 -60.667 -41.5 -84s-36.667 -41 -59 -53s-46.833 -18 -73.5 -18c-31.333 0 -59.5 8 -84.5 24s-44.667 38.333 -59 67s-21.5 61.667 -21.5 99
c0 32.667 6.33301 66 19 100s30.167 65.333 52.5 94s48.333 51.834 78 69.501s61.167 26.5 94.5 26.5c20.667 0 39.167 -5.66699 55.5 -17s29.666 -27 39.999 -47s16.5 -43 18.5 -69l-33 -13l30 133h164l-63 -320c-2 -10 -1.66699 -18 1 -24s7 -10.167 13 -12.5
s13 -3.5 21 -3.5c17.333 0 33.666 6.16699 48.999 18.5s28.5 29.5 39.5 51.5s19.833 47.167 26.5 75.5s10 58.833 10 91.5c0 50.667 -10.833 94 -32.5 130s-52.834 63.5 -93.501 82.5s-89.667 28.5 -147 28.5c-68.667 0 -130.334 -9.5 -185.001 -28.5
s-101.5 -46.833 -140.5 -83.5s-68.667 -81.167 -89 -133.5s-30.5 -111.5 -30.5 -177.5c0 -46 6.5 -86.833 19.5 -122.5s31.833 -66.167 56.5 -91.5s55.334 -44.5 92.001 -57.5s78.334 -19.5 125.001 -19.5c31.333 0 58.333 2.16699 81 6.5s44.334 11 65.001 20
s43.667 20.167 69 33.5l37 -67c-39.333 -20 -73 -35.167 -101 -45.5s-54 -17.5 -78 -21.5s-49.333 -6 -76 -6zM441.001 183.003c15.333 0 30.165 4.99902 44.498 14.999s26.833 23.667 37.5 41s18 37 22 59l3.5 23.5c1 7 1.5 14.167 1.5 21.5
c0 11.333 -1.66699 21.166 -5 29.499s-8.66602 14.833 -15.999 19.5s-17 7 -29 7c-18.667 0 -35.667 -7 -51 -21s-27.166 -32.667 -35.499 -56s-12.5 -48.666 -12.5 -75.999c0 -19.333 3.66699 -34.666 11 -45.999s17 -17 29 -17z" />
    <glyph glyph-name="A" unicode="A" horiz-adv-x="692" 
d="M-12 0l279 699.999h160l277 -700h-197l-120 325l-18 50l-15 45c-4.66699 14.667 -9.16699 29.667 -13.5 45s-8.16602 32 -11.499 50l32 1c-4 -19.333 -8.16699 -36.666 -12.5 -51.999s-8.83301 -30 -13.5 -44s-9.83398 -28.667 -15.501 -44l-18.5 -51l-120 -325h-193z
M124 115.999l59 140h324l55 -140h-438z" />
    <glyph glyph-name="B" unicode="B" horiz-adv-x="709" 
d="M83 0l0.000976562 699.998h317c49.333 0 91.166 -7 125.499 -21s60.5 -33.667 78.5 -59s27 -55.333 27 -90c0 -41.333 -9.66699 -75.666 -29 -102.999s-47.333 -45.666 -84 -54.999l-3 19c30.667 -7.33301 57.5 -19.166 80.5 -35.499s40.833 -36.333 53.5 -60
s19 -50.834 19 -81.501c0 -36 -6.5 -67.333 -19.5 -94s-31.333 -49 -55 -67s-51 -31.333 -82 -40s-64.833 -13 -101.5 -13h-327zM268.001 158.998h136.001c15.333 0 28.166 2.5 38.499 7.5s18.333 12.5 24 22.5s8.5 22 8.5 36c0 13.333 -3 24.333 -9 33
s-14.667 15.5 -26 20.5s-25 7.5 -41 7.5h-131v-127zM268.002 422.998h100c16 0 29.333 2.33301 40 7s18.667 11.5 24 20.5s8 19.5 8 31.5c0 18 -6 32.333 -18 43s-31 16 -57 16h-97v-118z" />
    <glyph glyph-name="C" unicode="C" horiz-adv-x="701" 
d="M417 -10c-54.667 0 -104.999 9.00391 -150.999 27.0039s-85.833 43.167 -119.5 75.5s-59.667 70.666 -78 114.999s-27.5 93.166 -27.5 146.499c0 52.667 9.5 101.167 28.5 145.5s45.5 82.833 79.5 115.5s74.333 58 121 76s97.667 27 153 27
c33.333 0 65.833 -4.16699 97.5 -12.5s61.5 -20.5 89.5 -36.5s53 -36 75 -60l-119 -138c-11.333 12.667 -24 24 -38 34s-29.833 17.833 -47.5 23.5s-37.167 8.5 -58.5 8.5c-24.667 0 -47.834 -4.16699 -69.501 -12.5s-40.5 -20.5 -56.5 -36.5s-28.5 -35.333 -37.5 -58
s-13.5 -48.667 -13.5 -78c0 -28 4.5 -53.167 13.5 -75.5s22 -41.333 39 -57s37.333 -27.834 61 -36.501s50.167 -13 79.5 -13c20.667 0 40.167 3 58.5 9s35.166 14 50.499 24s29 21 41 33l94 -149c-16.667 -18.667 -39.167 -35.334 -67.5 -50.001
s-59.666 -26.167 -93.999 -34.5s-68.833 -12.5 -103.5 -12.5z" />
    <glyph glyph-name="D" unicode="D" horiz-adv-x="783" 
d="M83 0v700h302c52.667 0 100.667 -8.66699 144 -26s81 -41.5 113 -72.5s56.667 -67.833 74 -110.5s26 -89.667 26 -141c0 -50.667 -8.66699 -97.5 -26 -140.5s-42 -80 -74 -111s-69.667 -55.167 -113 -72.5s-91.333 -26 -144 -26h-302zM281 126l-31.002 44.998h130
c24.667 0 46.834 4.33301 66.501 13s36.5 20.834 50.5 36.501s25 34.5 33 56.5s12 46.333 12 73s-4 51 -12 73s-19.167 40.833 -33.5 56.5s-31.166 27.834 -50.499 36.501s-41.333 13 -66 13h-133l34 43v-446z" />
    <glyph glyph-name="E" unicode="E" horiz-adv-x="659" 
d="M83 0v700h509v-163h-319v-374h334v-163h-524zM177 278v154h375v-154h-375z" />
    <glyph glyph-name="F" unicode="F" horiz-adv-x="625" 
d="M83 0v700h198v-700h-198zM177 255v159h362v-159h-362zM177 529v171h401v-171h-401z" />
    <glyph glyph-name="G" unicode="G" horiz-adv-x="788" 
d="M413 -10c-58 0 -110 8.99805 -156 26.998s-85.167 43.333 -117.5 76s-56.833 71.334 -73.5 116.001s-25 93 -25 145c0 52.667 9.16699 101.167 27.5 145.5s44.833 82.833 79.5 115.5s75.5 58 122.5 76s99.167 27 156.5 27c39.333 0 76.5 -5 111.5 -15
s66.5 -23.667 94.5 -41s52 -36.666 72 -57.999l-118 -126c-14.667 14 -30.167 26 -46.5 36s-34 18 -53 24s-40.167 9 -63.5 9c-26 0 -49.833 -4.83301 -71.5 -14.5s-40.5 -23 -56.5 -40s-28.5 -37.333 -37.5 -61s-13.5 -49.5 -13.5 -77.5
c0 -27.333 4.66699 -52.833 14 -76.5s22.333 -44.167 39 -61.5s36.5 -30.833 59.5 -40.5s47.833 -14.5 74.5 -14.5c18.667 0 36 3 52 9s29.833 14.167 41.5 24.5s20.834 22.666 27.501 36.999s10 29.833 10 46.5v28l26 -42h-184v144h338
c0.666992 -7.33301 1.5 -18.5 2.5 -33.5s1.66699 -29.833 2 -44.5s0.5 -25 0.5 -31c0 -44.667 -8.33301 -86 -25 -124s-40 -70.667 -70 -98s-65.333 -48.666 -106 -63.999s-85.334 -23 -134.001 -23z" />
    <glyph glyph-name="H" unicode="H" horiz-adv-x="788" 
d="M507 0v700h198v-700h-198zM83 0v700h198v-700h-198zM158 262l1 174h457v-174h-458z" />
    <glyph glyph-name="I" unicode="I" horiz-adv-x="590" 
d="M74 0v162h122v376h-122v162h441v-162h-121v-376h121v-162h-441z" />
    <glyph glyph-name="J" unicode="J" horiz-adv-x="675" 
d="M263 -10c-26.667 0 -51.665 2.82812 -74.998 8.49512s-44.666 13.834 -63.999 24.501s-36.333 23.834 -51 39.501s-27.667 33.167 -39 52.5l111 115c7.33301 -10.667 14.5 -20.167 21.5 -28.5s14.167 -15 21.5 -20s15.166 -9 23.499 -12s16.833 -4.5 25.5 -4.5
c12.667 0 23.834 3 33.501 9s17.167 14.333 22.5 25s8 23.334 8 38.001v293h-129v170h428v-170h-108v-317c0 -35.333 -5.83301 -66.666 -17.5 -93.999s-27.834 -50.666 -48.501 -69.999s-44.834 -34 -72.501 -44s-57.834 -15 -90.501 -15z" />
    <glyph glyph-name="K" unicode="K" horiz-adv-x="742" 
d="M223 201l-62 154l339 345h228zM83 0v700h198v-700h-198zM526 0l-256 336l130 112l353 -448h-227z" />
    <glyph glyph-name="L" unicode="L" horiz-adv-x="613" 
d="M83 0v700h198v-529h305v-171h-503z" />
    <glyph glyph-name="M" unicode="M" horiz-adv-x="884" 
d="M83 0v700h173l255 -415l-135 1l258 414h167v-700h-191v187c0 60 1.5 114 4.5 162s8.16699 95.667 15.5 143l22 -59l-179 -277h-66l-175 277l22 59c7.33301 -44.667 12.5 -90.5 15.5 -137.5s4.5 -102.833 4.5 -167.5v-187h-191z" />
    <glyph glyph-name="N" unicode="N" horiz-adv-x="813" 
d="M83 0v700.001h177l340 -466l-41 10c-3.33301 24.667 -6.16602 47 -8.49902 67s-4.33301 39 -6 57s-3 36 -4 54s-1.5 37.667 -1.5 59v72v147h191v-700h-179l-366 500l69 -17l8.5 -71c2.33301 -20 4.16602 -38 5.49902 -54s2.5 -31.333 3.5 -46s1.66699 -30.334 2 -47.001
s0.5 -35.667 0.5 -57v-208h-191z" />
    <glyph glyph-name="O" unicode="O" horiz-adv-x="825" 
d="M413 -10c-54 0 -103.667 8.99902 -149 26.999s-84.666 43.333 -117.999 76s-59.166 71.167 -77.499 115.5s-27.5 92.833 -27.5 145.5c0 53.333 9.16699 102 27.5 146s44.166 82.333 77.499 115s72.666 58 117.999 76s95 27 149 27s103.5 -9 148.5 -27
s84.333 -43.333 118 -76s59.5 -71 77.5 -115s27 -92.333 27 -145c0 -53.333 -9 -102.166 -27 -146.499s-43.833 -82.833 -77.5 -115.5s-73 -58 -118 -76s-94.5 -27 -148.5 -27zM413 173.999c24 0 46.333 4.33398 67 13.001s38.667 21.167 54 37.5s27.166 35.5 35.499 57.5
s12.5 46 12.5 72s-4.16699 50 -12.5 72s-20.166 41.167 -35.499 57.5s-33.333 28.833 -54 37.5s-43 13 -67 13c-24.667 0 -47.334 -4.33301 -68.001 -13s-38.667 -21.167 -54 -37.5s-27.166 -35.333 -35.499 -57s-12.5 -45.834 -12.5 -72.501c0 -26 4.16699 -50 12.5 -72
s20.166 -41.167 35.499 -57.5s33.333 -28.833 54 -37.5s43.334 -13 68.001 -13z" />
    <glyph glyph-name="P" unicode="P" horiz-adv-x="675" 
d="M83 0v699.999h310c46 0 87.167 -10.167 123.5 -30.5s65 -48.166 86 -83.499s31.5 -76 31.5 -122c0 -47.333 -10.5 -89.5 -31.5 -126.5s-49.667 -66.167 -86 -87.5s-77.5 -32 -123.5 -32h-112v-218h-198zM278 388.999l81 -0.000976562c14 0 26.333 2.83301 37 8.5
s19.167 13.834 25.5 24.501s9.5 23.667 9.5 39s-3.16699 28 -9.5 38s-14.833 17.5 -25.5 22.5s-23 7.5 -37 7.5h-81v-140z" />
    <glyph glyph-name="Q" unicode="Q" horiz-adv-x="825" 
d="M616 -110l-269 369l141 100l266 -366zM413 -10c-54 0 -103.667 9 -149 27s-84.666 43.333 -117.999 76s-59.166 71.167 -77.499 115.5s-27.5 92.833 -27.5 145.5c0 53.333 9.16699 102 27.5 146s44.166 82.333 77.499 115s72.666 58 117.999 76s95 27 149 27
s103.5 -9 148.5 -27s84.333 -43.333 118 -76s59.5 -71 77.5 -115s27 -92.667 27 -146c0 -52.667 -9 -101.167 -27 -145.5s-43.833 -82.833 -77.5 -115.5s-73 -58 -118 -76s-94.5 -27 -148.5 -27zM413 174c24 0 46.333 4.33398 67 13.001s38.667 21.167 54 37.5
s27.166 35.5 35.499 57.5s12.5 46 12.5 72s-4.16699 50 -12.5 72s-20.166 41.167 -35.499 57.5s-33.333 28.833 -54 37.5s-43 13 -67 13c-24.667 0 -47.334 -4.33301 -68.001 -13s-38.667 -21.167 -54 -37.5s-27.166 -35.333 -35.499 -57s-12.5 -45.834 -12.5 -72.501
c0 -26 4.16699 -50 12.5 -72s20.166 -41.167 35.499 -57.5s33.333 -28.833 54 -37.5s43.334 -13 68.001 -13z" />
    <glyph glyph-name="R" unicode="R" horiz-adv-x="705" 
d="M83 0v699.998h323c47.333 0 89.666 -9.66699 126.999 -29s66.5 -45.666 87.5 -78.999s31.5 -71.666 31.5 -114.999c0 -46.667 -10.5 -88 -31.5 -124s-50.167 -64.167 -87.5 -84.5s-79.666 -30.5 -126.999 -30.5h-137v-238h-186zM458 -0.00195312l-178 316l203 25
l198 -341h-223zM269 379.998h110c17.333 0 31.833 3.5 43.5 10.5s20.667 16.667 27 29s9.5 26.833 9.5 43.5c0 16 -3.33301 29.833 -10 41.5s-16.5 20.667 -29.5 27s-29.167 9.5 -48.5 9.5h-102v-161z" />
    <glyph glyph-name="S" unicode="S" horiz-adv-x="638" 
d="M323 -10c-50 0 -94.502 5.66797 -133.502 17.001s-73.333 27.666 -103 48.999s-56.167 46.333 -79.5 75l116 131c33.333 -43.333 67.666 -72.166 102.999 -86.499s69.666 -21.5 102.999 -21.5c14.667 0 28 1.5 40 4.5s21.167 8 27.5 15s9.5 15.833 9.5 26.5
c0 9.33301 -2.66699 17.333 -8 24s-12.666 12.5 -21.999 17.5s-19.666 9.5 -30.999 13.5s-22.666 7.16699 -33.999 9.5s-22.333 4.83301 -33 7.5c-39.333 8.66699 -73.666 19.667 -102.999 33s-53.833 29.166 -73.5 47.499s-34.334 39.5 -44.001 63.5s-14.5 51 -14.5 81
c0 32.667 7.66699 62.667 23 90s35.666 50.833 60.999 70.5s54.5 34.667 87.5 45s67.5 15.5 103.5 15.5c49.333 0 91.333 -4.83301 126 -14.5s63.834 -23.5 87.501 -41.5s44.167 -39 61.5 -63l-118 -114c-14 15.333 -29.167 28 -45.5 38s-33.166 17.5 -50.499 22.5
s-35 7.5 -53 7.5c-16.667 0 -31.167 -1.66699 -43.5 -5s-21.833 -8.16602 -28.5 -14.499s-10 -14.833 -10 -25.5c0 -9.33301 3.66699 -17.5 11 -24.5s16.666 -12.833 27.999 -17.5s23.5 -8.5 36.5 -11.5s24.833 -5.5 35.5 -7.5c36.667 -7.33301 70.167 -16.833 100.5 -28.5
s56.833 -26.334 79.5 -44.001s40 -39.167 52 -64.5s18 -55 18 -89c0 -50 -12.5 -92.167 -37.5 -126.5s-58.667 -60.333 -101 -78s-90.166 -26.5 -143.499 -26.5z" />
    <glyph glyph-name="T" unicode="T" horiz-adv-x="691" 
d="M243 0v529h-212v171h629v-171h-219v-529h-198z" />
    <glyph glyph-name="U" unicode="U" horiz-adv-x="777" 
d="M388 -6c-59.333 0 -112.167 11.833 -158.5 35.5s-82.666 56.167 -108.999 97.5s-39.5 88.666 -39.5 141.999v431h200v-422c0 -22 4.66699 -41.5 14 -58.5s22.166 -30.333 38.499 -40s34.5 -14.5 54.5 -14.5c22 0 41.333 4.83301 58 14.5s30 23 40 40s15 36.5 15 58.5v422
h194v-431c0 -53.333 -13.167 -100.666 -39.5 -141.999s-62.5 -73.833 -108.5 -97.5s-99 -35.5 -159 -35.5z" />
    <glyph glyph-name="V" unicode="V" horiz-adv-x="711" 
d="M275 0l-278.999 700h200l121 -326c8 -20.667 14.667 -38.5 20 -53.5s10 -29 14 -42l12 -41c4 -14.333 8 -31.5 12 -51.5h-33c6 26 11.667 48 17 66s11.166 36 17.499 54l24.5 68l119 326h195l-281 -700h-159z" />
    <glyph glyph-name="W" unicode="W" horiz-adv-x="991" 
d="M199 0l-203.001 699.999h199l91 -336c4.66699 -19.333 8.83398 -38.166 12.501 -56.499s6.5 -35.333 8.5 -51s3.66699 -30.167 5 -43.5s2.33301 -24.333 3 -33h-19c2 20 3.83301 39.5 5.5 58.5s4.5 38.667 8.5 59s10 42.5 18 66.5l94 258h153l93 -258
c9.33301 -25.333 16.5 -48.5 21.5 -69.5s8.83301 -40.833 11.5 -59.5s4.66699 -36.667 6 -54l-17 -1c0.666992 10 1 20 1 30s0.333008 20.5 1 31.5s1.66699 22.833 3 35.5s3.33301 26.167 6 40.5s6 29.833 10 46.5l91 336h193l-204 -700h-154l-158 387h24l-142 -387h-162z
" />
    <glyph glyph-name="X" unicode="X" horiz-adv-x="713" 
d="M487 0l-217 314l-278 386h239l212 -310l283 -390h-239zM-13 0l267 381l169 -79l-207 -302h-229zM459 325l-168 76l196 299h229z" />
    <glyph glyph-name="Y" unicode="Y" horiz-adv-x="702" 
d="M261 0v349l7 -49l-283 400h222l216 -310l-117 3l195 307h216l-271 -411l15 68v-357h-200z" />
    <glyph glyph-name="Z" unicode="Z" horiz-adv-x="694" 
d="M60 0v129l366 484l79 -92h-419v179h538v-128l-364 -485l-80 82h455v-169h-575z" />
    <glyph glyph-name="bracketleft" unicode="[" horiz-adv-x="427" 
d="M80 -190v890h315v-163h-140l6 8v-584l-10 12h144v-163h-315z" />
    <glyph glyph-name="backslash" unicode="\" horiz-adv-x="596" 
d="M406 -107l-398 807h186l400 -807h-188z" />
    <glyph glyph-name="bracketright" unicode="]" horiz-adv-x="427" 
d="M32 -190v163h140l-6 -8v584l10 -12h-144v163h315v-890h-315z" />
    <glyph glyph-name="asciicircum" unicode="^" horiz-adv-x="598" 
d="M5 358l223 377h142l223 -377h-182l-167 292l112 1l-172 -293h-179z" />
    <glyph glyph-name="underscore" unicode="_" horiz-adv-x="685" 
d="M34 -207v155h617v-155h-617z" />
    <glyph glyph-name="grave" unicode="`" horiz-adv-x="500" 
d="M332 574l-218 117l77 114l195 -149z" />
    <glyph glyph-name="a" unicode="a" horiz-adv-x="671" 
d="M263 -9c-44 0 -83.498 11.833 -118.498 35.5s-62.667 56.334 -83 98.001s-30.5 89.167 -30.5 142.5c0 54.667 10 102.667 30 144s47.667 73.833 83 97.5s76 35.5 122 35.5c24.667 0 47.334 -3.33301 68.001 -10s38.667 -16.334 54 -29.001s28.666 -27 39.999 -43
s20.666 -33.333 27.999 -52l-38 2v121h183v-533h-187v130l41 -2c-6 -19.333 -14.833 -37.333 -26.5 -54s-25.834 -31.167 -42.501 -43.5s-35.167 -22 -55.5 -29s-42.833 -10.5 -67.5 -10.5zM316.002 144c21.333 0 39.666 4.83301 54.999 14.5s27.166 23.834 35.499 42.501
s12.5 40.667 12.5 66c0 26 -4.16699 48.333 -12.5 67s-20.166 32.834 -35.499 42.501s-33.666 14.5 -54.999 14.5s-39.5 -4.83301 -54.5 -14.5s-26.5 -23.834 -34.5 -42.501s-12 -41 -12 -67c0 -25.333 4 -47.333 12 -66s19.5 -32.834 34.5 -42.501s33.167 -14.5 54.5 -14.5
z" />
    <glyph glyph-name="b" unicode="b" horiz-adv-x="671" 
d="M409 -11c-24.667 0 -48.0049 3.16699 -70.0049 9.5s-41.667 15 -59 26s-31.666 23.833 -42.999 38.5s-18.666 30.334 -21.999 47.001l38 10l-13 -119h-170v739h187v-336l-40 13c4 18 11.833 34.667 23.5 50s25.834 28.833 42.501 40.5s35.334 20.667 56.001 27
s42.334 9.5 65.001 9.5c46 0 86.5 -11.833 121.5 -35.5s62.667 -56.5 83 -98.5s30.5 -90 30.5 -144s-10 -101.833 -30 -143.5s-47.333 -74.334 -82 -98.001s-74 -35.5 -118 -35.5zM354.995 142c21.333 0 39.499 5.16699 54.499 15.5s26.667 24.666 35 42.999
s12.5 40.166 12.5 65.499c0 26 -4 48.333 -12 67s-19.667 32.834 -35 42.501s-33.666 14.5 -54.999 14.5s-39.666 -4.83301 -54.999 -14.5s-27.166 -23.834 -35.499 -42.501s-12.5 -41 -12.5 -67c0 -25.333 4.16699 -47.166 12.5 -65.499s20.166 -32.666 35.499 -42.999
s33.666 -15.5 54.999 -15.5z" />
    <glyph glyph-name="c" unicode="c" horiz-adv-x="550" 
d="M308 -10c-52.667 0 -99.8359 12.001 -141.503 36.001s-74.5 56.833 -98.5 98.5s-36 89.167 -36 142.5s12 100.833 36 142.5s56.833 74.5 98.5 98.5s88.834 36 141.501 36c48 0 92.167 -7.66699 132.5 -23s72.5 -37.333 96.5 -66l-101 -120
c-7.33301 9.33301 -16.666 17.833 -27.999 25.5s-23.833 13.667 -37.5 18s-28.834 6.5 -45.501 6.5c-22 0 -41.333 -5 -58 -15s-29.5 -23.833 -38.5 -41.5s-13.5 -37.834 -13.5 -60.501s4.33301 -42.667 13 -60s21.5 -31.333 38.5 -42s36.5 -16 58.5 -16
c16.667 0 31.834 2 45.501 6s26 9.66699 37 17s20.5 16 28.5 26l101 -121c-24.667 -28 -57.167 -49.667 -97.5 -65s-84.166 -23 -131.499 -23z" />
    <glyph glyph-name="d" unicode="d" horiz-adv-x="663" 
d="M264 -11c-44.667 0 -84.4971 11.8311 -119.497 35.498s-62.5 56.334 -82.5 98.001s-30 89.5 -30 143.5s10.167 101.833 30.5 143.5s48.166 74.5 83.499 98.5s75.666 36 120.999 36c23.333 0 45.666 -3.33301 66.999 -10s40.5 -16 57.5 -28s31.333 -26 43 -42
s19.167 -33 22.5 -51l-43 -12v339h187v-740h-169l-13 119l37 -7c-2.66699 -17.333 -9.66699 -33.333 -21 -48s-25.5 -27.667 -42.5 -39s-36.667 -20.166 -59 -26.499s-45.5 -9.5 -69.5 -9.5zM317.003 140.998c21.333 0 39.666 5.16699 54.999 15.5s27 24.666 35 42.999
s12 40.5 12 66.5s-4 48.5 -12 67.5s-19.667 33.333 -35 43s-33.666 14.5 -54.999 14.5s-39.666 -4.83301 -54.999 -14.5s-27 -24 -35 -43s-12 -41.5 -12 -67.5s4 -48.167 12 -66.5s19.667 -32.666 35 -42.999s33.666 -15.5 54.999 -15.5z" />
    <glyph glyph-name="e" unicode="e" horiz-adv-x="586" 
d="M327 -10c-60.667 0 -113.001 11.833 -157.001 35.5s-78 56.334 -102 98.001s-36 89.167 -36 142.5c0 40 6.66699 77 20 111s32 63.5 56 88.5s52.5 44.333 85.5 58s69.167 20.5 108.5 20.5c38.667 0 73.834 -6.66699 105.501 -20s59 -32.333 82 -57s40.667 -53.667 53 -87
s17.833 -70 16.5 -110l-1 -42h-420l-23 93h294l-18 -20v19c0 14.667 -3.83301 27.5 -11.5 38.5s-17.834 19.5 -30.501 25.5s-27 9 -43 9c-22.667 0 -41.5 -4.5 -56.5 -13.5s-26.5 -21.833 -34.5 -38.5s-12 -36.667 -12 -60c0 -26.667 5.5 -49.667 16.5 -69
s27.333 -34.333 49 -45s48.167 -16 79.5 -16c20.667 0 38.834 2.66699 54.501 8s32.5 14.666 50.5 27.999l86 -121c-23.333 -18.667 -46.833 -33.5 -70.5 -44.5s-47.167 -19 -70.5 -24s-47 -7.5 -71 -7.5z" />
    <glyph glyph-name="f" unicode="f" horiz-adv-x="393" 
d="M93 0v544.998c0 36.667 8 70 24 100s38.333 54 67 72s62 27 100 27c26.667 0 51.167 -3.66699 73.5 -11s43.166 -17.666 62.499 -30.999l-50 -133c-8.66699 2.66699 -16.667 4.83398 -24 6.50098s-13.666 2.5 -18.999 2.5c-11.333 0 -20.5 -2 -27.5 -6s-12 -10 -15 -18
s-4.5 -17.667 -4.5 -29v-525h-93h-57.5h-36.5zM18 366.998v149h364v-149h-364z" />
    <glyph glyph-name="g" unicode="g" horiz-adv-x="678" 
d="M317 -230c-46 0 -91.668 6.49805 -137.001 19.498s-82.333 29.833 -111 50.5l63 127c14.667 -9.33301 30.167 -17.5 46.5 -24.5s33.5 -12.167 51.5 -15.5s37 -5 57 -5c32 0 58.167 4.5 78.5 13.5s35.333 22.833 45 41.5s14.5 42.667 14.5 72v84l39 -5
c-4.66699 -22 -16 -41.833 -34 -59.5s-40.5 -31.667 -67.5 -42s-55.167 -15.5 -84.5 -15.5c-48 0 -90.333 10.833 -127 32.5s-65.667 51.834 -87 90.501s-32 84 -32 136c0 54 10.5 101.5 31.5 142.5s49.5 73.167 85.5 96.5s77.333 35 124 35c20 0 39 -2 57 -6
s34.833 -9.66699 50.5 -17s29.5 -16.166 41.5 -26.499s21.833 -21.5 29.5 -33.5s12.834 -24.667 15.501 -38l-38 -9l9 119h174v-484c0 -44.667 -6.66699 -84.167 -20 -118.5s-32.833 -63.5 -58.5 -87.5s-56.667 -42.167 -93 -54.5s-77.5 -18.5 -123.5 -18.5z
M321.999 146.998c22.667 0 42 5 58 15s28.333 24 37 42s13 39.667 13 65s-4.33301 47.166 -13 65.499s-21 32.333 -37 42s-35.333 14.5 -58 14.5s-42 -4.83301 -58 -14.5s-28.167 -23.667 -36.5 -42s-12.5 -40.166 -12.5 -65.499s4.16699 -47 12.5 -65s20.5 -32 36.5 -42
s35.333 -15 58 -15z" />
    <glyph glyph-name="h" unicode="h" horiz-adv-x="653" 
d="M70 0l0.000976562 740h182v-315l-38 -12c6.66699 25.333 19.667 47.833 39 67.5s42.333 35.167 69 46.5s54.667 17 84 17c40 0 73.833 -8.16699 101.5 -24.5s48.667 -40.666 63 -72.999s21.5 -71.833 21.5 -118.5v-328h-186v313c0 17.333 -2.66699 31.833 -8 43.5
s-13.333 20.5 -24 26.5s-23.334 8.66699 -38.001 8c-11.333 0 -21.833 -1.66699 -31.5 -5s-18.167 -8.5 -25.5 -15.5s-12.833 -14.833 -16.5 -23.5s-5.5 -18.334 -5.5 -29.001v-318h-93h-57.5h-36.5z" />
    <glyph glyph-name="i" unicode="i" horiz-adv-x="338" 
d="M76 0v533h186v-533h-186zM169 634c-34 0 -60.333 7.83301 -79 23.5s-28 37.834 -28 66.501c0 26.667 9.5 48.5 28.5 65.5s45.167 25.5 78.5 25.5s59.5 -7.83301 78.5 -23.5s28.5 -38.167 28.5 -67.5c0 -26.667 -9.66699 -48.334 -29 -65.001s-45.333 -25 -78 -25z" />
    <glyph glyph-name="j" unicode="j" horiz-adv-x="338" 
d="M29 -215l-71.002 143.999c32.667 0 57.834 3.66699 75.501 11s29.834 20.333 36.501 39s10 45.334 10 80.001v474h186v-518c0 -55.333 -8.83301 -99.833 -26.5 -133.5s-44 -58.167 -79 -73.5s-78.833 -23 -131.5 -23zM175.998 633.999c-34 0 -60.333 7.83301 -79 23.5
s-28 37.834 -28 66.501c0 26.667 9.5 48.5 28.5 65.5s45.167 25.5 78.5 25.5s59.5 -7.83301 78.5 -23.5s28.5 -38.167 28.5 -67.5c0 -26.667 -9.66699 -48.334 -29 -65.001s-45.333 -25 -78 -25z" />
    <glyph glyph-name="k" unicode="k" horiz-adv-x="652" 
d="M252 152l-84 124l247 257h243zM70 0v740h187v-740h-187zM433 0l-182 248l131 96l266 -344h-215z" />
    <glyph glyph-name="l" unicode="l" horiz-adv-x="328" 
d="M71 0v740h186v-740h-186z" />
    <glyph glyph-name="m" unicode="m" horiz-adv-x="981" 
d="M70 0l0.000976562 533.003h174l7 -88l-23 4c9.33301 17.333 20.333 32 33 44s26.667 21.833 42 29.5s31 13.167 47 16.5s31.333 5 46 5c24.667 0 47.5 -3.5 68.5 -10.5s39.667 -18.833 56 -35.5s29.833 -40 40.5 -70l-29 2l8 14c10 17.333 21.833 32 35.5 44
s28.834 22.333 45.501 31s33.834 15 51.501 19s34.5 6 50.5 6c43.333 0 79.666 -8.33301 108.999 -25s51.333 -41.167 66 -73.5s22 -71.833 22 -118.5v-327h-186v312c0 17.333 -2.66699 31.833 -8 43.5s-13 20.5 -23 26.5s-22.333 9 -37 9
c-11.333 0 -21.833 -1.83301 -31.5 -5.5s-17.834 -9 -24.501 -16s-12 -14.667 -16 -23s-6 -18.166 -6 -29.499v-317h-186v313c0 16.667 -2.66699 30.667 -8 42s-13 20.166 -23 26.499s-22.333 9.5 -37 9.5c-11.333 0 -21.833 -1.83301 -31.5 -5.5
s-17.834 -8.83398 -24.501 -15.501s-12 -14.334 -16 -23.001s-6 -18.334 -6 -29.001v-318h-186z" />
    <glyph glyph-name="n" unicode="n" horiz-adv-x="653" 
d="M70 0l0.000976562 533h174l8 -108l-38 -12c6.66699 25.333 19.667 47.833 39 67.5s42.333 35.167 69 46.5s54.667 17 84 17c40 0 73.833 -8.16699 101.5 -24.5s48.667 -40.666 63 -72.999s21.5 -71.833 21.5 -118.5v-328h-186v313c0 17.333 -2.66699 31.833 -8 43.5
s-13.333 20.5 -24 26.5s-23.334 8.66699 -38.001 8c-11.333 0 -21.833 -1.66699 -31.5 -5s-18.167 -8.5 -25.5 -15.5s-12.833 -14.833 -16.5 -23.5s-5.5 -18.334 -5.5 -29.001v-318h-93h-57.5h-36.5z" />
    <glyph glyph-name="o" unicode="o" horiz-adv-x="652" 
d="M327 -10c-56.667 0 -107.334 12 -152.001 36s-79.667 56.667 -105 98s-38 89 -38 143s12.667 101.667 38 143s60.333 74 105 98s95.334 36 152.001 36s107.167 -12 151.5 -36s79.166 -56.667 104.499 -98s38 -89 38 -143s-12.667 -101.667 -38 -143
s-60.166 -74 -104.499 -98s-94.833 -36 -151.5 -36zM327 147c20 0 38.167 5.16504 54.5 15.498s29 24.666 38 42.999s13.5 38.833 13.5 61.5c0 24 -4.5 45 -13.5 63s-21.667 32.167 -38 42.5s-34.5 15.5 -54.5 15.5c-20.667 0 -39 -5.16699 -55 -15.5
s-28.667 -24.666 -38 -42.999s-14 -39.166 -14 -62.499c0 -22.667 4.66699 -43.167 14 -61.5s22 -32.666 38 -42.999s34.333 -15.5 55 -15.5z" />
    <glyph glyph-name="p" unicode="p" horiz-adv-x="671" 
d="M70 -220l-0.00195312 753.001h174l9 -118l-36 9c4 22.667 15.167 43 33.5 61s41.166 32.333 68.499 43s57 16 89 16c44.667 0 84.334 -11.833 119.001 -35.5s62 -56.167 82 -97.5s30 -89.333 30 -144c0 -53.333 -10 -100.833 -30 -142.5s-47.667 -74.334 -83 -98.001
s-75.666 -35.5 -120.999 -35.5c-30 0 -58.5 5.5 -85.5 16.5s-49.667 26 -68 45s-30.166 40.5 -35.499 64.5l42 14v-351h-188zM354.998 144.001c21.333 0 39.666 5.00098 54.999 15.001s27 24.167 35 42.5s12 40.166 12 65.499c0 26 -4 48.167 -12 66.5
s-19.667 32.5 -35 42.5s-33.666 15 -54.999 15s-39.666 -4.83301 -54.999 -14.5s-27 -23.834 -35 -42.501s-12 -41 -12 -67c0 -25.333 4 -47.166 12 -65.499s19.667 -32.5 35 -42.5s33.666 -15 54.999 -15z" />
    <glyph glyph-name="q" unicode="q" horiz-adv-x="671" 
d="M413 -220l-0.00195312 349.999l41 -12c-3.33301 -17.333 -10.666 -33.833 -21.999 -49.5s-25.5 -29.167 -42.5 -40.5s-36 -20.333 -57 -27s-42.833 -10 -65.5 -10c-45.333 0 -85.666 11.833 -120.999 35.5s-63.166 56.167 -83.499 97.5s-30.5 89 -30.5 143
c0 54.667 10 102.667 30 144s47.333 73.833 82 97.5s74.334 35.5 119.001 35.5c24.667 0 48.167 -3.16699 70.5 -9.5s42.166 -15.166 59.499 -26.499s31.666 -24.5 42.999 -39.5s18.333 -31.167 21 -48.5l-39 -8l9 121h173v-753h-187zM315.998 143.999
c21.333 0 39.666 4.83398 54.999 14.501s27 23.667 35 42s12 40.5 12 66.5s-4 48.333 -12 67s-19.667 32.834 -35 42.501s-33.666 14.5 -54.999 14.5s-39.666 -4.83301 -54.999 -14.5s-27 -23.834 -35 -42.501s-12 -41 -12 -67c0 -25.333 4 -47.333 12 -66
s19.667 -32.834 35 -42.501s33.666 -14.5 54.999 -14.5z" />
    <glyph glyph-name="r" unicode="r" horiz-adv-x="478" 
d="M70 0l-0.00195312 532.999h174l10 -175l-39 30c8.66699 29.333 22.167 55.833 40.5 79.5s40.5 42.334 66.5 56.001s53.333 20.5 82 20.5c12 0 23.333 -0.833008 34 -2.5s20.667 -3.83398 30 -6.50098l-51 -206c-7.33301 4.66699 -17.666 8.83398 -30.999 12.501
s-27.666 5.5 -42.999 5.5c-13.333 0 -25.333 -2.16699 -36 -6.5s-19.667 -10.5 -27 -18.5s-13 -17.5 -17 -28.5s-6 -23.833 -6 -38.5v-255h-187z" />
    <glyph glyph-name="s" unicode="s" horiz-adv-x="502" 
d="M252 -10c-55.333 0 -103.999 8.66797 -145.999 26.001s-74.667 39.666 -98 66.999l109 94c21.333 -19.333 45.5 -33.666 72.5 -42.999s50.833 -14 71.5 -14c7.33301 0 14 0.666992 20 2s10.833 3.5 14.5 6.5s6.66699 6.33301 9 10s3.5 7.83398 3.5 12.501
c0 11.333 -5.66699 20 -17 26c-6 2.66699 -15.833 6.16699 -29.5 10.5s-31.834 9.16602 -54.501 14.499c-28 7.33301 -53 16.166 -75 26.499s-40.667 22.5 -56 36.5c-14.667 14 -26.167 30.167 -34.5 48.5s-12.5 38.5 -12.5 60.5c0 26.667 6 50.334 18 71.001
s28.667 38.5 50 53.5s45.333 26.333 72 34s54 11.5 82 11.5c31.333 0 60.833 -3.16699 88.5 -9.5s53.667 -15.333 78 -27s46.166 -25.834 65.499 -42.501l-96 -106c-11.333 10 -24.5 19.333 -39.5 28s-30.5 15.834 -46.5 21.501s-31 8.5 -45 8.5
c-8.66699 0 -16 -0.666992 -22 -2s-11 -3.33301 -15 -6s-7 -6 -9 -10s-3 -8.33301 -3 -13c0 -6 1.66699 -11.667 5 -17s8.66602 -9.66602 15.999 -12.999c6 -3.33301 16.167 -7.5 30.5 -12.5s35.166 -11.167 62.499 -18.5c30.667 -8.66699 57.334 -18.667 80.001 -30
s41 -24.333 55 -39c10 -11.333 17.667 -23.833 23 -37.5s8 -28.834 8 -45.501c0 -35.333 -10.167 -66.833 -30.5 -94.5s-48.166 -49.334 -83.499 -65.001s-75.666 -23.5 -120.999 -23.5z" />
    <glyph glyph-name="t" unicode="t" horiz-adv-x="405" 
d="M105 0v668h186v-668h-186zM17 375v158h367v-158h-367z" />
    <glyph glyph-name="u" unicode="u" horiz-adv-x="658" 
d="M250 -11c-40 0 -74.001 8.5 -102.001 25.5s-49.333 41.5 -64 73.5s-22 70.667 -22 116v329h186v-310c0 -17.333 3 -32 9 -44s14.333 -21.167 25 -27.5s23.667 -9.5 39 -9.5c12 0 22.833 1.66699 32.5 5s17.834 8.5 24.501 15.5s12 15 16 24s6 18.833 6 29.5v317h186v-533
h-172l-10 108l35 12c-7.33301 -24.667 -20.333 -47 -39 -67s-41 -35.667 -67 -47s-53.667 -17 -83 -17z" />
    <glyph glyph-name="v" unicode="v" horiz-adv-x="620" 
d="M230 0l-222 533h207l119 -398l-48 -1l120 399h206l-233 -533h-149z" />
    <glyph glyph-name="w" unicode="w" horiz-adv-x="849" 
d="M181 0l-173 533h197l86 -323l-21 4l97 251h108l105 -251l-21 -3l85 322h197l-182 -533h-140l-101 262h7l-104 -262h-140z" />
    <glyph glyph-name="x" unicode="x" horiz-adv-x="626" 
d="M388 0l-88 149l-69 97l-204 287h220l82 -138l75 -103l203 -292h-219zM19 0l217 311l98 -116l-96 -195h-219zM384 221l-97 116l94 196h219z" />
    <glyph glyph-name="y" unicode="y" horiz-adv-x="638" 
d="M128 -230l127.999 302l2 -82l-253 543h208l89 -212c7.33301 -16.667 13.833 -33.167 19.5 -49.5s9.83398 -31.833 12.501 -46.5l-21 -16c2.66699 8.66699 6.66699 20.667 12 36l18 53l81 235h209l-231 -533l-93 -230h-181z" />
    <glyph glyph-name="z" unicode="z" horiz-adv-x="580" 
d="M50 0v94l288 362v-71h-288v148h466v-100l-267 -349l-4 64h281v-148h-476z" />
    <glyph glyph-name="braceleft" unicode="{" horiz-adv-x="433" 
d="M362 -208c-35.333 7.33301 -66 16.4971 -92 27.4971s-47.667 24.667 -65 41s-30.333 35.5 -39 57.5s-13 47 -13 75l1 95c0 30.667 -6.66699 52.667 -20 66s-33 20.333 -59 21h-38v150h40c26 0.666992 45.333 7.5 58 20.5s19 35.167 19 66.5l-1 95
c0 54.667 17.167 98.167 51.5 130.5s86.833 55.833 157.5 70.5l42 -135c-21.333 -7.33301 -37.833 -14.166 -49.5 -20.499s-20 -15.333 -25 -27s-7.5 -28.167 -7.5 -49.5l2 -78c0 -38.667 -13.167 -71.167 -39.5 -97.5s-68.833 -46.166 -127.5 -59.499v19
c58.667 -14.667 101.167 -35.167 127.5 -61.5s39.5 -58.5 39.5 -96.5l-2 -78c0 -19.333 2.5 -34.166 7.5 -44.499s13.333 -18.5 25 -24.5s28.167 -12.333 49.5 -19z" />
    <glyph glyph-name="bar" unicode="|" horiz-adv-x="358" 
d="M90 -193v933h177v-933h-177z" />
    <glyph glyph-name="braceright" unicode="}" horiz-adv-x="433" 
d="M72 -208l-43 135.001c21.333 7.33301 38 14.166 50 20.499s20.5 15.333 25.5 27s7.5 28.167 7.5 49.5l-2 78c0 38.667 13.167 71.167 39.5 97.5s68.5 46.166 126.5 59.499v-19c-58 14.667 -100.167 35.167 -126.5 61.5s-39.5 58.5 -39.5 96.5l2 78c0 20 -2.5 35 -7.5 45
s-13.5 18 -25.5 24s-28.667 12.333 -50 19l43 144c34.667 -6.66699 65.167 -15.667 91.5 -27s48 -25.166 65 -41.499s29.833 -35.5 38.5 -57.5s13 -47 13 -75l-1 -95c0 -30.667 6.66699 -52.667 20 -66s33 -20.333 59 -21h39v-150h-41c-26 -0.666992 -45.333 -7.5 -58 -20.5
s-19 -35.167 -19 -66.5l1 -95c0 -54.667 -17 -98.167 -51 -130.5s-86.333 -55.833 -157 -70.5z" />
    <glyph glyph-name="asciitilde" unicode="~" horiz-adv-x="580" 
d="M395 192c-11.333 0 -23.166 1.33301 -35.499 4s-24.5 6.16699 -36.5 10.5s-24.333 9.16602 -37 14.499c-9.33301 4 -19.333 8 -30 12s-20.667 7.5 -30 10.5s-17.333 4.5 -24 4.5c-13.333 0 -23.5 -5.66699 -30.5 -17s-10.5 -27.666 -10.5 -48.999h-133
c0 72 13.333 127.333 40 166s68.667 58 126 58c8 0 16.833 -1.16699 26.5 -3.5s19.167 -5 28.5 -8s18.5 -6.33301 27.5 -10s17.167 -7.16699 24.5 -10.5l25.5 -11c9 -4 17.833 -7.33301 26.5 -10s17 -4 25 -4c11.333 0 20.666 6.16699 27.999 18.5s10.333 27.5 9 45.5
l133 -1c0 -48.667 -5.66699 -89.167 -17 -121.5s-28.5 -56.833 -51.5 -73.5s-51.167 -25 -84.5 -25z" />
    <glyph glyph-name="uni00A0" unicode="&#xa0;" horiz-adv-x="338" 
 />
    <glyph glyph-name="exclamdown" unicode="&#xa1;" horiz-adv-x="343" 
d="M229 268l18 -122.502c6 -42.333 11 -84.666 15 -126.999s6 -83.166 6 -122.499v-83h-196v83c0 39.333 2 80.333 6 123s9 85 15 127l18 122h118zM170 540.998c29.333 0 52.333 -8.33301 69 -25s25 -40.334 25 -71.001c0 -28 -8.66699 -51 -26 -69s-40 -27 -68 -27
c-30 0 -53.167 8.33301 -69.5 25s-24.5 40.334 -24.5 71.001c0 28 8.66699 51 26 69s40 27 68 27z" />
    <glyph glyph-name="cent" unicode="&#xa2;" horiz-adv-x="575" 
d="M333 78c-54.667 0 -103.335 12.001 -146.002 36.001s-76.5 56.833 -101.5 98.5s-37.5 89.167 -37.5 142.5s12.5 100.833 37.5 142.5s58.833 74.5 101.5 98.5s91.334 36 146.001 36c48 0 92.167 -7.66699 132.5 -23s72.5 -37.333 96.5 -66l-101 -120
c-8 9.33301 -17.5 17.833 -28.5 25.5s-23.333 13.667 -37 18s-28.834 6.5 -45.501 6.5c-24 0 -44.833 -5 -62.5 -15s-31.5 -23.833 -41.5 -41.5s-15 -37.834 -15 -60.501s5 -42.667 15 -60s23.667 -31.333 41 -42s38.333 -16 63 -16c16.667 0 31.834 2 45.501 6
s26 9.66699 37 17s20.5 16 28.5 26l101 -121c-24.667 -28 -57.167 -49.667 -97.5 -65s-84.166 -23 -131.499 -23zM275.999 0.000976562v108l35 38v406l-35 54v102h131v-103l-29 -51v-410l29 -37v-107h-131z" />
    <glyph glyph-name="sterling" unicode="&#xa3;" horiz-adv-x="651" 
d="M180 53l-75.002 21.002c13.333 7.33301 25.333 17.833 36 31.5s19 28.334 25 44.001s9 30.5 9 44.5c0 9.33301 -1.33301 20.666 -4 33.999s-6.16699 27.5 -10.5 42.5l-13 43.5c-4.33301 14 -8.5 26.667 -12.5 38c-8 24.667 -14 45 -18 61s-6.83301 29.667 -8.5 41
s-2.5 22.333 -2.5 33c0 46.667 10.667 87.334 32 122.001s51.333 61.5 90 80.5s84.334 28.5 137.001 28.5c48.667 0 90.834 -8.16699 126.501 -24.5s62.167 -39.166 79.5 -68.499l-142 -112c-5.33301 9.33301 -11.666 16.666 -18.999 21.999s-15.5 9.16602 -24.5 11.499
s-18.5 3.5 -28.5 3.5c-16.667 0 -31.334 -3.33301 -44.001 -10s-22.667 -16.167 -30 -28.5s-11 -26.5 -11 -42.5c0 -20.667 2.5 -40.334 7.5 -59.001s10.833 -37.667 17.5 -57c7.33301 -24.667 13.5 -47.667 18.5 -69s7.5 -39 7.5 -53c0 -20.667 -4.5 -40.334 -13.5 -59.001
s-23.833 -37.667 -44.5 -57s-49 -40 -85 -62zM458.998 -20.998c-26.667 0 -51.999 3 -75.999 9s-43.333 11.333 -58 16l-30 9c-11.333 3.33301 -23.333 6.33301 -36 9s-26 4 -40 4c-22.667 0 -45 -3.66699 -67 -11s-45.333 -17 -70 -29l-65 133
c30.667 18.667 63.5 33.667 98.5 45s70.5 17 106.5 17c21.333 0 40.166 -1.66699 56.499 -5s38.833 -10 67.5 -20c14 -4.66699 29.5 -9.5 46.5 -14.5s35.833 -7.5 56.5 -7.5c13.333 0 29 2.83301 47 8.5s37 14.5 57 26.5l82 -124c-24.667 -22 -53.5 -38.5 -86.5 -49.5
s-62.833 -16.5 -89.5 -16.5zM43.999 295.002v97h433v-97h-433z" />
    <glyph glyph-name="currency" unicode="&#xa4;" horiz-adv-x="565" 
d="M283 104c-42.667 0 -80.834 8.66699 -114.501 26s-60 41.333 -79 72s-28.5 65.667 -28.5 105s9.5 74.333 28.5 105s45.333 54.667 79 72s71.834 26 114.501 26s80.5 -8.66699 113.5 -26s59.167 -41.333 78.5 -72s29 -65.667 29 -105s-9.66699 -74.333 -29 -105
s-45.5 -54.667 -78.5 -72s-70.833 -26 -113.5 -26zM131 50l-111 113l84 85l110 -115zM96 376l-78 77l112 111l81 -80zM283 235c13.333 0 25.166 3 35.499 9s18.166 14.5 23.499 25.5s8 23.5 8 37.5c0 14.667 -2.66699 27.5 -8 38.5s-13.166 19.5 -23.499 25.5
s-22.166 9 -35.499 9s-25.166 -3 -35.499 -9s-18.5 -14.5 -24.5 -25.5s-9 -23.833 -9 -38.5c0 -14 3 -26.5 9 -37.5s14.167 -19.5 24.5 -25.5s22.166 -9 35.499 -9zM438 52l-83 82l109 114l86 -84zM459 362l-112 111l91 93l112 -112z" />
    <glyph glyph-name="yen" unicode="&#xa5;" horiz-adv-x="702" 
d="M261 0v349l7 -49l-283 400h222l216 -310l-117 3l195 307h216l-271 -411l15 68v-357h-200zM140 138v65l445 -1v-64h-445zM140 253v65l445 -1v-64h-445z" />
    <glyph glyph-name="brokenbar" unicode="&#xa6;" horiz-adv-x="362" 
d="M91 -202v392h180v-392h-180zM91 349v391h180v-391h-180z" />
    <glyph glyph-name="section" unicode="&#xa7;" horiz-adv-x="586" 
d="M360 134l-52.9971 87.999c16 2 29.167 5.33301 39.5 10s18.166 10.667 23.499 18s8 15.333 8 24c0 11.333 -4.33301 20.5 -13 27.5s-22.334 14.5 -41.001 22.5l-65 26c-27.333 12 -52.333 24.5 -75 37.5s-42.167 27.167 -58.5 42.5s-29 33 -38 53s-13.5 43 -13.5 69
c0 22 4.5 43 13.5 63s23.167 37.833 42.5 53.5s44.166 27.834 74.499 36.501s66.833 13 109.5 13c35.333 0 68 -3.83301 98 -11.5s56.667 -18.334 80 -32.001s43 -29.5 59 -47.5l-95 -101c-19.333 16.667 -37.5 29.334 -54.5 38.001s-32.833 14.667 -47.5 18s-28 5 -40 5
c-20.667 0 -36.167 -3.66699 -46.5 -11s-15.5 -16.666 -15.5 -27.999c0 -10.667 3.66699 -19.5 11 -26.5s17 -13.333 29 -19l38 -17.5l82 -33c47.333 -20 82.666 -43.333 105.999 -70s35 -58.667 35 -96c-0.666992 -27.333 -8.66699 -51.833 -24 -73.5
s-37.166 -39.334 -65.499 -53.001s-62.833 -22.167 -103.5 -25.5zM269.003 -146.001c-35.333 0 -68.502 4.00293 -99.502 12.0029s-58.667 19.167 -83 33.5s-44.5 30.166 -60.5 47.499l93 103c30.667 -25.333 58.5 -42.5 83.5 -51.5s46.833 -13.5 65.5 -13.5
c22 0 38.167 3.5 48.5 10.5s15.5 17.5 15.5 31.5c0 9.33301 -4.5 17.666 -13.5 24.999s-20.333 14.166 -34 20.499s-28.5 12.833 -44.5 19.5l-72 28c-46.667 19.333 -81.5 42.5 -104.5 69.5s-34.5 58.833 -34.5 95.5c0 27.333 7.5 51.833 22.5 73.5s36.667 39.667 65 54
s62.5 22.833 102.5 25.5l53 -90c-14.667 -1.33301 -27 -4.33301 -37 -9s-17.333 -10.5 -22 -17.5s-7 -15.167 -7 -24.5c0 -11.333 4.5 -20.833 13.5 -28.5s23.167 -15.5 42.5 -23.5l59 -23c39.333 -16.667 73 -33.334 101 -50.001s49.667 -36.167 65 -58.5
s23 -50.166 23 -83.499c0 -32 -8.16699 -61.333 -24.5 -88s-42.166 -48 -77.499 -64s-81.666 -24 -138.999 -24z" />
    <glyph glyph-name="dieresis" unicode="&#xa8;" horiz-adv-x="500" 
d="M380 619c-30.667 0 -54.167 8.16699 -70.5 24.5s-24.5 39.5 -24.5 69.5c0 27.333 8.5 49.833 25.5 67.5s40.167 26.5 69.5 26.5c30 0 53.333 -8 70 -24s25 -39.333 25 -70c0 -28 -8.5 -50.667 -25.5 -68s-40.167 -26 -69.5 -26zM121 619
c-30.667 0 -54.167 8.16699 -70.5 24.5s-24.5 39.5 -24.5 69.5c0 27.333 8.5 49.833 25.5 67.5s40.167 26.5 69.5 26.5c30 0 53.333 -8 70 -24s25 -39.333 25 -70c0 -28 -8.5 -50.667 -25.5 -68s-40.167 -26 -69.5 -26z" />
    <glyph glyph-name="copyright" unicode="&#xa9;" horiz-adv-x="793" 
d="M395 -24c-52 0 -100.5 9.66699 -145.5 29s-84.667 46 -119 80s-61 73.667 -80 119s-28.5 94 -28.5 146s9.5 100.667 28.5 146s45.667 85 80 119s74 60.667 119 80s93.5 29 145.5 29s100.5 -9.66699 145.5 -29s84.833 -46 119.5 -80s61.5 -73.667 80.5 -119
s28.5 -94 28.5 -146s-9.5 -100.667 -28.5 -146s-45.833 -85 -80.5 -119s-74.5 -60.667 -119.5 -80s-93.5 -29 -145.5 -29zM410 144c-39.333 0 -74.834 9.00098 -106.501 27.001s-57 42.333 -76 73s-28.5 65.667 -28.5 105c0 38 9.5 72.833 28.5 104.5
s44.333 56.834 76 75.501s67.167 28 106.5 28c24.667 0 48.334 -4.16699 71.001 -12.5s45 -20.833 67 -37.5l-54 -118c-8 6 -16 10.833 -24 14.5s-15.5 6.33398 -22.5 8.00098s-13.5 2.5 -19.5 2.5c-14 0 -26 -3 -36 -9s-18 -13.667 -24 -23s-9 -20.333 -9 -33
s3 -23.834 9 -33.501s14 -17.334 24 -23.001s22 -8.5 36 -8.5c9.33301 0 20 1.66699 32 5s24 9.66602 36 18.999l56 -120c-21.333 -14.667 -44 -25.667 -68 -33s-48.667 -11 -74 -11zM394.999 50.001c42 0 81.167 7.83301 117.5 23.5s68.166 37.167 95.499 64.5
s48.666 59.166 63.999 95.499s23 75.166 23 116.499s-7.66699 80.333 -23 117s-36.666 68.5 -63.999 95.5s-59.166 48.333 -95.499 64s-75.5 23.5 -117.5 23.5c-41.333 0 -80.166 -7.83301 -116.499 -23.5s-68.166 -37 -95.499 -64s-48.666 -58.833 -63.999 -95.5
s-23 -75.667 -23 -117s7.66699 -80.166 23 -116.499s36.666 -68.166 63.999 -95.499s59.166 -48.833 95.499 -64.5s75.166 -23.5 116.499 -23.5z" />
    <glyph glyph-name="ordfeminine" unicode="&#xaa;" horiz-adv-x="402" 
d="M138 390c-24 0 -45.001 7.16602 -63.001 21.499s-31.833 34.5 -41.5 60.5s-14.5 56 -14.5 90c0 30.667 5.66699 58 17 82s26.833 43 46.5 57s42.167 21 67.5 21c38.667 0 66.834 -10.5 84.501 -31.5s26.5 -51.167 26.5 -90.5l-23 48v67h126v-314h-126v73l23 30
c0 -19.333 -4.66699 -37.666 -14 -54.999s-23 -31.5 -41 -42.5s-40.667 -16.5 -68 -16.5zM191.999 490.999c9.33301 0 17.833 2.83301 25.5 8.5s13.667 13.5 18 23.5s6.5 21.333 6.5 34c0 20 -4.5 35.667 -13.5 47s-21.5 17 -37.5 17c-9.33301 0 -17.5 -2.83301 -24.5 -8.5
s-12.5 -13.167 -16.5 -22.5s-6 -19.333 -6 -30c0 -14.667 1.83301 -27 5.5 -37s9 -17.833 16 -23.5s15.833 -8.5 26.5 -8.5z" />
    <glyph glyph-name="guillemotleft" unicode="&#xab;" horiz-adv-x="597" 
d="M456 16l-183 234v17l183 235l105 -72l-124 -193v44l124 -193zM193 16l-183 234v17l183 235l105 -72l-124 -193v44l124 -193z" />
    <glyph glyph-name="logicalnot" unicode="&#xac;" horiz-adv-x="670" 
d="M461 100v219l85 -56h-508v158h594v-321h-171z" />
    <glyph glyph-name="uni00AD" unicode="&#xad;" horiz-adv-x="481" 
d="M59 204v167h371v-167h-371z" />
    <glyph glyph-name="registered" unicode="&#xae;" horiz-adv-x="507" 
d="M260 226c-48.667 0 -93.0039 11.5 -133.004 34.5s-71.667 54 -95 93s-35 82.5 -35 130.5c0 36 6.83301 69.667 20.5 101s32.5 58.666 56.5 81.999s51.833 41.666 83.5 54.999s65.834 20 102.501 20c34.667 0 67.334 -6.66699 98.001 -20s57.667 -31.833 81 -55.5
s41.666 -51 54.999 -82s20 -64.5 20 -100.5s-6.66699 -69.667 -20 -101s-31.666 -58.666 -54.999 -81.999s-50.166 -41.666 -80.499 -54.999s-63.166 -20 -98.499 -20zM259.996 290c34.667 0 66.334 8.66797 95.001 26.001s51.667 40.666 69 69.999s26 62 26 98
s-8.66699 68.667 -26 98s-40.333 52.833 -69 70.5s-60.334 26.5 -95.001 26.5c-36.667 0 -70.167 -8.83301 -100.5 -26.5s-54.5 -41.167 -72.5 -70.5s-27 -62 -27 -98c0 -36.667 9 -69.667 27 -99s42.167 -52.5 72.5 -69.5s63.833 -25.5 100.5 -25.5zM293.996 367.001
l-37 83l74 19l60 -102h-97zM152.996 367.001v238.999h127c26.667 0 48.334 -7.16699 65.001 -21.5s25 -33.166 25 -56.499s-8.83301 -42.333 -26.5 -57s-38.834 -22 -63.501 -22h-49l12 13v-95h-90zM242.996 495l-12 7h29c6 0 11.167 1.66699 15.5 5s6.5 8 6.5 14
s-1.83301 10.5 -5.5 13.5s-8.5 4.5 -14.5 4.5h-31l12 8v-52z" />
    <glyph glyph-name="macron" unicode="&#xaf;" horiz-adv-x="424" 
d="M71 630v113h358v-113h-358z" />
    <glyph glyph-name="degree" unicode="&#xb0;" horiz-adv-x="532" 
d="M266 391c-32 0 -61.1689 7.16699 -87.502 21.5s-47.166 33.833 -62.499 58.5s-23 52 -23 82c0 30.667 7.66699 58.5 23 83.5s35.833 44.667 61.5 59s55.167 21.5 88.5 21.5s62.833 -7.16699 88.5 -21.5s46.167 -34 61.5 -59s23 -52.5 23 -82.5s-7.66699 -57.5 -23 -82.5
s-36.166 -44.667 -62.499 -59s-55.5 -21.5 -87.5 -21.5zM265.998 499c9.33301 0 17.8311 2.5 25.498 7.5s13.834 11.667 18.501 20s7 17.5 7 27.5s-2.33301 19.167 -7 27.5s-10.667 14.833 -18 19.5s-16 7 -26 7s-18.833 -2.5 -26.5 -7.5s-13.667 -11.667 -18 -20
s-6.5 -17.5 -6.5 -27.5s2.33301 -19.167 7 -27.5s10.834 -14.833 18.501 -19.5s16.167 -7 25.5 -7z" />
    <glyph glyph-name="plusminus" unicode="&#xb1;" horiz-adv-x="667" 
d="M75 325v148h514v-148h-514zM77 -8v148h515v-148h-515zM247 202v393h171v-393h-171z" />
    <glyph glyph-name="uni00B2" unicode="&#xb2;" horiz-adv-x="373" 
d="M58 418l-14.999 88.999l104 76c12 8.66699 23.167 17.667 33.5 27s18.666 18.833 24.999 28.5s9.5 18.834 9.5 27.501c0 8 -2 14.5 -6 19.5s-10 7.5 -18 7.5c-14 0 -26.667 -5.5 -38 -16.5s-20.666 -22.833 -27.999 -35.5l-89 63c15.333 21.333 31.333 39.333 48 54
s34.5 25.667 53.5 33s40.167 11 63.5 11c27.333 0 51.166 -5.16699 71.499 -15.5s36 -24 47 -41s16.5 -35.833 16.5 -56.5c0 -30 -7 -55.833 -21 -77.5s-31.833 -40 -53.5 -55s-43.5 -28.833 -65.5 -41.5l-48 -29l1 32h199v-100h-290z" />
    <glyph glyph-name="uni00B3" unicode="&#xb3;" horiz-adv-x="362" 
d="M182 412c-21.333 0 -40.333 1.16797 -57 3.50098s-32.667 6 -48 11s-32.333 11.5 -51 19.5l51 88c10.667 -5.33301 22.167 -9.83301 34.5 -13.5s25.166 -5.5 38.499 -5.5s24.333 3.16699 33 9.5s13 14.166 13 23.499c0 8 -3.83301 14.667 -11.5 20s-18.834 8 -33.501 8
c-9.33301 0 -18.666 -0.833008 -27.999 -2.5s-18.666 -3.83398 -27.999 -6.50098l-24 63l161 104l3 -38h-178v100h232l11 -92l-129 -88l-2 6c8.66699 5.33301 17.5 9.33301 26.5 12s16.5 4 22.5 4c28 0 52.167 -9.5 72.5 -28.5s30.5 -43.833 30.5 -74.5
c0 -24.667 -6.5 -46.167 -19.5 -64.5s-30 -32.666 -51 -42.999s-43.833 -15.5 -68.5 -15.5z" />
    <glyph glyph-name="acute" unicode="&#xb4;" horiz-adv-x="500" 
d="M168 573l-54 82l195 149l77 -114z" />
    <glyph glyph-name="uni00B5" unicode="&#xb5;" horiz-adv-x="663" 
d="M72 -164l-0.000976562 696.997h185v-311c0 -17.333 2.66699 -32 8 -44s13.333 -21 24 -27s23.334 -9 38.001 -9c12 0 22.833 1.83301 32.5 5.5s18 9 25 16s12.5 15.167 16.5 24.5s6 19.333 6 30v315h185v-533h-171l-9 93l19 -7
c-16 -23.333 -31.833 -41.666 -47.5 -54.999s-33.167 -23.166 -52.5 -29.499s-42.333 -10.833 -69 -13.5c-5.33301 0 -10 0.333008 -14 1s-7.5 1.83398 -10.5 3.50098s-5.16699 3.16699 -6.5 4.5l18 71l8 -232h-185z" />
    <glyph glyph-name="paragraph" unicode="&#xb6;" horiz-adv-x="786" 
d="M248 0l-0.00195312 313.999l57 -43h-76c-36 0 -68.167 9.16699 -96.5 27.5s-50.666 43.333 -66.999 75s-24.5 67.834 -24.5 108.501c0 44 9.33301 82.333 28 115s44.834 58 78.501 76s73.167 27 118.5 27h437v-700h-191v660l66 -64h-233l94 56v-652h-191z" />
    <glyph glyph-name="periodcentered" unicode="&#xb7;" horiz-adv-x="270" 
d="M135 253c-30 0 -53.167 8.33301 -69.5 25s-24.5 40.334 -24.5 71.001c0 28 8.66699 51 26 69s40 27 68 27c29.333 0 52.333 -8.33301 69 -25s25 -40.334 25 -71.001c0 -28 -8.66699 -51 -26 -69s-40 -27 -68 -27z" />
    <glyph glyph-name="cedilla" unicode="&#xb8;" horiz-adv-x="500" 
d="M148 -246l-9.99902 84.001c12.667 0 26 1.33301 40 4s25.833 6.66699 35.5 12s14.5 11.666 14.5 18.999c0 6.66699 -3 12.334 -9 17.001s-13.667 8 -23 10s-19.333 3 -30 3l-20 15l68 106h92l-47 -65c35.333 -3.33301 61.5 -14.333 78.5 -33s25.5 -40.334 25.5 -65.001
c0 -22 -6.66699 -40 -20 -54s-30.833 -25.167 -52.5 -33.5s-44.834 -13.833 -69.501 -16.5s-49 -3.66699 -73 -3z" />
    <glyph glyph-name="uni00B9" unicode="&#xb9;" horiz-adv-x="295" 
d="M111 431v299l23 -51l-67 -40l-51 91l127 74h100v-373h-66h-32h-34z" />
    <glyph glyph-name="ordmasculine" unicode="&#xba;" horiz-adv-x="421" 
d="M209 393c-33.333 0 -62.834 7.00293 -88.501 21.0029s-46 33.167 -61 57.5s-22.5 52.166 -22.5 83.499s7.5 59.166 22.5 83.499s35.333 43.833 61 58.5s55.167 22 88.5 22c32.667 0 62.334 -7.33301 89.001 -22s47.667 -34.334 63 -59.001s23 -52.334 23 -83.001
c0 -31.333 -7.5 -59.166 -22.5 -83.499s-35.833 -43.5 -62.5 -57.5s-56.667 -21 -90 -21zM207.999 484.003c10.667 0 19.499 3 26.499 9s12.5 14.667 16.5 26s6 24 6 38c0 14.667 -1.83301 27.167 -5.5 37.5s-9.16699 18.333 -16.5 24s-16.333 8.5 -27 8.5
c-9.33301 0 -17.666 -3 -24.999 -9s-13 -14.333 -17 -25s-6 -22.667 -6 -36c0 -14.667 2 -27.5 6 -38.5s9.5 -19.5 16.5 -25.5s15.5 -9 25.5 -9z" />
    <glyph glyph-name="guillemotright" unicode="&#xbb;" horiz-adv-x="598" 
d="M405 19l-105 72l124 193v-44l-124 193l104 72l184 -234v-17zM141 19l-105 72l124 193v-44l-124 193l104 72l184 -234v-17z" />
    <glyph glyph-name="onequarter" unicode="&#xbc;" horiz-adv-x="833" 
d="M120 361v299l23 -51l-67 -40l-51 91l127 74h100v-373h-66h-32h-34zM79 0l467 700h165l-468 -700h-164zM728 164h73v-100h-73v100zM536 130l-16 34h148l-40 -41v159l29 -11zM744 0h-141v104l39 -40h-187l-21 85l186 226h124v-375z" />
    <glyph glyph-name="onehalf" unicode="&#xbd;" horiz-adv-x="846" 
d="M120 361v299l23 -51l-67 -40l-51 91l127 74h100v-373h-66h-32h-34zM79 0l467 700h165l-468 -700h-164zM517 0l-14.999 88.999l104 76c12 8.66699 23.167 17.667 33.5 27s18.666 18.833 24.999 28.5s9.5 18.834 9.5 27.501c0 8 -2 14.5 -6 19.5s-10 7.5 -18 7.5
c-14 0 -26.667 -5.5 -38 -16.5s-20.666 -22.833 -27.999 -35.5l-89 63c15.333 21.333 31.333 39.333 48 54s34.5 25.667 53.5 33s40.167 11 63.5 11c27.333 0 51.166 -5.16699 71.499 -15.5s36 -24 47 -41s16.5 -35.833 16.5 -56.5c0 -30 -7 -55.833 -21 -77.5
s-31.833 -40 -53.5 -55s-43.5 -28.833 -65.5 -41.5l-48 -29l1 32h199v-100h-290z" />
    <glyph glyph-name="threequarters" unicode="&#xbe;" horiz-adv-x="876" 
d="M180 342c-21.333 0 -40.333 1.16797 -57 3.50098s-32.667 6 -48 11s-32.333 11.5 -51 19.5l51 88c10.667 -5.33301 22.167 -9.83301 34.5 -13.5s25.166 -5.5 38.499 -5.5s24.333 3.16699 33 9.5s13 14.166 13 23.499c0 8 -3.83301 14.667 -11.5 20s-18.834 8 -33.501 8
c-9.33301 0 -18.666 -0.833008 -27.999 -2.5s-18.666 -3.83398 -27.999 -6.50098l-24 63l161 104l3 -38h-178v100h232l11 -92l-129 -88l-2 6c8.66699 5.33301 17.5 9.33301 26.5 12s16.5 4 22.5 4c28 0 52.167 -9.5 72.5 -28.5s30.5 -43.833 30.5 -74.5
c0 -24.667 -6.5 -46.167 -19.5 -64.5s-30 -32.666 -51 -42.999s-43.833 -15.5 -68.5 -15.5zM124 0.000976562l467 700h165l-468 -700h-164zM771 164.001h73v-100h-73v100zM579 130.001l-16 34h148l-40 -41v159l29 -11zM787 0.000976562h-141v104l39 -40h-187l-21 85l186 226
h124v-375z" />
    <glyph glyph-name="questiondown" unicode="&#xbf;" horiz-adv-x="547" 
d="M335 281l34.999 -125.999c-16.667 -4 -33 -8.66699 -49 -14s-31 -11.333 -45 -18s-26.5 -14.334 -37.5 -23.001s-19.5 -18.334 -25.5 -29.001s-9 -22.667 -9 -36c0 -10 2.33301 -18.667 7 -26s11.334 -13 20.001 -17s18.667 -6 30 -6c20.667 0 41.167 7.16699 61.5 21.5
s40.166 39.5 59.499 75.5l125 -119c-31.333 -47.333 -68.166 -83.833 -110.499 -109.5s-86.833 -38.5 -133.5 -38.5c-44.667 0 -85 9 -121 27s-64.667 42.833 -86 74.5s-32 66.834 -32 105.501c0 26.667 5.33301 52.5 16 77.5s25.667 48.5 45 70.5s42 41.167 68 57.5
s54.333 28.833 85 37.5l7 15h90zM371.999 449.001c0 -28 -8.83301 -51 -26.5 -69s-40.167 -27 -67.5 -27c-30 0 -53.167 8.33301 -69.5 25s-24.5 40.334 -24.5 71.001c0 28 8.66699 51 26 69s40 27 68 27c29.333 0 52.333 -8.33301 69 -25s25 -40.334 25 -71.001z" />
    <glyph glyph-name="Agrave" unicode="&#xc0;" horiz-adv-x="692" 
d="M-12 0l279 699.999h160l277 -700h-197l-120 325l-18 50l-15 45c-4.66699 14.667 -9.16699 29.667 -13.5 45s-8.16602 32 -11.499 50l32 1c-4 -19.333 -8.16699 -36.666 -12.5 -51.999s-8.83301 -30 -13.5 -44s-9.83398 -28.667 -15.501 -44l-18.5 -51l-120 -325h-193z
M124 115.999l59 140h324l55 -140h-438zM453 743.999l-237 80l58 129l220 -115z" />
    <glyph glyph-name="Aacute" unicode="&#xc1;" horiz-adv-x="692" 
d="M-12 0l279 699.999h160l277 -700h-197l-120 325l-18 50l-15 45c-4.66699 14.667 -9.16699 29.667 -13.5 45s-8.16602 32 -11.499 50l32 1c-4 -19.333 -8.16699 -36.666 -12.5 -51.999s-8.83301 -30 -13.5 -44s-9.83398 -28.667 -15.501 -44l-18.5 -51l-120 -325h-193z
M124 115.999l59 140h324l55 -140h-438zM248 743.999l-40 94l220 115l58 -129z" />
    <glyph glyph-name="Acircumflex" unicode="&#xc2;" horiz-adv-x="692" 
d="M-12 0l279 699.999h160l277 -700h-197l-120 325l-18 50l-15 45c-4.66699 14.667 -9.16699 29.667 -13.5 45s-8.16602 32 -11.499 50l32 1c-4 -19.333 -8.16699 -36.666 -12.5 -51.999s-8.83301 -30 -13.5 -44s-9.83398 -28.667 -15.501 -44l-18.5 -51l-120 -325h-193z
M124 115.999l59 140h324l55 -140h-438zM211 752.999l-55 67l142 109h97l141 -109l-54 -67l-151 74h30z" />
    <glyph glyph-name="Atilde" unicode="&#xc3;" horiz-adv-x="692" 
d="M-12 0l279 699.999h160l277 -700h-197l-120 325l-18 50l-15 45c-4.66699 14.667 -9.16699 29.667 -13.5 45s-8.16602 32 -11.499 50l32 1c-4 -19.333 -8.16699 -36.666 -12.5 -51.999s-8.83301 -30 -13.5 -44s-9.83398 -28.667 -15.501 -44l-18.5 -51l-120 -325h-193z
M124 115.999l59 140h324l55 -140h-438zM424 767.999c-12 0 -24.3311 1.83594 -36.998 5.50293s-27.334 9.16699 -44.001 16.5c-12.667 6 -23 10.5 -31 13.5s-15.333 4.5 -22 4.5c-10 0 -17.667 -3.5 -23 -10.5s-8 -16.5 -8 -28.5h-110c0 47.333 12.167 84.833 36.5 112.5
s56.833 41.5 97.5 41.5c10.667 0 21.5 -1.33301 32.5 -4s26.5 -8.66699 46.5 -18c11.333 -6 20.333 -10.333 27 -13s13 -4 19 -4c8.66699 0 15.167 3.66699 19.5 11s6.16602 16.666 5.49902 27.999h109c0 -28.667 -4.83301 -54.834 -14.5 -78.501
s-23.5 -42.334 -41.5 -56.001s-38.667 -20.5 -62 -20.5z" />
    <glyph glyph-name="Adieresis" unicode="&#xc4;" horiz-adv-x="692" 
d="M-12 0l279 699.999h160l277 -700h-197l-120 325l-18 50l-15 45c-4.66699 14.667 -9.16699 29.667 -13.5 45s-8.16602 32 -11.499 50l32 1c-4 -19.333 -8.16699 -36.666 -12.5 -51.999s-8.83301 -30 -13.5 -44s-9.83398 -28.667 -15.501 -44l-18.5 -51l-120 -325h-193z
M124 115.999l59 140h324l55 -140h-438zM475 751.999c-30 0 -53.167 8.16699 -69.5 24.5s-24.5 39.5 -24.5 69.5c0 26.667 8.33301 49 25 67s39.667 27 69 27c30.667 0 54.167 -8.16699 70.5 -24.5s24.5 -39.5 24.5 -69.5c0 -27.333 -8.33301 -49.833 -25 -67.5
s-40 -26.5 -70 -26.5zM215 751.999c-30 0 -53.167 8.16699 -69.5 24.5s-24.5 39.5 -24.5 69.5c0 26.667 8.33301 49 25 67s39.667 27 69 27c30.667 0 54.167 -8.16699 70.5 -24.5s24.5 -39.5 24.5 -69.5c0 -27.333 -8.33301 -49.833 -25 -67.5s-40 -26.5 -70 -26.5z" />
    <glyph glyph-name="Aring" unicode="&#xc5;" horiz-adv-x="692" 
d="M-12 0l279 699.999h160l277 -700h-197l-120 325l-18 50l-15 45c-4.66699 14.667 -9.16699 29.667 -13.5 45s-8.16602 32 -11.499 50l32 1c-4 -19.333 -8.16699 -36.666 -12.5 -51.999s-8.83301 -30 -13.5 -44s-9.83398 -28.667 -15.501 -44l-18.5 -51l-120 -325h-193z
M124 115.999l59 140h324l55 -140h-438zM346 670.999c-25.333 0 -48.833 6 -70.5 18s-39.167 27.833 -52.5 47.5s-20 41.167 -20 64.5c0 25.333 6.5 48.5 19.5 69.5s30.333 37.833 52 50.5s45.5 19 71.5 19c25.333 0 48.833 -6.33301 70.5 -19s39 -29.5 52 -50.5
s19.5 -44.167 19.5 -69.5c0 -23.333 -6.5 -44.833 -19.5 -64.5s-30.333 -35.5 -52 -47.5s-45.167 -18 -70.5 -18zM346 762.999c10 0 18.667 3.66699 26 11s11 16.333 11 27c0 11.333 -3.66699 20.5 -11 27.5s-16 10.5 -26 10.5s-18.833 -3.66699 -26.5 -11
s-11.5 -16.333 -11.5 -27s3.83301 -19.667 11.5 -27s16.5 -11 26.5 -11z" />
    <glyph glyph-name="AE" unicode="&#xc6;" horiz-adv-x="1123" 
d="M-16 0l488 700h599v-161h-328v-109h283v-152h-283v-117h328v-161h-517v138h-273l104 152h169v268l25 -8l-376 -550h-219z" />
    <glyph glyph-name="Ccedilla" unicode="&#xc7;" horiz-adv-x="701" 
d="M417 -10c-54.667 0 -104.999 9.00391 -150.999 27.0039s-85.833 43.167 -119.5 75.5s-59.667 70.666 -78 114.999s-27.5 93.166 -27.5 146.499c0 52.667 9.5 101.167 28.5 145.5s45.5 82.833 79.5 115.5s74.333 58 121 76s97.667 27 153 27
c33.333 0 65.833 -4.16699 97.5 -12.5s61.5 -20.5 89.5 -36.5s53 -36 75 -60l-119 -138c-11.333 12.667 -24 24 -38 34s-29.833 17.833 -47.5 23.5s-37.167 8.5 -58.5 8.5c-24.667 0 -47.834 -4.16699 -69.501 -12.5s-40.5 -20.5 -56.5 -36.5s-28.5 -35.333 -37.5 -58
s-13.5 -48.667 -13.5 -78c0 -28 4.5 -53.167 13.5 -75.5s22 -41.333 39 -57s37.333 -27.834 61 -36.501s50.167 -13 79.5 -13c20.667 0 40.167 3 58.5 9s35.166 14 50.499 24s29 21 41 33l94 -149c-16.667 -18.667 -39.167 -35.334 -67.5 -50.001
s-59.666 -26.167 -93.999 -34.5s-68.833 -12.5 -103.5 -12.5zM304.001 -245.996l-9.99902 84.001c12.667 0 26 1.33301 40 4s25.833 6.66699 35.5 12s14.5 11.666 14.5 18.999c0 6.66699 -3 12.334 -9 17.001s-13.667 8 -23 10s-19.333 3 -30 3l-20 15l68 106h92l-47 -65
c35.333 -3.33301 61.5 -14.333 78.5 -33s25.5 -40.334 25.5 -65.001c0 -22 -6.66699 -40 -20 -54s-30.833 -25.167 -52.5 -33.5s-44.834 -13.833 -69.501 -16.5s-49 -3.66699 -73 -3z" />
    <glyph glyph-name="Egrave" unicode="&#xc8;" horiz-adv-x="659" 
d="M83 0v700h509v-163h-319v-374h334v-163h-524zM177 278v154h375v-154h-375zM457 744l-237 80l58 129l220 -115z" />
    <glyph glyph-name="Eacute" unicode="&#xc9;" horiz-adv-x="659" 
d="M83 0v700h509v-163h-319v-374h334v-163h-524zM177 278v154h375v-154h-375zM251 744l-40 94l220 115l58 -129z" />
    <glyph glyph-name="Ecircumflex" unicode="&#xca;" horiz-adv-x="659" 
d="M83 0v700h509v-163h-319v-374h334v-163h-524zM177 278v154h375v-154h-375zM214 753l-55 67l142 109h97l141 -109l-54 -67l-151 74h30z" />
    <glyph glyph-name="Edieresis" unicode="&#xcb;" horiz-adv-x="659" 
d="M83 0v700h509v-163h-319v-374h334v-163h-524zM177 278v154h375v-154h-375zM479 752c-30 0 -53.167 8.16699 -69.5 24.5s-24.5 39.5 -24.5 69.5c0 26.667 8.33301 49 25 67s39.667 27 69 27c30.667 0 54.167 -8.16699 70.5 -24.5s24.5 -39.5 24.5 -69.5
c0 -27.333 -8.33301 -49.833 -25 -67.5s-40 -26.5 -70 -26.5zM219 752c-30 0 -53.167 8.16699 -69.5 24.5s-24.5 39.5 -24.5 69.5c0 26.667 8.33301 49 25 67s39.667 27 69 27c30.667 0 54.167 -8.16699 70.5 -24.5s24.5 -39.5 24.5 -69.5
c0 -27.333 -8.33301 -49.833 -25 -67.5s-40 -26.5 -70 -26.5z" />
    <glyph glyph-name="Igrave" unicode="&#xcc;" horiz-adv-x="590" 
d="M74 0v162h122v376h-122v162h441v-162h-121v-376h121v-162h-441zM402 744l-237 80l58 129l220 -115z" />
    <glyph glyph-name="Iacute" unicode="&#xcd;" horiz-adv-x="590" 
d="M74 0v162h122v376h-122v162h441v-162h-121v-376h121v-162h-441zM196 744l-40 94l220 115l58 -129z" />
    <glyph glyph-name="Icircumflex" unicode="&#xce;" horiz-adv-x="590" 
d="M74 0v162h122v376h-122v162h441v-162h-121v-376h121v-162h-441zM160 753l-55 67l142 109h97l141 -109l-54 -67l-151 74h30z" />
    <glyph glyph-name="Idieresis" unicode="&#xcf;" horiz-adv-x="590" 
d="M74 0v162h122v376h-122v162h441v-162h-121v-376h121v-162h-441zM424 752c-30 0 -53.167 8.16699 -69.5 24.5s-24.5 39.5 -24.5 69.5c0 26.667 8.33301 49 25 67s39.667 27 69 27c30.667 0 54.167 -8.16699 70.5 -24.5s24.5 -39.5 24.5 -69.5
c0 -27.333 -8.33301 -49.833 -25 -67.5s-40 -26.5 -70 -26.5zM164 752c-30 0 -53.167 8.16699 -69.5 24.5s-24.5 39.5 -24.5 69.5c0 26.667 8.33301 49 25 67s39.667 27 69 27c30.667 0 54.167 -8.16699 70.5 -24.5s24.5 -39.5 24.5 -69.5
c0 -27.333 -8.33301 -49.833 -25 -67.5s-40 -26.5 -70 -26.5z" />
    <glyph glyph-name="Eth" unicode="&#xd0;" horiz-adv-x="783" 
d="M29 284v132h351v-132h-351zM83 0v700h302c52.667 0 100.667 -8.66699 144 -26s81 -41.5 113 -72.5s56.667 -67.833 74 -110.5s26 -89.667 26 -141c0 -50.667 -8.66699 -97.5 -26 -140.5s-42 -80 -74 -111s-69.667 -55.167 -113 -72.5s-91.333 -26 -144 -26h-302zM281 126
l-31.002 44.998h130c24.667 0 46.834 4.33301 66.501 13s36.5 20.834 50.5 36.501s25 34.5 33 56.5s12 46.333 12 73s-4 51 -12 73s-19.167 40.833 -33.5 56.5s-31.166 27.834 -50.499 36.501s-41.333 13 -66 13h-133l34 43v-446z" />
    <glyph glyph-name="Ntilde" unicode="&#xd1;" horiz-adv-x="813" 
d="M83 0v700.001h177l340 -466l-41 10c-3.33301 24.667 -6.16602 47 -8.49902 67s-4.33301 39 -6 57s-3 36 -4 54s-1.5 37.667 -1.5 59v72v147h191v-700h-179l-366 500l69 -17l8.5 -71c2.33301 -20 4.16602 -38 5.49902 -54s2.5 -31.333 3.5 -46s1.66699 -30.334 2 -47.001
s0.5 -35.667 0.5 -57v-208h-191zM485 768.001c-12 0 -24.3311 1.83594 -36.998 5.50293s-27.334 9.16699 -44.001 16.5c-12.667 6 -23 10.5 -31 13.5s-15.333 4.5 -22 4.5c-10 0 -17.667 -3.5 -23 -10.5s-8 -16.5 -8 -28.5h-110c0 47.333 12.167 84.833 36.5 112.5
s56.833 41.5 97.5 41.5c10.667 0 21.5 -1.33301 32.5 -4s26.5 -8.66699 46.5 -18c11.333 -6 20.333 -10.333 27 -13s13 -4 19 -4c8.66699 0 15.167 3.66699 19.5 11s6.16602 16.666 5.49902 27.999h109c0 -28.667 -4.83301 -54.834 -14.5 -78.501
s-23.5 -42.334 -41.5 -56.001s-38.667 -20.5 -62 -20.5z" />
    <glyph glyph-name="Ograve" unicode="&#xd2;" horiz-adv-x="825" 
d="M413 -10c-54 0 -103.667 8.99902 -149 26.999s-84.666 43.333 -117.999 76s-59.166 71.167 -77.499 115.5s-27.5 92.833 -27.5 145.5c0 53.333 9.16699 102 27.5 146s44.166 82.333 77.499 115s72.666 58 117.999 76s95 27 149 27s103.5 -9 148.5 -27
s84.333 -43.333 118 -76s59.5 -71 77.5 -115s27 -92.333 27 -145c0 -53.333 -9 -102.166 -27 -146.499s-43.833 -82.833 -77.5 -115.5s-73 -58 -118 -76s-94.5 -27 -148.5 -27zM413 173.999c24 0 46.333 4.33398 67 13.001s38.667 21.167 54 37.5s27.166 35.5 35.499 57.5
s12.5 46 12.5 72s-4.16699 50 -12.5 72s-20.166 41.167 -35.499 57.5s-33.333 28.833 -54 37.5s-43 13 -67 13c-24.667 0 -47.334 -4.33301 -68.001 -13s-38.667 -21.167 -54 -37.5s-27.166 -35.333 -35.499 -57s-12.5 -45.834 -12.5 -72.501c0 -26 4.16699 -50 12.5 -72
s20.166 -41.167 35.499 -57.5s33.333 -28.833 54 -37.5s43.334 -13 68.001 -13zM520 744l-237 80l58 129l220 -115z" />
    <glyph glyph-name="Oacute" unicode="&#xd3;" horiz-adv-x="825" 
d="M413 -10c-54 0 -103.667 8.99902 -149 26.999s-84.666 43.333 -117.999 76s-59.166 71.167 -77.499 115.5s-27.5 92.833 -27.5 145.5c0 53.333 9.16699 102 27.5 146s44.166 82.333 77.499 115s72.666 58 117.999 76s95 27 149 27s103.5 -9 148.5 -27
s84.333 -43.333 118 -76s59.5 -71 77.5 -115s27 -92.333 27 -145c0 -53.333 -9 -102.166 -27 -146.499s-43.833 -82.833 -77.5 -115.5s-73 -58 -118 -76s-94.5 -27 -148.5 -27zM413 173.999c24 0 46.333 4.33398 67 13.001s38.667 21.167 54 37.5s27.166 35.5 35.499 57.5
s12.5 46 12.5 72s-4.16699 50 -12.5 72s-20.166 41.167 -35.499 57.5s-33.333 28.833 -54 37.5s-43 13 -67 13c-24.667 0 -47.334 -4.33301 -68.001 -13s-38.667 -21.167 -54 -37.5s-27.166 -35.333 -35.499 -57s-12.5 -45.834 -12.5 -72.501c0 -26 4.16699 -50 12.5 -72
s20.166 -41.167 35.499 -57.5s33.333 -28.833 54 -37.5s43.334 -13 68.001 -13zM314 744l-40 94l220 115l58 -129z" />
    <glyph glyph-name="Ocircumflex" unicode="&#xd4;" horiz-adv-x="825" 
d="M413 -10c-54 0 -103.667 8.99902 -149 26.999s-84.666 43.333 -117.999 76s-59.166 71.167 -77.499 115.5s-27.5 92.833 -27.5 145.5c0 53.333 9.16699 102 27.5 146s44.166 82.333 77.499 115s72.666 58 117.999 76s95 27 149 27s103.5 -9 148.5 -27
s84.333 -43.333 118 -76s59.5 -71 77.5 -115s27 -92.333 27 -145c0 -53.333 -9 -102.166 -27 -146.499s-43.833 -82.833 -77.5 -115.5s-73 -58 -118 -76s-94.5 -27 -148.5 -27zM413 173.999c24 0 46.333 4.33398 67 13.001s38.667 21.167 54 37.5s27.166 35.5 35.499 57.5
s12.5 46 12.5 72s-4.16699 50 -12.5 72s-20.166 41.167 -35.499 57.5s-33.333 28.833 -54 37.5s-43 13 -67 13c-24.667 0 -47.334 -4.33301 -68.001 -13s-38.667 -21.167 -54 -37.5s-27.166 -35.333 -35.499 -57s-12.5 -45.834 -12.5 -72.501c0 -26 4.16699 -50 12.5 -72
s20.166 -41.167 35.499 -57.5s33.333 -28.833 54 -37.5s43.334 -13 68.001 -13zM277 753l-55 67l142 109h97l141 -109l-54 -67l-151 74h30z" />
    <glyph glyph-name="Otilde" unicode="&#xd5;" horiz-adv-x="825" 
d="M413 -10c-54 0 -103.667 8.99902 -149 26.999s-84.666 43.333 -117.999 76s-59.166 71.167 -77.499 115.5s-27.5 92.833 -27.5 145.5c0 53.333 9.16699 102 27.5 146s44.166 82.333 77.499 115s72.666 58 117.999 76s95 27 149 27s103.5 -9 148.5 -27
s84.333 -43.333 118 -76s59.5 -71 77.5 -115s27 -92.333 27 -145c0 -53.333 -9 -102.166 -27 -146.499s-43.833 -82.833 -77.5 -115.5s-73 -58 -118 -76s-94.5 -27 -148.5 -27zM413 173.999c24 0 46.333 4.33398 67 13.001s38.667 21.167 54 37.5s27.166 35.5 35.499 57.5
s12.5 46 12.5 72s-4.16699 50 -12.5 72s-20.166 41.167 -35.499 57.5s-33.333 28.833 -54 37.5s-43 13 -67 13c-24.667 0 -47.334 -4.33301 -68.001 -13s-38.667 -21.167 -54 -37.5s-27.166 -35.333 -35.499 -57s-12.5 -45.834 -12.5 -72.501c0 -26 4.16699 -50 12.5 -72
s20.166 -41.167 35.499 -57.5s33.333 -28.833 54 -37.5s43.334 -13 68.001 -13zM491 768c-12 0 -24.3311 1.83594 -36.998 5.50293s-27.334 9.16699 -44.001 16.5c-12.667 6 -23 10.5 -31 13.5s-15.333 4.5 -22 4.5c-10 0 -17.667 -3.5 -23 -10.5s-8 -16.5 -8 -28.5h-110
c0 47.333 12.167 84.833 36.5 112.5s56.833 41.5 97.5 41.5c10.667 0 21.5 -1.33301 32.5 -4s26.5 -8.66699 46.5 -18c11.333 -6 20.333 -10.333 27 -13s13 -4 19 -4c8.66699 0 15.167 3.66699 19.5 11s6.16602 16.666 5.49902 27.999h109
c0 -28.667 -4.83301 -54.834 -14.5 -78.501s-23.5 -42.334 -41.5 -56.001s-38.667 -20.5 -62 -20.5z" />
    <glyph glyph-name="Odieresis" unicode="&#xd6;" horiz-adv-x="825" 
d="M413 -10c-54 0 -103.667 8.99902 -149 26.999s-84.666 43.333 -117.999 76s-59.166 71.167 -77.499 115.5s-27.5 92.833 -27.5 145.5c0 53.333 9.16699 102 27.5 146s44.166 82.333 77.499 115s72.666 58 117.999 76s95 27 149 27s103.5 -9 148.5 -27
s84.333 -43.333 118 -76s59.5 -71 77.5 -115s27 -92.333 27 -145c0 -53.333 -9 -102.166 -27 -146.499s-43.833 -82.833 -77.5 -115.5s-73 -58 -118 -76s-94.5 -27 -148.5 -27zM413 173.999c24 0 46.333 4.33398 67 13.001s38.667 21.167 54 37.5s27.166 35.5 35.499 57.5
s12.5 46 12.5 72s-4.16699 50 -12.5 72s-20.166 41.167 -35.499 57.5s-33.333 28.833 -54 37.5s-43 13 -67 13c-24.667 0 -47.334 -4.33301 -68.001 -13s-38.667 -21.167 -54 -37.5s-27.166 -35.333 -35.499 -57s-12.5 -45.834 -12.5 -72.501c0 -26 4.16699 -50 12.5 -72
s20.166 -41.167 35.499 -57.5s33.333 -28.833 54 -37.5s43.334 -13 68.001 -13zM542 752c-30 0 -53.167 8.16699 -69.5 24.5s-24.5 39.5 -24.5 69.5c0 26.667 8.33301 49 25 67s39.667 27 69 27c30.667 0 54.167 -8.16699 70.5 -24.5s24.5 -39.5 24.5 -69.5
c0 -27.333 -8.33301 -49.833 -25 -67.5s-40 -26.5 -70 -26.5zM282 752c-30 0 -53.167 8.16699 -69.5 24.5s-24.5 39.5 -24.5 69.5c0 26.667 8.33301 49 25 67s39.667 27 69 27c30.667 0 54.167 -8.16699 70.5 -24.5s24.5 -39.5 24.5 -69.5
c0 -27.333 -8.33301 -49.833 -25 -67.5s-40 -26.5 -70 -26.5z" />
    <glyph glyph-name="multiply" unicode="&#xd7;" horiz-adv-x="554" 
d="M404 41l-365 366l111 110l365 -365zM150 40l-110 112l364 365l110 -111z" />
    <glyph glyph-name="Oslash" unicode="&#xd8;" horiz-adv-x="823" 
d="M146 -33l-63 53l589 721l68 -47zM413 -10c-54 0 -103.666 8.99902 -148.999 26.999s-84.666 43.333 -117.999 76s-59.166 71.167 -77.499 115.5s-27.5 92.833 -27.5 145.5c0 53.333 9.16699 102 27.5 146s44.166 82.333 77.499 115s72.666 58 117.999 76
s94.666 27 147.999 27c54.667 0 104.5 -9 149.5 -27s84.167 -43.333 117.5 -76s59.166 -71 77.499 -115s27.5 -92.333 27.5 -145c0 -53.333 -9.16699 -102.166 -27.5 -146.499s-44.166 -82.833 -77.499 -115.5s-72.5 -58 -117.5 -76s-94.5 -27 -148.5 -27zM412.001 173.999
c24.667 0 47.334 4.33398 68.001 13.001s38.667 21.167 54 37.5s27.166 35.5 35.499 57.5s12.5 46 12.5 72s-4.16699 50 -12.5 72s-20.166 41.167 -35.499 57.5s-33.333 28.833 -54 37.5s-43.334 13 -68.001 13c-24 0 -46.333 -4.33301 -67 -13s-38.667 -21.167 -54 -37.5
s-27.166 -35.333 -35.499 -57s-12.5 -45.834 -12.5 -72.501c0 -26 4.16699 -50 12.5 -72s20.166 -41.167 35.499 -57.5s33.333 -28.833 54 -37.5s43 -13 67 -13z" />
    <glyph glyph-name="Ugrave" unicode="&#xd9;" horiz-adv-x="777" 
d="M388 -6c-59.333 0 -112.167 11.833 -158.5 35.5s-82.666 56.167 -108.999 97.5s-39.5 88.666 -39.5 141.999v431h200v-422c0 -22 4.66699 -41.5 14 -58.5s22.166 -30.333 38.499 -40s34.5 -14.5 54.5 -14.5c22 0 41.333 4.83301 58 14.5s30 23 40 40s15 36.5 15 58.5v422
h194v-431c0 -53.333 -13.167 -100.666 -39.5 -141.999s-62.5 -73.833 -108.5 -97.5s-99 -35.5 -159 -35.5zM494.999 744l-237 80l58 129l220 -115z" />
    <glyph glyph-name="Uacute" unicode="&#xda;" horiz-adv-x="777" 
d="M388 -6c-59.333 0 -112.167 11.833 -158.5 35.5s-82.666 56.167 -108.999 97.5s-39.5 88.666 -39.5 141.999v431h200v-422c0 -22 4.66699 -41.5 14 -58.5s22.166 -30.333 38.499 -40s34.5 -14.5 54.5 -14.5c22 0 41.333 4.83301 58 14.5s30 23 40 40s15 36.5 15 58.5v422
h194v-431c0 -53.333 -13.167 -100.666 -39.5 -141.999s-62.5 -73.833 -108.5 -97.5s-99 -35.5 -159 -35.5zM289.999 744l-40 94l220 115l58 -129z" />
    <glyph glyph-name="Ucircumflex" unicode="&#xdb;" horiz-adv-x="777" 
d="M388 -6c-59.333 0 -112.167 11.833 -158.5 35.5s-82.666 56.167 -108.999 97.5s-39.5 88.666 -39.5 141.999v431h200v-422c0 -22 4.66699 -41.5 14 -58.5s22.166 -30.333 38.499 -40s34.5 -14.5 54.5 -14.5c22 0 41.333 4.83301 58 14.5s30 23 40 40s15 36.5 15 58.5v422
h194v-431c0 -53.333 -13.167 -100.666 -39.5 -141.999s-62.5 -73.833 -108.5 -97.5s-99 -35.5 -159 -35.5zM252.999 753l-55 67l142 109h97l141 -109l-54 -67l-151 74h30z" />
    <glyph glyph-name="Udieresis" unicode="&#xdc;" horiz-adv-x="777" 
d="M388 -6c-59.333 0 -112.167 11.833 -158.5 35.5s-82.666 56.167 -108.999 97.5s-39.5 88.666 -39.5 141.999v431h200v-422c0 -22 4.66699 -41.5 14 -58.5s22.166 -30.333 38.499 -40s34.5 -14.5 54.5 -14.5c22 0 41.333 4.83301 58 14.5s30 23 40 40s15 36.5 15 58.5v422
h194v-431c0 -53.333 -13.167 -100.666 -39.5 -141.999s-62.5 -73.833 -108.5 -97.5s-99 -35.5 -159 -35.5zM516.999 752c-30 0 -53.167 8.16699 -69.5 24.5s-24.5 39.5 -24.5 69.5c0 26.667 8.33301 49 25 67s39.667 27 69 27c30.667 0 54.167 -8.16699 70.5 -24.5
s24.5 -39.5 24.5 -69.5c0 -27.333 -8.33301 -49.833 -25 -67.5s-40 -26.5 -70 -26.5zM256.999 752c-30 0 -53.167 8.16699 -69.5 24.5s-24.5 39.5 -24.5 69.5c0 26.667 8.33301 49 25 67s39.667 27 69 27c30.667 0 54.167 -8.16699 70.5 -24.5s24.5 -39.5 24.5 -69.5
c0 -27.333 -8.33301 -49.833 -25 -67.5s-40 -26.5 -70 -26.5z" />
    <glyph glyph-name="Yacute" unicode="&#xdd;" horiz-adv-x="702" 
d="M261 0v349l7 -49l-283 400h222l216 -310l-117 3l195 307h216l-271 -411l15 68v-357h-200zM252 744l-40 94l220 115l58 -129z" />
    <glyph glyph-name="Thorn" unicode="&#xde;" horiz-adv-x="675" 
d="M83 0v699.997h198v-105h112c46 0 87.167 -10.167 123.5 -30.5s65 -48.166 86 -83.499s31.5 -75.666 31.5 -120.999c0 -47.333 -10.5 -89.666 -31.5 -126.999s-49.667 -66.5 -86 -87.5s-77.5 -31.5 -123.5 -31.5h-112v-114h-198zM281 283.997l78 -0.000976562
c14 0 26.333 3 37 9s19.167 14.333 25.5 25s9.5 23.334 9.5 38.001c0 15.333 -3.16699 28 -9.5 38s-14.833 17.667 -25.5 23s-23 8 -37 8h-78v-141z" />
    <glyph glyph-name="germandbls" unicode="&#xdf;" horiz-adv-x="669" 
d="M429 -10c-26 0 -49.3311 3.66406 -69.998 10.9971s-39 18.333 -55 33l68 135c9.33301 -7.33301 17.666 -12.333 24.999 -15s15.333 -4 24 -4c16 0 28.667 4.83301 38 14.5s14 23.834 14 42.501c0 15.333 -3.83301 29.333 -11.5 42s-17.834 24 -30.501 34
s-26.834 19 -42.501 27l-46.5 23v94c12 5.33301 22 10.833 30 16.5s14.5 11.5 19.5 17.5s8.5 12.833 10.5 20.5s3 16.167 3 25.5c0 18.667 -5.83301 33 -17.5 43s-27.5 15 -47.5 15c-21.333 0 -37 -6.16699 -47 -18.5s-15 -29.166 -15 -50.499v-496h-185v499
c0 46.667 10 87.667 30 123s49 62.833 87 82.5s83.667 29.5 137 29.5c43.333 0 82.5 -6.66699 117.5 -20s63 -32.833 84 -58.5s31.5 -56.834 31.5 -93.501c0 -23.333 -4.66699 -46.666 -14 -69.999s-22.666 -44.5 -39.999 -63.5s-38 -33.833 -62 -44.5l-2 50
c28.667 -8.66699 54.667 -20.167 78 -34.5s43.5 -31.166 60.5 -50.499s30.167 -41 39.5 -65s14 -51 14 -81c0 -40.667 -9.66699 -77 -29 -109s-46 -57.333 -80 -76s-72.667 -28 -116 -28zM18.002 346.997v157h159v-157h-159z" />
    <glyph glyph-name="agrave" unicode="&#xe0;" horiz-adv-x="671" 
d="M263 -9c-44 0 -83.498 11.833 -118.498 35.5s-62.667 56.334 -83 98.001s-30.5 89.167 -30.5 142.5c0 54.667 10 102.667 30 144s47.667 73.833 83 97.5s76 35.5 122 35.5c24.667 0 47.334 -3.33301 68.001 -10s38.667 -16.334 54 -29.001s28.666 -27 39.999 -43
s20.666 -33.333 27.999 -52l-38 2v121h183v-533h-187v130l41 -2c-6 -19.333 -14.833 -37.333 -26.5 -54s-25.834 -31.167 -42.501 -43.5s-35.167 -22 -55.5 -29s-42.833 -10.5 -67.5 -10.5zM316.002 144c21.333 0 39.666 4.83301 54.999 14.5s27.166 23.834 35.499 42.501
s12.5 40.667 12.5 66c0 26 -4.16699 48.333 -12.5 67s-20.166 32.834 -35.499 42.501s-33.666 14.5 -54.999 14.5s-39.5 -4.83301 -54.5 -14.5s-26.5 -23.834 -34.5 -42.501s-12 -41 -12 -67c0 -25.333 4 -47.333 12 -66s19.5 -32.834 34.5 -42.501s33.167 -14.5 54.5 -14.5
zM398.002 582l-218 117l77 114l195 -149z" />
    <glyph glyph-name="aacute" unicode="&#xe1;" horiz-adv-x="671" 
d="M263 -9c-44 0 -83.498 11.833 -118.498 35.5s-62.667 56.334 -83 98.001s-30.5 89.167 -30.5 142.5c0 54.667 10 102.667 30 144s47.667 73.833 83 97.5s76 35.5 122 35.5c24.667 0 47.334 -3.33301 68.001 -10s38.667 -16.334 54 -29.001s28.666 -27 39.999 -43
s20.666 -33.333 27.999 -52l-38 2v121h183v-533h-187v130l41 -2c-6 -19.333 -14.833 -37.333 -26.5 -54s-25.834 -31.167 -42.501 -43.5s-35.167 -22 -55.5 -29s-42.833 -10.5 -67.5 -10.5zM316.002 144c21.333 0 39.666 4.83301 54.999 14.5s27.166 23.834 35.499 42.501
s12.5 40.667 12.5 66c0 26 -4.16699 48.333 -12.5 67s-20.166 32.834 -35.499 42.501s-33.666 14.5 -54.999 14.5s-39.5 -4.83301 -54.5 -14.5s-26.5 -23.834 -34.5 -42.501s-12 -41 -12 -67c0 -25.333 4 -47.333 12 -66s19.5 -32.834 34.5 -42.501s33.167 -14.5 54.5 -14.5
zM254.002 581l-54 82l195 149l77 -114z" />
    <glyph glyph-name="acircumflex" unicode="&#xe2;" horiz-adv-x="671" 
d="M263 -9c-44 0 -83.498 11.833 -118.498 35.5s-62.667 56.334 -83 98.001s-30.5 89.167 -30.5 142.5c0 54.667 10 102.667 30 144s47.667 73.833 83 97.5s76 35.5 122 35.5c24.667 0 47.334 -3.33301 68.001 -10s38.667 -16.334 54 -29.001s28.666 -27 39.999 -43
s20.666 -33.333 27.999 -52l-38 2v121h183v-533h-187v130l41 -2c-6 -19.333 -14.833 -37.333 -26.5 -54s-25.834 -31.167 -42.501 -43.5s-35.167 -22 -55.5 -29s-42.833 -10.5 -67.5 -10.5zM316.002 144c21.333 0 39.666 4.83301 54.999 14.5s27.166 23.834 35.499 42.501
s12.5 40.667 12.5 66c0 26 -4.16699 48.333 -12.5 67s-20.166 32.834 -35.499 42.501s-33.666 14.5 -54.999 14.5s-39.5 -4.83301 -54.5 -14.5s-26.5 -23.834 -34.5 -42.501s-12 -41 -12 -67c0 -25.333 4 -47.333 12 -66s19.5 -32.834 34.5 -42.501s33.167 -14.5 54.5 -14.5
zM195.002 598l-66 57l157 137h100l157 -137l-66 -57l-156 92h30z" />
    <glyph glyph-name="atilde" unicode="&#xe3;" horiz-adv-x="671" 
d="M263 -9c-44 0 -83.498 11.833 -118.498 35.5s-62.667 56.334 -83 98.001s-30.5 89.167 -30.5 142.5c0 54.667 10 102.667 30 144s47.667 73.833 83 97.5s76 35.5 122 35.5c24.667 0 47.334 -3.33301 68.001 -10s38.667 -16.334 54 -29.001s28.666 -27 39.999 -43
s20.666 -33.333 27.999 -52l-38 2v121h183v-533h-187v130l41 -2c-6 -19.333 -14.833 -37.333 -26.5 -54s-25.834 -31.167 -42.501 -43.5s-35.167 -22 -55.5 -29s-42.833 -10.5 -67.5 -10.5zM316.002 144c21.333 0 39.666 4.83301 54.999 14.5s27.166 23.834 35.499 42.501
s12.5 40.667 12.5 66c0 26 -4.16699 48.333 -12.5 67s-20.166 32.834 -35.499 42.501s-33.666 14.5 -54.999 14.5s-39.5 -4.83301 -54.5 -14.5s-26.5 -23.834 -34.5 -42.501s-12 -41 -12 -67c0 -25.333 4 -47.333 12 -66s19.5 -32.834 34.5 -42.501s33.167 -14.5 54.5 -14.5
zM412.002 613c-10.667 0 -22.3311 1.66699 -34.998 5s-28 11 -46 23c-11.333 8.66699 -20.833 14.667 -28.5 18s-13.834 5 -18.501 5c-10 0 -18.667 -3.5 -26 -10.5s-11.666 -17.833 -12.999 -32.5l-99 13c0 40 10.5 73.667 31.5 101s49.5 41 85.5 41
c10.667 0 22.167 -1.5 34.5 -4.5s27.166 -10.167 44.499 -21.5c7.33301 -5.33301 15.166 -10.5 23.499 -15.5s16.833 -7.5 25.5 -7.5c9.33301 0 17.5 3.5 24.5 10.5s11.167 17.833 12.5 32.5l98 -14c0 -24.667 -4.83301 -48 -14.5 -70s-23 -39.667 -40 -53
s-36.833 -20 -59.5 -20z" />
    <glyph glyph-name="adieresis" unicode="&#xe4;" horiz-adv-x="671" 
d="M263 -9c-44 0 -83.498 11.833 -118.498 35.5s-62.667 56.334 -83 98.001s-30.5 89.167 -30.5 142.5c0 54.667 10 102.667 30 144s47.667 73.833 83 97.5s76 35.5 122 35.5c24.667 0 47.334 -3.33301 68.001 -10s38.667 -16.334 54 -29.001s28.666 -27 39.999 -43
s20.666 -33.333 27.999 -52l-38 2v121h183v-533h-187v130l41 -2c-6 -19.333 -14.833 -37.333 -26.5 -54s-25.834 -31.167 -42.501 -43.5s-35.167 -22 -55.5 -29s-42.833 -10.5 -67.5 -10.5zM316.002 144c21.333 0 39.666 4.83301 54.999 14.5s27.166 23.834 35.499 42.501
s12.5 40.667 12.5 66c0 26 -4.16699 48.333 -12.5 67s-20.166 32.834 -35.499 42.501s-33.666 14.5 -54.999 14.5s-39.5 -4.83301 -54.5 -14.5s-26.5 -23.834 -34.5 -42.501s-12 -41 -12 -67c0 -25.333 4 -47.333 12 -66s19.5 -32.834 34.5 -42.501s33.167 -14.5 54.5 -14.5
zM465.002 627c-30.667 0 -54.167 8.16699 -70.5 24.5s-24.5 39.5 -24.5 69.5c0 27.333 8.5 49.833 25.5 67.5s40.167 26.5 69.5 26.5c30 0 53.333 -8 70 -24s25 -39.333 25 -70c0 -28 -8.5 -50.667 -25.5 -68s-40.167 -26 -69.5 -26zM206.002 627
c-30.667 0 -54.167 8.16699 -70.5 24.5s-24.5 39.5 -24.5 69.5c0 27.333 8.5 49.833 25.5 67.5s40.167 26.5 69.5 26.5c30 0 53.333 -8 70 -24s25 -39.333 25 -70c0 -28 -8.5 -50.667 -25.5 -68s-40.167 -26 -69.5 -26z" />
    <glyph glyph-name="aring" unicode="&#xe5;" horiz-adv-x="671" 
d="M263 -9c-44 0 -83.498 11.833 -118.498 35.5s-62.667 56.334 -83 98.001s-30.5 89.167 -30.5 142.5c0 54.667 10 102.667 30 144s47.667 73.833 83 97.5s76 35.5 122 35.5c24.667 0 47.334 -3.33301 68.001 -10s38.667 -16.334 54 -29.001s28.666 -27 39.999 -43
s20.666 -33.333 27.999 -52l-38 2v121h183v-533h-187v130l41 -2c-6 -19.333 -14.833 -37.333 -26.5 -54s-25.834 -31.167 -42.501 -43.5s-35.167 -22 -55.5 -29s-42.833 -10.5 -67.5 -10.5zM316.002 144c21.333 0 39.666 4.83301 54.999 14.5s27.166 23.834 35.499 42.501
s12.5 40.667 12.5 66c0 26 -4.16699 48.333 -12.5 67s-20.166 32.834 -35.499 42.501s-33.666 14.5 -54.999 14.5s-39.5 -4.83301 -54.5 -14.5s-26.5 -23.834 -34.5 -42.501s-12 -41 -12 -67c0 -25.333 4 -47.333 12 -66s19.5 -32.834 34.5 -42.501s33.167 -14.5 54.5 -14.5
zM336.002 604c-22 0 -42.5 5.5 -61.5 16.5s-34.5 25.5 -46.5 43.5s-18 38 -18 60c0 22.667 5.83301 43.334 17.5 62.001s27 33.5 46 44.5s39.833 16.5 62.5 16.5c23.333 0 44.5 -5.5 63.5 -16.5s34.167 -25.833 45.5 -44.5s17 -39.334 17 -62.001
c0 -22 -5.83301 -42 -17.5 -60s-27 -32.5 -46 -43.5s-39.833 -16.5 -62.5 -16.5zM336.002 693c9.33301 0 17 3 23 9s9 13.333 9 22c0 10 -3 18 -9 24s-13.667 9 -23 9s-17 -3 -23 -9s-9 -13.667 -9 -23s3.16699 -17 9.5 -23s13.833 -9 22.5 -9z" />
    <glyph glyph-name="ae" unicode="&#xe6;" horiz-adv-x="901" 
d="M214 -10c-34.667 0 -65.834 6.66797 -93.501 20.001s-49.5 31.833 -65.5 55.5s-24 51.5 -24 83.5c0 26.667 5.16699 50 15.5 70s25.5 37 45.5 51s45 24.333 75 31s65 10 105 10h440l-6 -10v19c-0.666992 14.667 -4.33398 27.334 -11.001 38.001
s-16.167 19.167 -28.5 25.5s-26.5 9.5 -42.5 9.5c-24 0 -44 -4.5 -60 -13.5s-28.167 -21.833 -36.5 -38.5s-12.5 -36.667 -12.5 -60c0 -26 6 -48.833 18 -68.5s29.333 -34.834 52 -45.501s50.667 -16 84 -16c22.667 0 42.5 2.66699 59.5 8s34.833 14.666 53.5 27.999
l78 -121c-23.333 -18.667 -46.666 -33.5 -69.999 -44.5s-46.833 -19 -70.5 -24s-47.5 -7.5 -71.5 -7.5c-60.667 0 -113 11.833 -157 35.5s-77.833 56.167 -101.5 97.5s-35.5 89 -35.5 143c0 40 6.66699 77 20 111s32 63.5 56 88.5s52.167 44.333 84.5 58
s67.833 20.5 106.5 20.5c50 0 94.333 -11.833 133 -35.5s68.667 -56 90 -97s31.333 -88.167 30 -141.5l-1 -50h-590c-10 0 -19.333 -1.16699 -28 -3.5s-16 -5.83301 -22 -10.5s-10.333 -10.334 -13 -17.001s-4 -14.334 -4 -23.001s2.16699 -16.5 6.5 -23.5
s10.333 -12.5 18 -16.5s16.5 -6 26.5 -6c14.667 0 28.5 2.33301 41.5 7s24.833 11.334 35.5 20.001s19.334 19.334 26.001 32.001l57 -89c-13.333 -20.667 -31.333 -38.667 -54 -54s-47.667 -26.833 -75 -34.5s-55.333 -11.5 -84 -11.5zM350 245.001l-0.000976562 76.999
c0 13.333 -1.66699 24.5 -5 33.5s-8.5 16.167 -15.5 21.5s-15.5 9.16602 -25.5 11.499s-22 3.5 -36 3.5c-25.333 0 -46.166 -4.33301 -62.499 -13s-31.5 -23.667 -45.5 -45l-107 105c16 20.667 36.167 38.834 60.5 54.501s52.333 28 84 37s65.834 13.5 102.501 13.5
c32 0 61.167 -3.5 87.5 -10.5s48.666 -18.167 66.999 -33.5s32.5 -34.666 42.5 -57.999s15 -51.333 15 -84v-112z" />
    <glyph glyph-name="ccedilla" unicode="&#xe7;" horiz-adv-x="550" 
d="M308 -10c-52.667 0 -99.8359 12.001 -141.503 36.001s-74.5 56.833 -98.5 98.5s-36 89.167 -36 142.5s12 100.833 36 142.5s56.833 74.5 98.5 98.5s88.834 36 141.501 36c48 0 92.167 -7.66699 132.5 -23s72.5 -37.333 96.5 -66l-101 -120
c-7.33301 9.33301 -16.666 17.833 -27.999 25.5s-23.833 13.667 -37.5 18s-28.834 6.5 -45.501 6.5c-22 0 -41.333 -5 -58 -15s-29.5 -23.833 -38.5 -41.5s-13.5 -37.834 -13.5 -60.501s4.33301 -42.667 13 -60s21.5 -31.333 38.5 -42s36.5 -16 58.5 -16
c16.667 0 31.834 2 45.501 6s26 9.66699 37 17s20.5 16 28.5 26l101 -121c-24.667 -28 -57.167 -49.667 -97.5 -65s-84.166 -23 -131.499 -23zM205.998 -245.999l-9.99902 84.001c12.667 0 26 1.33301 40 4s25.833 6.66699 35.5 12s14.5 11.666 14.5 18.999
c0 6.66699 -3 12.334 -9 17.001s-13.667 8 -23 10s-19.333 3 -30 3l-20 15l68 106h92l-47 -65c35.333 -3.33301 61.5 -14.333 78.5 -33s25.5 -40.334 25.5 -65.001c0 -22 -6.66699 -40 -20 -54s-30.833 -25.167 -52.5 -33.5s-44.834 -13.833 -69.501 -16.5
s-49 -3.66699 -73 -3z" />
    <glyph glyph-name="egrave" unicode="&#xe8;" horiz-adv-x="586" 
d="M327 -10c-60.667 0 -113.001 11.833 -157.001 35.5s-78 56.334 -102 98.001s-36 89.167 -36 142.5c0 40 6.66699 77 20 111s32 63.5 56 88.5s52.5 44.333 85.5 58s69.167 20.5 108.5 20.5c38.667 0 73.834 -6.66699 105.501 -20s59 -32.333 82 -57s40.667 -53.667 53 -87
s17.833 -70 16.5 -110l-1 -42h-420l-23 93h294l-18 -20v19c0 14.667 -3.83301 27.5 -11.5 38.5s-17.834 19.5 -30.501 25.5s-27 9 -43 9c-22.667 0 -41.5 -4.5 -56.5 -13.5s-26.5 -21.833 -34.5 -38.5s-12 -36.667 -12 -60c0 -26.667 5.5 -49.667 16.5 -69
s27.333 -34.333 49 -45s48.167 -16 79.5 -16c20.667 0 38.834 2.66699 54.501 8s32.5 14.666 50.5 27.999l86 -121c-23.333 -18.667 -46.833 -33.5 -70.5 -44.5s-47.167 -19 -70.5 -24s-47 -7.5 -71 -7.5zM363.999 582l-218 117l77 114l195 -149z" />
    <glyph glyph-name="eacute" unicode="&#xe9;" horiz-adv-x="586" 
d="M327 -10c-60.667 0 -113.001 11.833 -157.001 35.5s-78 56.334 -102 98.001s-36 89.167 -36 142.5c0 40 6.66699 77 20 111s32 63.5 56 88.5s52.5 44.333 85.5 58s69.167 20.5 108.5 20.5c38.667 0 73.834 -6.66699 105.501 -20s59 -32.333 82 -57s40.667 -53.667 53 -87
s17.833 -70 16.5 -110l-1 -42h-420l-23 93h294l-18 -20v19c0 14.667 -3.83301 27.5 -11.5 38.5s-17.834 19.5 -30.501 25.5s-27 9 -43 9c-22.667 0 -41.5 -4.5 -56.5 -13.5s-26.5 -21.833 -34.5 -38.5s-12 -36.667 -12 -60c0 -26.667 5.5 -49.667 16.5 -69
s27.333 -34.333 49 -45s48.167 -16 79.5 -16c20.667 0 38.834 2.66699 54.501 8s32.5 14.666 50.5 27.999l86 -121c-23.333 -18.667 -46.833 -33.5 -70.5 -44.5s-47.167 -19 -70.5 -24s-47 -7.5 -71 -7.5zM219.999 581l-54 82l195 149l77 -114z" />
    <glyph glyph-name="ecircumflex" unicode="&#xea;" horiz-adv-x="586" 
d="M327 -10c-60.667 0 -113.001 11.833 -157.001 35.5s-78 56.334 -102 98.001s-36 89.167 -36 142.5c0 40 6.66699 77 20 111s32 63.5 56 88.5s52.5 44.333 85.5 58s69.167 20.5 108.5 20.5c38.667 0 73.834 -6.66699 105.501 -20s59 -32.333 82 -57s40.667 -53.667 53 -87
s17.833 -70 16.5 -110l-1 -42h-420l-23 93h294l-18 -20v19c0 14.667 -3.83301 27.5 -11.5 38.5s-17.834 19.5 -30.501 25.5s-27 9 -43 9c-22.667 0 -41.5 -4.5 -56.5 -13.5s-26.5 -21.833 -34.5 -38.5s-12 -36.667 -12 -60c0 -26.667 5.5 -49.667 16.5 -69
s27.333 -34.333 49 -45s48.167 -16 79.5 -16c20.667 0 38.834 2.66699 54.501 8s32.5 14.666 50.5 27.999l86 -121c-23.333 -18.667 -46.833 -33.5 -70.5 -44.5s-47.167 -19 -70.5 -24s-47 -7.5 -71 -7.5zM160.999 598l-66 57l157 137h100l157 -137l-66 -57l-156 92h30z" />
    <glyph glyph-name="edieresis" unicode="&#xeb;" horiz-adv-x="586" 
d="M327 -10c-60.667 0 -113.001 11.833 -157.001 35.5s-78 56.334 -102 98.001s-36 89.167 -36 142.5c0 40 6.66699 77 20 111s32 63.5 56 88.5s52.5 44.333 85.5 58s69.167 20.5 108.5 20.5c38.667 0 73.834 -6.66699 105.501 -20s59 -32.333 82 -57s40.667 -53.667 53 -87
s17.833 -70 16.5 -110l-1 -42h-420l-23 93h294l-18 -20v19c0 14.667 -3.83301 27.5 -11.5 38.5s-17.834 19.5 -30.501 25.5s-27 9 -43 9c-22.667 0 -41.5 -4.5 -56.5 -13.5s-26.5 -21.833 -34.5 -38.5s-12 -36.667 -12 -60c0 -26.667 5.5 -49.667 16.5 -69
s27.333 -34.333 49 -45s48.167 -16 79.5 -16c20.667 0 38.834 2.66699 54.501 8s32.5 14.666 50.5 27.999l86 -121c-23.333 -18.667 -46.833 -33.5 -70.5 -44.5s-47.167 -19 -70.5 -24s-47 -7.5 -71 -7.5zM430.999 627c-30.667 0 -54.167 8.16699 -70.5 24.5
s-24.5 39.5 -24.5 69.5c0 27.333 8.5 49.833 25.5 67.5s40.167 26.5 69.5 26.5c30 0 53.333 -8 70 -24s25 -39.333 25 -70c0 -28 -8.5 -50.667 -25.5 -68s-40.167 -26 -69.5 -26zM171.999 627c-30.667 0 -54.167 8.16699 -70.5 24.5s-24.5 39.5 -24.5 69.5
c0 27.333 8.5 49.833 25.5 67.5s40.167 26.5 69.5 26.5c30 0 53.333 -8 70 -24s25 -39.333 25 -70c0 -28 -8.5 -50.667 -25.5 -68s-40.167 -26 -69.5 -26z" />
    <glyph glyph-name="igrave" unicode="&#xec;" horiz-adv-x="310" 
d="M62 0v533h186v-533h-186zM217 582l-218 117l77 114l195 -149z" />
    <glyph glyph-name="iacute" unicode="&#xed;" horiz-adv-x="310" 
d="M62 0v533h186v-533h-186zM73 581l-54 82l195 149l77 -114z" />
    <glyph glyph-name="icircumflex" unicode="&#xee;" horiz-adv-x="310" 
d="M62 0v533h186v-533h-186zM14 598l-66 57l157 137h100l157 -137l-66 -57l-156 92h30z" />
    <glyph glyph-name="idieresis" unicode="&#xef;" horiz-adv-x="310" 
d="M62 0v533h186v-533h-186zM284 627c-30.667 0 -54.167 8.16699 -70.5 24.5s-24.5 39.5 -24.5 69.5c0 27.333 8.5 49.833 25.5 67.5s40.167 26.5 69.5 26.5c30 0 53.333 -8 70 -24s25 -39.333 25 -70c0 -28 -8.5 -50.667 -25.5 -68s-40.167 -26 -69.5 -26zM25 627
c-30.667 0 -54.167 8.16699 -70.5 24.5s-24.5 39.5 -24.5 69.5c0 27.333 8.5 49.833 25.5 67.5s40.167 26.5 69.5 26.5c30 0 53.333 -8 70 -24s25 -39.333 25 -70c0 -28 -8.5 -50.667 -25.5 -68s-40.167 -26 -69.5 -26z" />
    <glyph glyph-name="eth" unicode="&#xf0;" horiz-adv-x="607" 
d="M302 -7c-54 0 -101.167 11.667 -141.5 35s-71.833 54.5 -94.5 93.5s-34 83.167 -34 132.5c0 34.667 7 67.667 21 99s33 58.833 57 82.5s51.833 42.167 83.5 55.5s64.5 20 98.5 20c33.333 0 63.166 -6.5 89.499 -19.5s48.5 -31.833 66.5 -56.5s30.333 -53.667 37 -87
l-117 31c-1.33301 28.667 -4.66602 54.5 -9.99902 77.5s-13 43.833 -23 62.5s-22.5 35.334 -37.5 50.001s-33.167 27.5 -54.5 38.5s-46 20.833 -74 29.5l50 111c43.333 -10 83.5 -24.5 120.5 -43.5s70 -42.167 99 -69.5s53.667 -58.5 74 -93.5s36 -73.333 47 -115
s16.5 -86.834 16.5 -135.501c0 -58.667 -11.333 -110.5 -34 -155.5s-54.5 -80 -95.5 -105s-89.167 -37.5 -144.5 -37.5zM304 147c18 0 34.667 5 50 15s27.5 23.833 36.5 41.5s13.5 37.167 13.5 58.5c0 20.667 -4.5 39.5 -13.5 56.5s-21.167 30.5 -36.5 40.5s-32 15 -50 15
c-18.667 0 -35.667 -4.83301 -51 -14.5s-27.333 -23 -36 -40s-13 -36.167 -13 -57.5s4.33301 -40.833 13 -58.5s20.667 -31.5 36 -41.5s32.333 -15 51 -15zM148 512l-13 65l165 43l59 30l146 33l18 -66l-113 -26l-45 -27z" />
    <glyph glyph-name="ntilde" unicode="&#xf1;" horiz-adv-x="653" 
d="M70 0l0.000976562 533h174l8 -108l-38 -12c6.66699 25.333 19.667 47.833 39 67.5s42.333 35.167 69 46.5s54.667 17 84 17c40 0 73.833 -8.16699 101.5 -24.5s48.667 -40.666 63 -72.999s21.5 -71.833 21.5 -118.5v-328h-186v313c0 17.333 -2.66699 31.833 -8 43.5
s-13.333 20.5 -24 26.5s-23.334 8.66699 -38.001 8c-11.333 0 -21.833 -1.66699 -31.5 -5s-18.167 -8.5 -25.5 -15.5s-12.833 -14.833 -16.5 -23.5s-5.5 -18.334 -5.5 -29.001v-318h-93h-57.5h-36.5zM433.001 613c-10.667 0 -22.3311 1.66699 -34.998 5s-28 11 -46 23
c-11.333 8.66699 -20.833 14.667 -28.5 18s-13.834 5 -18.501 5c-10 0 -18.667 -3.5 -26 -10.5s-11.666 -17.833 -12.999 -32.5l-99 13c0 40 10.5 73.667 31.5 101s49.5 41 85.5 41c10.667 0 22.167 -1.5 34.5 -4.5s27.166 -10.167 44.499 -21.5
c7.33301 -5.33301 15.166 -10.5 23.499 -15.5s16.833 -7.5 25.5 -7.5c9.33301 0 17.5 3.5 24.5 10.5s11.167 17.833 12.5 32.5l98 -14c0 -24.667 -4.83301 -48 -14.5 -70s-23 -39.667 -40 -53s-36.833 -20 -59.5 -20z" />
    <glyph glyph-name="ograve" unicode="&#xf2;" horiz-adv-x="652" 
d="M327 -10c-56.667 0 -107.334 12 -152.001 36s-79.667 56.667 -105 98s-38 89 -38 143s12.667 101.667 38 143s60.333 74 105 98s95.334 36 152.001 36s107.167 -12 151.5 -36s79.166 -56.667 104.499 -98s38 -89 38 -143s-12.667 -101.667 -38 -143
s-60.166 -74 -104.499 -98s-94.833 -36 -151.5 -36zM327 147c20 0 38.167 5.16504 54.5 15.498s29 24.666 38 42.999s13.5 38.833 13.5 61.5c0 24 -4.5 45 -13.5 63s-21.667 32.167 -38 42.5s-34.5 15.5 -54.5 15.5c-20.667 0 -39 -5.16699 -55 -15.5
s-28.667 -24.666 -38 -42.999s-14 -39.166 -14 -62.499c0 -22.667 4.66699 -43.167 14 -61.5s22 -32.666 38 -42.999s34.333 -15.5 55 -15.5zM388 581.998l-218 117l77 114l195 -149z" />
    <glyph glyph-name="oacute" unicode="&#xf3;" horiz-adv-x="652" 
d="M327 -10c-56.667 0 -107.334 12 -152.001 36s-79.667 56.667 -105 98s-38 89 -38 143s12.667 101.667 38 143s60.333 74 105 98s95.334 36 152.001 36s107.167 -12 151.5 -36s79.166 -56.667 104.499 -98s38 -89 38 -143s-12.667 -101.667 -38 -143
s-60.166 -74 -104.499 -98s-94.833 -36 -151.5 -36zM327 147c20 0 38.167 5.16504 54.5 15.498s29 24.666 38 42.999s13.5 38.833 13.5 61.5c0 24 -4.5 45 -13.5 63s-21.667 32.167 -38 42.5s-34.5 15.5 -54.5 15.5c-20.667 0 -39 -5.16699 -55 -15.5
s-28.667 -24.666 -38 -42.999s-14 -39.166 -14 -62.499c0 -22.667 4.66699 -43.167 14 -61.5s22 -32.666 38 -42.999s34.333 -15.5 55 -15.5zM244 580.998l-54 82l195 149l77 -114z" />
    <glyph glyph-name="ocircumflex" unicode="&#xf4;" horiz-adv-x="652" 
d="M327 -10c-56.667 0 -107.334 12 -152.001 36s-79.667 56.667 -105 98s-38 89 -38 143s12.667 101.667 38 143s60.333 74 105 98s95.334 36 152.001 36s107.167 -12 151.5 -36s79.166 -56.667 104.499 -98s38 -89 38 -143s-12.667 -101.667 -38 -143
s-60.166 -74 -104.499 -98s-94.833 -36 -151.5 -36zM327 147c20 0 38.167 5.16504 54.5 15.498s29 24.666 38 42.999s13.5 38.833 13.5 61.5c0 24 -4.5 45 -13.5 63s-21.667 32.167 -38 42.5s-34.5 15.5 -54.5 15.5c-20.667 0 -39 -5.16699 -55 -15.5
s-28.667 -24.666 -38 -42.999s-14 -39.166 -14 -62.499c0 -22.667 4.66699 -43.167 14 -61.5s22 -32.666 38 -42.999s34.333 -15.5 55 -15.5zM185 597.998l-66 57l157 137h100l157 -137l-66 -57l-156 92h30z" />
    <glyph glyph-name="otilde" unicode="&#xf5;" horiz-adv-x="652" 
d="M327 -10c-56.667 0 -107.334 12 -152.001 36s-79.667 56.667 -105 98s-38 89 -38 143s12.667 101.667 38 143s60.333 74 105 98s95.334 36 152.001 36s107.167 -12 151.5 -36s79.166 -56.667 104.499 -98s38 -89 38 -143s-12.667 -101.667 -38 -143
s-60.166 -74 -104.499 -98s-94.833 -36 -151.5 -36zM327 147c20 0 38.167 5.16504 54.5 15.498s29 24.666 38 42.999s13.5 38.833 13.5 61.5c0 24 -4.5 45 -13.5 63s-21.667 32.167 -38 42.5s-34.5 15.5 -54.5 15.5c-20.667 0 -39 -5.16699 -55 -15.5
s-28.667 -24.666 -38 -42.999s-14 -39.166 -14 -62.499c0 -22.667 4.66699 -43.167 14 -61.5s22 -32.666 38 -42.999s34.333 -15.5 55 -15.5zM402 612.998c-10.667 0 -22.3311 1.66699 -34.998 5s-28 11 -46 23c-11.333 8.66699 -20.833 14.667 -28.5 18
s-13.834 5 -18.501 5c-10 0 -18.667 -3.5 -26 -10.5s-11.666 -17.833 -12.999 -32.5l-99 13c0 40 10.5 73.667 31.5 101s49.5 41 85.5 41c10.667 0 22.167 -1.5 34.5 -4.5s27.166 -10.167 44.499 -21.5c7.33301 -5.33301 15.166 -10.5 23.499 -15.5s16.833 -7.5 25.5 -7.5
c9.33301 0 17.5 3.5 24.5 10.5s11.167 17.833 12.5 32.5l98 -14c0 -24.667 -4.83301 -48 -14.5 -70s-23 -39.667 -40 -53s-36.833 -20 -59.5 -20z" />
    <glyph glyph-name="odieresis" unicode="&#xf6;" horiz-adv-x="652" 
d="M327 -10c-56.667 0 -107.334 12 -152.001 36s-79.667 56.667 -105 98s-38 89 -38 143s12.667 101.667 38 143s60.333 74 105 98s95.334 36 152.001 36s107.167 -12 151.5 -36s79.166 -56.667 104.499 -98s38 -89 38 -143s-12.667 -101.667 -38 -143
s-60.166 -74 -104.499 -98s-94.833 -36 -151.5 -36zM327 147c20 0 38.167 5.16504 54.5 15.498s29 24.666 38 42.999s13.5 38.833 13.5 61.5c0 24 -4.5 45 -13.5 63s-21.667 32.167 -38 42.5s-34.5 15.5 -54.5 15.5c-20.667 0 -39 -5.16699 -55 -15.5
s-28.667 -24.666 -38 -42.999s-14 -39.166 -14 -62.499c0 -22.667 4.66699 -43.167 14 -61.5s22 -32.666 38 -42.999s34.333 -15.5 55 -15.5zM455 626.998c-30.667 0 -54.167 8.16699 -70.5 24.5s-24.5 39.5 -24.5 69.5c0 27.333 8.5 49.833 25.5 67.5
s40.167 26.5 69.5 26.5c30 0 53.333 -8 70 -24s25 -39.333 25 -70c0 -28 -8.5 -50.667 -25.5 -68s-40.167 -26 -69.5 -26zM196 626.998c-30.667 0 -54.167 8.16699 -70.5 24.5s-24.5 39.5 -24.5 69.5c0 27.333 8.5 49.833 25.5 67.5s40.167 26.5 69.5 26.5
c30 0 53.333 -8 70 -24s25 -39.333 25 -70c0 -28 -8.5 -50.667 -25.5 -68s-40.167 -26 -69.5 -26z" />
    <glyph glyph-name="divide" unicode="&#xf7;" horiz-adv-x="597" 
d="M40 193v148h518v-148h-518zM298 -41c-20.667 0 -38.667 3.66895 -54 11.002s-27.166 18.166 -35.499 32.499s-12.5 31.166 -12.5 50.499c0 18.667 4.33301 35 13 49s20.5 25 35.5 33s32.833 12 53.5 12s38.667 -3.5 54 -10.5s27.166 -17.667 35.499 -32
s12.5 -31.5 12.5 -51.5c0 -18 -4.33301 -34 -13 -48s-20.5 -25.167 -35.5 -33.5s-32.833 -12.5 -53.5 -12.5zM298 385.002c-20.667 0 -38.667 3.66992 -54 11.0029s-27.166 18.166 -35.499 32.499s-12.5 31.166 -12.5 50.499c0 18 4.33301 34.167 13 48.5
s20.5 25.666 35.5 33.999s32.833 12.5 53.5 12.5s38.667 -3.83301 54 -11.5s27.166 -18.5 35.499 -32.5s12.5 -31 12.5 -51c0 -18 -4.33301 -34 -13 -48s-20.5 -25.167 -35.5 -33.5s-32.833 -12.5 -53.5 -12.5z" />
    <glyph glyph-name="oslash" unicode="&#xf8;" horiz-adv-x="652" 
d="M126 -35l-66 48l466 554l67 -49zM327 -10c-56.667 0 -107.334 12 -152.001 36s-79.667 56.667 -105 98s-38 89 -38 143s12.667 101.667 38 143s60.333 74 105 98s95.334 36 152.001 36s107.167 -12 151.5 -36s79.166 -56.667 104.499 -98s38 -89 38 -143
s-12.667 -101.667 -38 -143s-60.166 -74 -104.499 -98s-94.833 -36 -151.5 -36zM327 147c20 0 38.167 5.16504 54.5 15.498s29 24.666 38 42.999s13.5 38.833 13.5 61.5c0 24 -4.5 45 -13.5 63s-21.667 32.167 -38 42.5s-34.5 15.5 -54.5 15.5
c-20.667 0 -39 -5.16699 -55 -15.5s-28.667 -24.666 -38 -42.999s-14 -39.166 -14 -62.499c0 -22.667 4.66699 -43.167 14 -61.5s22 -32.666 38 -42.999s34.333 -15.5 55 -15.5z" />
    <glyph glyph-name="ugrave" unicode="&#xf9;" horiz-adv-x="658" 
d="M250 -11c-40 0 -74.001 8.5 -102.001 25.5s-49.333 41.5 -64 73.5s-22 70.667 -22 116v329h186v-310c0 -17.333 3 -32 9 -44s14.333 -21.167 25 -27.5s23.667 -9.5 39 -9.5c12 0 22.833 1.66699 32.5 5s17.834 8.5 24.501 15.5s12 15 16 24s6 18.833 6 29.5v317h186v-533
h-172l-10 108l35 12c-7.33301 -24.667 -20.333 -47 -39 -67s-41 -35.667 -67 -47s-53.667 -17 -83 -17zM391.999 582l-218 117l77 114l195 -149z" />
    <glyph glyph-name="uacute" unicode="&#xfa;" horiz-adv-x="658" 
d="M250 -11c-40 0 -74.001 8.5 -102.001 25.5s-49.333 41.5 -64 73.5s-22 70.667 -22 116v329h186v-310c0 -17.333 3 -32 9 -44s14.333 -21.167 25 -27.5s23.667 -9.5 39 -9.5c12 0 22.833 1.66699 32.5 5s17.834 8.5 24.501 15.5s12 15 16 24s6 18.833 6 29.5v317h186v-533
h-172l-10 108l35 12c-7.33301 -24.667 -20.333 -47 -39 -67s-41 -35.667 -67 -47s-53.667 -17 -83 -17zM247.999 581l-54 82l195 149l77 -114z" />
    <glyph glyph-name="ucircumflex" unicode="&#xfb;" horiz-adv-x="658" 
d="M250 -11c-40 0 -74.001 8.5 -102.001 25.5s-49.333 41.5 -64 73.5s-22 70.667 -22 116v329h186v-310c0 -17.333 3 -32 9 -44s14.333 -21.167 25 -27.5s23.667 -9.5 39 -9.5c12 0 22.833 1.66699 32.5 5s17.834 8.5 24.501 15.5s12 15 16 24s6 18.833 6 29.5v317h186v-533
h-172l-10 108l35 12c-7.33301 -24.667 -20.333 -47 -39 -67s-41 -35.667 -67 -47s-53.667 -17 -83 -17zM188.999 598l-66 57l157 137h100l157 -137l-66 -57l-156 92h30z" />
    <glyph glyph-name="udieresis" unicode="&#xfc;" horiz-adv-x="658" 
d="M250 -11c-40 0 -74.001 8.5 -102.001 25.5s-49.333 41.5 -64 73.5s-22 70.667 -22 116v329h186v-310c0 -17.333 3 -32 9 -44s14.333 -21.167 25 -27.5s23.667 -9.5 39 -9.5c12 0 22.833 1.66699 32.5 5s17.834 8.5 24.501 15.5s12 15 16 24s6 18.833 6 29.5v317h186v-533
h-172l-10 108l35 12c-7.33301 -24.667 -20.333 -47 -39 -67s-41 -35.667 -67 -47s-53.667 -17 -83 -17zM458.999 627c-30.667 0 -54.167 8.16699 -70.5 24.5s-24.5 39.5 -24.5 69.5c0 27.333 8.5 49.833 25.5 67.5s40.167 26.5 69.5 26.5c30 0 53.333 -8 70 -24
s25 -39.333 25 -70c0 -28 -8.5 -50.667 -25.5 -68s-40.167 -26 -69.5 -26zM199.999 627c-30.667 0 -54.167 8.16699 -70.5 24.5s-24.5 39.5 -24.5 69.5c0 27.333 8.5 49.833 25.5 67.5s40.167 26.5 69.5 26.5c30 0 53.333 -8 70 -24s25 -39.333 25 -70
c0 -28 -8.5 -50.667 -25.5 -68s-40.167 -26 -69.5 -26z" />
    <glyph glyph-name="yacute" unicode="&#xfd;" horiz-adv-x="638" 
d="M128 -230l127.999 302l2 -82l-253 543h208l89 -212c7.33301 -16.667 13.833 -33.167 19.5 -49.5s9.83398 -31.833 12.501 -46.5l-21 -16c2.66699 8.66699 6.66699 20.667 12 36l18 53l81 235h209l-231 -533l-93 -230h-181zM236.999 581l-54 82l195 149l77 -114z" />
    <glyph glyph-name="thorn" unicode="&#xfe;" horiz-adv-x="671" 
d="M70 -220l-0.000976562 960h188v-325l-41 9c4 22.667 15.167 43 33.5 61s41.166 32.333 68.499 43s57 16 89 16c34 0 65 -6.66699 93 -20s52.333 -32.5 73 -57.5s36.667 -54.167 48 -87.5s17 -70.666 17 -111.999c0 -53.333 -10 -100.833 -30 -142.5
s-47.667 -74.334 -83 -98.001s-75.666 -35.5 -120.999 -35.5c-30 0 -58.5 5.5 -85.5 16.5s-49.667 26 -68 45s-30.166 40.5 -35.499 64.5l42 14v-351h-188zM354.999 144c21.333 0 39.666 5.00098 54.999 15.001s27 24.167 35 42.5s12 40.166 12 65.499
c0 26 -4 48.167 -12 66.5s-19.667 32.5 -35 42.5s-33.666 15 -54.999 15s-39.666 -4.83301 -54.999 -14.5s-27 -23.834 -35 -42.501s-12 -41 -12 -67c0 -25.333 4 -47.166 12 -65.499s19.667 -32.5 35 -42.5s33.666 -15 54.999 -15z" />
    <glyph glyph-name="ydieresis" unicode="&#xff;" horiz-adv-x="638" 
d="M128 -230l127.999 302l2 -82l-253 543h208l89 -212c7.33301 -16.667 13.833 -33.167 19.5 -49.5s9.83398 -31.833 12.501 -46.5l-21 -16c2.66699 8.66699 6.66699 20.667 12 36l18 53l81 235h209l-231 -533l-93 -230h-181zM447.999 627
c-30.667 0 -54.167 8.16699 -70.5 24.5s-24.5 39.5 -24.5 69.5c0 27.333 8.5 49.833 25.5 67.5s40.167 26.5 69.5 26.5c30 0 53.333 -8 70 -24s25 -39.333 25 -70c0 -28 -8.5 -50.667 -25.5 -68s-40.167 -26 -69.5 -26zM188.999 627c-30.667 0 -54.167 8.16699 -70.5 24.5
s-24.5 39.5 -24.5 69.5c0 27.333 8.5 49.833 25.5 67.5s40.167 26.5 69.5 26.5c30 0 53.333 -8 70 -24s25 -39.333 25 -70c0 -28 -8.5 -50.667 -25.5 -68s-40.167 -26 -69.5 -26z" />
    <glyph glyph-name="Amacron" unicode="&#x100;" horiz-adv-x="692" 
d="M-12 0l279 699.999h160l277 -700h-197l-120 325l-18 50l-15 45c-4.66699 14.667 -9.16699 29.667 -13.5 45s-8.16602 32 -11.499 50l32 1c-4 -19.333 -8.16699 -36.666 -12.5 -51.999s-8.83301 -30 -13.5 -44s-9.83398 -28.667 -15.501 -44l-18.5 -51l-120 -325h-193z
M124 115.999l59 140h324l55 -140h-438zM160 788.999v113h371v-113h-371z" />
    <glyph glyph-name="amacron" unicode="&#x101;" horiz-adv-x="671" 
d="M263 -9c-44 0 -83.498 11.833 -118.498 35.5s-62.667 56.334 -83 98.001s-30.5 89.167 -30.5 142.5c0 54.667 10 102.667 30 144s47.667 73.833 83 97.5s76 35.5 122 35.5c24.667 0 47.334 -3.33301 68.001 -10s38.667 -16.334 54 -29.001s28.666 -27 39.999 -43
s20.666 -33.333 27.999 -52l-38 2v121h183v-533h-187v130l41 -2c-6 -19.333 -14.833 -37.333 -26.5 -54s-25.834 -31.167 -42.501 -43.5s-35.167 -22 -55.5 -29s-42.833 -10.5 -67.5 -10.5zM316.002 144c21.333 0 39.666 4.83301 54.999 14.5s27.166 23.834 35.499 42.501
s12.5 40.667 12.5 66c0 26 -4.16699 48.333 -12.5 67s-20.166 32.834 -35.499 42.501s-33.666 14.5 -54.999 14.5s-39.5 -4.83301 -54.5 -14.5s-26.5 -23.834 -34.5 -42.501s-12 -41 -12 -67c0 -25.333 4 -47.333 12 -66s19.5 -32.834 34.5 -42.501s33.167 -14.5 54.5 -14.5
zM157.002 638v113h358v-113h-358z" />
    <glyph glyph-name="Abreve" unicode="&#x102;" horiz-adv-x="692" 
d="M-12 0l279 699.999h160l277 -700h-197l-120 325l-18 50l-15 45c-4.66699 14.667 -9.16699 29.667 -13.5 45s-8.16602 32 -11.499 50l32 1c-4 -19.333 -8.16699 -36.666 -12.5 -51.999s-8.83301 -30 -13.5 -44s-9.83398 -28.667 -15.501 -44l-18.5 -51l-120 -325h-193z
M124 115.999l59 140h324l55 -140h-438zM346 759.999c-31.333 0 -60 6.5 -86 19.5s-47.667 31.5 -65 55.5s-29.333 52 -36 84l116 12c6 -17.333 15.5 -31.166 28.5 -41.499s27.167 -15.5 42.5 -15.5s29.5 5.16699 42.5 15.5s22.5 24.166 28.5 41.499l116 -12
c-6.66699 -32 -18.667 -60 -36 -84s-38.833 -42.5 -64.5 -55.5s-54.5 -19.5 -86.5 -19.5z" />
    <glyph glyph-name="abreve" unicode="&#x103;" horiz-adv-x="671" 
d="M263 -9c-44 0 -83.498 11.833 -118.498 35.5s-62.667 56.334 -83 98.001s-30.5 89.167 -30.5 142.5c0 54.667 10 102.667 30 144s47.667 73.833 83 97.5s76 35.5 122 35.5c24.667 0 47.334 -3.33301 68.001 -10s38.667 -16.334 54 -29.001s28.666 -27 39.999 -43
s20.666 -33.333 27.999 -52l-38 2v121h183v-533h-187v130l41 -2c-6 -19.333 -14.833 -37.333 -26.5 -54s-25.834 -31.167 -42.501 -43.5s-35.167 -22 -55.5 -29s-42.833 -10.5 -67.5 -10.5zM316.002 144c21.333 0 39.666 4.83301 54.999 14.5s27.166 23.834 35.499 42.501
s12.5 40.667 12.5 66c0 26 -4.16699 48.333 -12.5 67s-20.166 32.834 -35.499 42.501s-33.666 14.5 -54.999 14.5s-39.5 -4.83301 -54.5 -14.5s-26.5 -23.834 -34.5 -42.501s-12 -41 -12 -67c0 -25.333 4 -47.333 12 -66s19.5 -32.834 34.5 -42.501s33.167 -14.5 54.5 -14.5
zM336.002 606c-47.333 0 -87.833 14.333 -121.5 43s-55.5 68.334 -65.5 119.001l116 12c6 -18.667 15.5 -33.334 28.5 -44.001s27.167 -16 42.5 -16s29.5 5.33301 42.5 16s22.5 25.334 28.5 44.001l116 -12c-10 -50.667 -31.833 -90.334 -65.5 -119.001
s-74.167 -43 -121.5 -43z" />
    <glyph glyph-name="Aogonek" unicode="&#x104;" horiz-adv-x="692" 
d="M-12 0l279 699.999h160l277 -700h-197l-120 325l-18 50l-15 45c-4.66699 14.667 -9.16699 29.667 -13.5 45s-8.16602 32 -11.499 50l32 1c-4 -19.333 -8.16699 -36.666 -12.5 -51.999s-8.83301 -30 -13.5 -44s-9.83398 -28.667 -15.501 -44l-18.5 -51l-120 -325h-193z
M124 115.999l59 140h324l55 -140h-438zM559 -217.001c-24 0 -45.5 4.66992 -64.5 14.0029s-34 22.166 -45 38.499s-16.5 35.166 -16.5 56.499c0 17.333 4 34 12 50s19.5 30.667 34.5 44s33.167 25.5 54.5 36.5s45 19.833 71 26.5l33 -49
c-15.333 -2.66699 -29.5 -7.83398 -42.5 -15.501s-23.333 -16.5 -31 -26.5s-11.5 -20.333 -11.5 -31c0 -8 2.16699 -14.667 6.5 -20s10.166 -8 17.499 -8s13.333 1.83301 18 5.5s9.33398 9.5 14.001 17.5l76 -56c-11.333 -24 -27.5 -43.833 -48.5 -59.5
s-46.833 -23.5 -77.5 -23.5z" />
    <glyph glyph-name="aogonek" unicode="&#x105;" horiz-adv-x="671" 
d="M263 -9c-44 0 -83.498 11.833 -118.498 35.5s-62.667 56.334 -83 98.001s-30.5 89.167 -30.5 142.5c0 54.667 10 102.667 30 144s47.667 73.833 83 97.5s76 35.5 122 35.5c24.667 0 47.334 -3.33301 68.001 -10s38.667 -16.334 54 -29.001s28.666 -27 39.999 -43
s20.666 -33.333 27.999 -52l-38 2v121h183v-533h-187v130l41 -2c-6 -19.333 -14.833 -37.333 -26.5 -54s-25.834 -31.167 -42.501 -43.5s-35.167 -22 -55.5 -29s-42.833 -10.5 -67.5 -10.5zM316.002 144c21.333 0 39.666 4.83301 54.999 14.5s27.166 23.834 35.499 42.501
s12.5 40.667 12.5 66c0 26 -4.16699 48.333 -12.5 67s-20.166 32.834 -35.499 42.501s-33.666 14.5 -54.999 14.5s-39.5 -4.83301 -54.5 -14.5s-26.5 -23.834 -34.5 -42.501s-12 -41 -12 -67c0 -25.333 4 -47.333 12 -66s19.5 -32.834 34.5 -42.501s33.167 -14.5 54.5 -14.5
zM463.002 -216c-24 0 -45.498 5.17285 -64.498 15.5059s-34 24.166 -45 41.499s-16.5 36.666 -16.5 57.999c0 17.333 3.66699 33.333 11 48s18.166 28.167 32.499 40.5s32.5 23.666 54.5 33.999s48 19.166 78 26.499l42 -48c-17.333 -4 -33.5 -9.83301 -48.5 -17.5
s-27 -16.5 -36 -26.5s-13.5 -20.667 -13.5 -32c0 -7.33301 2.33301 -13.333 7 -18s10.667 -7 18 -7c6.66699 0 12.167 2 16.5 6s9.16602 10 14.499 18l76 -56c-8 -12.667 -18.167 -25.334 -30.5 -38.001s-26.5 -23.334 -42.5 -32.001s-33.667 -13 -53 -13z" />
    <glyph glyph-name="Cacute" unicode="&#x106;" horiz-adv-x="701" 
d="M417 -10c-54.667 0 -104.999 9.00391 -150.999 27.0039s-85.833 43.167 -119.5 75.5s-59.667 70.666 -78 114.999s-27.5 93.166 -27.5 146.499c0 52.667 9.5 101.167 28.5 145.5s45.5 82.833 79.5 115.5s74.333 58 121 76s97.667 27 153 27
c33.333 0 65.833 -4.16699 97.5 -12.5s61.5 -20.5 89.5 -36.5s53 -36 75 -60l-119 -138c-11.333 12.667 -24 24 -38 34s-29.833 17.833 -47.5 23.5s-37.167 8.5 -58.5 8.5c-24.667 0 -47.834 -4.16699 -69.501 -12.5s-40.5 -20.5 -56.5 -36.5s-28.5 -35.333 -37.5 -58
s-13.5 -48.667 -13.5 -78c0 -28 4.5 -53.167 13.5 -75.5s22 -41.333 39 -57s37.333 -27.834 61 -36.501s50.167 -13 79.5 -13c20.667 0 40.167 3 58.5 9s35.166 14 50.499 24s29 21 41 33l94 -149c-16.667 -18.667 -39.167 -35.334 -67.5 -50.001
s-59.666 -26.167 -93.999 -34.5s-68.833 -12.5 -103.5 -12.5zM322.001 744.004l-40 94l220 115l58 -129z" />
    <glyph glyph-name="cacute" unicode="&#x107;" horiz-adv-x="550" 
d="M308 -10c-52.667 0 -99.8359 12.001 -141.503 36.001s-74.5 56.833 -98.5 98.5s-36 89.167 -36 142.5s12 100.833 36 142.5s56.833 74.5 98.5 98.5s88.834 36 141.501 36c48 0 92.167 -7.66699 132.5 -23s72.5 -37.333 96.5 -66l-101 -120
c-7.33301 9.33301 -16.666 17.833 -27.999 25.5s-23.833 13.667 -37.5 18s-28.834 6.5 -45.501 6.5c-22 0 -41.333 -5 -58 -15s-29.5 -23.833 -38.5 -41.5s-13.5 -37.834 -13.5 -60.501s4.33301 -42.667 13 -60s21.5 -31.333 38.5 -42s36.5 -16 58.5 -16
c16.667 0 31.834 2 45.501 6s26 9.66699 37 17s20.5 16 28.5 26l101 -121c-24.667 -28 -57.167 -49.667 -97.5 -65s-84.166 -23 -131.499 -23zM225.998 581.001l-54 82l195 149l77 -114z" />
    <glyph glyph-name="Ccircumflex" unicode="&#x108;" horiz-adv-x="701" 
d="M417 -10c-54.667 0 -104.999 9.00391 -150.999 27.0039s-85.833 43.167 -119.5 75.5s-59.667 70.666 -78 114.999s-27.5 93.166 -27.5 146.499c0 52.667 9.5 101.167 28.5 145.5s45.5 82.833 79.5 115.5s74.333 58 121 76s97.667 27 153 27
c33.333 0 65.833 -4.16699 97.5 -12.5s61.5 -20.5 89.5 -36.5s53 -36 75 -60l-119 -138c-11.333 12.667 -24 24 -38 34s-29.833 17.833 -47.5 23.5s-37.167 8.5 -58.5 8.5c-24.667 0 -47.834 -4.16699 -69.501 -12.5s-40.5 -20.5 -56.5 -36.5s-28.5 -35.333 -37.5 -58
s-13.5 -48.667 -13.5 -78c0 -28 4.5 -53.167 13.5 -75.5s22 -41.333 39 -57s37.333 -27.834 61 -36.501s50.167 -13 79.5 -13c20.667 0 40.167 3 58.5 9s35.166 14 50.499 24s29 21 41 33l94 -149c-16.667 -18.667 -39.167 -35.334 -67.5 -50.001
s-59.666 -26.167 -93.999 -34.5s-68.833 -12.5 -103.5 -12.5zM285.001 753.004l-55 67l142 109h97l141 -109l-54 -67l-151 74h30z" />
    <glyph glyph-name="ccircumflex" unicode="&#x109;" horiz-adv-x="550" 
d="M308 -10c-52.667 0 -99.8359 12.001 -141.503 36.001s-74.5 56.833 -98.5 98.5s-36 89.167 -36 142.5s12 100.833 36 142.5s56.833 74.5 98.5 98.5s88.834 36 141.501 36c48 0 92.167 -7.66699 132.5 -23s72.5 -37.333 96.5 -66l-101 -120
c-7.33301 9.33301 -16.666 17.833 -27.999 25.5s-23.833 13.667 -37.5 18s-28.834 6.5 -45.501 6.5c-22 0 -41.333 -5 -58 -15s-29.5 -23.833 -38.5 -41.5s-13.5 -37.834 -13.5 -60.501s4.33301 -42.667 13 -60s21.5 -31.333 38.5 -42s36.5 -16 58.5 -16
c16.667 0 31.834 2 45.501 6s26 9.66699 37 17s20.5 16 28.5 26l101 -121c-24.667 -28 -57.167 -49.667 -97.5 -65s-84.166 -23 -131.499 -23zM166.998 598.001l-66 57l157 137h100l157 -137l-66 -57l-156 92h30z" />
    <glyph glyph-name="Cdotaccent" unicode="&#x10a;" horiz-adv-x="701" 
d="M417 -10c-54.667 0 -104.999 9.00391 -150.999 27.0039s-85.833 43.167 -119.5 75.5s-59.667 70.666 -78 114.999s-27.5 93.166 -27.5 146.499c0 52.667 9.5 101.167 28.5 145.5s45.5 82.833 79.5 115.5s74.333 58 121 76s97.667 27 153 27
c33.333 0 65.833 -4.16699 97.5 -12.5s61.5 -20.5 89.5 -36.5s53 -36 75 -60l-119 -138c-11.333 12.667 -24 24 -38 34s-29.833 17.833 -47.5 23.5s-37.167 8.5 -58.5 8.5c-24.667 0 -47.834 -4.16699 -69.501 -12.5s-40.5 -20.5 -56.5 -36.5s-28.5 -35.333 -37.5 -58
s-13.5 -48.667 -13.5 -78c0 -28 4.5 -53.167 13.5 -75.5s22 -41.333 39 -57s37.333 -27.834 61 -36.501s50.167 -13 79.5 -13c20.667 0 40.167 3 58.5 9s35.166 14 50.499 24s29 21 41 33l94 -149c-16.667 -18.667 -39.167 -35.334 -67.5 -50.001
s-59.666 -26.167 -93.999 -34.5s-68.833 -12.5 -103.5 -12.5zM420.001 755.004c-34 0 -60.333 7.83398 -79 23.501s-28 38.167 -28 67.5c0 26 9.5 47.5 28.5 64.5s45.167 25.5 78.5 25.5c34 0 60.333 -7.83301 79 -23.5s28 -37.834 28 -66.501
c0 -26.667 -9.5 -48.5 -28.5 -65.5s-45.167 -25.5 -78.5 -25.5z" />
    <glyph glyph-name="cdotaccent" unicode="&#x10b;" horiz-adv-x="550" 
d="M308 -10c-52.667 0 -99.8359 12.001 -141.503 36.001s-74.5 56.833 -98.5 98.5s-36 89.167 -36 142.5s12 100.833 36 142.5s56.833 74.5 98.5 98.5s88.834 36 141.501 36c48 0 92.167 -7.66699 132.5 -23s72.5 -37.333 96.5 -66l-101 -120
c-7.33301 9.33301 -16.666 17.833 -27.999 25.5s-23.833 13.667 -37.5 18s-28.834 6.5 -45.501 6.5c-22 0 -41.333 -5 -58 -15s-29.5 -23.833 -38.5 -41.5s-13.5 -37.834 -13.5 -60.501s4.33301 -42.667 13 -60s21.5 -31.333 38.5 -42s36.5 -16 58.5 -16
c16.667 0 31.834 2 45.501 6s26 9.66699 37 17s20.5 16 28.5 26l101 -121c-24.667 -28 -57.167 -49.667 -97.5 -65s-84.166 -23 -131.499 -23zM307.998 633.001c-33.333 0 -59.5 8 -78.5 24s-28.5 38.333 -28.5 67c0 26.667 9.66699 48.5 29 65.5s45.333 25.5 78 25.5
c33.333 0 59.5 -8 78.5 -24s28.5 -38.333 28.5 -67c0 -26.667 -9.66699 -48.5 -29 -65.5s-45.333 -25.5 -78 -25.5z" />
    <glyph glyph-name="Ccaron" unicode="&#x10c;" horiz-adv-x="701" 
d="M417 -10c-54.667 0 -104.999 9.00391 -150.999 27.0039s-85.833 43.167 -119.5 75.5s-59.667 70.666 -78 114.999s-27.5 93.166 -27.5 146.499c0 52.667 9.5 101.167 28.5 145.5s45.5 82.833 79.5 115.5s74.333 58 121 76s97.667 27 153 27
c33.333 0 65.833 -4.16699 97.5 -12.5s61.5 -20.5 89.5 -36.5s53 -36 75 -60l-119 -138c-11.333 12.667 -24 24 -38 34s-29.833 17.833 -47.5 23.5s-37.167 8.5 -58.5 8.5c-24.667 0 -47.834 -4.16699 -69.501 -12.5s-40.5 -20.5 -56.5 -36.5s-28.5 -35.333 -37.5 -58
s-13.5 -48.667 -13.5 -78c0 -28 4.5 -53.167 13.5 -75.5s22 -41.333 39 -57s37.333 -27.834 61 -36.501s50.167 -13 79.5 -13c20.667 0 40.167 3 58.5 9s35.166 14 50.499 24s29 21 41 33l94 -149c-16.667 -18.667 -39.167 -35.334 -67.5 -50.001
s-59.666 -26.167 -93.999 -34.5s-68.833 -12.5 -103.5 -12.5zM370.001 754.004l-140 109l54 67l151 -74h-30l151 74l54 -67l-140 -109h-100z" />
    <glyph glyph-name="ccaron" unicode="&#x10d;" horiz-adv-x="550" 
d="M308 -10c-52.667 0 -99.8359 12.001 -141.503 36.001s-74.5 56.833 -98.5 98.5s-36 89.167 -36 142.5s12 100.833 36 142.5s56.833 74.5 98.5 98.5s88.834 36 141.501 36c48 0 92.167 -7.66699 132.5 -23s72.5 -37.333 96.5 -66l-101 -120
c-7.33301 9.33301 -16.666 17.833 -27.999 25.5s-23.833 13.667 -37.5 18s-28.834 6.5 -45.501 6.5c-22 0 -41.333 -5 -58 -15s-29.5 -23.833 -38.5 -41.5s-13.5 -37.834 -13.5 -60.501s4.33301 -42.667 13 -60s21.5 -31.333 38.5 -42s36.5 -16 58.5 -16
c16.667 0 31.834 2 45.501 6s26 9.66699 37 17s20.5 16 28.5 26l101 -121c-24.667 -28 -57.167 -49.667 -97.5 -65s-84.166 -23 -131.499 -23zM257.998 606.001l-155 137l66 57l154 -92h-30l154 92l66 -57l-155 -137h-100z" />
    <glyph glyph-name="Dcaron" unicode="&#x10e;" horiz-adv-x="783" 
d="M83 0v700h302c52.667 0 100.667 -8.66699 144 -26s81 -41.5 113 -72.5s56.667 -67.833 74 -110.5s26 -89.667 26 -141c0 -50.667 -8.66699 -97.5 -26 -140.5s-42 -80 -74 -111s-69.667 -55.167 -113 -72.5s-91.333 -26 -144 -26h-302zM281 126l-31.002 44.998h130
c24.667 0 46.834 4.33301 66.501 13s36.5 20.834 50.5 36.501s25 34.5 33 56.5s12 46.333 12 73s-4 51 -12 73s-19.167 40.833 -33.5 56.5s-31.166 27.834 -50.499 36.501s-41.333 13 -66 13h-133l34 43v-446zM340.998 753.998l-140 109l54 67l151 -74h-30l151 74l54 -67
l-140 -109h-100z" />
    <glyph glyph-name="dcaron" unicode="&#x10f;" horiz-adv-x="800" 
d="M264 -11c-44.667 0 -84.4971 11.8311 -119.497 35.498s-62.5 56.334 -82.5 98.001s-30 89.5 -30 143.5s10.167 101.833 30.5 143.5s48.166 74.5 83.499 98.5s75.666 36 120.999 36c23.333 0 45.666 -3.33301 66.999 -10s40.5 -16 57.5 -28s31.333 -26 43 -42
s19.167 -33 22.5 -51l-43 -12v339h187v-740h-169l-13 119l37 -7c-2.66699 -17.333 -9.66699 -33.333 -21 -48s-25.5 -27.667 -42.5 -39s-36.667 -20.166 -59 -26.499s-45.5 -9.5 -69.5 -9.5zM317.003 140.998c21.333 0 39.666 5.16699 54.999 15.5s27 24.666 35 42.999
s12 40.5 12 66.5s-4 48.5 -12 67.5s-19.667 33.333 -35 43s-33.666 14.5 -54.999 14.5s-39.666 -4.83301 -54.999 -14.5s-27 -24 -35 -43s-12 -41.5 -12 -67.5s4 -48.167 12 -66.5s19.667 -32.666 35 -42.999s33.666 -15.5 54.999 -15.5zM708.003 461.998l-48 59.9971
c9.33301 3.33301 20.333 8 33 14s23.834 13 33.501 21s14.5 16.333 14.5 25c0 6.66699 -2.33301 11.5 -7 14.5s-11.334 6.83301 -20.001 11.5c-14.667 6.66699 -25.334 14.667 -32.001 24s-10 21.333 -10 36c0 24.667 8.33301 42.834 25 54.501s37.334 17.5 62.001 17.5
c31.333 0 57.666 -8.5 78.999 -25.5s32 -43.833 32 -80.5c0 -22 -3.66699 -42.167 -11 -60.5s-18.166 -34.666 -32.499 -48.999s-31.5 -26.666 -51.5 -36.999s-42.333 -18.833 -67 -25.5z" />
    <glyph glyph-name="Dcroat" unicode="&#x110;" horiz-adv-x="783" 
d="M29 284v132h351v-132h-351zM83 0v700h302c52.667 0 100.667 -8.66699 144 -26s81 -41.5 113 -72.5s56.667 -67.833 74 -110.5s26 -89.667 26 -141c0 -50.667 -8.66699 -97.5 -26 -140.5s-42 -80 -74 -111s-69.667 -55.167 -113 -72.5s-91.333 -26 -144 -26h-302zM281 126
l-31.002 44.998h130c24.667 0 46.834 4.33301 66.501 13s36.5 20.834 50.5 36.501s25 34.5 33 56.5s12 46.333 12 73s-4 51 -12 73s-19.167 40.833 -33.5 56.5s-31.166 27.834 -50.499 36.501s-41.333 13 -66 13h-133l34 43v-446z" />
    <glyph glyph-name="dcroat" unicode="&#x111;" horiz-adv-x="663" 
d="M295 568v132h351v-132h-351zM264 -11c-44.667 0 -84.4971 11.8311 -119.497 35.498s-62.5 56.334 -82.5 98.001s-30 89.5 -30 143.5s10.167 101.833 30.5 143.5s48.166 74.5 83.499 98.5s75.666 36 120.999 36c23.333 0 45.666 -3.33301 66.999 -10s40.5 -16 57.5 -28
s31.333 -26 43 -42s19.167 -33 22.5 -51l-43 -12v339h187v-740h-169l-13 119l37 -7c-2.66699 -17.333 -9.66699 -33.333 -21 -48s-25.5 -27.667 -42.5 -39s-36.667 -20.166 -59 -26.499s-45.5 -9.5 -69.5 -9.5zM317.003 140.998c21.333 0 39.666 5.16699 54.999 15.5
s27 24.666 35 42.999s12 40.5 12 66.5s-4 48.5 -12 67.5s-19.667 33.333 -35 43s-33.666 14.5 -54.999 14.5s-39.666 -4.83301 -54.999 -14.5s-27 -24 -35 -43s-12 -41.5 -12 -67.5s4 -48.167 12 -66.5s19.667 -32.666 35 -42.999s33.666 -15.5 54.999 -15.5z" />
    <glyph glyph-name="Emacron" unicode="&#x112;" horiz-adv-x="659" 
d="M83 0v700h509v-163h-319v-374h334v-163h-524zM177 278v154h375v-154h-375zM163 789v113h371v-113h-371z" />
    <glyph glyph-name="emacron" unicode="&#x113;" horiz-adv-x="586" 
d="M327 -10c-60.667 0 -113.001 11.833 -157.001 35.5s-78 56.334 -102 98.001s-36 89.167 -36 142.5c0 40 6.66699 77 20 111s32 63.5 56 88.5s52.5 44.333 85.5 58s69.167 20.5 108.5 20.5c38.667 0 73.834 -6.66699 105.501 -20s59 -32.333 82 -57s40.667 -53.667 53 -87
s17.833 -70 16.5 -110l-1 -42h-420l-23 93h294l-18 -20v19c0 14.667 -3.83301 27.5 -11.5 38.5s-17.834 19.5 -30.501 25.5s-27 9 -43 9c-22.667 0 -41.5 -4.5 -56.5 -13.5s-26.5 -21.833 -34.5 -38.5s-12 -36.667 -12 -60c0 -26.667 5.5 -49.667 16.5 -69
s27.333 -34.333 49 -45s48.167 -16 79.5 -16c20.667 0 38.834 2.66699 54.501 8s32.5 14.666 50.5 27.999l86 -121c-23.333 -18.667 -46.833 -33.5 -70.5 -44.5s-47.167 -19 -70.5 -24s-47 -7.5 -71 -7.5zM122.999 638v113h358v-113h-358z" />
    <glyph glyph-name="Ebreve" unicode="&#x114;" horiz-adv-x="659" 
d="M83 0v700h509v-163h-319v-374h334v-163h-524zM177 278v154h375v-154h-375zM349 760c-31.333 0 -60 6.5 -86 19.5s-47.667 31.5 -65 55.5s-29.333 52 -36 84l116 12c6 -17.333 15.5 -31.166 28.5 -41.499s27.167 -15.5 42.5 -15.5s29.5 5.16699 42.5 15.5
s22.5 24.166 28.5 41.499l116 -12c-6.66699 -32 -18.667 -60 -36 -84s-38.833 -42.5 -64.5 -55.5s-54.5 -19.5 -86.5 -19.5z" />
    <glyph glyph-name="ebreve" unicode="&#x115;" horiz-adv-x="586" 
d="M327 -10c-60.667 0 -113.001 11.833 -157.001 35.5s-78 56.334 -102 98.001s-36 89.167 -36 142.5c0 40 6.66699 77 20 111s32 63.5 56 88.5s52.5 44.333 85.5 58s69.167 20.5 108.5 20.5c38.667 0 73.834 -6.66699 105.501 -20s59 -32.333 82 -57s40.667 -53.667 53 -87
s17.833 -70 16.5 -110l-1 -42h-420l-23 93h294l-18 -20v19c0 14.667 -3.83301 27.5 -11.5 38.5s-17.834 19.5 -30.501 25.5s-27 9 -43 9c-22.667 0 -41.5 -4.5 -56.5 -13.5s-26.5 -21.833 -34.5 -38.5s-12 -36.667 -12 -60c0 -26.667 5.5 -49.667 16.5 -69
s27.333 -34.333 49 -45s48.167 -16 79.5 -16c20.667 0 38.834 2.66699 54.501 8s32.5 14.666 50.5 27.999l86 -121c-23.333 -18.667 -46.833 -33.5 -70.5 -44.5s-47.167 -19 -70.5 -24s-47 -7.5 -71 -7.5zM301.999 606c-47.333 0 -87.833 14.333 -121.5 43
s-55.5 68.334 -65.5 119.001l116 12c6 -18.667 15.5 -33.334 28.5 -44.001s27.167 -16 42.5 -16s29.5 5.33301 42.5 16s22.5 25.334 28.5 44.001l116 -12c-10 -50.667 -31.833 -90.334 -65.5 -119.001s-74.167 -43 -121.5 -43z" />
    <glyph glyph-name="Edotaccent" unicode="&#x116;" horiz-adv-x="659" 
d="M83 0v700h509v-163h-319v-374h334v-163h-524zM177 278v154h375v-154h-375zM349 755c-34 0 -60.333 7.83398 -79 23.501s-28 38.167 -28 67.5c0 26 9.5 47.5 28.5 64.5s45.167 25.5 78.5 25.5c34 0 60.333 -7.83301 79 -23.5s28 -37.834 28 -66.501
c0 -26.667 -9.5 -48.5 -28.5 -65.5s-45.167 -25.5 -78.5 -25.5z" />
    <glyph glyph-name="edotaccent" unicode="&#x117;" horiz-adv-x="586" 
d="M327 -10c-60.667 0 -113.001 11.833 -157.001 35.5s-78 56.334 -102 98.001s-36 89.167 -36 142.5c0 40 6.66699 77 20 111s32 63.5 56 88.5s52.5 44.333 85.5 58s69.167 20.5 108.5 20.5c38.667 0 73.834 -6.66699 105.501 -20s59 -32.333 82 -57s40.667 -53.667 53 -87
s17.833 -70 16.5 -110l-1 -42h-420l-23 93h294l-18 -20v19c0 14.667 -3.83301 27.5 -11.5 38.5s-17.834 19.5 -30.501 25.5s-27 9 -43 9c-22.667 0 -41.5 -4.5 -56.5 -13.5s-26.5 -21.833 -34.5 -38.5s-12 -36.667 -12 -60c0 -26.667 5.5 -49.667 16.5 -69
s27.333 -34.333 49 -45s48.167 -16 79.5 -16c20.667 0 38.834 2.66699 54.501 8s32.5 14.666 50.5 27.999l86 -121c-23.333 -18.667 -46.833 -33.5 -70.5 -44.5s-47.167 -19 -70.5 -24s-47 -7.5 -71 -7.5zM301.999 633c-33.333 0 -59.5 8 -78.5 24s-28.5 38.333 -28.5 67
c0 26.667 9.66699 48.5 29 65.5s45.333 25.5 78 25.5c33.333 0 59.5 -8 78.5 -24s28.5 -38.333 28.5 -67c0 -26.667 -9.66699 -48.5 -29 -65.5s-45.333 -25.5 -78 -25.5z" />
    <glyph glyph-name="Eogonek" unicode="&#x118;" horiz-adv-x="659" 
d="M83 0v700h509v-163h-319v-374h334v-163h-524zM177 278v154h375v-154h-375zM481 -217c-24 0 -45.5 4.66992 -64.5 14.0029s-34 22.166 -45 38.499s-16.5 35.166 -16.5 56.499c0 17.333 4 34 12 50s19.5 30.667 34.5 44s33.167 25.5 54.5 36.5s45 19.833 71 26.5l33 -49
c-15.333 -2.66699 -29.5 -7.83398 -42.5 -15.501s-23.333 -16.5 -31 -26.5s-11.5 -20.333 -11.5 -31c0 -8 2.16699 -14.667 6.5 -20s10.166 -8 17.499 -8s13.333 1.83301 18 5.5s9.33398 9.5 14.001 17.5l76 -56c-11.333 -24 -27.5 -43.833 -48.5 -59.5
s-46.833 -23.5 -77.5 -23.5z" />
    <glyph glyph-name="eogonek" unicode="&#x119;" horiz-adv-x="586" 
d="M379 -207c-35.333 0 -63.499 10.668 -84.499 32.001s-31.5 47 -31.5 77c0 26.667 8.5 50.667 25.5 72s41.167 41.833 72.5 61.5s68 39.5 110 59.5l30 -55c-37.333 -20 -66.5 -37.833 -87.5 -53.5s-31.5 -32.5 -31.5 -50.5c0 -9.33301 2.5 -16.333 7.5 -21
s10.833 -7 17.5 -7c6 0 11.667 1.83301 17 5.5s10.666 9.5 15.999 17.5l76 -56c-8 -12.667 -18.167 -25.334 -30.5 -38.001s-27.333 -23.167 -45 -31.5s-38.167 -12.5 -61.5 -12.5zM327.001 -9.99902c-60.667 0 -113.001 11.833 -157.001 35.5s-78 56.334 -102 98.001
s-36 89.167 -36 142.5c0 40 6.66699 77 20 111s32 63.5 56 88.5s52.5 44.333 85.5 58s69.167 20.5 108.5 20.5c38.667 0 73.834 -6.66699 105.501 -20s59 -32.333 82 -57s40.667 -53.667 53 -87s17.833 -70 16.5 -110l-1 -42h-420l-23 93h294l-18 -20v19
c0 14.667 -3.83301 27.5 -11.5 38.5s-17.834 19.5 -30.501 25.5s-27 9 -43 9c-22.667 0 -41.5 -4.5 -56.5 -13.5s-26.5 -21.833 -34.5 -38.5s-12 -36.667 -12 -60c0 -26.667 5.5 -49.667 16.5 -69s27.333 -34.333 49 -45s48.167 -16 79.5 -16
c20.667 0 38.834 2.66699 54.501 8s32.5 14.666 50.5 27.999l86 -121c-23.333 -18.667 -46.833 -33.5 -70.5 -44.5s-47.167 -19 -70.5 -24s-47 -7.5 -71 -7.5z" />
    <glyph glyph-name="Ecaron" unicode="&#x11a;" horiz-adv-x="659" 
d="M83 0v700h509v-163h-319v-374h334v-163h-524zM177 278v154h375v-154h-375zM299 754l-140 109l54 67l151 -74h-30l151 74l54 -67l-140 -109h-100z" />
    <glyph glyph-name="ecaron" unicode="&#x11b;" horiz-adv-x="586" 
d="M327 -10c-60.667 0 -113.001 11.833 -157.001 35.5s-78 56.334 -102 98.001s-36 89.167 -36 142.5c0 40 6.66699 77 20 111s32 63.5 56 88.5s52.5 44.333 85.5 58s69.167 20.5 108.5 20.5c38.667 0 73.834 -6.66699 105.501 -20s59 -32.333 82 -57s40.667 -53.667 53 -87
s17.833 -70 16.5 -110l-1 -42h-420l-23 93h294l-18 -20v19c0 14.667 -3.83301 27.5 -11.5 38.5s-17.834 19.5 -30.501 25.5s-27 9 -43 9c-22.667 0 -41.5 -4.5 -56.5 -13.5s-26.5 -21.833 -34.5 -38.5s-12 -36.667 -12 -60c0 -26.667 5.5 -49.667 16.5 -69
s27.333 -34.333 49 -45s48.167 -16 79.5 -16c20.667 0 38.834 2.66699 54.501 8s32.5 14.666 50.5 27.999l86 -121c-23.333 -18.667 -46.833 -33.5 -70.5 -44.5s-47.167 -19 -70.5 -24s-47 -7.5 -71 -7.5zM251.999 606l-155 137l66 57l154 -92h-30l154 92l66 -57l-155 -137
h-100z" />
    <glyph glyph-name="Gcircumflex" unicode="&#x11c;" horiz-adv-x="788" 
d="M413 -10c-58 0 -110 8.99805 -156 26.998s-85.167 43.333 -117.5 76s-56.833 71.334 -73.5 116.001s-25 93 -25 145c0 52.667 9.16699 101.167 27.5 145.5s44.833 82.833 79.5 115.5s75.5 58 122.5 76s99.167 27 156.5 27c39.333 0 76.5 -5 111.5 -15
s66.5 -23.667 94.5 -41s52 -36.666 72 -57.999l-118 -126c-14.667 14 -30.167 26 -46.5 36s-34 18 -53 24s-40.167 9 -63.5 9c-26 0 -49.833 -4.83301 -71.5 -14.5s-40.5 -23 -56.5 -40s-28.5 -37.333 -37.5 -61s-13.5 -49.5 -13.5 -77.5
c0 -27.333 4.66699 -52.833 14 -76.5s22.333 -44.167 39 -61.5s36.5 -30.833 59.5 -40.5s47.833 -14.5 74.5 -14.5c18.667 0 36 3 52 9s29.833 14.167 41.5 24.5s20.834 22.666 27.501 36.999s10 29.833 10 46.5v28l26 -42h-184v144h338
c0.666992 -7.33301 1.5 -18.5 2.5 -33.5s1.66699 -29.833 2 -44.5s0.5 -25 0.5 -31c0 -44.667 -8.33301 -86 -25 -124s-40 -70.667 -70 -98s-65.333 -48.666 -106 -63.999s-85.334 -23 -134.001 -23zM280 752.998l-55 67l142 109h97l141 -109l-54 -67l-151 74h30z" />
    <glyph glyph-name="gcircumflex" unicode="&#x11d;" horiz-adv-x="678" 
d="M317 -230c-46 0 -91.668 6.49805 -137.001 19.498s-82.333 29.833 -111 50.5l63 127c14.667 -9.33301 30.167 -17.5 46.5 -24.5s33.5 -12.167 51.5 -15.5s37 -5 57 -5c32 0 58.167 4.5 78.5 13.5s35.333 22.833 45 41.5s14.5 42.667 14.5 72v84l39 -5
c-4.66699 -22 -16 -41.833 -34 -59.5s-40.5 -31.667 -67.5 -42s-55.167 -15.5 -84.5 -15.5c-48 0 -90.333 10.833 -127 32.5s-65.667 51.834 -87 90.501s-32 84 -32 136c0 54 10.5 101.5 31.5 142.5s49.5 73.167 85.5 96.5s77.333 35 124 35c20 0 39 -2 57 -6
s34.833 -9.66699 50.5 -17s29.5 -16.166 41.5 -26.499s21.833 -21.5 29.5 -33.5s12.834 -24.667 15.501 -38l-38 -9l9 119h174v-484c0 -44.667 -6.66699 -84.167 -20 -118.5s-32.833 -63.5 -58.5 -87.5s-56.667 -42.167 -93 -54.5s-77.5 -18.5 -123.5 -18.5z
M321.999 146.998c22.667 0 42 5 58 15s28.333 24 37 42s13 39.667 13 65s-4.33301 47.166 -13 65.499s-21 32.333 -37 42s-35.333 14.5 -58 14.5s-42 -4.83301 -58 -14.5s-28.167 -23.667 -36.5 -42s-12.5 -40.166 -12.5 -65.499s4.16699 -47 12.5 -65s20.5 -32 36.5 -42
s35.333 -15 58 -15zM197.999 597.998l-66 57l157 137h100l157 -137l-66 -57l-156 92h30z" />
    <glyph glyph-name="Gbreve" unicode="&#x11e;" horiz-adv-x="788" 
d="M413 -10c-58 0 -110 8.99805 -156 26.998s-85.167 43.333 -117.5 76s-56.833 71.334 -73.5 116.001s-25 93 -25 145c0 52.667 9.16699 101.167 27.5 145.5s44.833 82.833 79.5 115.5s75.5 58 122.5 76s99.167 27 156.5 27c39.333 0 76.5 -5 111.5 -15
s66.5 -23.667 94.5 -41s52 -36.666 72 -57.999l-118 -126c-14.667 14 -30.167 26 -46.5 36s-34 18 -53 24s-40.167 9 -63.5 9c-26 0 -49.833 -4.83301 -71.5 -14.5s-40.5 -23 -56.5 -40s-28.5 -37.333 -37.5 -61s-13.5 -49.5 -13.5 -77.5
c0 -27.333 4.66699 -52.833 14 -76.5s22.333 -44.167 39 -61.5s36.5 -30.833 59.5 -40.5s47.833 -14.5 74.5 -14.5c18.667 0 36 3 52 9s29.833 14.167 41.5 24.5s20.834 22.666 27.501 36.999s10 29.833 10 46.5v28l26 -42h-184v144h338
c0.666992 -7.33301 1.5 -18.5 2.5 -33.5s1.66699 -29.833 2 -44.5s0.5 -25 0.5 -31c0 -44.667 -8.33301 -86 -25 -124s-40 -70.667 -70 -98s-65.333 -48.666 -106 -63.999s-85.334 -23 -134.001 -23zM415 759.998c-31.333 0 -60 6.5 -86 19.5s-47.667 31.5 -65 55.5
s-29.333 52 -36 84l116 12c6 -17.333 15.5 -31.166 28.5 -41.499s27.167 -15.5 42.5 -15.5s29.5 5.16699 42.5 15.5s22.5 24.166 28.5 41.499l116 -12c-6.66699 -32 -18.667 -60 -36 -84s-38.833 -42.5 -64.5 -55.5s-54.5 -19.5 -86.5 -19.5z" />
    <glyph glyph-name="gbreve" unicode="&#x11f;" horiz-adv-x="678" 
d="M317 -230c-46 0 -91.668 6.49805 -137.001 19.498s-82.333 29.833 -111 50.5l63 127c14.667 -9.33301 30.167 -17.5 46.5 -24.5s33.5 -12.167 51.5 -15.5s37 -5 57 -5c32 0 58.167 4.5 78.5 13.5s35.333 22.833 45 41.5s14.5 42.667 14.5 72v84l39 -5
c-4.66699 -22 -16 -41.833 -34 -59.5s-40.5 -31.667 -67.5 -42s-55.167 -15.5 -84.5 -15.5c-48 0 -90.333 10.833 -127 32.5s-65.667 51.834 -87 90.501s-32 84 -32 136c0 54 10.5 101.5 31.5 142.5s49.5 73.167 85.5 96.5s77.333 35 124 35c20 0 39 -2 57 -6
s34.833 -9.66699 50.5 -17s29.5 -16.166 41.5 -26.499s21.833 -21.5 29.5 -33.5s12.834 -24.667 15.501 -38l-38 -9l9 119h174v-484c0 -44.667 -6.66699 -84.167 -20 -118.5s-32.833 -63.5 -58.5 -87.5s-56.667 -42.167 -93 -54.5s-77.5 -18.5 -123.5 -18.5z
M321.999 146.998c22.667 0 42 5 58 15s28.333 24 37 42s13 39.667 13 65s-4.33301 47.166 -13 65.499s-21 32.333 -37 42s-35.333 14.5 -58 14.5s-42 -4.83301 -58 -14.5s-28.167 -23.667 -36.5 -42s-12.5 -40.166 -12.5 -65.499s4.16699 -47 12.5 -65s20.5 -32 36.5 -42
s35.333 -15 58 -15zM338.999 605.998c-47.333 0 -87.833 14.333 -121.5 43s-55.5 68.334 -65.5 119.001l116 12c6 -18.667 15.5 -33.334 28.5 -44.001s27.167 -16 42.5 -16s29.5 5.33301 42.5 16s22.5 25.334 28.5 44.001l116 -12
c-10 -50.667 -31.833 -90.334 -65.5 -119.001s-74.167 -43 -121.5 -43z" />
    <glyph glyph-name="Gdotaccent" unicode="&#x120;" horiz-adv-x="788" 
d="M413 -10c-58 0 -110 8.99805 -156 26.998s-85.167 43.333 -117.5 76s-56.833 71.334 -73.5 116.001s-25 93 -25 145c0 52.667 9.16699 101.167 27.5 145.5s44.833 82.833 79.5 115.5s75.5 58 122.5 76s99.167 27 156.5 27c39.333 0 76.5 -5 111.5 -15
s66.5 -23.667 94.5 -41s52 -36.666 72 -57.999l-118 -126c-14.667 14 -30.167 26 -46.5 36s-34 18 -53 24s-40.167 9 -63.5 9c-26 0 -49.833 -4.83301 -71.5 -14.5s-40.5 -23 -56.5 -40s-28.5 -37.333 -37.5 -61s-13.5 -49.5 -13.5 -77.5
c0 -27.333 4.66699 -52.833 14 -76.5s22.333 -44.167 39 -61.5s36.5 -30.833 59.5 -40.5s47.833 -14.5 74.5 -14.5c18.667 0 36 3 52 9s29.833 14.167 41.5 24.5s20.834 22.666 27.501 36.999s10 29.833 10 46.5v28l26 -42h-184v144h338
c0.666992 -7.33301 1.5 -18.5 2.5 -33.5s1.66699 -29.833 2 -44.5s0.5 -25 0.5 -31c0 -44.667 -8.33301 -86 -25 -124s-40 -70.667 -70 -98s-65.333 -48.666 -106 -63.999s-85.334 -23 -134.001 -23zM415 754.998c-34 0 -60.333 7.83398 -79 23.501s-28 38.167 -28 67.5
c0 26 9.5 47.5 28.5 64.5s45.167 25.5 78.5 25.5c34 0 60.333 -7.83301 79 -23.5s28 -37.834 28 -66.501c0 -26.667 -9.5 -48.5 -28.5 -65.5s-45.167 -25.5 -78.5 -25.5z" />
    <glyph glyph-name="gdotaccent" unicode="&#x121;" horiz-adv-x="678" 
d="M317 -230c-46 0 -91.668 6.49805 -137.001 19.498s-82.333 29.833 -111 50.5l63 127c14.667 -9.33301 30.167 -17.5 46.5 -24.5s33.5 -12.167 51.5 -15.5s37 -5 57 -5c32 0 58.167 4.5 78.5 13.5s35.333 22.833 45 41.5s14.5 42.667 14.5 72v84l39 -5
c-4.66699 -22 -16 -41.833 -34 -59.5s-40.5 -31.667 -67.5 -42s-55.167 -15.5 -84.5 -15.5c-48 0 -90.333 10.833 -127 32.5s-65.667 51.834 -87 90.501s-32 84 -32 136c0 54 10.5 101.5 31.5 142.5s49.5 73.167 85.5 96.5s77.333 35 124 35c20 0 39 -2 57 -6
s34.833 -9.66699 50.5 -17s29.5 -16.166 41.5 -26.499s21.833 -21.5 29.5 -33.5s12.834 -24.667 15.501 -38l-38 -9l9 119h174v-484c0 -44.667 -6.66699 -84.167 -20 -118.5s-32.833 -63.5 -58.5 -87.5s-56.667 -42.167 -93 -54.5s-77.5 -18.5 -123.5 -18.5z
M321.999 146.998c22.667 0 42 5 58 15s28.333 24 37 42s13 39.667 13 65s-4.33301 47.166 -13 65.499s-21 32.333 -37 42s-35.333 14.5 -58 14.5s-42 -4.83301 -58 -14.5s-28.167 -23.667 -36.5 -42s-12.5 -40.166 -12.5 -65.499s4.16699 -47 12.5 -65s20.5 -32 36.5 -42
s35.333 -15 58 -15zM338.999 632.998c-33.333 0 -59.5 8 -78.5 24s-28.5 38.333 -28.5 67c0 26.667 9.66699 48.5 29 65.5s45.333 25.5 78 25.5c33.333 0 59.5 -8 78.5 -24s28.5 -38.333 28.5 -67c0 -26.667 -9.66699 -48.5 -29 -65.5s-45.333 -25.5 -78 -25.5z" />
    <glyph glyph-name="uni0122" unicode="&#x122;" horiz-adv-x="788" 
d="M413 -10c-58 0 -110 8.99805 -156 26.998s-85.167 43.333 -117.5 76s-56.833 71.334 -73.5 116.001s-25 93 -25 145c0 52.667 9.16699 101.167 27.5 145.5s44.833 82.833 79.5 115.5s75.5 58 122.5 76s99.167 27 156.5 27c39.333 0 76.5 -5 111.5 -15
s66.5 -23.667 94.5 -41s52 -36.666 72 -57.999l-118 -126c-14.667 14 -30.167 26 -46.5 36s-34 18 -53 24s-40.167 9 -63.5 9c-26 0 -49.833 -4.83301 -71.5 -14.5s-40.5 -23 -56.5 -40s-28.5 -37.333 -37.5 -61s-13.5 -49.5 -13.5 -77.5
c0 -27.333 4.66699 -52.833 14 -76.5s22.333 -44.167 39 -61.5s36.5 -30.833 59.5 -40.5s47.833 -14.5 74.5 -14.5c18.667 0 36 3 52 9s29.833 14.167 41.5 24.5s20.834 22.666 27.501 36.999s10 29.833 10 46.5v28l26 -42h-184v144h338
c0.666992 -7.33301 1.5 -18.5 2.5 -33.5s1.66699 -29.833 2 -44.5s0.5 -25 0.5 -31c0 -44.667 -8.33301 -86 -25 -124s-40 -70.667 -70 -98s-65.333 -48.666 -106 -63.999s-85.334 -23 -134.001 -23zM338 -316.002l-48 59.9971c9.33301 3.33301 20.333 8 33 14
s23.834 13 33.501 21s14.5 16.333 14.5 25c0 6.66699 -2.33301 11.5 -7 14.5s-11.334 6.83301 -20.001 11.5c-14.667 6.66699 -25.334 14.667 -32.001 24s-10 21.333 -10 36c0 24.667 8.33301 42.834 25 54.501s37.334 17.5 62.001 17.5c31.333 0 57.666 -8.5 78.999 -25.5
s32 -43.833 32 -80.5c0 -22 -3.66699 -42.167 -11 -60.5s-18.166 -34.666 -32.499 -48.999s-31.5 -26.666 -51.5 -36.999s-42.333 -18.833 -67 -25.5z" />
    <glyph glyph-name="uni0123" unicode="&#x123;" horiz-adv-x="678" 
d="M317 -230c-46 0 -91.668 6.49805 -137.001 19.498s-82.333 29.833 -111 50.5l63 127c14.667 -9.33301 30.167 -17.5 46.5 -24.5s33.5 -12.167 51.5 -15.5s37 -5 57 -5c32 0 58.167 4.5 78.5 13.5s35.333 22.833 45 41.5s14.5 42.667 14.5 72v84l39 -5
c-4.66699 -22 -16 -41.833 -34 -59.5s-40.5 -31.667 -67.5 -42s-55.167 -15.5 -84.5 -15.5c-48 0 -90.333 10.833 -127 32.5s-65.667 51.834 -87 90.501s-32 84 -32 136c0 54 10.5 101.5 31.5 142.5s49.5 73.167 85.5 96.5s77.333 35 124 35c20 0 39 -2 57 -6
s34.833 -9.66699 50.5 -17s29.5 -16.166 41.5 -26.499s21.833 -21.5 29.5 -33.5s12.834 -24.667 15.501 -38l-38 -9l9 119h174v-484c0 -44.667 -6.66699 -84.167 -20 -118.5s-32.833 -63.5 -58.5 -87.5s-56.667 -42.167 -93 -54.5s-77.5 -18.5 -123.5 -18.5z
M321.999 146.998c22.667 0 42 5 58 15s28.333 24 37 42s13 39.667 13 65s-4.33301 47.166 -13 65.499s-21 32.333 -37 42s-35.333 14.5 -58 14.5s-42 -4.83301 -58 -14.5s-28.167 -23.667 -36.5 -42s-12.5 -40.166 -12.5 -65.499s4.16699 -47 12.5 -65s20.5 -32 36.5 -42
s35.333 -15 58 -15zM340.999 590.998c-29.333 0 -54.5 8.83301 -75.5 26.5s-31.5 45.5 -31.5 83.5c0 20 4 38.333 12 55s19.333 32 34 46s32 26.5 52 37.5s41.333 20.833 64 29.5l48 -60c-8.66699 -2.66699 -19.5 -7 -32.5 -13s-24.333 -13 -34 -21s-14.5 -16.667 -14.5 -26
c0 -6.66699 2.5 -11.667 7.5 -15s11.5 -7 19.5 -11c14 -6 24.5 -13.667 31.5 -23s10.5 -21.666 10.5 -36.999c0 -24.667 -8.83301 -42.834 -26.5 -54.501s-39.167 -17.5 -64.5 -17.5z" />
    <glyph glyph-name="Hcircumflex" unicode="&#x124;" horiz-adv-x="788" 
d="M507 0v700h198v-700h-198zM83 0v700h198v-700h-198zM158 262l1 174h457v-174h-458zM259 753l-55 67l142 109h97l141 -109l-54 -67l-151 74h30z" />
    <glyph glyph-name="hcircumflex" unicode="&#x125;" horiz-adv-x="653" 
d="M70 0l0.000976562 740h182v-315l-38 -12c6.66699 25.333 19.667 47.833 39 67.5s42.333 35.167 69 46.5s54.667 17 84 17c40 0 73.833 -8.16699 101.5 -24.5s48.667 -40.666 63 -72.999s21.5 -71.833 21.5 -118.5v-328h-186v313c0 17.333 -2.66699 31.833 -8 43.5
s-13.333 20.5 -24 26.5s-23.334 8.66699 -38.001 8c-11.333 0 -21.833 -1.66699 -31.5 -5s-18.167 -8.5 -25.5 -15.5s-12.833 -14.833 -16.5 -23.5s-5.5 -18.334 -5.5 -29.001v-318h-93h-57.5h-36.5zM192.001 793l-55 67l142 109h97l141 -109l-54 -67l-151 74h30z" />
    <glyph glyph-name="Hbar" unicode="&#x126;" horiz-adv-x="804" 
d="M24 485v154h80l90 -10h394l106 10h89v-154h-88l-95 10h-416l-82 -10h-78zM516 0v700h198v-700h-198zM93 0v700h198v-700h-198zM168 262l1 174h457v-174h-458z" />
    <glyph glyph-name="hbar" unicode="&#x127;" horiz-adv-x="653" 
d="M14 571v132h351v-132h-351zM70 0l0.000976562 740h182v-315l-38 -12c6.66699 25.333 19.667 47.833 39 67.5s42.333 35.167 69 46.5s54.667 17 84 17c40 0 73.833 -8.16699 101.5 -24.5s48.667 -40.666 63 -72.999s21.5 -71.833 21.5 -118.5v-328h-186v313
c0 17.333 -2.66699 31.833 -8 43.5s-13.333 20.5 -24 26.5s-23.334 8.66699 -38.001 8c-11.333 0 -21.833 -1.66699 -31.5 -5s-18.167 -8.5 -25.5 -15.5s-12.833 -14.833 -16.5 -23.5s-5.5 -18.334 -5.5 -29.001v-318h-93h-57.5h-36.5z" />
    <glyph glyph-name="Itilde" unicode="&#x128;" horiz-adv-x="590" 
d="M74 0v162h122v376h-122v162h441v-162h-121v-376h121v-162h-441zM373 768c-12 0 -24.3311 1.83594 -36.998 5.50293s-27.334 9.16699 -44.001 16.5c-12.667 6 -23 10.5 -31 13.5s-15.333 4.5 -22 4.5c-10 0 -17.667 -3.5 -23 -10.5s-8 -16.5 -8 -28.5h-110
c0 47.333 12.167 84.833 36.5 112.5s56.833 41.5 97.5 41.5c10.667 0 21.5 -1.33301 32.5 -4s26.5 -8.66699 46.5 -18c11.333 -6 20.333 -10.333 27 -13s13 -4 19 -4c8.66699 0 15.167 3.66699 19.5 11s6.16602 16.666 5.49902 27.999h109
c0 -28.667 -4.83301 -54.834 -14.5 -78.501s-23.5 -42.334 -41.5 -56.001s-38.667 -20.5 -62 -20.5z" />
    <glyph glyph-name="itilde" unicode="&#x129;" horiz-adv-x="310" 
d="M62 0v533h186v-533h-186zM231 613c-10.667 0 -22.3311 1.66699 -34.998 5s-28 11 -46 23c-11.333 8.66699 -20.833 14.667 -28.5 18s-13.834 5 -18.501 5c-10 0 -18.667 -3.5 -26 -10.5s-11.666 -17.833 -12.999 -32.5l-99 13c0 40 10.5 73.667 31.5 101s49.5 41 85.5 41
c10.667 0 22.167 -1.5 34.5 -4.5s27.166 -10.167 44.499 -21.5c7.33301 -5.33301 15.166 -10.5 23.499 -15.5s16.833 -7.5 25.5 -7.5c9.33301 0 17.5 3.5 24.5 10.5s11.167 17.833 12.5 32.5l98 -14c0 -24.667 -4.83301 -48 -14.5 -70s-23 -39.667 -40 -53
s-36.833 -20 -59.5 -20z" />
    <glyph glyph-name="Imacron" unicode="&#x12a;" horiz-adv-x="590" 
d="M74 0v162h122v376h-122v162h441v-162h-121v-376h121v-162h-441zM109 789v113h371v-113h-371z" />
    <glyph glyph-name="imacron" unicode="&#x12b;" horiz-adv-x="310" 
d="M62 0v533h186v-533h-186zM-24 638v113h358v-113h-358z" />
    <glyph glyph-name="Ibreve" unicode="&#x12c;" horiz-adv-x="590" 
d="M74 0v162h122v376h-122v162h441v-162h-121v-376h121v-162h-441zM295 760c-31.333 0 -60 6.5 -86 19.5s-47.667 31.5 -65 55.5s-29.333 52 -36 84l116 12c6 -17.333 15.5 -31.166 28.5 -41.499s27.167 -15.5 42.5 -15.5s29.5 5.16699 42.5 15.5s22.5 24.166 28.5 41.499
l116 -12c-6.66699 -32 -18.667 -60 -36 -84s-38.833 -42.5 -64.5 -55.5s-54.5 -19.5 -86.5 -19.5z" />
    <glyph glyph-name="ibreve" unicode="&#x12d;" horiz-adv-x="310" 
d="M62 0v533h186v-533h-186zM155 606c-47.333 0 -87.833 14.333 -121.5 43s-55.5 68.334 -65.5 119.001l116 12c6 -18.667 15.5 -33.334 28.5 -44.001s27.167 -16 42.5 -16s29.5 5.33301 42.5 16s22.5 25.334 28.5 44.001l116 -12
c-10 -50.667 -31.833 -90.334 -65.5 -119.001s-74.167 -43 -121.5 -43z" />
    <glyph glyph-name="Iogonek" unicode="&#x12e;" horiz-adv-x="590" 
d="M74 0v162h122v376h-122v162h441v-162h-121v-376h121v-162h-441zM342 -217c-24 0 -45.5 4.66992 -64.5 14.0029s-34 22.166 -45 38.499s-16.5 35.166 -16.5 56.499c0 17.333 4 34 12 50s19.5 30.667 34.5 44s33.167 25.5 54.5 36.5s45 19.833 71 26.5l33 -49
c-15.333 -2.66699 -29.5 -7.83398 -42.5 -15.501s-23.333 -16.5 -31 -26.5s-11.5 -20.333 -11.5 -31c0 -8 2.16699 -14.667 6.5 -20s10.166 -8 17.499 -8s13.333 1.83301 18 5.5s9.33398 9.5 14.001 17.5l76 -56c-11.333 -24 -27.5 -43.833 -48.5 -59.5
s-46.833 -23.5 -77.5 -23.5z" />
    <glyph glyph-name="iogonek" unicode="&#x12f;" horiz-adv-x="310" 
d="M62 0v533h186v-533h-186zM155 633c-33.333 0 -59.5 8 -78.5 24s-28.5 38.333 -28.5 67c0 26.667 9.66699 48.5 29 65.5s45.333 25.5 78 25.5c33.333 0 59.5 -8 78.5 -24s28.5 -38.333 28.5 -67c0 -26.667 -9.66699 -48.5 -29 -65.5s-45.333 -25.5 -78 -25.5zM140 -216
c-24 0 -45.498 5.17285 -64.498 15.5059s-34 24.166 -45 41.499s-16.5 36.666 -16.5 57.999c0 17.333 3.66699 33.333 11 48s18.166 28.167 32.499 40.5s32.5 23.666 54.5 33.999s48 19.166 78 26.499l42 -48c-17.333 -4 -33.5 -9.83301 -48.5 -17.5s-27 -16.5 -36 -26.5
s-13.5 -20.667 -13.5 -32c0 -7.33301 2.33301 -13.333 7 -18s10.667 -7 18 -7c6.66699 0 12.167 2 16.5 6s9.16602 10 14.499 18l76 -56c-8 -12.667 -18.167 -25.334 -30.5 -38.001s-26.5 -23.334 -42.5 -32.001s-33.667 -13 -53 -13z" />
    <glyph glyph-name="Idotaccent" unicode="&#x130;" horiz-adv-x="590" 
d="M74 0v162h122v376h-122v162h441v-162h-121v-376h121v-162h-441zM295 755c-34 0 -60.333 7.83398 -79 23.501s-28 38.167 -28 67.5c0 26 9.5 47.5 28.5 64.5s45.167 25.5 78.5 25.5c34 0 60.333 -7.83301 79 -23.5s28 -37.834 28 -66.501
c0 -26.667 -9.5 -48.5 -28.5 -65.5s-45.167 -25.5 -78.5 -25.5z" />
    <glyph glyph-name="dotlessi" unicode="&#x131;" horiz-adv-x="310" 
d="M62 0v533h186v-533h-186z" />
    <glyph glyph-name="IJ" unicode="&#x132;" horiz-adv-x="1265" 
d="M74 0v162h122v376h-122v162h441v-162h-121v-376h121v-162h-441zM853 -10c-26.667 0 -51.665 2.82812 -74.998 8.49512s-44.666 13.834 -63.999 24.501s-36.333 23.834 -51 39.501s-27.667 33.167 -39 52.5l111 115c7.33301 -10.667 14.5 -20.167 21.5 -28.5
s14.167 -15 21.5 -20s15.166 -9 23.499 -12s16.833 -4.5 25.5 -4.5c12.667 0 23.834 3 33.501 9s17.167 14.333 22.5 25s8 23.334 8 38.001v293h-129v170h428v-170h-108v-317c0 -35.333 -5.83301 -66.666 -17.5 -93.999s-27.834 -50.666 -48.501 -69.999
s-44.834 -34 -72.501 -44s-57.834 -15 -90.501 -15z" />
    <glyph glyph-name="ij" unicode="&#x133;" horiz-adv-x="676" 
d="M76 0v533h186v-533h-186zM169 634c-34 0 -60.333 7.83301 -79 23.5s-28 37.834 -28 66.501c0 26.667 9.5 48.5 28.5 65.5s45.167 25.5 78.5 25.5s59.5 -7.83301 78.5 -23.5s28.5 -38.167 28.5 -67.5c0 -26.667 -9.66699 -48.334 -29 -65.001s-45.333 -25 -78 -25z
M367 -215l-71.002 143.999c32.667 0 57.834 3.66699 75.501 11s29.834 20.333 36.501 39s10 45.334 10 80.001v474h186v-518c0 -55.333 -8.83301 -99.833 -26.5 -133.5s-44 -58.167 -79 -73.5s-78.833 -23 -131.5 -23zM513.998 633.999c-34 0 -60.333 7.83301 -79 23.5
s-28 37.834 -28 66.501c0 26.667 9.5 48.5 28.5 65.5s45.167 25.5 78.5 25.5s59.5 -7.83301 78.5 -23.5s28.5 -38.167 28.5 -67.5c0 -26.667 -9.66699 -48.334 -29 -65.001s-45.333 -25 -78 -25z" />
    <glyph glyph-name="Jcircumflex" unicode="&#x134;" horiz-adv-x="675" 
d="M263 -10c-26.667 0 -51.665 2.82812 -74.998 8.49512s-44.666 13.834 -63.999 24.501s-36.333 23.834 -51 39.501s-27.667 33.167 -39 52.5l111 115c7.33301 -10.667 14.5 -20.167 21.5 -28.5s14.167 -15 21.5 -20s15.166 -9 23.499 -12s16.833 -4.5 25.5 -4.5
c12.667 0 23.834 3 33.501 9s17.167 14.333 22.5 25s8 23.334 8 38.001v293h-129v170h428v-170h-108v-317c0 -35.333 -5.83301 -66.666 -17.5 -93.999s-27.834 -50.666 -48.501 -69.999s-44.834 -34 -72.501 -44s-57.834 -15 -90.501 -15zM262.002 752.995l-55 67l142 109
h97l141 -109l-54 -67l-151 74h30z" />
    <glyph glyph-name="jcircumflex" unicode="&#x135;" horiz-adv-x="338" 
d="M29 -215l-71.002 143.999c32.667 0 57.834 3.66699 75.501 11s29.834 20.333 36.501 39s10 45.334 10 80.001v474h186v-518c0 -55.333 -8.83301 -99.833 -26.5 -133.5s-44 -58.167 -79 -73.5s-78.833 -23 -131.5 -23zM33.998 597.999l-66 57l157 137h100l157 -137
l-66 -57l-156 92h30z" />
    <glyph glyph-name="uni0136" unicode="&#x136;" horiz-adv-x="742" 
d="M223 201l-62 154l339 345h228zM83 0v700h198v-700h-198zM526 0l-256 336l130 112l353 -448h-227zM314 -316l-48 59.9971c9.33301 3.33301 20.333 8 33 14s23.834 13 33.501 21s14.5 16.333 14.5 25c0 6.66699 -2.33301 11.5 -7 14.5s-11.334 6.83301 -20.001 11.5
c-14.667 6.66699 -25.334 14.667 -32.001 24s-10 21.333 -10 36c0 24.667 8.33301 42.834 25 54.501s37.334 17.5 62.001 17.5c31.333 0 57.666 -8.5 78.999 -25.5s32 -43.833 32 -80.5c0 -22 -3.66699 -42.167 -11 -60.5s-18.166 -34.666 -32.499 -48.999
s-31.5 -26.666 -51.5 -36.999s-42.333 -18.833 -67 -25.5z" />
    <glyph glyph-name="uni0137" unicode="&#x137;" horiz-adv-x="652" 
d="M252 152l-84 124l247 257h243zM70 0v740h187v-740h-187zM433 0l-182 248l131 96l266 -344h-215zM269 -316l-48 59.9971c9.33301 3.33301 20.333 8 33 14s23.834 12.833 33.501 20.5s14.5 16.5 14.5 26.5c0 6 -2.33301 10.667 -7 14s-11.334 7 -20.001 11
c-14.667 6.66699 -25.334 14.667 -32.001 24s-10 21.333 -10 36c0 24.667 8.83301 43 26.5 55s39.167 18 64.5 18c30 0 55.333 -9.16699 76 -27.5s31 -46.166 31 -83.499c0 -19.333 -3.66699 -37.166 -11 -53.499s-18.166 -31.5 -32.499 -45.5s-31.5 -26.667 -51.5 -38
s-42.333 -21.666 -67 -30.999z" />
    <glyph glyph-name="kgreenlandic" unicode="&#x138;" horiz-adv-x="663" 
d="M251 126l-84 122l247 285h240zM70 0v533h186v-533h-186zM430 0l-172 255l129 92l257 -347h-214z" />
    <glyph glyph-name="Lacute" unicode="&#x139;" horiz-adv-x="613" 
d="M83 0v700h198v-529h305v-171h-503zM85 744l-40 94l220 115l58 -129z" />
    <glyph glyph-name="lacute" unicode="&#x13a;" horiz-adv-x="328" 
d="M71 0v740h186v-740h-186zM66 784l-40 94l220 115l58 -129z" />
    <glyph glyph-name="uni013B" unicode="&#x13b;" horiz-adv-x="613" 
d="M83 0v700h198v-529h305v-171h-503zM250 -316l-48 59.9971c9.33301 3.33301 20.333 8 33 14s23.834 13 33.501 21s14.5 16.333 14.5 25c0 6.66699 -2.33301 11.5 -7 14.5s-11.334 6.83301 -20.001 11.5c-14.667 6.66699 -25.334 14.667 -32.001 24s-10 21.333 -10 36
c0 24.667 8.33301 42.834 25 54.501s37.334 17.5 62.001 17.5c31.333 0 57.666 -8.5 78.999 -25.5s32 -43.833 32 -80.5c0 -22 -3.66699 -42.167 -11 -60.5s-18.166 -34.666 -32.499 -48.999s-31.5 -26.666 -51.5 -36.999s-42.333 -18.833 -67 -25.5z" />
    <glyph glyph-name="uni013C" unicode="&#x13c;" horiz-adv-x="328" 
d="M71 0v740h186v-740h-186zM107 -316l-48 59.9971c9.33301 3.33301 20.333 8 33 14s23.834 12.833 33.501 20.5s14.5 16.5 14.5 26.5c0 6 -2.33301 10.667 -7 14s-11.334 7 -20.001 11c-14.667 6.66699 -25.334 14.667 -32.001 24s-10 21.333 -10 36
c0 24.667 8.83301 43 26.5 55s39.167 18 64.5 18c30 0 55.333 -9.16699 76 -27.5s31 -46.166 31 -83.499c0 -19.333 -3.66699 -37.166 -11 -53.499s-18.166 -31.5 -32.499 -45.5s-31.5 -26.667 -51.5 -38s-42.333 -21.666 -67 -30.999z" />
    <glyph glyph-name="Lcaron" unicode="&#x13d;" horiz-adv-x="613" 
d="M83 0v700h198v-529h305v-171h-503zM424 422l-48 59.9971c9.33301 3.33301 20.333 8 33 14s23.834 13 33.501 21s14.5 16.333 14.5 25c0 6.66699 -2.33301 11.5 -7 14.5s-11.334 6.83301 -20.001 11.5c-14.667 6.66699 -25.334 14.667 -32.001 24s-10 21.333 -10 36
c0 24.667 8.33301 42.834 25 54.501s37.334 17.5 62.001 17.5c31.333 0 57.666 -8.5 78.999 -25.5s32 -43.833 32 -80.5c0 -22 -3.66699 -42.167 -11 -60.5s-18.166 -34.666 -32.499 -48.999s-31.5 -26.666 -51.5 -36.999s-42.333 -18.833 -67 -25.5z" />
    <glyph glyph-name="lcaron" unicode="&#x13e;" horiz-adv-x="464" 
d="M71 0v740h186v-740h-186zM372 462l-48 59.9971c9.33301 3.33301 20.333 8 33 14s23.834 13 33.501 21s14.5 16.333 14.5 25c0 6.66699 -2.33301 11.5 -7 14.5s-11.334 6.83301 -20.001 11.5c-14.667 6.66699 -25.334 14.667 -32.001 24s-10 21.333 -10 36
c0 24.667 8.33301 42.834 25 54.501s37.334 17.5 62.001 17.5c31.333 0 57.666 -8.5 78.999 -25.5s32 -43.833 32 -80.5c0 -22 -3.66699 -42.167 -11 -60.5s-18.166 -34.666 -32.499 -48.999s-31.5 -26.666 -51.5 -36.999s-42.333 -18.833 -67 -25.5z" />
    <glyph glyph-name="Ldot" unicode="&#x13f;" horiz-adv-x="613" 
d="M83 0v700h198v-529h305v-171h-503zM492 299c-30 0 -53.167 8.33301 -69.5 25s-24.5 40.334 -24.5 71.001c0 28 8.66699 51 26 69s40 27 68 27c29.333 0 52.333 -8.33301 69 -25s25 -40.334 25 -71.001c0 -28 -8.66699 -51 -26 -69s-40 -27 -68 -27z" />
    <glyph glyph-name="ldot" unicode="&#x140;" horiz-adv-x="492" 
d="M71 0v740h186v-740h-186zM412 299c-30 0 -53.167 8.33301 -69.5 25s-24.5 40.334 -24.5 71.001c0 28 8.66699 51 26 69s40 27 68 27c29.333 0 52.333 -8.33301 69 -25s25 -40.334 25 -71.001c0 -28 -8.66699 -51 -26 -69s-40 -27 -68 -27z" />
    <glyph glyph-name="Lslash" unicode="&#x141;" horiz-adv-x="620" 
d="M27 229l-57 148l388 169l57 -148zM90 0v700h197v-529h305v-171h-502z" />
    <glyph glyph-name="lslash" unicode="&#x142;" horiz-adv-x="433" 
d="M57 235l-58 149l377 164l57 -148zM124 0v740h186v-740h-186z" />
    <glyph glyph-name="Nacute" unicode="&#x143;" horiz-adv-x="813" 
d="M83 0v700.001h177l340 -466l-41 10c-3.33301 24.667 -6.16602 47 -8.49902 67s-4.33301 39 -6 57s-3 36 -4 54s-1.5 37.667 -1.5 59v72v147h191v-700h-179l-366 500l69 -17l8.5 -71c2.33301 -20 4.16602 -38 5.49902 -54s2.5 -31.333 3.5 -46s1.66699 -30.334 2 -47.001
s0.5 -35.667 0.5 -57v-208h-191zM309 744.001l-40 94l220 115l58 -129z" />
    <glyph glyph-name="nacute" unicode="&#x144;" horiz-adv-x="653" 
d="M70 0l0.000976562 533h174l8 -108l-38 -12c6.66699 25.333 19.667 47.833 39 67.5s42.333 35.167 69 46.5s54.667 17 84 17c40 0 73.833 -8.16699 101.5 -24.5s48.667 -40.666 63 -72.999s21.5 -71.833 21.5 -118.5v-328h-186v313c0 17.333 -2.66699 31.833 -8 43.5
s-13.333 20.5 -24 26.5s-23.334 8.66699 -38.001 8c-11.333 0 -21.833 -1.66699 -31.5 -5s-18.167 -8.5 -25.5 -15.5s-12.833 -14.833 -16.5 -23.5s-5.5 -18.334 -5.5 -29.001v-318h-93h-57.5h-36.5zM275.001 581l-54 82l195 149l77 -114z" />
    <glyph glyph-name="uni0145" unicode="&#x145;" horiz-adv-x="813" 
d="M83 0v700.001h177l340 -466l-41 10c-3.33301 24.667 -6.16602 47 -8.49902 67s-4.33301 39 -6 57s-3 36 -4 54s-1.5 37.667 -1.5 59v72v147h191v-700h-179l-366 500l69 -17l8.5 -71c2.33301 -20 4.16602 -38 5.49902 -54s2.5 -31.333 3.5 -46s1.66699 -30.334 2 -47.001
s0.5 -35.667 0.5 -57v-208h-191zM350 -315.999l-48 59.9971c9.33301 3.33301 20.333 8 33 14s23.834 13 33.501 21s14.5 16.333 14.5 25c0 6.66699 -2.33301 11.5 -7 14.5s-11.334 6.83301 -20.001 11.5c-14.667 6.66699 -25.334 14.667 -32.001 24s-10 21.333 -10 36
c0 24.667 8.33301 42.834 25 54.501s37.334 17.5 62.001 17.5c31.333 0 57.666 -8.5 78.999 -25.5s32 -43.833 32 -80.5c0 -22 -3.66699 -42.167 -11 -60.5s-18.166 -34.666 -32.499 -48.999s-31.5 -26.666 -51.5 -36.999s-42.333 -18.833 -67 -25.5z" />
    <glyph glyph-name="uni0146" unicode="&#x146;" horiz-adv-x="653" 
d="M70 0l0.000976562 533h174l8 -108l-38 -12c6.66699 25.333 19.667 47.833 39 67.5s42.333 35.167 69 46.5s54.667 17 84 17c40 0 73.833 -8.16699 101.5 -24.5s48.667 -40.666 63 -72.999s21.5 -71.833 21.5 -118.5v-328h-186v313c0 17.333 -2.66699 31.833 -8 43.5
s-13.333 20.5 -24 26.5s-23.334 8.66699 -38.001 8c-11.333 0 -21.833 -1.66699 -31.5 -5s-18.167 -8.5 -25.5 -15.5s-12.833 -14.833 -16.5 -23.5s-5.5 -18.334 -5.5 -29.001v-318h-93h-57.5h-36.5zM270.001 -316l-48 59.9971c9.33301 3.33301 20.333 8 33 14
s23.834 12.833 33.501 20.5s14.5 16.5 14.5 26.5c0 6 -2.33301 10.667 -7 14s-11.334 7 -20.001 11c-14.667 6.66699 -25.334 14.667 -32.001 24s-10 21.333 -10 36c0 24.667 8.83301 43 26.5 55s39.167 18 64.5 18c30 0 55.333 -9.16699 76 -27.5s31 -46.166 31 -83.499
c0 -19.333 -3.66699 -37.166 -11 -53.499s-18.166 -31.5 -32.499 -45.5s-31.5 -26.667 -51.5 -38s-42.333 -21.666 -67 -30.999z" />
    <glyph glyph-name="Ncaron" unicode="&#x147;" horiz-adv-x="813" 
d="M83 0v700.001h177l340 -466l-41 10c-3.33301 24.667 -6.16602 47 -8.49902 67s-4.33301 39 -6 57s-3 36 -4 54s-1.5 37.667 -1.5 59v72v147h191v-700h-179l-366 500l69 -17l8.5 -71c2.33301 -20 4.16602 -38 5.49902 -54s2.5 -31.333 3.5 -46s1.66699 -30.334 2 -47.001
s0.5 -35.667 0.5 -57v-208h-191zM357 754.001l-140 109l54 67l151 -74h-30l151 74l54 -67l-140 -109h-100z" />
    <glyph glyph-name="ncaron" unicode="&#x148;" horiz-adv-x="653" 
d="M70 0l0.000976562 533h174l8 -108l-38 -12c6.66699 25.333 19.667 47.833 39 67.5s42.333 35.167 69 46.5s54.667 17 84 17c40 0 73.833 -8.16699 101.5 -24.5s48.667 -40.666 63 -72.999s21.5 -71.833 21.5 -118.5v-328h-186v313c0 17.333 -2.66699 31.833 -8 43.5
s-13.333 20.5 -24 26.5s-23.334 8.66699 -38.001 8c-11.333 0 -21.833 -1.66699 -31.5 -5s-18.167 -8.5 -25.5 -15.5s-12.833 -14.833 -16.5 -23.5s-5.5 -18.334 -5.5 -29.001v-318h-93h-57.5h-36.5zM307.001 606l-155 137l66 57l154 -92h-30l154 92l66 -57l-155 -137h-100z
" />
    <glyph glyph-name="napostrophe" unicode="&#x149;" horiz-adv-x="685" 
d="M-109 434l19 266h184l-85 -266h-118zM102 0l0.000976562 533h174l8 -108l-38 -12c6.66699 25.333 19.667 47.833 39 67.5s42.333 35.167 69 46.5s54.667 17 84 17c40 0 73.833 -8.16699 101.5 -24.5s48.667 -40.666 63 -72.999s21.5 -71.833 21.5 -118.5v-328h-186v313
c0 17.333 -2.66699 31.833 -8 43.5s-13.333 20.5 -24 26.5s-23.334 8.66699 -38.001 8c-11.333 0 -21.833 -1.66699 -31.5 -5s-18.167 -8.5 -25.5 -15.5s-12.833 -14.833 -16.5 -23.5s-5.5 -18.334 -5.5 -29.001v-318h-93h-57.5h-36.5z" />
    <glyph glyph-name="Eng" unicode="&#x14a;" horiz-adv-x="813" 
d="M487 -205l-80.002 145.001c14.667 0 30.167 1.16699 46.5 3.5s31.5 6 45.5 11s25.167 11.167 33.5 18.5s12.5 16.333 12.5 27v54l9 -56l-306 414l15 7c0.666992 -10.667 1.5 -22.167 2.5 -34.5s2.16699 -24.833 3.5 -37.5s2.33301 -25.334 3 -38.001
s1.16699 -24.667 1.5 -36s0.5 -21 0.5 -29v-244h-191v700h177l311 -426l-15 -6c-4 30 -7.16699 56.5 -9.5 79.5s-4.16602 44.5 -5.49902 64.5s-2 41.167 -2 63.5v77.5v147h191v-704c0 -48 -9.66699 -86.833 -29 -116.5s-47.166 -51.167 -83.499 -64.5
s-79.833 -20 -130.5 -20z" />
    <glyph glyph-name="eng" unicode="&#x14b;" horiz-adv-x="653" 
d="M349 -205l-69 145c44 0 75.667 9.33301 95 28s29.666 46.667 30.999 84v261c0 17.333 -2.66699 31.833 -8 43.5s-13.333 20.5 -24 26.5s-23.334 8.66699 -38.001 8c-11.333 0 -21.833 -1.66699 -31.5 -5s-18.167 -8.5 -25.5 -15.5s-12.833 -14.833 -16.5 -23.5
s-5.5 -18.334 -5.5 -29.001v-318h-187v533h174l4 -58c12.667 14 27.334 26.167 44.001 36.5s34.667 18.333 54 24s39.333 8.5 60 8.5c40 0 73.833 -8.16699 101.5 -24.5s48.667 -40.666 63 -72.999s21.5 -71.833 21.5 -118.5v-332c0 -46 -9 -83.833 -27 -113.5
s-45.167 -51.667 -81.5 -66s-81.166 -21.5 -134.499 -21.5z" />
    <glyph glyph-name="Omacron" unicode="&#x14c;" horiz-adv-x="825" 
d="M413 -10c-54 0 -103.667 8.99902 -149 26.999s-84.666 43.333 -117.999 76s-59.166 71.167 -77.499 115.5s-27.5 92.833 -27.5 145.5c0 53.333 9.16699 102 27.5 146s44.166 82.333 77.499 115s72.666 58 117.999 76s95 27 149 27s103.5 -9 148.5 -27
s84.333 -43.333 118 -76s59.5 -71 77.5 -115s27 -92.333 27 -145c0 -53.333 -9 -102.166 -27 -146.499s-43.833 -82.833 -77.5 -115.5s-73 -58 -118 -76s-94.5 -27 -148.5 -27zM413 173.999c24 0 46.333 4.33398 67 13.001s38.667 21.167 54 37.5s27.166 35.5 35.499 57.5
s12.5 46 12.5 72s-4.16699 50 -12.5 72s-20.166 41.167 -35.499 57.5s-33.333 28.833 -54 37.5s-43 13 -67 13c-24.667 0 -47.334 -4.33301 -68.001 -13s-38.667 -21.167 -54 -37.5s-27.166 -35.333 -35.499 -57s-12.5 -45.834 -12.5 -72.501c0 -26 4.16699 -50 12.5 -72
s20.166 -41.167 35.499 -57.5s33.333 -28.833 54 -37.5s43.334 -13 68.001 -13zM227 789v113h371v-113h-371z" />
    <glyph glyph-name="omacron" unicode="&#x14d;" horiz-adv-x="652" 
d="M327 -10c-56.667 0 -107.334 12 -152.001 36s-79.667 56.667 -105 98s-38 89 -38 143s12.667 101.667 38 143s60.333 74 105 98s95.334 36 152.001 36s107.167 -12 151.5 -36s79.166 -56.667 104.499 -98s38 -89 38 -143s-12.667 -101.667 -38 -143
s-60.166 -74 -104.499 -98s-94.833 -36 -151.5 -36zM327 147c20 0 38.167 5.16504 54.5 15.498s29 24.666 38 42.999s13.5 38.833 13.5 61.5c0 24 -4.5 45 -13.5 63s-21.667 32.167 -38 42.5s-34.5 15.5 -54.5 15.5c-20.667 0 -39 -5.16699 -55 -15.5
s-28.667 -24.666 -38 -42.999s-14 -39.166 -14 -62.499c0 -22.667 4.66699 -43.167 14 -61.5s22 -32.666 38 -42.999s34.333 -15.5 55 -15.5zM147 637.998v113h358v-113h-358z" />
    <glyph glyph-name="Obreve" unicode="&#x14e;" horiz-adv-x="825" 
d="M413 -10c-54 0 -103.667 8.99902 -149 26.999s-84.666 43.333 -117.999 76s-59.166 71.167 -77.499 115.5s-27.5 92.833 -27.5 145.5c0 53.333 9.16699 102 27.5 146s44.166 82.333 77.499 115s72.666 58 117.999 76s95 27 149 27s103.5 -9 148.5 -27
s84.333 -43.333 118 -76s59.5 -71 77.5 -115s27 -92.333 27 -145c0 -53.333 -9 -102.166 -27 -146.499s-43.833 -82.833 -77.5 -115.5s-73 -58 -118 -76s-94.5 -27 -148.5 -27zM413 173.999c24 0 46.333 4.33398 67 13.001s38.667 21.167 54 37.5s27.166 35.5 35.499 57.5
s12.5 46 12.5 72s-4.16699 50 -12.5 72s-20.166 41.167 -35.499 57.5s-33.333 28.833 -54 37.5s-43 13 -67 13c-24.667 0 -47.334 -4.33301 -68.001 -13s-38.667 -21.167 -54 -37.5s-27.166 -35.333 -35.499 -57s-12.5 -45.834 -12.5 -72.501c0 -26 4.16699 -50 12.5 -72
s20.166 -41.167 35.499 -57.5s33.333 -28.833 54 -37.5s43.334 -13 68.001 -13zM413 760c-31.333 0 -60 6.5 -86 19.5s-47.667 31.5 -65 55.5s-29.333 52 -36 84l116 12c6 -17.333 15.5 -31.166 28.5 -41.499s27.167 -15.5 42.5 -15.5s29.5 5.16699 42.5 15.5
s22.5 24.166 28.5 41.499l116 -12c-6.66699 -32 -18.667 -60 -36 -84s-38.833 -42.5 -64.5 -55.5s-54.5 -19.5 -86.5 -19.5z" />
    <glyph glyph-name="obreve" unicode="&#x14f;" horiz-adv-x="652" 
d="M327 -10c-56.667 0 -107.334 12 -152.001 36s-79.667 56.667 -105 98s-38 89 -38 143s12.667 101.667 38 143s60.333 74 105 98s95.334 36 152.001 36s107.167 -12 151.5 -36s79.166 -56.667 104.499 -98s38 -89 38 -143s-12.667 -101.667 -38 -143
s-60.166 -74 -104.499 -98s-94.833 -36 -151.5 -36zM327 147c20 0 38.167 5.16504 54.5 15.498s29 24.666 38 42.999s13.5 38.833 13.5 61.5c0 24 -4.5 45 -13.5 63s-21.667 32.167 -38 42.5s-34.5 15.5 -54.5 15.5c-20.667 0 -39 -5.16699 -55 -15.5
s-28.667 -24.666 -38 -42.999s-14 -39.166 -14 -62.499c0 -22.667 4.66699 -43.167 14 -61.5s22 -32.666 38 -42.999s34.333 -15.5 55 -15.5zM326 605.998c-47.333 0 -87.833 14.333 -121.5 43s-55.5 68.334 -65.5 119.001l116 12c6 -18.667 15.5 -33.334 28.5 -44.001
s27.167 -16 42.5 -16s29.5 5.33301 42.5 16s22.5 25.334 28.5 44.001l116 -12c-10 -50.667 -31.833 -90.334 -65.5 -119.001s-74.167 -43 -121.5 -43z" />
    <glyph glyph-name="Ohungarumlaut" unicode="&#x150;" horiz-adv-x="825" 
d="M413 -10c-54 0 -103.667 8.99902 -149 26.999s-84.666 43.333 -117.999 76s-59.166 71.167 -77.499 115.5s-27.5 92.833 -27.5 145.5c0 53.333 9.16699 102 27.5 146s44.166 82.333 77.499 115s72.666 58 117.999 76s95 27 149 27s103.5 -9 148.5 -27
s84.333 -43.333 118 -76s59.5 -71 77.5 -115s27 -92.333 27 -145c0 -53.333 -9 -102.166 -27 -146.499s-43.833 -82.833 -77.5 -115.5s-73 -58 -118 -76s-94.5 -27 -148.5 -27zM413 173.999c24 0 46.333 4.33398 67 13.001s38.667 21.167 54 37.5s27.166 35.5 35.499 57.5
s12.5 46 12.5 72s-4.16699 50 -12.5 72s-20.166 41.167 -35.499 57.5s-33.333 28.833 -54 37.5s-43 13 -67 13c-24.667 0 -47.334 -4.33301 -68.001 -13s-38.667 -21.167 -54 -37.5s-27.166 -35.333 -35.499 -57s-12.5 -45.834 -12.5 -72.501c0 -26 4.16699 -50 12.5 -72
s20.166 -41.167 35.499 -57.5s33.333 -28.833 54 -37.5s43.334 -13 68.001 -13zM285 755l-57 79l159 146l80 -109zM517 752l-54 82l168 143l79 -114z" />
    <glyph glyph-name="ohungarumlaut" unicode="&#x151;" horiz-adv-x="652" 
d="M327 -10c-56.667 0 -107.334 12 -152.001 36s-79.667 56.667 -105 98s-38 89 -38 143s12.667 101.667 38 143s60.333 74 105 98s95.334 36 152.001 36s107.167 -12 151.5 -36s79.166 -56.667 104.499 -98s38 -89 38 -143s-12.667 -101.667 -38 -143
s-60.166 -74 -104.499 -98s-94.833 -36 -151.5 -36zM327 147c20 0 38.167 5.16504 54.5 15.498s29 24.666 38 42.999s13.5 38.833 13.5 61.5c0 24 -4.5 45 -13.5 63s-21.667 32.167 -38 42.5s-34.5 15.5 -54.5 15.5c-20.667 0 -39 -5.16699 -55 -15.5
s-28.667 -24.666 -38 -42.999s-14 -39.166 -14 -62.499c0 -22.667 4.66699 -43.167 14 -61.5s22 -32.666 38 -42.999s34.333 -15.5 55 -15.5zM381 581.998l-77 51l156 189l102 -93zM173 577.998l-82 46l141 199l108 -85z" />
    <glyph glyph-name="OE" unicode="&#x152;" horiz-adv-x="1102" 
d="M375 0c-51.333 0 -97.5 8.33301 -138.5 25s-76 40.5 -105 71.5s-51.333 68 -67 111s-23.5 90.5 -23.5 142.5s8.33301 99.333 25 142s40.5 79.667 71.5 111s68.167 55.333 111.5 72s92 25 146 25h655v-163h-333v-101h278v-154h-278v-119h333v-163h-675zM241 350
c0 -28 3.66602 -53.168 10.999 -75.501s17.833 -41.166 31.5 -56.499s30.334 -27 50.001 -35s42.5 -12 68.5 -12h125v358h-122c-26 0 -49.167 -4 -69.5 -12s-37.5 -19.833 -51.5 -35.5s-24.667 -34.5 -32 -56.5s-11 -47 -11 -75z" />
    <glyph glyph-name="oe" unicode="&#x153;" horiz-adv-x="996" 
d="M327 -10c-56.667 0 -107.334 12.001 -152.001 36.001s-79.667 56.667 -105 98s-38 89 -38 143s12.667 101.667 38 143s60.333 74 105 98s95.334 36 152.001 36c30.667 0 59.334 -3.66699 86.001 -11s51.5 -18.166 74.5 -32.499s42.833 -31.833 59.5 -52.5h-33
c15.333 20.667 33 38.167 53 52.5s42.167 25.166 66.5 32.499s50.166 11 77.499 11c38.667 0 74 -6.66699 106 -20s59.667 -32.333 83 -57s41 -53.667 53 -87s17.667 -70 17 -110l-1 -42h-361l-6 93h244l-45 -36v34c0 15.333 -3.66699 28.333 -11 39
s-17.666 19.167 -30.999 25.5s-29 9.5 -47 9.5c-18.667 0 -34.334 -3 -47.001 -9s-22.834 -14.167 -30.501 -24.5s-13 -22 -16 -35s-4.5 -26.833 -4.5 -41.5c0 -26.667 4.33301 -49.834 13 -69.501s22.834 -35 42.501 -46s46.167 -16.5 79.5 -16.5
c22.667 0 42.5 2.66699 59.5 8s35.167 14.666 54.5 27.999l86 -121c-23.333 -18 -46.666 -32.667 -69.999 -44s-46.833 -19.5 -70.5 -24.5s-47.5 -7.5 -71.5 -7.5c-32.667 0 -63.167 3.83301 -91.5 11.5s-53.833 18.834 -76.5 33.501s-42.667 33 -60 55h32
c-14.667 -21.333 -32.834 -39.5 -54.501 -54.5s-46 -26.333 -73 -34s-55.833 -11.5 -86.5 -11.5zM327 147.001c20 0 38.167 5.16504 54.5 15.498s29 24.666 38 42.999s13.5 38.833 13.5 61.5c0 24 -4.5 45 -13.5 63s-21.667 32.167 -38 42.5s-34.5 15.5 -54.5 15.5
c-20.667 0 -39 -5.16699 -55 -15.5s-28.667 -24.666 -38 -42.999s-14 -39.166 -14 -62.499c0 -22.667 4.66699 -43.167 14 -61.5s22 -32.666 38 -42.999s34.333 -15.5 55 -15.5z" />
    <glyph glyph-name="Racute" unicode="&#x154;" horiz-adv-x="705" 
d="M83 0v699.998h323c47.333 0 89.666 -9.66699 126.999 -29s66.5 -45.666 87.5 -78.999s31.5 -71.666 31.5 -114.999c0 -46.667 -10.5 -88 -31.5 -124s-50.167 -64.167 -87.5 -84.5s-79.666 -30.5 -126.999 -30.5h-137v-238h-186zM458 -0.00195312l-178 316l203 25
l198 -341h-223zM269 379.998h110c17.333 0 31.833 3.5 43.5 10.5s20.667 16.667 27 29s9.5 26.833 9.5 43.5c0 16 -3.33301 29.833 -10 41.5s-16.5 20.667 -29.5 27s-29.167 9.5 -48.5 9.5h-102v-161zM241 743.998l-40 94l220 115l58 -129z" />
    <glyph glyph-name="racute" unicode="&#x155;" horiz-adv-x="478" 
d="M70 0l-0.00195312 532.999h174l10 -175l-39 30c8.66699 29.333 22.167 55.833 40.5 79.5s40.5 42.334 66.5 56.001s53.333 20.5 82 20.5c12 0 23.333 -0.833008 34 -2.5s20.667 -3.83398 30 -6.50098l-51 -206c-7.33301 4.66699 -17.666 8.83398 -30.999 12.501
s-27.666 5.5 -42.999 5.5c-13.333 0 -25.333 -2.16699 -36 -6.5s-19.667 -10.5 -27 -18.5s-13 -17.5 -17 -28.5s-6 -23.833 -6 -38.5v-255h-187zM188.998 580.999l-54 82l195 149l77 -114z" />
    <glyph glyph-name="uni0156" unicode="&#x156;" horiz-adv-x="705" 
d="M83 0v699.998h323c47.333 0 89.666 -9.66699 126.999 -29s66.5 -45.666 87.5 -78.999s31.5 -71.666 31.5 -114.999c0 -46.667 -10.5 -88 -31.5 -124s-50.167 -64.167 -87.5 -84.5s-79.666 -30.5 -126.999 -30.5h-137v-238h-186zM458 -0.00195312l-178 316l203 25
l198 -341h-223zM269 379.998h110c17.333 0 31.833 3.5 43.5 10.5s20.667 16.667 27 29s9.5 26.833 9.5 43.5c0 16 -3.33301 29.833 -10 41.5s-16.5 20.667 -29.5 27s-29.167 9.5 -48.5 9.5h-102v-161zM296 -316.002l-48 59.9971c9.33301 3.33301 20.333 8 33 14
s23.834 13 33.501 21s14.5 16.333 14.5 25c0 6.66699 -2.33301 11.5 -7 14.5s-11.334 6.83301 -20.001 11.5c-14.667 6.66699 -25.334 14.667 -32.001 24s-10 21.333 -10 36c0 24.667 8.33301 42.834 25 54.501s37.334 17.5 62.001 17.5c31.333 0 57.666 -8.5 78.999 -25.5
s32 -43.833 32 -80.5c0 -22 -3.66699 -42.167 -11 -60.5s-18.166 -34.666 -32.499 -48.999s-31.5 -26.666 -51.5 -36.999s-42.333 -18.833 -67 -25.5z" />
    <glyph glyph-name="uni0157" unicode="&#x157;" horiz-adv-x="478" 
d="M70 0l-0.00195312 532.999h174l10 -175l-39 30c8.66699 29.333 22.167 55.833 40.5 79.5s40.5 42.334 66.5 56.001s53.333 20.5 82 20.5c12 0 23.333 -0.833008 34 -2.5s20.667 -3.83398 30 -6.50098l-51 -206c-7.33301 4.66699 -17.666 8.83398 -30.999 12.501
s-27.666 5.5 -42.999 5.5c-13.333 0 -25.333 -2.16699 -36 -6.5s-19.667 -10.5 -27 -18.5s-13 -17.5 -17 -28.5s-6 -23.833 -6 -38.5v-255h-187zM99.998 -316.001l-48 59.9971c9.33301 3.33301 20.333 8 33 14s23.834 12.833 33.501 20.5s14.5 16.5 14.5 26.5
c0 6 -2.33301 10.667 -7 14s-11.334 7 -20.001 11c-14.667 6.66699 -25.334 14.667 -32.001 24s-10 21.333 -10 36c0 24.667 8.83301 43 26.5 55s39.167 18 64.5 18c30 0 55.333 -9.16699 76 -27.5s31 -46.166 31 -83.499c0 -19.333 -3.66699 -37.166 -11 -53.499
s-18.166 -31.5 -32.499 -45.5s-31.5 -26.667 -51.5 -38s-42.333 -21.666 -67 -30.999z" />
    <glyph glyph-name="Rcaron" unicode="&#x158;" horiz-adv-x="705" 
d="M83 0v699.998h323c47.333 0 89.666 -9.66699 126.999 -29s66.5 -45.666 87.5 -78.999s31.5 -71.666 31.5 -114.999c0 -46.667 -10.5 -88 -31.5 -124s-50.167 -64.167 -87.5 -84.5s-79.666 -30.5 -126.999 -30.5h-137v-238h-186zM458 -0.00195312l-178 316l203 25
l198 -341h-223zM269 379.998h110c17.333 0 31.833 3.5 43.5 10.5s20.667 16.667 27 29s9.5 26.833 9.5 43.5c0 16 -3.33301 29.833 -10 41.5s-16.5 20.667 -29.5 27s-29.167 9.5 -48.5 9.5h-102v-161zM290 753.998l-140 109l54 67l151 -74h-30l151 74l54 -67l-140 -109h-100
z" />
    <glyph glyph-name="rcaron" unicode="&#x159;" horiz-adv-x="478" 
d="M70 0l-0.00195312 532.999h174l10 -175l-39 30c8.66699 29.333 22.167 55.833 40.5 79.5s40.5 42.334 66.5 56.001s53.333 20.5 82 20.5c12 0 23.333 -0.833008 34 -2.5s20.667 -3.83398 30 -6.50098l-51 -206c-7.33301 4.66699 -17.666 8.83398 -30.999 12.501
s-27.666 5.5 -42.999 5.5c-13.333 0 -25.333 -2.16699 -36 -6.5s-19.667 -10.5 -27 -18.5s-13 -17.5 -17 -28.5s-6 -23.833 -6 -38.5v-255h-187zM220.998 605.999l-155 137l66 57l154 -92h-30l154 92l66 -57l-155 -137h-100z" />
    <glyph glyph-name="Sacute" unicode="&#x15a;" horiz-adv-x="638" 
d="M323 -10c-50 0 -94.502 5.66797 -133.502 17.001s-73.333 27.666 -103 48.999s-56.167 46.333 -79.5 75l116 131c33.333 -43.333 67.666 -72.166 102.999 -86.499s69.666 -21.5 102.999 -21.5c14.667 0 28 1.5 40 4.5s21.167 8 27.5 15s9.5 15.833 9.5 26.5
c0 9.33301 -2.66699 17.333 -8 24s-12.666 12.5 -21.999 17.5s-19.666 9.5 -30.999 13.5s-22.666 7.16699 -33.999 9.5s-22.333 4.83301 -33 7.5c-39.333 8.66699 -73.666 19.667 -102.999 33s-53.833 29.166 -73.5 47.499s-34.334 39.5 -44.001 63.5s-14.5 51 -14.5 81
c0 32.667 7.66699 62.667 23 90s35.666 50.833 60.999 70.5s54.5 34.667 87.5 45s67.5 15.5 103.5 15.5c49.333 0 91.333 -4.83301 126 -14.5s63.834 -23.5 87.501 -41.5s44.167 -39 61.5 -63l-118 -114c-14 15.333 -29.167 28 -45.5 38s-33.166 17.5 -50.499 22.5
s-35 7.5 -53 7.5c-16.667 0 -31.167 -1.66699 -43.5 -5s-21.833 -8.16602 -28.5 -14.499s-10 -14.833 -10 -25.5c0 -9.33301 3.66699 -17.5 11 -24.5s16.666 -12.833 27.999 -17.5s23.5 -8.5 36.5 -11.5s24.833 -5.5 35.5 -7.5c36.667 -7.33301 70.167 -16.833 100.5 -28.5
s56.833 -26.334 79.5 -44.001s40 -39.167 52 -64.5s18 -55 18 -89c0 -50 -12.5 -92.167 -37.5 -126.5s-58.667 -60.333 -101 -78s-90.166 -26.5 -143.499 -26.5zM232.998 744.001l-40 94l220 115l58 -129z" />
    <glyph glyph-name="sacute" unicode="&#x15b;" horiz-adv-x="502" 
d="M252 -10c-55.333 0 -103.999 8.66797 -145.999 26.001s-74.667 39.666 -98 66.999l109 94c21.333 -19.333 45.5 -33.666 72.5 -42.999s50.833 -14 71.5 -14c7.33301 0 14 0.666992 20 2s10.833 3.5 14.5 6.5s6.66699 6.33301 9 10s3.5 7.83398 3.5 12.501
c0 11.333 -5.66699 20 -17 26c-6 2.66699 -15.833 6.16699 -29.5 10.5s-31.834 9.16602 -54.501 14.499c-28 7.33301 -53 16.166 -75 26.499s-40.667 22.5 -56 36.5c-14.667 14 -26.167 30.167 -34.5 48.5s-12.5 38.5 -12.5 60.5c0 26.667 6 50.334 18 71.001
s28.667 38.5 50 53.5s45.333 26.333 72 34s54 11.5 82 11.5c31.333 0 60.833 -3.16699 88.5 -9.5s53.667 -15.333 78 -27s46.166 -25.834 65.499 -42.501l-96 -106c-11.333 10 -24.5 19.333 -39.5 28s-30.5 15.834 -46.5 21.501s-31 8.5 -45 8.5
c-8.66699 0 -16 -0.666992 -22 -2s-11 -3.33301 -15 -6s-7 -6 -9 -10s-3 -8.33301 -3 -13c0 -6 1.66699 -11.667 5 -17s8.66602 -9.66602 15.999 -12.999c6 -3.33301 16.167 -7.5 30.5 -12.5s35.166 -11.167 62.499 -18.5c30.667 -8.66699 57.334 -18.667 80.001 -30
s41 -24.333 55 -39c10 -11.333 17.667 -23.833 23 -37.5s8 -28.834 8 -45.501c0 -35.333 -10.167 -66.833 -30.5 -94.5s-48.166 -49.334 -83.499 -65.001s-75.666 -23.5 -120.999 -23.5zM170.001 581.001l-54 82l195 149l77 -114z" />
    <glyph glyph-name="Scircumflex" unicode="&#x15c;" horiz-adv-x="638" 
d="M323 -10c-50 0 -94.502 5.66797 -133.502 17.001s-73.333 27.666 -103 48.999s-56.167 46.333 -79.5 75l116 131c33.333 -43.333 67.666 -72.166 102.999 -86.499s69.666 -21.5 102.999 -21.5c14.667 0 28 1.5 40 4.5s21.167 8 27.5 15s9.5 15.833 9.5 26.5
c0 9.33301 -2.66699 17.333 -8 24s-12.666 12.5 -21.999 17.5s-19.666 9.5 -30.999 13.5s-22.666 7.16699 -33.999 9.5s-22.333 4.83301 -33 7.5c-39.333 8.66699 -73.666 19.667 -102.999 33s-53.833 29.166 -73.5 47.499s-34.334 39.5 -44.001 63.5s-14.5 51 -14.5 81
c0 32.667 7.66699 62.667 23 90s35.666 50.833 60.999 70.5s54.5 34.667 87.5 45s67.5 15.5 103.5 15.5c49.333 0 91.333 -4.83301 126 -14.5s63.834 -23.5 87.501 -41.5s44.167 -39 61.5 -63l-118 -114c-14 15.333 -29.167 28 -45.5 38s-33.166 17.5 -50.499 22.5
s-35 7.5 -53 7.5c-16.667 0 -31.167 -1.66699 -43.5 -5s-21.833 -8.16602 -28.5 -14.499s-10 -14.833 -10 -25.5c0 -9.33301 3.66699 -17.5 11 -24.5s16.666 -12.833 27.999 -17.5s23.5 -8.5 36.5 -11.5s24.833 -5.5 35.5 -7.5c36.667 -7.33301 70.167 -16.833 100.5 -28.5
s56.833 -26.334 79.5 -44.001s40 -39.167 52 -64.5s18 -55 18 -89c0 -50 -12.5 -92.167 -37.5 -126.5s-58.667 -60.333 -101 -78s-90.166 -26.5 -143.499 -26.5zM195.998 753.001l-55 67l142 109h97l141 -109l-54 -67l-151 74h30z" />
    <glyph glyph-name="scircumflex" unicode="&#x15d;" horiz-adv-x="502" 
d="M252 -10c-55.333 0 -103.999 8.66797 -145.999 26.001s-74.667 39.666 -98 66.999l109 94c21.333 -19.333 45.5 -33.666 72.5 -42.999s50.833 -14 71.5 -14c7.33301 0 14 0.666992 20 2s10.833 3.5 14.5 6.5s6.66699 6.33301 9 10s3.5 7.83398 3.5 12.501
c0 11.333 -5.66699 20 -17 26c-6 2.66699 -15.833 6.16699 -29.5 10.5s-31.834 9.16602 -54.501 14.499c-28 7.33301 -53 16.166 -75 26.499s-40.667 22.5 -56 36.5c-14.667 14 -26.167 30.167 -34.5 48.5s-12.5 38.5 -12.5 60.5c0 26.667 6 50.334 18 71.001
s28.667 38.5 50 53.5s45.333 26.333 72 34s54 11.5 82 11.5c31.333 0 60.833 -3.16699 88.5 -9.5s53.667 -15.333 78 -27s46.166 -25.834 65.499 -42.501l-96 -106c-11.333 10 -24.5 19.333 -39.5 28s-30.5 15.834 -46.5 21.501s-31 8.5 -45 8.5
c-8.66699 0 -16 -0.666992 -22 -2s-11 -3.33301 -15 -6s-7 -6 -9 -10s-3 -8.33301 -3 -13c0 -6 1.66699 -11.667 5 -17s8.66602 -9.66602 15.999 -12.999c6 -3.33301 16.167 -7.5 30.5 -12.5s35.166 -11.167 62.499 -18.5c30.667 -8.66699 57.334 -18.667 80.001 -30
s41 -24.333 55 -39c10 -11.333 17.667 -23.833 23 -37.5s8 -28.834 8 -45.501c0 -35.333 -10.167 -66.833 -30.5 -94.5s-48.166 -49.334 -83.499 -65.001s-75.666 -23.5 -120.999 -23.5zM111.001 598.001l-66 57l157 137h100l157 -137l-66 -57l-156 92h30z" />
    <glyph glyph-name="Scedilla" unicode="&#x15e;" horiz-adv-x="638" 
d="M323 -10c-50 0 -94.502 5.66797 -133.502 17.001s-73.333 27.666 -103 48.999s-56.167 46.333 -79.5 75l116 131c33.333 -43.333 67.666 -72.166 102.999 -86.499s69.666 -21.5 102.999 -21.5c14.667 0 28 1.5 40 4.5s21.167 8 27.5 15s9.5 15.833 9.5 26.5
c0 9.33301 -2.66699 17.333 -8 24s-12.666 12.5 -21.999 17.5s-19.666 9.5 -30.999 13.5s-22.666 7.16699 -33.999 9.5s-22.333 4.83301 -33 7.5c-39.333 8.66699 -73.666 19.667 -102.999 33s-53.833 29.166 -73.5 47.499s-34.334 39.5 -44.001 63.5s-14.5 51 -14.5 81
c0 32.667 7.66699 62.667 23 90s35.666 50.833 60.999 70.5s54.5 34.667 87.5 45s67.5 15.5 103.5 15.5c49.333 0 91.333 -4.83301 126 -14.5s63.834 -23.5 87.501 -41.5s44.167 -39 61.5 -63l-118 -114c-14 15.333 -29.167 28 -45.5 38s-33.166 17.5 -50.499 22.5
s-35 7.5 -53 7.5c-16.667 0 -31.167 -1.66699 -43.5 -5s-21.833 -8.16602 -28.5 -14.499s-10 -14.833 -10 -25.5c0 -9.33301 3.66699 -17.5 11 -24.5s16.666 -12.833 27.999 -17.5s23.5 -8.5 36.5 -11.5s24.833 -5.5 35.5 -7.5c36.667 -7.33301 70.167 -16.833 100.5 -28.5
s56.833 -26.334 79.5 -44.001s40 -39.167 52 -64.5s18 -55 18 -89c0 -50 -12.5 -92.167 -37.5 -126.5s-58.667 -60.333 -101 -78s-90.166 -26.5 -143.499 -26.5zM236.998 -245.999l-9.99902 84.001c12.667 0 26 1.33301 40 4s25.833 6.66699 35.5 12
s14.5 11.666 14.5 18.999c0 6.66699 -3 12.334 -9 17.001s-13.667 8 -23 10s-19.333 3 -30 3l-20 15l68 106h92l-47 -65c35.333 -3.33301 61.5 -14.333 78.5 -33s25.5 -40.334 25.5 -65.001c0 -22 -6.66699 -40 -20 -54s-30.833 -25.167 -52.5 -33.5
s-44.834 -13.833 -69.501 -16.5s-49 -3.66699 -73 -3z" />
    <glyph glyph-name="scedilla" unicode="&#x15f;" horiz-adv-x="502" 
d="M252 -10c-55.333 0 -103.999 8.66797 -145.999 26.001s-74.667 39.666 -98 66.999l109 94c21.333 -19.333 45.5 -33.666 72.5 -42.999s50.833 -14 71.5 -14c7.33301 0 14 0.666992 20 2s10.833 3.5 14.5 6.5s6.66699 6.33301 9 10s3.5 7.83398 3.5 12.501
c0 11.333 -5.66699 20 -17 26c-6 2.66699 -15.833 6.16699 -29.5 10.5s-31.834 9.16602 -54.501 14.499c-28 7.33301 -53 16.166 -75 26.499s-40.667 22.5 -56 36.5c-14.667 14 -26.167 30.167 -34.5 48.5s-12.5 38.5 -12.5 60.5c0 26.667 6 50.334 18 71.001
s28.667 38.5 50 53.5s45.333 26.333 72 34s54 11.5 82 11.5c31.333 0 60.833 -3.16699 88.5 -9.5s53.667 -15.333 78 -27s46.166 -25.834 65.499 -42.501l-96 -106c-11.333 10 -24.5 19.333 -39.5 28s-30.5 15.834 -46.5 21.501s-31 8.5 -45 8.5
c-8.66699 0 -16 -0.666992 -22 -2s-11 -3.33301 -15 -6s-7 -6 -9 -10s-3 -8.33301 -3 -13c0 -6 1.66699 -11.667 5 -17s8.66602 -9.66602 15.999 -12.999c6 -3.33301 16.167 -7.5 30.5 -12.5s35.166 -11.167 62.499 -18.5c30.667 -8.66699 57.334 -18.667 80.001 -30
s41 -24.333 55 -39c10 -11.333 17.667 -23.833 23 -37.5s8 -28.834 8 -45.501c0 -35.333 -10.167 -66.833 -30.5 -94.5s-48.166 -49.334 -83.499 -65.001s-75.666 -23.5 -120.999 -23.5zM150.001 -245.999l-9.99902 84.001c12.667 0 26 1.33301 40 4s25.833 6.66699 35.5 12
s14.5 11.666 14.5 18.999c0 6.66699 -3 12.334 -9 17.001s-13.667 8 -23 10s-19.333 3 -30 3l-20 15l68 106h92l-47 -65c35.333 -3.33301 61.5 -14.333 78.5 -33s25.5 -40.334 25.5 -65.001c0 -22 -6.66699 -40 -20 -54s-30.833 -25.167 -52.5 -33.5
s-44.834 -13.833 -69.501 -16.5s-49 -3.66699 -73 -3z" />
    <glyph glyph-name="Scaron" unicode="&#x160;" horiz-adv-x="638" 
d="M323 -10c-50 0 -94.502 5.66797 -133.502 17.001s-73.333 27.666 -103 48.999s-56.167 46.333 -79.5 75l116 131c33.333 -43.333 67.666 -72.166 102.999 -86.499s69.666 -21.5 102.999 -21.5c14.667 0 28 1.5 40 4.5s21.167 8 27.5 15s9.5 15.833 9.5 26.5
c0 9.33301 -2.66699 17.333 -8 24s-12.666 12.5 -21.999 17.5s-19.666 9.5 -30.999 13.5s-22.666 7.16699 -33.999 9.5s-22.333 4.83301 -33 7.5c-39.333 8.66699 -73.666 19.667 -102.999 33s-53.833 29.166 -73.5 47.499s-34.334 39.5 -44.001 63.5s-14.5 51 -14.5 81
c0 32.667 7.66699 62.667 23 90s35.666 50.833 60.999 70.5s54.5 34.667 87.5 45s67.5 15.5 103.5 15.5c49.333 0 91.333 -4.83301 126 -14.5s63.834 -23.5 87.501 -41.5s44.167 -39 61.5 -63l-118 -114c-14 15.333 -29.167 28 -45.5 38s-33.166 17.5 -50.499 22.5
s-35 7.5 -53 7.5c-16.667 0 -31.167 -1.66699 -43.5 -5s-21.833 -8.16602 -28.5 -14.499s-10 -14.833 -10 -25.5c0 -9.33301 3.66699 -17.5 11 -24.5s16.666 -12.833 27.999 -17.5s23.5 -8.5 36.5 -11.5s24.833 -5.5 35.5 -7.5c36.667 -7.33301 70.167 -16.833 100.5 -28.5
s56.833 -26.334 79.5 -44.001s40 -39.167 52 -64.5s18 -55 18 -89c0 -50 -12.5 -92.167 -37.5 -126.5s-58.667 -60.333 -101 -78s-90.166 -26.5 -143.499 -26.5zM281.998 754.001l-140 109l54 67l151 -74h-30l151 74l54 -67l-140 -109h-100z" />
    <glyph glyph-name="scaron" unicode="&#x161;" horiz-adv-x="502" 
d="M252 -10c-55.333 0 -103.999 8.66797 -145.999 26.001s-74.667 39.666 -98 66.999l109 94c21.333 -19.333 45.5 -33.666 72.5 -42.999s50.833 -14 71.5 -14c7.33301 0 14 0.666992 20 2s10.833 3.5 14.5 6.5s6.66699 6.33301 9 10s3.5 7.83398 3.5 12.501
c0 11.333 -5.66699 20 -17 26c-6 2.66699 -15.833 6.16699 -29.5 10.5s-31.834 9.16602 -54.501 14.499c-28 7.33301 -53 16.166 -75 26.499s-40.667 22.5 -56 36.5c-14.667 14 -26.167 30.167 -34.5 48.5s-12.5 38.5 -12.5 60.5c0 26.667 6 50.334 18 71.001
s28.667 38.5 50 53.5s45.333 26.333 72 34s54 11.5 82 11.5c31.333 0 60.833 -3.16699 88.5 -9.5s53.667 -15.333 78 -27s46.166 -25.834 65.499 -42.501l-96 -106c-11.333 10 -24.5 19.333 -39.5 28s-30.5 15.834 -46.5 21.501s-31 8.5 -45 8.5
c-8.66699 0 -16 -0.666992 -22 -2s-11 -3.33301 -15 -6s-7 -6 -9 -10s-3 -8.33301 -3 -13c0 -6 1.66699 -11.667 5 -17s8.66602 -9.66602 15.999 -12.999c6 -3.33301 16.167 -7.5 30.5 -12.5s35.166 -11.167 62.499 -18.5c30.667 -8.66699 57.334 -18.667 80.001 -30
s41 -24.333 55 -39c10 -11.333 17.667 -23.833 23 -37.5s8 -28.834 8 -45.501c0 -35.333 -10.167 -66.833 -30.5 -94.5s-48.166 -49.334 -83.499 -65.001s-75.666 -23.5 -120.999 -23.5zM202.001 606.001l-155 137l66 57l154 -92h-30l154 92l66 -57l-155 -137h-100z" />
    <glyph glyph-name="uni0162" unicode="&#x162;" horiz-adv-x="691" 
d="M243 0v529h-212v171h629v-171h-219v-529h-198zM243 -246l-9.99902 84.001c12.667 0 26 1.33301 40 4s25.833 6.66699 35.5 12s14.5 11.666 14.5 18.999c0 6.66699 -3 12.334 -9 17.001s-13.667 8 -23 10s-19.333 3 -30 3l-20 15l68 106h92l-47 -65
c35.333 -3.33301 61.5 -14.333 78.5 -33s25.5 -40.334 25.5 -65.001c0 -22 -6.66699 -40 -20 -54s-30.833 -25.167 -52.5 -33.5s-44.834 -13.833 -69.501 -16.5s-49 -3.66699 -73 -3z" />
    <glyph glyph-name="uni0163" unicode="&#x163;" horiz-adv-x="405" 
d="M105 0v668h186v-668h-186zM17 375v158h367v-158h-367zM100 -246l-9.99902 84.001c12.667 0 26 1.33301 40 4s25.833 6.66699 35.5 12s14.5 11.666 14.5 18.999c0 6.66699 -3 12.334 -9 17.001s-13.667 8 -23 10s-19.333 3 -30 3l-20 15l68 106h92l-47 -65
c35.333 -3.33301 61.5 -14.333 78.5 -33s25.5 -40.334 25.5 -65.001c0 -22 -6.66699 -40 -20 -54s-30.833 -25.167 -52.5 -33.5s-44.834 -13.833 -69.501 -16.5s-49 -3.66699 -73 -3z" />
    <glyph glyph-name="Tcaron" unicode="&#x164;" horiz-adv-x="691" 
d="M243 0v529h-212v171h629v-171h-219v-529h-198zM295 754l-140 109l54 67l151 -74h-30l151 74l54 -67l-140 -109h-100z" />
    <glyph glyph-name="tcaron" unicode="&#x165;" horiz-adv-x="405" 
d="M105 0v668h186v-668h-186zM17 375v158h367v-158h-367zM367 569l-48 59.9971c9.33301 3.33301 20.333 8 33 14s23.834 13 33.501 21s14.5 16.333 14.5 25c0 6.66699 -2.33301 11.5 -7 14.5s-11.334 6.83301 -20.001 11.5c-14.667 6.66699 -25.334 14.667 -32.001 24
s-10 21.333 -10 36c0 24.667 8.33301 42.834 25 54.501s37.334 17.5 62.001 17.5c31.333 0 57.666 -8.5 78.999 -25.5s32 -43.833 32 -80.5c0 -22 -3.66699 -42.167 -11 -60.5s-18.166 -34.666 -32.499 -48.999s-31.5 -26.666 -51.5 -36.999s-42.333 -18.833 -67 -25.5z" />
    <glyph glyph-name="Tbar" unicode="&#x166;" horiz-adv-x="691" 
d="M176 285v132h351v-132h-351zM243 0v529h-212v171h629v-171h-219v-529h-198z" />
    <glyph glyph-name="tbar" unicode="&#x167;" horiz-adv-x="405" 
d="M25 185v131h351v-131h-351zM105 0v668h186v-668h-186zM17 375v158h367v-158h-367z" />
    <glyph glyph-name="Utilde" unicode="&#x168;" horiz-adv-x="777" 
d="M388 -6c-59.333 0 -112.167 11.833 -158.5 35.5s-82.666 56.167 -108.999 97.5s-39.5 88.666 -39.5 141.999v431h200v-422c0 -22 4.66699 -41.5 14 -58.5s22.166 -30.333 38.499 -40s34.5 -14.5 54.5 -14.5c22 0 41.333 4.83301 58 14.5s30 23 40 40s15 36.5 15 58.5v422
h194v-431c0 -53.333 -13.167 -100.666 -39.5 -141.999s-62.5 -73.833 -108.5 -97.5s-99 -35.5 -159 -35.5zM465.999 768c-12 0 -24.3311 1.83594 -36.998 5.50293s-27.334 9.16699 -44.001 16.5c-12.667 6 -23 10.5 -31 13.5s-15.333 4.5 -22 4.5
c-10 0 -17.667 -3.5 -23 -10.5s-8 -16.5 -8 -28.5h-110c0 47.333 12.167 84.833 36.5 112.5s56.833 41.5 97.5 41.5c10.667 0 21.5 -1.33301 32.5 -4s26.5 -8.66699 46.5 -18c11.333 -6 20.333 -10.333 27 -13s13 -4 19 -4c8.66699 0 15.167 3.66699 19.5 11
s6.16602 16.666 5.49902 27.999h109c0 -28.667 -4.83301 -54.834 -14.5 -78.501s-23.5 -42.334 -41.5 -56.001s-38.667 -20.5 -62 -20.5z" />
    <glyph glyph-name="utilde" unicode="&#x169;" horiz-adv-x="658" 
d="M250 -11c-40 0 -74.001 8.5 -102.001 25.5s-49.333 41.5 -64 73.5s-22 70.667 -22 116v329h186v-310c0 -17.333 3 -32 9 -44s14.333 -21.167 25 -27.5s23.667 -9.5 39 -9.5c12 0 22.833 1.66699 32.5 5s17.834 8.5 24.501 15.5s12 15 16 24s6 18.833 6 29.5v317h186v-533
h-172l-10 108l35 12c-7.33301 -24.667 -20.333 -47 -39 -67s-41 -35.667 -67 -47s-53.667 -17 -83 -17zM404.999 613c-10.667 0 -22.3311 1.66699 -34.998 5s-28 11 -46 23c-11.333 8.66699 -20.833 14.667 -28.5 18s-13.834 5 -18.501 5c-10 0 -18.667 -3.5 -26 -10.5
s-11.666 -17.833 -12.999 -32.5l-99 13c0 40 10.5 73.667 31.5 101s49.5 41 85.5 41c10.667 0 22.167 -1.5 34.5 -4.5s27.166 -10.167 44.499 -21.5c7.33301 -5.33301 15.166 -10.5 23.499 -15.5s16.833 -7.5 25.5 -7.5c9.33301 0 17.5 3.5 24.5 10.5
s11.167 17.833 12.5 32.5l98 -14c0 -24.667 -4.83301 -48 -14.5 -70s-23 -39.667 -40 -53s-36.833 -20 -59.5 -20z" />
    <glyph glyph-name="Umacron" unicode="&#x16a;" horiz-adv-x="777" 
d="M388 -6c-59.333 0 -112.167 11.833 -158.5 35.5s-82.666 56.167 -108.999 97.5s-39.5 88.666 -39.5 141.999v431h200v-422c0 -22 4.66699 -41.5 14 -58.5s22.166 -30.333 38.499 -40s34.5 -14.5 54.5 -14.5c22 0 41.333 4.83301 58 14.5s30 23 40 40s15 36.5 15 58.5v422
h194v-431c0 -53.333 -13.167 -100.666 -39.5 -141.999s-62.5 -73.833 -108.5 -97.5s-99 -35.5 -159 -35.5zM201.999 789v113h371v-113h-371z" />
    <glyph glyph-name="umacron" unicode="&#x16b;" horiz-adv-x="658" 
d="M250 -11c-40 0 -74.001 8.5 -102.001 25.5s-49.333 41.5 -64 73.5s-22 70.667 -22 116v329h186v-310c0 -17.333 3 -32 9 -44s14.333 -21.167 25 -27.5s23.667 -9.5 39 -9.5c12 0 22.833 1.66699 32.5 5s17.834 8.5 24.501 15.5s12 15 16 24s6 18.833 6 29.5v317h186v-533
h-172l-10 108l35 12c-7.33301 -24.667 -20.333 -47 -39 -67s-41 -35.667 -67 -47s-53.667 -17 -83 -17zM150.999 638v113h358v-113h-358z" />
    <glyph glyph-name="Ubreve" unicode="&#x16c;" horiz-adv-x="777" 
d="M388 -6c-59.333 0 -112.167 11.833 -158.5 35.5s-82.666 56.167 -108.999 97.5s-39.5 88.666 -39.5 141.999v431h200v-422c0 -22 4.66699 -41.5 14 -58.5s22.166 -30.333 38.499 -40s34.5 -14.5 54.5 -14.5c22 0 41.333 4.83301 58 14.5s30 23 40 40s15 36.5 15 58.5v422
h194v-431c0 -53.333 -13.167 -100.666 -39.5 -141.999s-62.5 -73.833 -108.5 -97.5s-99 -35.5 -159 -35.5zM387.999 760c-31.333 0 -60 6.5 -86 19.5s-47.667 31.5 -65 55.5s-29.333 52 -36 84l116 12c6 -17.333 15.5 -31.166 28.5 -41.499s27.167 -15.5 42.5 -15.5
s29.5 5.16699 42.5 15.5s22.5 24.166 28.5 41.499l116 -12c-6.66699 -32 -18.667 -60 -36 -84s-38.833 -42.5 -64.5 -55.5s-54.5 -19.5 -86.5 -19.5z" />
    <glyph glyph-name="ubreve" unicode="&#x16d;" horiz-adv-x="658" 
d="M250 -11c-40 0 -74.001 8.5 -102.001 25.5s-49.333 41.5 -64 73.5s-22 70.667 -22 116v329h186v-310c0 -17.333 3 -32 9 -44s14.333 -21.167 25 -27.5s23.667 -9.5 39 -9.5c12 0 22.833 1.66699 32.5 5s17.834 8.5 24.501 15.5s12 15 16 24s6 18.833 6 29.5v317h186v-533
h-172l-10 108l35 12c-7.33301 -24.667 -20.333 -47 -39 -67s-41 -35.667 -67 -47s-53.667 -17 -83 -17zM329.999 606c-47.333 0 -87.833 14.333 -121.5 43s-55.5 68.334 -65.5 119.001l116 12c6 -18.667 15.5 -33.334 28.5 -44.001s27.167 -16 42.5 -16
s29.5 5.33301 42.5 16s22.5 25.334 28.5 44.001l116 -12c-10 -50.667 -31.833 -90.334 -65.5 -119.001s-74.167 -43 -121.5 -43z" />
    <glyph glyph-name="Uring" unicode="&#x16e;" horiz-adv-x="777" 
d="M388 -6c-59.333 0 -112.167 11.833 -158.5 35.5s-82.666 56.167 -108.999 97.5s-39.5 88.666 -39.5 141.999v431h200v-422c0 -22 4.66699 -41.5 14 -58.5s22.166 -30.333 38.499 -40s34.5 -14.5 54.5 -14.5c22 0 41.333 4.83301 58 14.5s30 23 40 40s15 36.5 15 58.5v422
h194v-431c0 -53.333 -13.167 -100.666 -39.5 -141.999s-62.5 -73.833 -108.5 -97.5s-99 -35.5 -159 -35.5zM387.999 671c-25.333 0 -48.833 6 -70.5 18s-39.167 27.833 -52.5 47.5s-20 41.167 -20 64.5c0 25.333 6.5 48.5 19.5 69.5s30.333 37.833 52 50.5s45.5 19 71.5 19
c25.333 0 48.833 -6.33301 70.5 -19s39 -29.5 52 -50.5s19.5 -44.167 19.5 -69.5c0 -23.333 -6.5 -44.833 -19.5 -64.5s-30.333 -35.5 -52 -47.5s-45.167 -18 -70.5 -18zM387.999 763c10 0 18.667 3.66699 26 11s11 16.333 11 27c0 11.333 -3.66699 20.5 -11 27.5
s-16 10.5 -26 10.5s-18.833 -3.66699 -26.5 -11s-11.5 -16.333 -11.5 -27s3.83301 -19.667 11.5 -27s16.5 -11 26.5 -11z" />
    <glyph glyph-name="uring" unicode="&#x16f;" horiz-adv-x="658" 
d="M250 -11c-40 0 -74.001 8.5 -102.001 25.5s-49.333 41.5 -64 73.5s-22 70.667 -22 116v329h186v-310c0 -17.333 3 -32 9 -44s14.333 -21.167 25 -27.5s23.667 -9.5 39 -9.5c12 0 22.833 1.66699 32.5 5s17.834 8.5 24.501 15.5s12 15 16 24s6 18.833 6 29.5v317h186v-533
h-172l-10 108l35 12c-7.33301 -24.667 -20.333 -47 -39 -67s-41 -35.667 -67 -47s-53.667 -17 -83 -17zM328.999 604c-22 0 -42.5 5.5 -61.5 16.5s-34.5 25.5 -46.5 43.5s-18 38 -18 60c0 22.667 5.83301 43.334 17.5 62.001s27 33.5 46 44.5s39.833 16.5 62.5 16.5
c23.333 0 44.5 -5.5 63.5 -16.5s34.167 -25.833 45.5 -44.5s17 -39.334 17 -62.001c0 -22 -5.83301 -42 -17.5 -60s-27 -32.5 -46 -43.5s-39.833 -16.5 -62.5 -16.5zM328.999 693c9.33301 0 17 3 23 9s9 13.333 9 22c0 10 -3 18 -9 24s-13.667 9 -23 9s-17 -3 -23 -9
s-9 -13.667 -9 -23s3.16699 -17 9.5 -23s13.833 -9 22.5 -9z" />
    <glyph glyph-name="Uhungarumlaut" unicode="&#x170;" horiz-adv-x="777" 
d="M388 -6c-59.333 0 -112.167 11.833 -158.5 35.5s-82.666 56.167 -108.999 97.5s-39.5 88.666 -39.5 141.999v431h200v-422c0 -22 4.66699 -41.5 14 -58.5s22.166 -30.333 38.499 -40s34.5 -14.5 54.5 -14.5c22 0 41.333 4.83301 58 14.5s30 23 40 40s15 36.5 15 58.5v422
h194v-431c0 -53.333 -13.167 -100.666 -39.5 -141.999s-62.5 -73.833 -108.5 -97.5s-99 -35.5 -159 -35.5zM260.999 755l-57 79l159 146l80 -109zM492.999 752l-54 82l168 143l79 -114z" />
    <glyph glyph-name="uhungarumlaut" unicode="&#x171;" horiz-adv-x="658" 
d="M250 -11c-40 0 -74.001 8.5 -102.001 25.5s-49.333 41.5 -64 73.5s-22 70.667 -22 116v329h186v-310c0 -17.333 3 -32 9 -44s14.333 -21.167 25 -27.5s23.667 -9.5 39 -9.5c12 0 22.833 1.66699 32.5 5s17.834 8.5 24.501 15.5s12 15 16 24s6 18.833 6 29.5v317h186v-533
h-172l-10 108l35 12c-7.33301 -24.667 -20.333 -47 -39 -67s-41 -35.667 -67 -47s-53.667 -17 -83 -17zM383.999 582l-77 51l156 189l102 -93zM175.999 578l-82 46l141 199l108 -85z" />
    <glyph glyph-name="Uogonek" unicode="&#x172;" horiz-adv-x="777" 
d="M468 -217c-35.333 0 -64.166 10.833 -86.499 32.5s-33.5 49.167 -33.5 82.5c0 22.667 5.16699 43.5 15.5 62.5s24.666 36.5 42.999 52.5s39.666 31.167 63.999 45.5s51.166 28.5 80.499 42.5l33 -49c-14 -8 -27.833 -16.667 -41.5 -26s-26.167 -18.833 -37.5 -28.5
s-20.333 -20.167 -27 -31.5s-10 -23.333 -10 -36c0 -9.33301 2.5 -16.833 7.5 -22.5s11.167 -8.5 18.5 -8.5c6.66699 0 12.334 1.83301 17.001 5.5s9.33398 9.5 14.001 17.5l76 -56c-11.333 -21.333 -28.333 -40.5 -51 -57.5s-50 -25.5 -82 -25.5zM388 -6
c-59.333 0 -112.167 11.833 -158.5 35.5s-82.666 56.167 -108.999 97.5s-39.5 88.666 -39.5 141.999v431h200v-422c0 -22 4.66699 -41.5 14 -58.5s22.166 -30.333 38.499 -40s34.5 -14.5 54.5 -14.5c22 0 41.333 4.83301 58 14.5s30 23 40 40s15 36.5 15 58.5v422h194v-431
c0 -53.333 -13.167 -100.666 -39.5 -141.999s-62.5 -73.833 -108.5 -97.5s-99 -35.5 -159 -35.5z" />
    <glyph glyph-name="uogonek" unicode="&#x173;" horiz-adv-x="658" 
d="M250 -11c-40 0 -74.001 8.5 -102.001 25.5s-49.333 41.5 -64 73.5s-22 70.667 -22 116v329h186v-310c0 -17.333 3 -32 9 -44s14.333 -21.167 25 -27.5s23.667 -9.5 39 -9.5c12 0 22.833 1.66699 32.5 5s17.834 8.5 24.501 15.5s12 15 16 24s6 18.833 6 29.5v317h186v-533
h-172l-10 108l35 12c-7.33301 -24.667 -20.333 -47 -39 -67s-41 -35.667 -67 -47s-53.667 -17 -83 -17zM459.999 -216c-24 0 -45.498 5.17285 -64.498 15.5059s-34 24.166 -45 41.499s-16.5 36.666 -16.5 57.999c0 17.333 3.66699 33.333 11 48s18.166 28.167 32.499 40.5
s32.5 23.666 54.5 33.999s48 19.166 78 26.499l42 -48c-17.333 -4 -33.5 -9.83301 -48.5 -17.5s-27 -16.5 -36 -26.5s-13.5 -20.667 -13.5 -32c0 -7.33301 2.33301 -13.333 7 -18s10.667 -7 18 -7c6.66699 0 12.167 2 16.5 6s9.16602 10 14.499 18l76 -56
c-8 -12.667 -18.167 -25.334 -30.5 -38.001s-26.5 -23.334 -42.5 -32.001s-33.667 -13 -53 -13z" />
    <glyph glyph-name="Wcircumflex" unicode="&#x174;" horiz-adv-x="991" 
d="M199 0l-203.001 699.999h199l91 -336c4.66699 -19.333 8.83398 -38.166 12.501 -56.499s6.5 -35.333 8.5 -51s3.66699 -30.167 5 -43.5s2.33301 -24.333 3 -33h-19c2 20 3.83301 39.5 5.5 58.5s4.5 38.667 8.5 59s10 42.5 18 66.5l94 258h153l93 -258
c9.33301 -25.333 16.5 -48.5 21.5 -69.5s8.83301 -40.833 11.5 -59.5s4.66699 -36.667 6 -54l-17 -1c0.666992 10 1 20 1 30s0.333008 20.5 1 31.5s1.66699 22.833 3 35.5s3.33301 26.167 6 40.5s6 29.833 10 46.5l91 336h193l-204 -700h-154l-158 387h24l-142 -387h-162z
M359.999 752.999l-55 67l142 109h97l141 -109l-54 -67l-151 74h30z" />
    <glyph glyph-name="wcircumflex" unicode="&#x175;" horiz-adv-x="849" 
d="M181 0l-173 533h197l86 -323l-21 4l97 251h108l105 -251l-21 -3l85 322h197l-182 -533h-140l-101 262h7l-104 -262h-140zM284 598l-66 57l157 137h100l157 -137l-66 -57l-156 92h30z" />
    <glyph glyph-name="Ycircumflex" unicode="&#x176;" horiz-adv-x="702" 
d="M261 0v349l7 -49l-283 400h222l216 -310l-117 3l195 307h216l-271 -411l15 68v-357h-200zM216 753l-55 67l142 109h97l141 -109l-54 -67l-151 74h30z" />
    <glyph glyph-name="ycircumflex" unicode="&#x177;" horiz-adv-x="638" 
d="M128 -230l127.999 302l2 -82l-253 543h208l89 -212c7.33301 -16.667 13.833 -33.167 19.5 -49.5s9.83398 -31.833 12.501 -46.5l-21 -16c2.66699 8.66699 6.66699 20.667 12 36l18 53l81 235h209l-231 -533l-93 -230h-181zM177.999 598l-66 57l157 137h100l157 -137
l-66 -57l-156 92h30z" />
    <glyph glyph-name="Ydieresis" unicode="&#x178;" horiz-adv-x="702" 
d="M261 0v349l7 -49l-283 400h222l216 -310l-117 3l195 307h216l-271 -411l15 68v-357h-200zM480 752c-30 0 -53.167 8.16699 -69.5 24.5s-24.5 39.5 -24.5 69.5c0 26.667 8.33301 49 25 67s39.667 27 69 27c30.667 0 54.167 -8.16699 70.5 -24.5s24.5 -39.5 24.5 -69.5
c0 -27.333 -8.33301 -49.833 -25 -67.5s-40 -26.5 -70 -26.5zM220 752c-30 0 -53.167 8.16699 -69.5 24.5s-24.5 39.5 -24.5 69.5c0 26.667 8.33301 49 25 67s39.667 27 69 27c30.667 0 54.167 -8.16699 70.5 -24.5s24.5 -39.5 24.5 -69.5
c0 -27.333 -8.33301 -49.833 -25 -67.5s-40 -26.5 -70 -26.5z" />
    <glyph glyph-name="Zacute" unicode="&#x179;" horiz-adv-x="694" 
d="M60 0v129l366 484l79 -92h-419v179h538v-128l-364 -485l-80 82h455v-169h-575zM250 744l-40 94l220 115l58 -129z" />
    <glyph glyph-name="zacute" unicode="&#x17a;" horiz-adv-x="580" 
d="M50 0v94l288 362v-71h-288v148h466v-100l-267 -349l-4 64h281v-148h-476zM208 581l-54 82l195 149l77 -114z" />
    <glyph glyph-name="Zdotaccent" unicode="&#x17b;" horiz-adv-x="694" 
d="M60 0v129l366 484l79 -92h-419v179h538v-128l-364 -485l-80 82h455v-169h-575zM347 755c-34 0 -60.333 7.83398 -79 23.501s-28 38.167 -28 67.5c0 26 9.5 47.5 28.5 64.5s45.167 25.5 78.5 25.5c34 0 60.333 -7.83301 79 -23.5s28 -37.834 28 -66.501
c0 -26.667 -9.5 -48.5 -28.5 -65.5s-45.167 -25.5 -78.5 -25.5z" />
    <glyph glyph-name="zdotaccent" unicode="&#x17c;" horiz-adv-x="580" 
d="M50 0v94l288 362v-71h-288v148h466v-100l-267 -349l-4 64h281v-148h-476zM290 633c-33.333 0 -59.5 8 -78.5 24s-28.5 38.333 -28.5 67c0 26.667 9.66699 48.5 29 65.5s45.333 25.5 78 25.5c33.333 0 59.5 -8 78.5 -24s28.5 -38.333 28.5 -67
c0 -26.667 -9.66699 -48.5 -29 -65.5s-45.333 -25.5 -78 -25.5z" />
    <glyph glyph-name="Zcaron" unicode="&#x17d;" horiz-adv-x="694" 
d="M60 0v129l366 484l79 -92h-419v179h538v-128l-364 -485l-80 82h455v-169h-575zM297 754l-140 109l54 67l151 -74h-30l151 74l54 -67l-140 -109h-100z" />
    <glyph glyph-name="zcaron" unicode="&#x17e;" horiz-adv-x="580" 
d="M50 0v94l288 362v-71h-288v148h466v-100l-267 -349l-4 64h281v-148h-476zM240 606l-155 137l66 57l154 -92h-30l154 92l66 -57l-155 -137h-100z" />
    <glyph glyph-name="uni018F" unicode="&#x18f;" horiz-adv-x="767" 
d="M383 -10c-45.333 0 -88.1631 8 -128.496 24s-76 38.667 -107 68s-56 63.666 -75 102.999s-29.5 82 -31.5 128v108h638l9 -154h-434c5.33301 -15.333 12.666 -28.833 21.999 -40.5s19.666 -21.5 30.999 -29.5s23.666 -14 36.999 -18s26.333 -6 39 -6
c21.333 0 40.5 3.66699 57.5 11s31.833 18.5 44.5 33.5s22.5 33.5 29.5 55.5s10.5 48 10.5 78c0 26.667 -3.83301 50.834 -11.5 72.501s-18.667 40.334 -33 56.001s-31.333 27.5 -51 35.5s-41.5 12 -65.5 12c-25.333 0 -48 -2.16699 -68 -6.5s-39.333 -11 -58 -20
s-38.334 -21.167 -59.001 -36.5l-75 154c30.667 22 59.5 39.667 86.5 53s55.667 23.166 86 29.499s64.833 9.5 103.5 9.5c47.333 0 91.833 -9.33301 133.5 -28s78.334 -44.5 110.001 -77.5s56.5 -71.167 74.5 -114.5s27 -90 27 -140s-8.83301 -96.667 -26.5 -140
s-42.334 -81.5 -74.001 -114.5s-68 -58.833 -109 -77.5s-85.167 -28 -132.5 -28z" />
    <glyph glyph-name="florin" unicode="&#x192;" horiz-adv-x="574" 
d="M118 -31c-24 0 -46.499 2.49902 -67.499 7.49902s-40.5 13.167 -58.5 24.5l65 153c10.667 -5.33301 20.167 -9.16602 28.5 -11.499s18.166 -3.5 29.499 -3.5c9.33301 0 17.333 2.83301 24 8.5s12.334 14 17.001 25s8.66699 24.833 12 41.5l50 301
c10.667 64.667 35.167 112.167 73.5 142.5s88.833 45.5 151.5 45.5c26 0 50 -3.16699 72 -9.5s43.667 -16.166 65 -29.499l-65 -153c-10.667 8.66699 -20.334 14.5 -29.001 17.5s-18 4.5 -28 4.5c-16.667 0 -29 -5.33301 -37 -16s-13.667 -24.334 -17 -41.001l-52 -305
c-12 -69.333 -38 -120.333 -78 -153s-92 -49 -156 -49zM93.001 286.999v150l394 -1v-150z" />
    </font>
</defs>
</svg>
